<svg id="a3b3a639-9800-46cf-860b-cf6e523e7b6e" data-name="Logo" xmlns="http://www.w3.org/2000/svg" viewBox="0 0 1594 1594"><title>Misacorp Visuals Logo 03</title><g id="76769ee6-6d2e-4ef9-960b-06c69a283e2a" data-name="Background Circle"><circle cx="797" cy="797" r="797" fill="#ffd220"/></g><path id="2c70bc73-2694-485a-bf49-e0eb9ff7dff2" data-name="Shadow" d="M1569.64,1011.41,1217.81,659.59a86.59,86.59,0,0,0-120.61-2.95L881,440.47c-15.38-15.75-34.89-24.65-59.88-24.65-55.62,0-91.14,68.91-113.15,141.69L590.63,440.14c-14.78-15.16-32-24.31-52.15-24.31-89.31,0-118.78,108.65-149.16,550.62-2,29.29,6,52.36,20.95,66.82.38.39,547.91,547.94,548.16,548.19C1254.07,1522.21,1490.61,1299.4,1569.64,1011.41Z" transform="translate(-4 -3)" fill="#f0c108"/><g id="6e218e5d-3859-47a1-af09-7bd53d713fc0" data-name="Misacorp Visuals"><path d="M538.48,415.82c-89.31,0-118.78,108.65-149.16,550.62-3.54,51.48,23.94,83.79,65.37,83.79s64.45-41.43,65.38-82.87,1.84-78.26,22.1-257.82c12,116.94,48.8,267,138.12,267,91.15,0,113.25-150.08,133.51-267,23.94,241.24,35.91,562.59,209,562.59,102.2,0,162.05-235.72,174.94-325.95,9.65-67.59-25.78-88.39-56.17-88.39s-61.31,10.67-70.9,78.26c-18.41,129.83-33.15,150.08-56.17,177.71-32.23,0-41.43-108.65-60.77-296.49S943.61,415.82,821.15,415.82c-117.85,0-145.48,309.38-145.48,309.38S655.42,415.82,538.48,415.82Z" transform="translate(-4 -3)" fill="#fff"/><circle cx="1151.99" cy="717.26" r="86.64" fill="#fff"/></g></svg>