<?xml version="1.0" encoding="iso-8859-1"?>
<!-- Generator: Adobe Illustrator 21.1.0, SVG Export Plug-In . SVG Version: 6.00 Build 0)  -->
<svg version="1.1" xmlns="http://www.w3.org/2000/svg" xmlns:xlink="http://www.w3.org/1999/xlink" x="0px" y="0px"
	 viewBox="0 0 2560 900" style="enable-background:new 0 0 2560 900;" xml:space="preserve">
<g id="_x30_1">
	<path style="fill:#565656;" d="M0.5,736H117l50-32l24-117v115l33,34h105l60-19l26-130l7,130l36,19l147,49l91,7l20-140l5,140h27
		l14.595-89.687L770,799l64,10l78-17l15-109l16,109l29,8l10-64l14,79l44,20l14-80l13,80c0,0,113-2,116,0s146-34,146-34l21-65l5,68
		l26.997,16.935L1434,809l28-92v85l43,19l84,5l48-26l13-123l11,120l32,29l74,5l47-22l13-145l17,145l31,12l14-91l10,91l43-16l14-101
		l7,99l80,6l49-23l20-122l12,122c0,0,39,16,42,16s141-5,141-5l35-139l18,134l66-20l43-27l22-147v143l69,14.5V900H0L0.5,736z"/>
	<polyline style="fill:#565656;" points="1,0 2560,0 2560.5,219.931 2426,236 2396,404 2395,233 2227,236 2218,392 2203,236 
		2048,290 2045,396 2023,290 1817,276 1658,244 1645,426 1634,249 1592,244 1571,408 1551,287 1441,264 1284,269 1273,389 1258,269 
		1109,290 1096,394 1076,295 982,298 961,416 939,298 717,302 704,440 679,302 594,296 431,277 425,430 390,270 378,364 342,270 
		218,244 139,267 108,408 97,273 -0.333,271.667 0,0 	"/>
</g>
<g id="Layer_1">
</g>
</svg>
