<svg xmlns="http://www.w3.org/2000/svg" viewBox="0 0 2560.5 900"><defs><style>.cls-1{fill:#333;}.cls-2{fill:#3a3a3a;}.cls-3{fill:#565656;}.cls-4{fill:#4c4c4c;}.cls-5{fill:#3d3d3d;}</style></defs><title>Asset 4</title><g id="Layer_2" data-name="Layer 2"><g id="_04" data-name="04"><polygon class="cls-1" points="0.5 192.14 224.5 179.94 503.5 205.7 930.5 210.44 1343.5 185.36 1740.5 219.93 2136.5 212.47 2478.5 191.46 2560.5 200.27 2560.5 0 0.5 0 0.5 192.14"/><polygon class="cls-2" points="251.5 291.11 224.5 179.94 0.5 192.14 0.5 307.38 251.5 291.11"/><polygon class="cls-3" points="497.39 205.13 475 348 251.5 291.11 224.5 179.94 497.39 205.13"/><polygon class="cls-4" points="928 348 927.5 210.44 497.5 205.02 474 348 928 348"/><polygon class="cls-2" points="1342 315.17 1342 185.02 927 210.1 928 348 1342 315.17"/><polygon class="cls-4" points="1731 367 1740 219.59 1342 185.02 1342 315.17 1731 367"/><polygon class="cls-2" points="2153 347.71 2136 212.13 1740 219.59 1731 367 2153 347.71"/><polygon class="cls-1" points="2456 287.38 2478 191.12 2136 212.13 2153 347.71 2456 287.38"/><polygon class="cls-4" points="2560 307.04 2456 287.38 2478 191.12 2560 199.93 2560 307.04"/><path class="cls-5" d="M2560,0H1L0,94.61,115,74.17v53.53c0,21.69,92,19.66,92,0v-55L361,95,571,53.82v61.88c0,21.69,92,19.66,92,0V53.21L868,89l243-51.16v62.86c0,21.69,92,19.66,92,0V38.51L1421,80l198-41v61.75c0,21.69,92,19.66,92,0V43.89L1862,95l154-38.89v59.59c0,21.69,92,19.66,92,0V60.6L2260,110l156-61.94v52.65c0,21.69,92,19.66,92,0V42.57l52,16Z"/><polygon class="cls-5" points="0.5 702.31 224.5 768.09 437 809 632 803 860 755 1108 826 1381 857 1544 798 1760 743 1958 801 2129 809 2299 736 2560.5 664.5 2560 900 0 900 0.5 702.31"/></g></g></svg>