<?xml version="1.0" encoding="iso-8859-1"?>
<!-- Generator: Adobe Illustrator 21.1.0, SVG Export Plug-In . SVG Version: 6.00 Build 0)  -->
<svg version="1.1" xmlns="http://www.w3.org/2000/svg" xmlns:xlink="http://www.w3.org/1999/xlink" x="0px" y="0px"
	 viewBox="0 0 2560 900" style="enable-background:new 0 0 2560 900;" xml:space="preserve">
<g id="_x30_2">
	<polygon style="fill:#595045;" points="0,803 373,745 791,774 1280,719 1671,761 2169.148,761 2560.5,719 2560,900 0,900 	"/>
	<polygon style="fill:#5E4738;" points="965.048,754.424 1280,719 1551.201,748.132 1444,818 1275,826 1054,800 	"/>
	<polygon style="fill:#917347;" points="1280,719 1450.291,737.292 1384,776 1280,792 1154,780 1082,741 	"/>
	<polygon style="fill:#4C310D;" points="1315,727 1294.055,718.835 1309,714 1303,707 1293.309,709.505 1296,707 1278,704 
		1271.829,710.171 1256,704 1244,714 1256.533,719.013 1234.667,724.667 1241,736 1257.58,730.636 1267,734 1275.114,726.446 
		1299,736 	"/>
	<polygon style="fill:#FFC050;" points="1253.333,722 1226,700 1224,668 1253,645 1286,607 1294,638 1318,658 1329,702 
		1299.659,720.02 	"/>
	<polygon style="fill:#FF8B2C;" points="1276,652 1289,675 1294,697 1285.5,720.625 1264.667,722 1252,703 1255,681 	"/>
	<polygon style="fill:#FF4C06;" points="1273,683 1265,699 1270.331,721.626 1280.25,720.971 1284,697 	"/>
	<polyline style="fill:#4C310D;" points="1290.055,723.835 1305,719 1299,712 1289.309,714.505 1292,712 1274,709 1267.829,715.171 
		1252,709 1240,719 1252.533,724.013 	"/>
</g>
<g id="Layer_1">
</g>
</svg>
