<?xml version="1.0" encoding="iso-8859-1"?>
<!-- Generator: Adobe Illustrator 21.1.0, SVG Export Plug-In . SVG Version: 6.00 Build 0)  -->
<svg version="1.1" xmlns="http://www.w3.org/2000/svg" xmlns:xlink="http://www.w3.org/1999/xlink" x="0px" y="0px"
	 viewBox="0 0 2560 1440" style="enable-background:new 0 0 2560 1440;" xml:space="preserve">
<g id="Background">
	<g id="Sky">
	</g>
	<g id="High_Clouds">
	</g>
	<g id="Sky_clouds_Back">
		<g id="Cloud_Left">
		</g>
		<g id="Cloud_Left_copy">
		</g>
		<g id="Cloud_Right">
		</g>
	</g>
	<g id="Layer_19_copy_3">
		<g>
			<rect x="2559" y="876" style="fill:none;" width="1" height="3"/>
			<rect x="2559" y="850" style="fill:none;" width="1" height="4.5"/>
			<rect x="2559" y="866.5" style="fill:none;" width="1" height="3.5"/>
			<rect x="2559" style="fill:none;" width="1" height="827"/>
			<rect x="2559" y="882" style="fill:none;" width="1" height="558"/>
			<polygon style="fill:#EFE7CE;" points="474.897,0 0,309.523 0,323.204 499.768,0 			"/>
			<polygon style="fill:#EFE7CE;" points="398.334,0 0,259.622 0,288.102 445.491,0 			"/>
			<rect y="882" style="fill:#EFE7CE;" width="2559" height="558"/>
			<polygon style="fill:#EFE7CE;" points="0,0 0,238.347 368.556,0 			"/>
			<path style="fill:#EFE7CE;" d="M2559,850H40v-23h2519V0H609.803L0,397.451V854.5h2559V850z M1883.908,634.514
				c-0.248-1.551-0.38-3.141-0.38-4.762c0-16.559,13.424-29.983,29.983-29.983c9.426,0,17.831,4.353,23.327,11.154
				c5.375-7.141,13.869-11.795,23.457-11.956c0.112-19.33,15.812-34.966,35.167-34.966c9.024,0,17.249,3.404,23.473,8.992
				c0.038,0.034,0.076,0.066,0.114,0.1c0.574,0.52,1.128,1.06,1.666,1.616c0.056,0.058,0.113,0.114,0.168,0.172
				c0.521,0.545,1.022,1.108,1.508,1.686c0.064,0.076,0.128,0.151,0.191,0.228c0.474,0.574,0.929,1.163,1.366,1.766
				c0.062,0.086,0.124,0.172,0.185,0.258c0.431,0.606,0.844,1.225,1.236,1.859c0.055,0.088,0.107,0.177,0.161,0.266
				c0.39,0.643,0.763,1.297,1.113,1.966c0.041,0.079,0.08,0.16,0.121,0.24c0.353,0.688,0.687,1.386,0.995,2.1
				c0.023,0.054,0.044,0.109,0.067,0.162c0.318,0.746,0.614,1.504,0.881,2.275c3.633-1.753,7.708-2.736,12.013-2.736
				c15.286,0,27.677,12.391,27.677,27.677c0,1.417-0.108,2.81-0.313,4.17c4.036-2.022,8.587-3.166,13.408-3.166
				c16.559,0,29.983,13.424,29.983,29.983c0,1.424-0.11,2.822-0.302,4.194c6.453,2.191,13.955,8.974,13.955,16.192h-267.169
				C1859.647,649.626,1870.144,637.948,1883.908,634.514z M658.807,728.585c-0.135-0.96-0.212-1.939-0.212-2.936
				c0-11.591,9.397-20.988,20.988-20.988c3.375,0,6.561,0.801,9.386,2.216c-0.144-0.952-0.219-1.927-0.219-2.919
				c0-10.7,8.674-19.374,19.374-19.374c3.013,0,5.866,0.688,8.409,1.915c0.202-0.586,0.428-1.16,0.672-1.725
				c0.083-0.192,0.18-0.377,0.268-0.566c0.17-0.367,0.339-0.735,0.526-1.092c0.117-0.223,0.247-0.437,0.371-0.655
				c0.177-0.313,0.351-0.627,0.541-0.931c0.143-0.229,0.297-0.449,0.447-0.672c0.189-0.281,0.376-0.563,0.575-0.836
				c0.165-0.226,0.341-0.444,0.513-0.664c0.202-0.257,0.403-0.514,0.615-0.763c0.186-0.218,0.379-0.429,0.572-0.64
				c0.215-0.236,0.431-0.471,0.655-0.698c0.204-0.207,0.415-0.407,0.626-0.607c0.229-0.216,0.46-0.43,0.697-0.638
				c0.22-0.193,0.445-0.38,0.672-0.565c0.13-0.105,0.252-0.219,0.383-0.322c0.014-0.004,0.028-0.007,0.042-0.011
				c4.169-3.247,9.399-5.194,15.094-5.194c13.549,0,24.539,10.945,24.617,24.476c6.712,0.113,12.657,3.371,16.42,8.369
				c3.848-4.761,9.731-7.808,16.329-7.808c11.591,0,20.988,9.397,20.988,20.988c0,1.135-0.093,2.248-0.266,3.333
				c9.635,2.404,16.983,10.578,18.165,20.64H649.039C649.039,734.867,654.29,730.119,658.807,728.585z M291.601,320.143
				c-0.236-1.682-0.371-3.396-0.371-5.143c0-20.307,16.462-36.77,36.77-36.77c5.912,0,11.494,1.404,16.443,3.883
				c-0.252-1.668-0.384-3.375-0.384-5.113c0-18.745,15.196-33.941,33.941-33.941c5.279,0,10.276,1.206,14.732,3.356
				c0.327-0.946,0.69-1.875,1.08-2.789c0.028-0.067,0.054-0.134,0.083-0.201c0.377-0.874,0.787-1.731,1.219-2.574
				c0.05-0.098,0.098-0.197,0.149-0.295c0.428-0.82,0.885-1.622,1.364-2.41c0.066-0.109,0.132-0.219,0.199-0.328
				c0.481-0.777,0.987-1.536,1.515-2.278c0.075-0.106,0.151-0.212,0.227-0.317c0.536-0.74,1.095-1.463,1.676-2.167
				c0.077-0.093,0.155-0.185,0.233-0.278c0.595-0.709,1.211-1.399,1.849-2.068c0.068-0.071,0.138-0.141,0.207-0.212
				c0.66-0.682,1.34-1.345,2.044-1.982c0.045-0.041,0.092-0.08,0.137-0.12c0.736-0.661,1.491-1.299,2.272-1.909l0,0
				c7.313-5.714,16.515-9.12,26.516-9.12c23.737,0,42.99,19.175,43.127,42.88c11.758,0.197,22.174,5.905,28.766,14.663
				c6.741-8.34,17.048-13.678,28.607-13.678c20.307,0,36.77,16.462,36.77,36.77c0,1.988-0.163,3.937-0.467,5.84
				c16.88,4.212,29.753,18.532,31.824,36.16H274.488C274.488,331.148,283.687,322.83,291.601,320.143z"/>
			<rect y="876" style="fill:#EFE7CE;" width="2559" height="3"/>
			<rect y="866.5" style="fill:#EFE7CE;" width="2559" height="3.5"/>
			<polygon style="fill:#FFF9E9;" points="499.768,0 0,323.204 0,397.451 609.803,0 			"/>
			<polygon style="fill:#FFF9E9;" points="445.491,0 0,288.102 0,309.523 474.897,0 			"/>
			<polygon style="fill:#FFF9E9;" points="368.556,0 0,238.347 0,259.622 398.334,0 			"/>
			<rect y="854.5" style="fill:#E0D6BD;" width="2560" height="12"/>
			<rect y="870" style="fill:#DBD1B9;" width="2560" height="6"/>
			<rect y="879" style="fill:#DBD1B9;" width="2560" height="3"/>
			<rect x="40" y="827" style="fill:#E5DCC3;" width="2520" height="23"/>
			<path style="fill:#FFF9E9;" d="M396.825,237.818c0.481-0.776,0.987-1.536,1.515-2.278
				C397.812,236.282,397.306,237.041,396.825,237.818z"/>
			<path style="fill:#FFF9E9;" d="M398.567,235.222c0.536-0.74,1.095-1.463,1.676-2.167
				C399.662,233.759,399.103,234.482,398.567,235.222z"/>
			<path style="fill:#FFF9E9;" d="M402.532,230.498c0.66-0.682,1.34-1.345,2.044-1.982
				C403.872,229.153,403.192,229.816,402.532,230.498z"/>
			<path style="fill:#FFF9E9;" d="M400.476,232.778c0.595-0.709,1.211-1.4,1.849-2.068
				C401.686,231.379,401.071,232.069,400.476,232.778z"/>
			<path style="fill:#FFF9E9;" d="M395.263,240.556c0.428-0.82,0.885-1.622,1.364-2.41
				C396.148,238.934,395.691,239.736,395.263,240.556z"/>
			<path style="fill:#FFF9E9;" d="M404.713,228.395c0.736-0.661,1.492-1.299,2.272-1.909
				C406.204,227.096,405.448,227.735,404.713,228.395z"/>
			<path style="fill:#FFF9E9;" d="M467.639,269.793c1.74-0.317,3.53-0.492,5.361-0.492c13.792,0,25.385,9.402,28.726,22.146
				c4.323-11.988,15.796-20.56,29.274-20.56c17.183,0,31.113,13.93,31.113,31.113c0,3.048-0.446,5.991-1.263,8.775
				c15.069,2.999,27.08,14.463,30.882,29.225h10.396c-2.071-17.628-14.944-31.948-31.824-36.16c0.304-1.903,0.467-3.852,0.467-5.84
				c0-20.307-16.462-36.77-36.77-36.77c-11.559,0-21.866,5.338-28.607,13.678c-6.592-8.757-17.008-14.465-28.766-14.663
				c-0.137-23.705-19.39-42.88-43.127-42.88c-10.001,0-19.203,3.406-26.516,9.12c4.424-1.394,9.13-2.155,14.016-2.155
				C446.37,224.331,466.997,244.578,467.639,269.793z"/>
			<path style="fill:#FFF9E9;" d="M393.894,243.424c0.377-0.874,0.787-1.731,1.219-2.574
				C394.681,241.694,394.271,242.55,393.894,243.424z"/>
			<path style="fill:#FFF9E9;" d="M392.732,246.414c0.327-0.946,0.69-1.875,1.08-2.789
				C393.422,244.54,393.058,245.468,392.732,246.414z"/>
			<path style="fill:#FFF3D2;" d="M581.422,340h10.309c-3.802-14.762-15.813-26.226-30.882-29.225
				c0.817-2.784,1.263-5.727,1.263-8.775c0-17.183-13.93-31.113-31.113-31.113c-13.478,0-24.951,8.572-29.274,20.56
				c-3.342-12.743-14.935-22.146-28.726-22.146c-1.832,0-3.621,0.174-5.361,0.492c-0.642-25.215-21.269-45.463-46.639-45.463
				c-4.886,0-9.591,0.761-14.016,2.155l0,0c-0.78,0.609-1.536,1.248-2.272,1.909c-0.045,0.041-0.092,0.08-0.137,0.12
				c-0.704,0.637-1.384,1.3-2.044,1.982c-0.069,0.071-0.138,0.14-0.207,0.212c-0.639,0.669-1.254,1.36-1.849,2.068
				c-0.078,0.093-0.156,0.184-0.233,0.278c-0.581,0.704-1.14,1.427-1.676,2.167c-0.076,0.105-0.152,0.211-0.227,0.317
				c-0.528,0.743-1.034,1.502-1.515,2.278c-0.067,0.109-0.132,0.219-0.199,0.328c-0.478,0.788-0.935,1.59-1.364,2.41
				c-0.051,0.098-0.099,0.197-0.149,0.295c-0.432,0.843-0.842,1.7-1.219,2.574c-0.029,0.066-0.054,0.134-0.083,0.201
				c-0.389,0.915-0.753,1.843-1.08,2.789c-4.456-2.15-9.453-3.356-14.732-3.356c-18.745,0-33.941,15.196-33.941,33.941
				c0,1.738,0.132,3.445,0.384,5.113c-4.949-2.479-10.531-3.883-16.443-3.883c-20.307,0-36.77,16.462-36.77,36.77
				c0,1.747,0.135,3.461,0.371,5.143c0.132-0.045,0.267-0.101,0.399-0.143L581.422,340z"/>
			<path style="fill:#DBCCA7;" d="M292,320c-0.132,0.042-0.266,0.098-0.399,0.143c-7.914,2.687-17.113,11.005-17.113,19.857h306.934
				L292,320z"/>
			<path style="fill:#FFF9E9;" d="M759.29,699.846c0.993-0.181,2.015-0.281,3.06-0.281c7.872,0,14.49,5.367,16.397,12.641
				c2.467-6.843,9.016-11.736,16.71-11.736c9.808,0,17.759,7.951,17.759,17.759c0,1.74-0.255,3.42-0.721,5.009
				c8.601,1.712,15.458,8.255,17.628,16.682h5.934c-1.182-10.062-8.53-18.236-18.165-20.64c0.173-1.086,0.266-2.199,0.266-3.333
				c0-11.591-9.397-20.988-20.988-20.988c-6.598,0-12.482,3.047-16.329,7.808c-3.763-4.999-9.708-8.257-16.42-8.369
				c-0.078-13.531-11.068-24.476-24.617-24.476c-5.694,0-10.924,1.948-15.094,5.194c2.514-0.788,5.185-1.219,7.958-1.219
				C747.15,673.895,758.924,685.453,759.29,699.846z"/>
			<path style="fill:#FFF9E9;" d="M717.205,684.775c0.083-0.192,0.18-0.377,0.268-0.566
				C717.386,684.399,717.288,684.583,717.205,684.775z"/>
			<path style="fill:#FFF9E9;" d="M719.933,680.022c0.165-0.226,0.341-0.444,0.513-0.664
				C720.274,679.578,720.099,679.796,719.933,680.022z"/>
			<path style="fill:#FFF9E9;" d="M721.061,678.596c0.186-0.218,0.379-0.429,0.572-0.64
				C721.441,678.167,721.247,678.378,721.061,678.596z"/>
			<path style="fill:#FFF9E9;" d="M718,683.117c0.117-0.223,0.247-0.437,0.371-0.655C718.247,682.681,718.117,682.894,718,683.117z"
				/>
			<path style="fill:#FFF9E9;" d="M723.613,676.013c0.22-0.193,0.445-0.38,0.672-0.565
				C724.058,675.633,723.833,675.82,723.613,676.013z"/>
			<path style="fill:#FFF9E9;" d="M722.289,677.258c0.204-0.207,0.415-0.407,0.626-0.607
				C722.704,676.851,722.494,677.051,722.289,677.258z"/>
			<path style="fill:#FFF9E9;" d="M718.911,681.531c0.143-0.229,0.297-0.449,0.447-0.672
				C719.208,681.082,719.054,681.302,718.911,681.531z"/>
			<path style="fill:#FFF3D2;" d="M824.238,739.92h5.885c-2.17-8.426-9.026-14.97-17.628-16.682
				c0.466-1.589,0.721-3.269,0.721-5.009c0-9.808-7.951-17.759-17.759-17.759c-7.693,0-14.242,4.893-16.71,11.736
				c-1.907-7.274-8.525-12.641-16.397-12.641c-1.045,0-2.067,0.1-3.06,0.281c-0.366-14.393-12.14-25.95-26.622-25.95
				c-2.774,0-5.445,0.431-7.958,1.219c-0.014,0.004-0.028,0.007-0.042,0.011c-0.132,0.103-0.254,0.217-0.383,0.322
				c-0.227,0.185-0.452,0.372-0.672,0.565c-0.237,0.208-0.468,0.422-0.697,0.638c-0.211,0.2-0.422,0.4-0.626,0.607
				c-0.224,0.227-0.44,0.462-0.655,0.698c-0.193,0.211-0.387,0.422-0.572,0.64c-0.212,0.249-0.413,0.505-0.615,0.763
				c-0.173,0.22-0.348,0.438-0.513,0.664c-0.2,0.273-0.387,0.555-0.575,0.836c-0.15,0.224-0.304,0.444-0.447,0.672
				c-0.19,0.304-0.364,0.618-0.541,0.931c-0.123,0.219-0.254,0.433-0.371,0.655c-0.187,0.357-0.356,0.725-0.526,1.092
				c-0.088,0.19-0.185,0.374-0.268,0.566c-0.244,0.565-0.47,1.139-0.672,1.725c-2.543-1.227-5.396-1.915-8.409-1.915
				c-10.7,0-19.374,8.674-19.374,19.374c0,0.992,0.075,1.967,0.219,2.919c-2.825-1.415-6.011-2.216-9.386-2.216
				c-11.591,0-20.988,9.397-20.988,20.988c0,0.997,0.077,1.976,0.212,2.936c0.076-0.026,0.152-0.058,0.228-0.082L824.238,739.92z"/>
			<path style="fill:#DBCCA7;" d="M659.035,728.504c-0.075,0.024-0.152,0.056-0.228,0.082c-4.517,1.534-9.768,6.282-9.768,11.334
				h175.2L659.035,728.504z"/>
			<path style="fill:#FFF9E9;" d="M2025.531,580.943c0.391,0.643,0.763,1.298,1.113,1.966
				C2026.294,582.241,2025.921,581.586,2025.531,580.943z"/>
			<path style="fill:#FFF9E9;" d="M2024.133,578.819c0.431,0.606,0.844,1.225,1.236,1.859
				C2024.977,580.044,2024.564,579.425,2024.133,578.819z"/>
			<path style="fill:#FFF9E9;" d="M2022.582,576.794c0.474,0.574,0.929,1.163,1.366,1.766
				C2023.511,577.957,2023.056,577.368,2022.582,576.794z"/>
			<path style="fill:#FFF9E9;" d="M2020.884,574.88c0.521,0.545,1.022,1.108,1.508,1.686
				C2021.906,575.989,2021.405,575.426,2020.884,574.88z"/>
			<path style="fill:#FFF9E9;" d="M2027.826,585.411c0.318,0.746,0.614,1.504,0.881,2.275
				C2028.44,586.915,2028.144,586.158,2027.826,585.411z"/>
			<path style="fill:#FFF9E9;" d="M2026.764,583.149c0.353,0.688,0.687,1.387,0.995,2.1
				C2027.451,584.536,2027.117,583.837,2026.764,583.149z"/>
			<path style="fill:#FFF9E9;" d="M1891.617,640.169c-0.666-2.27-1.03-4.67-1.03-7.155c0-14.012,11.359-25.371,25.37-25.371
				c10.99,0,20.346,6.99,23.871,16.765c2.725-10.391,12.178-18.058,23.424-18.058c1.494,0,2.953,0.142,4.372,0.401
				c0.523-20.561,17.343-37.072,38.031-37.072c3.984,0,7.821,0.621,11.429,1.758c0.636,0.497,1.251,1.017,1.851,1.555
				c-6.224-5.588-14.448-8.992-23.473-8.992c-19.356,0-35.056,15.636-35.167,34.966c-9.588,0.161-18.081,4.815-23.457,11.956
				c-5.497-6.801-13.902-11.154-23.327-11.154c-16.559,0-29.983,13.424-29.983,29.983c0,1.621,0.133,3.211,0.38,4.762
				c-13.765,3.435-24.262,15.112-25.95,29.486h8.477C1869.535,651.962,1879.33,642.614,1891.617,640.169z"/>
			<path style="fill:#FFF9E9;" d="M2019.049,573.092c0.574,0.52,1.128,1.06,1.666,1.616
				C2020.177,574.152,2019.623,573.612,2019.049,573.092z"/>
			<path style="fill:#FFF3D2;" d="M2005.656,569.679c-20.688,0-37.507,16.51-38.031,37.072c-1.419-0.259-2.878-0.401-4.372-0.401
				c-11.246,0-20.699,7.667-23.424,18.058c-3.525-9.776-12.88-16.765-23.871-16.765c-14.012,0-25.37,11.359-25.37,25.371
				c0,2.486,0.364,4.885,1.03,7.155c-12.288,2.445-22.082,11.794-25.182,23.831h8.406l236.006-16.309
				c0.107,0.034,0.217,0.08,0.325,0.117c0.192-1.372,0.302-2.769,0.302-4.194c0-16.559-13.424-29.983-29.983-29.983
				c-4.821,0-9.372,1.144-13.408,3.166c0.205-1.36,0.313-2.752,0.313-4.17c0-15.286-12.391-27.677-27.677-27.677
				c-4.305,0-8.379,0.983-12.013,2.736c-0.267-0.772-0.563-1.529-0.881-2.275c-0.023-0.054-0.044-0.109-0.067-0.162
				c-0.308-0.713-0.642-1.412-0.995-2.1c-0.041-0.08-0.08-0.16-0.121-0.24c-0.349-0.669-0.722-1.324-1.113-1.966
				c-0.054-0.089-0.106-0.178-0.161-0.266c-0.392-0.634-0.805-1.253-1.236-1.859c-0.061-0.086-0.123-0.172-0.185-0.258
				c-0.437-0.603-0.892-1.193-1.366-1.766c-0.063-0.076-0.127-0.152-0.191-0.228c-0.485-0.578-0.987-1.141-1.508-1.686
				c-0.056-0.058-0.112-0.115-0.168-0.172c-0.538-0.556-1.093-1.096-1.666-1.616c-0.038-0.034-0.076-0.066-0.114-0.1
				c-0.599-0.538-1.215-1.059-1.851-1.555C2013.477,570.3,2009.64,569.679,2005.656,569.679z"/>
			<path style="fill:#DBCCA7;" d="M1874.842,664h250.285c0-7.218-7.501-14.001-13.955-16.192c-0.108-0.037-0.218-0.083-0.325-0.117
				L1874.842,664z"/>
		</g>
	</g>
	<g id="Water">
		<rect x="0" y="904" style="fill:#69828C;" width="2560" height="536"/>
	</g>
</g>
<g id="Layer_1">
</g>
</svg>
