<?xml version="1.0" encoding="iso-8859-1"?>
<!-- Generator: Adobe Illustrator 21.1.0, SVG Export Plug-In . SVG Version: 6.00 Build 0)  -->
<svg version="1.1" xmlns="http://www.w3.org/2000/svg" xmlns:xlink="http://www.w3.org/1999/xlink" x="0px" y="0px"
	 viewBox="0 0 2560 1440" style="enable-background:new 0 0 2560 1440;" xml:space="preserve">
<g id="Mountains_1">
	<g id="Lighthouse">
	</g>
	<g id="Layer_19_copy_4">
		<g>
			<polygon style="fill:none;" points="77,293 177.646,382.607 224,497 361,557 417.599,642.042 417.82,642.019 549,589 671,711 
				760,782 880,803 1005,859 1076,894 1148,930 1232,944 1364,945 1379,920 1454,918 1454,888 1459.576,887.442 1459.576,883.929 
				1460.234,883.929 1460.496,881 1461.213,873 1461.4,870.911 1429,904 1382,904 1461.769,847.099 1461.769,847.081 
				1461.331,847.081 1461.331,844.888 1461.347,844.888 1468.788,840.501 1476.229,844.888 1476.245,844.888 1476.245,847.081 
				1475.807,847.081 1475.807,855.854 1476.245,855.854 1476.245,858.048 1475.023,858.048 1475.288,861 1477.08,881 
				1477.342,883.929 1478,883.929 1478,885.6 1544,879 1583,879 1661,847 1824.563,756.089 1825.145,756.106 1825,756 1923,759 
				2068,659 2100.549,601.596 2240,484 2365,503 2447,439 2503,326 2560,297.5 2560,0 0,0 0,323.515 			"/>
			<polygon style="opacity:0.4;fill:#FFFCF5;" points="1462.288,861 1462.552,858.048 1461.331,858.048 1461.331,855.854 
				1461.769,855.854 1461.769,847.099 1382,904 1429,904 1461.4,870.911 1461.571,869 			"/>
			<path style="fill:#FFF3D2;" d="M1475.807,855.854v-8.773h-14.037v8.773H1475.807z M1473.832,848v6.935h-10.088V848H1473.832z"/>
			<rect x="1463.744" y="848" style="fill:#FFF9E9;" width="10.088" height="6.935"/>
			<polygon style="fill:#C9A228;" points="1477.08,881 1460.496,881 1460.234,883.929 1477.342,883.929 			"/>
			<polygon style="fill:#C9A228;" points="1476.363,873 1461.213,873 1460.854,877 1476.721,877 			"/>
			<polygon style="fill:#C9A228;" points="1461.93,865 1461.571,869 1476.005,869 1475.646,865 			"/>
			<polygon style="fill:#C9A228;" points="1462.552,858.048 1462.288,861 1475.288,861 1475.023,858.048 			"/>
			<polygon style="fill:#E5B417;" points="1476.721,877 1460.854,877 1460.496,881 1477.08,881 			"/>
			<polygon style="fill:#E5B417;" points="1476.005,869 1461.571,869 1461.4,870.911 1461.213,873 1476.363,873 			"/>
			<polygon style="fill:#E5B417;" points="1462.288,861 1461.93,865 1475.646,865 1475.288,861 			"/>
			<polygon style="fill:#937F4D;" points="1468.788,840.501 1461.347,844.888 1476.229,844.888 			"/>
			<rect x="1461.331" y="844.888" style="fill:#937F4D;" width="14.915" height="2.193"/>
			<polygon style="fill:#937F4D;" points="1478,883.929 1459.576,883.929 1459.576,887.442 1478,885.6 			"/>
			<rect x="1461.331" y="855.854" style="fill:#937F4D;" width="14.915" height="2.193"/>
			<path style="fill:#F0C108;" d="M2447,439l-82,64l72-3l57.584,15.41l1.603-0.398l2.368,1.461L2508,519l12.794,11.194
				l27.546,16.996l-3.198,4.308L2556,561l-23.438,7.449l-23.706,31.942l-57.064,18.874l-77.877,49.284l-55.071-6.446l-65.901,23.939
				l-41.993,37.668l-65.585,27.128l-27.732-19.79l54.285-59.824l91.437-58.683l28.612,3.91L2288,599l-62,14l49-52l-35-77
				l-139.451,117.596L2068,659l-145,100l30,14l3,10l11-3l22,14l52,9l77-21l-143,71l-72-21l-29-35l-14-1l2-13l-36.855-26.894
				l-0.582-0.017L1661,847l-78,32h-39l-66,6.6l-18.424,1.842L1454,888v30l-75,2l-15,25l-132-1l-84-14l-72-36l-71-35l-125-56l-120-21
				l-89-71L549,589l-19,35l23,16l-31,2l-38,38l50,32l-73,3l-65,89L184,679l158-29l75.599-7.958L361,557l-137-60l-46.354-114.393
				L77,293l-53,62L0,412.488V1440h2560V297.5l-57,28.5L2447,439z M801.385,904.693l-107.187,8.004l-41.04-38.414l-77.013-2.144
				l-63.231,28.497L448,879.121l-27.308-63.687l60.64-32.42l57.749,13.458l90.933-6.093l43.024,38.625l67.795,13.315l54.748-14.818
				l69.172,9.815l13.141,36.651L801.385,904.693z M1545.067,1048.752l-67.109,17.827l-62.461-32.014l-78.242-2.195l-43.887,36.043
				l-108.253-14.027l-75.799-34.987l15.484-35.854l70.74-5.905l54.662,17.878l69.549-9.477l45.911-36.143l91.878,11.204
				l59.367-10.185l59.603,35.785L1545.067,1048.752z"/>
			<polygon style="fill:#F0C108;" points="549,589 417.82,642.019 418,642 			"/>
			<polygon style="fill:#E5B417;" points="2556,561 2545.142,551.499 2532.562,568.449 			"/>
			<polygon style="fill:#E5B417;" points="2226,613 2288,599 2291.966,616.452 2316.575,619.815 2385.737,583.314 2429.238,531.647 
				2494.584,515.41 2437,500 2365,503 2240,484 2275,561 			"/>
			<polygon style="fill:#E5B417;" points="2508,519 2498.555,516.472 2520.794,530.194 			"/>
			<polygon style="fill:#E5B417;" points="184,679 396,804 461,715 534,712 484,680 522,642 553,640 530,624 549,589 418,642 
				417.82,642.019 417.599,642.042 342,650 			"/>
			<polygon style="fill:#E5B417;" points="77,293 0,323.515 0,412.488 24,355 			"/>
			<polygon style="fill:#E5B417;" points="1860,796 1874,797 1903,832 1975,853 2118,782 2041,803 1989,794 1967,780 1956,783 
				1953,773 1923,759 1825,756 1825.145,756.106 1862,783 			"/>
			<polygon style="fill:#F0C108;" points="2548.339,547.191 2520.794,530.194 2545.142,551.499 			"/>
			<polygon style="opacity:0.2;fill:#FFFFFF;" points="2548.339,547.191 2520.794,530.194 2545.142,551.499 			"/>
			<polygon style="fill:#F0C108;" points="2496.187,515.011 2494.584,515.41 2498.555,516.472 			"/>
			<polygon style="opacity:0.2;fill:#FFFFFF;" points="2496.187,515.011 2494.584,515.41 2498.555,516.472 			"/>
			<polygon style="fill:#F0C108;" points="2291.966,616.452 2263.354,612.542 2171.917,671.225 2117.633,731.049 2145.365,750.839 
				2210.949,723.711 2252.942,686.043 2318.843,662.104 2373.914,668.55 2451.792,619.265 2508.856,600.391 2532.562,568.449 
				2298,643 			"/>
			<polygon style="opacity:0.2;fill:#FFFFFF;" points="2291.966,616.452 2263.354,612.542 2171.917,671.225 2117.633,731.049 
				2145.365,750.839 2210.949,723.711 2252.942,686.043 2318.843,662.104 2373.914,668.55 2451.792,619.265 2508.856,600.391 
				2532.562,568.449 2298,643 			"/>
			<polygon style="fill:#E5B417;" points="2385.737,583.314 2316.575,619.815 2291.966,616.452 2298,643 2532.562,568.449 
				2545.142,551.499 2520.794,530.194 2498.555,516.472 2494.584,515.41 2429.238,531.647 			"/>
			<polygon style="opacity:0.2;fill:#FFFFFF;" points="2385.737,583.314 2316.575,619.815 2291.966,616.452 2298,643 
				2532.562,568.449 2545.142,551.499 2520.794,530.194 2498.555,516.472 2494.584,515.41 2429.238,531.647 			"/>
			<polygon style="fill:#F0C108;" points="1457.54,961.102 1365.662,949.898 1319.751,986.041 1250.201,995.518 1195.54,977.64 
				1124.8,983.546 1109.316,1019.399 1185.115,1054.386 1293.367,1068.413 1337.254,1032.37 1415.497,1034.565 1477.958,1066.579 
				1545.067,1048.752 1576.51,986.701 1516.907,950.917 			"/>
			<polygon style="opacity:0.2;fill:#FFFFFF;" points="1457.54,961.102 1365.662,949.898 1319.751,986.041 1250.201,995.518 
				1195.54,977.64 1124.8,983.546 1109.316,1019.399 1185.115,1054.386 1293.367,1068.413 1337.254,1032.37 1415.497,1034.565 
				1477.958,1066.579 1545.067,1048.752 1576.51,986.701 1516.907,950.917 			"/>
			<polygon style="fill:#F0C108;" points="795.581,827.501 740.833,842.318 673.038,829.004 630.014,790.378 539.081,796.471 
				481.332,783.014 420.692,815.434 448,879.121 512.913,900.636 576.144,872.139 653.157,874.283 694.197,912.697 801.385,904.693 
				877.894,873.966 864.753,837.316 			"/>
			<polygon style="opacity:0.2;fill:#FFFFFF;" points="795.581,827.501 740.833,842.318 673.038,829.004 630.014,790.378 
				539.081,796.471 481.332,783.014 420.692,815.434 448,879.121 512.913,900.636 576.144,872.139 653.157,874.283 694.197,912.697 
				801.385,904.693 877.894,873.966 864.753,837.316 			"/>
		</g>
	</g>
</g>
<g id="Layer_1">
</g>
</svg>
