<?xml version="1.0" encoding="iso-8859-1"?>
<!-- Generator: Adobe Illustrator 21.1.0, SVG Export Plug-In . SVG Version: 6.00 Build 0)  -->
<svg version="1.1" xmlns="http://www.w3.org/2000/svg" xmlns:xlink="http://www.w3.org/1999/xlink" x="0px" y="0px"
	 viewBox="0 0 2560 1440" style="enable-background:new 0 0 2560 1440;" xml:space="preserve">
<g id="Mountains_3">
	<g id="Clouds_1">
	</g>
	<g id="Layer_19_copy_2">
		<g>
			<path style="fill:none;" d="M2051.618,917.706c0.585,0.804,0.985,1.62,1.134,2.434c-0.775-0.469-6.151-1.375-13.931-0.258
				l0.7,3.82l26.575-3.916l-0.891-6.322C2058.83,914.615,2054.132,916.429,2051.618,917.706z"/>
			<path style="fill:none;" d="M2266.154,687.063c0.937,0.472,1.877,0.994,2.742,1.552c0.131-0.405,0.289-0.819,0.487-1.243
				C2268.874,687.215,2267.747,687.047,2266.154,687.063z"/>
			<path style="fill:none;" d="M1918.892,931.277c0.289,0.256,0.572,0.513,0.842,0.772c0.449-0.533,0.922-1.062,1.412-1.582
				C1920.264,930.743,1919.51,931.02,1918.892,931.277z"/>
			<path style="fill:none;" d="M1918.259,925.021c0.41,0.457,0.784,0.917,1.113,1.378c0.696-0.954,1.5-1.907,2.349-2.827
				C1919.835,924.152,1918.64,924.723,1918.259,925.021z"/>
			<path style="fill:none;" d="M2279.74,698.56c-1.752,0.48-3.307,1.016-4.665,1.556c2.082,1.527,3.691,3.215,4.095,4.947
				c-0.385-0.217-1.964-0.503-4.411-0.516c1.297,0.736,2.538,1.53,3.618,2.367l2.763-2.578l-0.052,0.012L2279.74,698.56z"/>
			<path style="fill:none;" d="M2270.539,689.811c0.136,0.113,0.267,0.227,0.393,0.342c0.171-0.274,0.343-0.549,0.523-0.82
				C2271.119,689.499,2270.818,689.658,2270.539,689.811z"/>
			<path style="fill:none;" d="M2235.367,747.058l1.646-1.536c-0.85-0.254-2.51-0.535-4.823-0.643
				C2233.302,745.572,2234.375,746.302,2235.367,747.058z"/>
			<path style="fill:none;" d="M1923.175,936.807c0.144,0.403,0.245,0.805,0.295,1.204c-0.269-0.184-1.042-0.443-2.235-0.692
				c-2.903,0.841-4.68,1.716-5.041,2.084c-0.059-0.842,0.138-1.751,0.521-2.695c-2.657-0.211-5.981-0.258-9.824,0.079l0.804,6.342
				l22.139-3.263l-0.29-4.15C1927.135,935.979,1924.998,936.371,1923.175,936.807z"/>
			<path style="fill:none;" d="M2284.236,701.447l4.772-4.454c-1.638,0.099-3.538,0.317-5.642,0.722L2284.236,701.447z"/>
			<path style="fill:none;" d="M2224.666,756.564L2229,753l0.059-0.055c-1.543,0.108-3.206,0.283-4.976,0.548L2224.666,756.564z"/>
			<path style="fill:none;" d="M1915.554,928.645c0.62,0.441,1.223,0.895,1.808,1.356c0.121-0.341,0.267-0.688,0.437-1.038
				C1917.138,928.846,1916.395,928.736,1915.554,928.645z"/>
			<path style="fill:none;" d="M1512.661,1043.97c1.508,1.709,2.546,3.455,2.725,5.127c-0.445-0.329-2.367-0.927-5.409-1.318
				c2.792,2.073,5.315,4.368,6.728,6.649l5.346-2.564l-0.326-9.077C1518.351,1043.039,1515.322,1043.466,1512.661,1043.97z"/>
			<path style="fill:none;" d="M1505.951,1024.665c0.134,0.362,0.228,0.722,0.266,1.075c-0.164-0.132-0.648-0.33-1.399-0.527
				c-0.176,0.103-0.322,0.197-0.4,0.271c-0.004-0.12,0.008-0.244,0.012-0.366c-0.669-0.157-1.497-0.307-2.48-0.418
				c1.444,0.966,2.879,2.04,4.091,3.158c1.19-1.547,2.57-3.089,4.033-4.571C1508.304,1023.766,1506.924,1024.252,1505.951,1024.665z
				"/>
			<path style="fill:none;" d="M1673.892,973.787l0.628,4.954l10.287-4.934C1681.995,973.517,1678.28,973.402,1673.892,973.787z"/>
			<path style="fill:none;" d="M1528.759,1048.646l11.043-5.296c-3.161-0.463-6.947-0.797-11.262-0.808L1528.759,1048.646z"/>
			<path style="fill:none;" d="M1363.938,1116.268l13.075-5.196c-3.431-0.655-7.943-1.188-13.303-1.204L1363.938,1116.268z"/>
			<path style="fill:none;" d="M1507.92,1034.349c0.115,0.097,0.226,0.195,0.339,0.293c0.181-0.184,0.362-0.369,0.546-0.551
				C1508.494,1034.177,1508.21,1034.263,1507.92,1034.349z"/>
			<path style="fill:none;" d="M1584.901,1021.721l6.879-3.299c-1.959-0.407-4.172-0.763-6.616-1.008L1584.901,1021.721z"/>
			<path style="fill:none;" d="M1597.089,995.158c0.031,0.25,0.048,0.496,0.034,0.735c-0.099-0.1-0.339-0.248-0.681-0.421
				c-0.34,0.18-0.58,0.336-0.698,0.452c-0.009-0.25,0.004-0.504,0.027-0.762c-0.79-0.336-1.891-0.726-3.278-1.1
				c1.623,1.539,3.185,3.213,4.373,4.871c1.24-1.778,2.84-3.574,4.573-5.29C1599.534,994.171,1598.073,994.711,1597.089,995.158z"/>
			<path style="fill:none;" d="M1598.948,1003.527c0.028,0.257,0.042,0.51,0.027,0.756c-0.12-0.119-0.402-0.294-0.823-0.502
				c-0.682,0.225-1.281,0.443-1.791,0.649c2.483,2.978,4.303,6.081,4.145,8.669c-0.384-0.399-2.179-1.308-5.114-2.201
				c1.289,1.343,2.489,2.736,3.484,4.122l13.902-6.667l-0.257-7.241C1606.748,1001.539,1602.11,1002.557,1598.948,1003.527z"/>
			<path style="fill:none;" d="M1500.978,1055.908l0.604,5.656L1503,1061l9.9-4.748
				C1509.965,1055.835,1505.886,1055.575,1500.978,1055.908z"/>
			<path style="fill:none;" d="M1618.535,1005.59l8.588-4.119c-2.519-0.331-5.461-0.557-8.754-0.568L1618.535,1005.59z"/>
			<path style="fill:none;" d="M2400.516,707.609c0.049,0.15,0.112,0.304,0.151,0.452c0.258-0.213,0.517-0.423,0.778-0.63
				C2401.12,707.489,2400.81,707.549,2400.516,707.609z"/>
			<path style="fill:none;" d="M2432.186,752.584l4.256,3.143l0.254-3.121C2435.088,752.536,2433.581,752.535,2432.186,752.584z"/>
			<path style="fill:none;" d="M2424.07,746.59l1.676,1.238c0.835-0.79,1.748-1.564,2.701-2.309
				C2426.311,745.848,2424.81,746.274,2424.07,746.59z"/>
			<path style="fill:none;" d="M2377.492,712.194l6.179,4.563l0.54-4.453C2381.671,712.095,2379.412,712.091,2377.492,712.194z"/>
			<path style="fill:none;" d="M2503.496,733.514l5.343-3.087c-1.6-0.235-3.364-0.425-5.289-0.528L2503.496,733.514z"/>
			<path style="fill:none;" d="M2396.884,708.108c0.024,0.028,0.046,0.056,0.07,0.084c0.003-0.017,0.008-0.035,0.012-0.052
				C2396.937,708.129,2396.913,708.118,2396.884,708.108z"/>
			<path style="fill:none;" d="M2482.451,741.238l0.613,4.081l7.481-4.322C2488.364,740.867,2485.621,740.886,2482.451,741.238z"/>
			<path style="fill:none;" d="M2535.436,712.335l0.281,2.562L2539,713l4.086-0.629
				C2540.984,712.188,2538.4,712.125,2535.436,712.335z"/>
			<path style="fill:none;" d="M2397.65,708.404c-0.148,0.057-0.276,0.11-0.384,0.161c0.406,0.492,0.796,0.988,1.163,1.486
				c0.306-0.295,0.62-0.588,0.943-0.877C2398.898,708.936,2398.328,708.676,2397.65,708.404z"/>
			<path style="fill:none;" d="M2490.606,730.612c1.646,1.529,2.844,3.143,3.08,4.714c-0.366-0.247-1.915-0.657-4.35-0.865
				c1.975,1.339,3.791,2.816,5.026,4.329l4.335-2.505l0.097-6.459C2495.628,729.902,2492.869,730.215,2490.606,730.612z"/>
			<path style="fill:none;" d="M2487.468,724.022c0.349,0.276,0.682,0.557,0.996,0.842c0.526-0.525,1.075-1.044,1.643-1.551
				C2489.067,723.544,2488.185,723.789,2487.468,724.022z"/>
			<path style="fill:none;" d="M2484.282,721.827c0.53,0.324,1.055,0.663,1.568,1.012c0.108-0.274,0.235-0.55,0.377-0.828
				C2485.676,721.933,2485.029,721.866,2484.282,721.827z"/>
			<path style="fill:none;" d="M2268.706,692.343c0.27,0.136,0.538,0.277,0.805,0.42c0.065-0.142,0.131-0.283,0.2-0.426
				C2269.395,692.333,2269.065,692.333,2268.706,692.343z"/>
			<path style="fill:none;" d="M2251.666,711.472c-0.07-0.3-0.105-0.617-0.112-0.945c-0.526-0.136-1.293-0.274-2.27-0.349
				c1.392,0.862,2.769,1.861,3.776,2.903c0.618-1.321,1.427-2.686,2.334-4.021C2253.205,710.153,2251.915,711.107,2251.666,711.472z
				"/>
			<path style="fill:none;" d="M2251.115,714.997c0.341,0.212,0.681,0.431,1.016,0.655c0.045-0.184,0.085-0.366,0.141-0.554
				C2251.919,715.058,2251.537,715.022,2251.115,714.997z"/>
			<path style="fill:none;" d="M2253.973,717.004c1.611,1.307,2.84,2.723,3.036,4.095c-0.275-0.18-1.431-0.476-3.25-0.635
				c2.087,1.472,3.99,3.142,4.942,4.815l6.988-6.522l-1.384-5.937C2259.542,714.127,2256.014,715.794,2253.973,717.004z"/>
			<path style="fill:none;" d="M2403.18,700.625c-1.45,0.279-2.55,0.623-3.234,0.906c0.123,0.516,0.166,1.011,0.11,1.475
				c-0.25-0.279-1.433-0.947-3.388-1.659c0.863,1.037,1.662,2.108,2.334,3.172C2400.158,703.163,2401.659,701.824,2403.18,700.625z"
				/>
			<path style="fill:none;" d="M2256.768,727.083l0.716-0.668c-0.558-0.102-1.227-0.196-2.002-0.268
				C2255.923,726.451,2256.35,726.765,2256.768,727.083z"/>
			<path style="fill:none;" d="M2269.26,715.424l4.623-4.315c-1.634,0.134-3.461,0.367-5.454,0.751L2269.26,715.424z"/>
			<path style="fill:none;" d="M2398.395,715.529c-0.113-0.047-0.229-0.094-0.347-0.142c-2.048,0.46-3.329,0.958-3.641,1.218
				c0.021-0.729,0.249-1.492,0.635-2.269c-1.854-0.567-4.071-1.112-6.619-1.521l-0.815,6.72l-0.208-0.025l5.09,3.759
				C2393.289,720.741,2395.659,718.009,2398.395,715.529z"/>
			<path style="fill:none;" d="M1378.534,1095.703c1.956,2.415,3.274,4.853,3.354,7.095c-0.515-0.441-2.809-1.336-6.49-2.077
				c3.006,2.58,5.704,5.374,7.296,8.093l14.428-5.734l0.873-9.399C1387.272,1093.1,1379.962,1094.895,1378.534,1095.703z"/>
			<path style="fill:none;" d="M2402.233,730.465l4.104,3.031l0.091-3.218C2404.941,730.293,2403.546,730.362,2402.233,730.465z"/>
			<path style="fill:none;" d="M2397.252,723.205c-1.494,0.312-2.687,0.654-3.551,0.96l1.405,1.037
				C2395.784,724.524,2396.505,723.856,2397.252,723.205z"/>
			<path style="fill:none;" d="M2249.62,733.754l1.997-1.864c-0.717,0.039-1.461,0.096-2.238,0.176L2249.62,733.754z"/>
			<path style="fill:none;" d="M1594.616,1002.462c0.074,0.079,0.146,0.159,0.22,0.239c0.018-0.05,0.039-0.101,0.058-0.152
				C1594.799,1002.52,1594.713,1002.491,1594.616,1002.462z"/>
			<path style="fill:none;" d="M548.856,987.46c2.677,2.894,4.522,5.857,4.831,8.689l5.819-1.419l-0.471-8.766
				C555.258,986.314,551.856,986.848,548.856,987.46z"/>
			<path style="fill:none;" d="M542.788,964.397c0.265,0.339,0.509,0.678,0.738,1.017c0.53-0.596,1.073-1.187,1.629-1.77
				C544.282,963.897,543.497,964.15,542.788,964.397z"/>
			<path style="fill:none;" d="M566.917,985.541l0.392,7.286L583,989l2.34-1.863C580.979,986.222,574.666,985.424,566.917,985.541z"
				/>
			<path style="fill:none;" d="M382.56,997.465l1.995,1.727c1.13-1.002,2.374-1.98,3.672-2.914
				C385.369,996.603,383.408,997.101,382.56,997.465z"/>
			<path style="fill:none;" d="M391.525,1005.223l5.972,5.168l0.6-4.926C395.72,1005.269,393.527,1005.204,391.525,1005.223z"/>
			<path style="fill:none;" d="M538.142,968.112c0.664,0.511,1.317,1.033,1.958,1.561c0.266-0.375,0.544-0.749,0.829-1.124
				C540.101,968.395,539.171,968.246,538.142,968.112z"/>
			<path style="fill:none;" d="M864.569,1034.52c-2.752,0.454-4.634,1.015-5.474,1.404c0.558,0.711,1.087,1.423,1.581,2.133
				C861.872,1036.846,863.192,1035.658,864.569,1034.52z"/>
			<path style="fill:none;" d="M527.296,993.577l0.882,8.794l25.431-6.203C551.969,995.128,542.005,992.672,527.296,993.577z"/>
			<path style="fill:none;" d="M854.99,1031.208c1.344,1.412,2.626,2.86,3.792,4.315c0.151-0.845,0.495-1.711,0.99-2.586
				C858.506,1032.397,856.916,1031.803,854.99,1031.208z"/>
			<path style="fill:none;" d="M860.816,1046.343c-0.458-0.186-0.961-0.377-1.496-0.573c-2.209,0.528-3.608,1.072-4.009,1.396
				c0.054-0.822,0.272-1.665,0.617-2.518c-4.305-1.297-10.05-2.587-16.982-3.309l-0.698,10.689l14.689,4.244
				C853.981,1053,857.087,1049.535,860.816,1046.343z"/>
			<path style="fill:none;" d="M855.49,1057.008l18.275,5.279l0.464-7.112C865.658,1054.947,859.083,1056.033,855.49,1057.008z"/>
			<path style="fill:none;" d="M261.204,887.894l5.338,5.071l0.545-4.898C264.972,887.914,263.01,887.869,261.204,887.894z"/>
			<path style="fill:none;" d="M294.437,919.465l6.814,6.473l0.942-5.818C299.438,919.782,296.845,919.575,294.437,919.465z"/>
			<path style="fill:none;" d="M281.992,907.642l2.348,2.231c1.412-1.108,2.921-2.185,4.482-3.218
				C285.806,906.878,283.482,907.266,281.992,907.642z"/>
			<path style="fill:none;" d="M57,753l34,90l68.151,9.465c1.16-4.011,5.021-8.397,9.497-12.369
				c-4.216,0.921-6.835,1.992-7.419,2.509c0.086-4.46,4.405-9.665,9.458-14.248c-3.585,0.762-5.813,1.636-6.317,2.062
				c0.082-4.288,5.02-9.39,10.24-13.599c-3.825,0.708-6.209,1.625-6.697,2.043c0.073-3.821,4.561-8.393,9.16-12.088
				c-3.347,0.676-5.434,1.578-5.853,1.98c0.142-7.366,15.909-17.753,15.909-17.753s15.357,10.985,15.215,18.351
				c-0.403-0.418-2.454-1.399-5.772-2.204c4.455,3.869,8.763,8.61,8.689,12.431c-0.471-0.436-2.818-1.445-6.613-2.299
				c5.055,4.407,9.792,9.694,9.71,13.983c-0.487-0.445-2.68-1.403-6.233-2.303c4.873,4.774,8.989,10.141,8.903,14.601
				c-0.563-0.538-3.139-1.71-7.317-2.792c5.128,4.915,9.382,10.382,9.294,14.942c-1.141-1.051-9.851-4.404-23.284-5.182
				l-0.118,6.164l36.073,5.01c1.873-1.941,4.148-3.84,6.57-5.621c-4.341,0.539-7.085,1.378-7.722,1.845
				c0.5-4.494,5.343-9.349,10.868-13.506c-3.69,0.437-6.02,1.112-6.568,1.495c0.481-4.321,5.938-9.014,11.598-12.779
				c-3.927,0.36-6.419,1.065-6.95,1.442c0.428-3.85,5.382-8.05,10.368-11.353c-3.441,0.373-5.632,1.089-6.092,1.456
				c0.826-7.423,17.706-16.447,17.706-16.447s14.484,12.513,13.658,19.936c-0.368-0.46-2.347-1.64-5.623-2.76
				c4.138,4.318,8.048,9.504,7.619,13.354c-0.435-0.484-2.711-1.72-6.463-2.934c2.933,3.073,5.71,6.481,7.263,9.66
				c1.712-1.075,2.944-1.734,2.944-1.734s10.786,9.318,10.171,14.846c-0.274-0.342-1.748-1.221-4.187-2.055
				c3.082,3.216,5.993,7.077,5.674,9.945c-0.324-0.36-2.019-1.281-4.813-2.185c3.496,3.662,6.692,7.964,6.334,11.182
				c-0.336-0.368-1.918-1.24-4.527-2.161c3.334,3.925,6.057,8.244,5.685,11.591c-0.386-0.444-2.242-1.502-5.308-2.604
				c2.091,2.408,3.929,4.94,5.001,7.318c2.575-2.762,6.327-5.406,10.15-7.683c-4.324,0.18-7.093,0.817-7.695,1.201
				c0.68-4.197,6.338-8.529,11.982-11.877c-3.792,0.221-6.232,0.886-6.756,1.264c1.31-8.09,20.302-17.06,20.302-17.06
				s15.192,14.504,13.882,22.594c-0.378-0.524-2.483-1.925-6.012-3.331c4.3,4.958,8.302,10.855,7.622,15.052
				c-0.45-0.554-2.877-2.033-6.923-3.568c4.877,5.645,9.266,12.211,8.503,16.921c-0.467-0.566-2.732-1.965-6.504-3.513
				c4.619,6.021,8.311,12.577,7.518,17.475c-0.536-0.681-3.19-2.375-7.621-4.221c4.877,6.216,8.706,12.904,7.895,17.912
				c-1.092-1.337-10.159-6.394-24.831-9.354l-1.849,11.422L315,939l21.061,18.226c1.779-1.526,3.773-3.004,5.854-4.404
				c-4.784,0.39-7.831,1.184-8.551,1.667c0.755-4.904,6.289-10.003,12.538-14.307c-4.066,0.309-6.651,0.942-7.27,1.337
				c0.726-4.716,6.926-9.609,13.305-13.476c-4.322,0.213-7.087,0.872-7.686,1.26c0.647-4.202,6.272-8.578,11.891-11.969
				c-3.79,0.25-6.225,0.934-6.746,1.316c1.248-8.1,20.171-17.215,20.171-17.215s15.303,14.387,14.055,22.487
				c-0.382-0.521-2.498-1.906-6.037-3.285c4.338,4.925,8.385,10.791,7.738,14.993c-0.455-0.551-2.893-2.011-6.95-3.515
				c4.92,5.607,9.359,12.139,8.633,16.855c-0.471-0.563-2.747-1.944-6.531-3.463c4.665,5.985,8.407,12.513,7.652,17.417
				c-0.541-0.677-3.208-2.35-7.653-4.162c4.925,6.178,8.805,12.836,8.032,17.851c-1.102-1.328-10.208-6.316-24.902-9.163
				l-1.85,12.011l20.518,17.756c0.674-3.373,4.343-6.94,8.505-10.004c-2.881,0.311-4.703,0.818-5.134,1.113
				c0.41-3.366,4.703-6.98,9.147-9.869c-3.065,0.249-5.014,0.778-5.431,1.068c0.365-2.999,4.262-6.233,8.177-8.768
				c-2.686,0.263-4.4,0.803-4.762,1.086c0.704-5.781,13.94-12.679,13.94-12.679s11.192,9.875,10.487,15.656
				c-0.283-0.361-1.817-1.298-4.362-2.198c3.191,3.401,6.197,7.476,5.832,10.475c-0.335-0.381-2.1-1.363-5.015-2.34
				c3.62,3.872,6.92,8.412,6.51,11.777c-0.347-0.389-1.995-1.319-4.716-2.313c3.448,4.146,6.252,8.698,5.826,12.198
				c-0.4-0.469-2.331-1.597-5.529-2.785c3.636,4.278,6.541,8.919,6.105,12.498c-0.813-0.919-7.392-4.257-17.892-5.949l-1.081,8.869
				L419,1029l27.238-6.643l-0.961-6.165c-10.438,2.042-16.902,5.598-17.683,6.544c-0.555-3.562,2.193-8.298,5.685-12.695
				c-3.156,1.293-5.049,2.486-5.433,2.968c-0.543-3.484,2.108-8.127,5.415-12.386c-2.687,1.084-4.302,2.068-4.636,2.469
				c-0.522-3.35,2.624-7.997,6.113-11.988c-2.881,1.074-4.612,2.115-4.934,2.507c-0.465-2.985,2.403-7.158,5.479-10.664
				c-2.513,0.984-4.015,1.971-4.286,2.342c-0.897-5.754,9.958-15.997,9.958-15.997s13.458,6.453,14.355,12.207
				c-0.371-0.271-2.102-0.754-4.795-0.926c3.997,2.403,8,5.505,8.465,8.49c-0.426-0.275-2.392-0.74-5.463-0.886
				c4.538,2.74,8.949,6.208,9.472,9.558c-0.44-0.28-2.278-0.726-5.168-0.94c4.447,3.05,8.385,6.666,8.928,10.15
				c-0.512-0.342-2.678-0.902-6.078-1.173c4.664,3.125,8.724,6.8,9.279,10.362c-1.032-0.662-8.272-2.082-18.836-0.85l0.884,5.671
				l68.029-16.592l-0.999-9.953c-14.824,2.068-24.18,6.568-25.351,7.836c-0.507-5.048,3.719-11.492,8.964-17.402
				c-4.535,1.575-7.286,3.105-7.862,3.753c-0.495-4.937,3.586-11.258,8.561-16.988c-3.859,1.316-6.204,2.576-6.705,3.113
				c-0.476-4.747,4.302-11.036,9.511-16.375c-4.131,1.288-6.643,2.617-7.126,3.143c-0.424-4.23,3.927-9.874,8.518-14.563
				c-3.607,1.19-5.793,2.461-6.202,2.962c-0.818-8.155,15.223-21.714,15.223-21.714s18.415,10.101,19.233,18.256
				c-0.5-0.409-2.895-1.221-6.667-1.67c5.432,3.684,10.818,8.35,11.242,12.58c-0.578-0.419-3.304-1.223-7.609-1.664
				c2.577,1.755,5.107,3.688,7.222,5.689c1.747-3.38,4.999-6.977,8.421-10.175c-3.976,1.04-6.417,2.191-6.898,2.668
				c-0.217-4.032,4.159-9.194,8.721-13.441c-3.474,0.97-5.604,2.08-6.014,2.537c-0.418-7.772,15.396-19.929,15.396-19.929
				s17.026,10.392,17.443,18.164c-0.456-0.41-2.693-1.285-6.251-1.878c4.991,3.733,9.895,8.397,10.112,12.428
				c-0.53-0.423-3.08-1.305-7.145-1.913c5.665,4.254,11.063,9.46,11.307,13.985c-0.548-0.431-2.932-1.272-6.745-1.946
				c5.502,4.654,10.251,9.993,10.504,14.698c-0.635-0.524-3.439-1.56-7.924-2.378c3.611,2.988,6.879,6.229,8.887,9.414L681,911
				l124.186,130.1c1.747-4.153,6.019-8.51,10.874-12.434c-4.732,0.807-7.697,1.865-8.372,2.408
				c0.323-4.952,5.389-10.515,11.238-15.349c-4.023,0.664-6.543,1.52-7.125,1.968c0.311-4.761,6.058-10.178,12.075-14.588
				c-4.287,0.591-6.983,1.489-7.546,1.928c0.277-4.242,5.497-9.094,10.798-12.964c-3.754,0.581-6.119,1.475-6.605,1.901
				c0.534-8.178,18.587-18.914,18.587-18.914s16.503,12.992,15.969,21.171c-0.426-0.486-2.655-1.68-6.302-2.744
				c4.752,4.527,9.297,10.016,9.02,14.258c-0.501-0.509-3.058-1.75-7.231-2.893c5.392,5.155,10.386,11.273,10.075,16.035
				c-0.519-0.519-2.906-1.696-6.809-2.878c3.587,3.853,6.751,8.003,8.247,11.838c1.815-1.998,4.163-3.957,6.569-5.72
				c-3.532,0.487-5.753,1.227-6.217,1.588c0.228-3.495,4.529-7.492,8.896-10.681c-3.093,0.478-5.042,1.215-5.442,1.566
				c0.44-6.738,15.313-15.583,15.313-15.583s13.597,10.704,13.157,17.442c-0.351-0.4-2.188-1.384-5.192-2.261
				c3.915,3.73,7.66,8.252,7.431,11.747c-0.413-0.419-2.519-1.442-5.958-2.384c4.442,4.247,8.557,9.288,8.301,13.211
				c-0.427-0.428-2.395-1.398-5.61-2.371c4.26,4.576,7.802,9.663,7.536,13.743c-0.493-0.516-2.802-1.698-6.581-2.864
				c4.487,4.716,8.152,9.9,7.879,14.071c-1-1.011-8.833-4.448-21.098-5.725l-0.562,8.612l38.449,11.107
				c1.802-3.127,4.92-6.343,8.399-9.308c-4.176,0.825-6.78,1.83-7.366,2.327c0.173-4.397,4.535-9.445,9.609-13.864
				c-3.551,0.681-5.765,1.498-6.271,1.908c0.166-4.227,5.136-9.161,10.368-13.209c-3.786,0.622-6.156,1.48-6.645,1.883
				c0.148-3.767,4.664-8.187,9.273-11.74c-3.314,0.601-5.39,1.448-5.811,1.837c0.285-7.262,16.041-17.193,16.041-17.193
				s14.927,11.137,14.642,18.399c-0.389-0.421-2.392-1.428-5.649-2.287c4.316,3.903,8.471,8.664,8.323,12.431
				c-0.456-0.439-2.751-1.481-6.476-2.398c4.898,4.446,9.465,9.754,9.299,13.982c-0.472-0.448-2.615-1.437-6.102-2.394
				c4.711,4.804,8.664,10.179,8.491,14.576c-0.545-0.542-3.062-1.749-7.161-2.898c4.96,4.948,9.047,10.424,8.87,14.919
				c-1.104-1.059-9.628-4.539-22.859-5.571l-0.271,6.893L987,1095l40-86l0.184,0.041l0.078-5.968
				c-12.693,0.325-21.01,3.222-22.118,4.179c0.056-4.304,4.234-9.331,9.22-13.81c-3.973,0.893-6.438,1.92-6.986,2.411
				c0.055-4.209,4.1-9.146,8.841-13.5c-3.379,0.74-5.476,1.578-5.949,1.982c0.053-4.047,4.682-8.89,9.583-12.893
				c-3.605,0.69-5.85,1.57-6.307,1.967c0.047-3.606,4.254-7.947,8.573-11.46c-3.154,0.658-5.119,1.521-5.511,1.903
				c0.091-6.952,14.909-16.846,14.909-16.846s14.556,10.276,14.465,17.228c-0.382-0.393-2.324-1.306-5.46-2.046
				c4.226,3.625,8.319,8.073,8.272,11.679c-0.447-0.409-2.668-1.347-6.254-2.131c4.796,4.129,9.297,9.091,9.245,13.138
				c-0.463-0.417-2.537-1.309-5.896-2.137c4.626,4.476,8.542,9.517,8.487,13.726c-0.535-0.505-2.973-1.595-6.921-2.592
				c4.867,4.608,8.914,9.742,8.858,14.045c-1.083-0.985-9.321-4.099-22.002-4.753l-0.097,7.462l44.485,10.031l0.819-6.884
				c-11.344-0.908-19.031,0.89-20.108,1.638c0.456-3.831,4.655-7.917,9.521-11.439c-3.625,0.422-5.92,1.104-6.454,1.49
				c0.446-3.746,4.517-7.766,9.154-11.199c-3.082,0.341-5.03,0.889-5.49,1.206c0.429-3.602,5.012-7.482,9.758-10.587
				c-3.279,0.275-5.362,0.848-5.808,1.158c0.382-3.21,4.542-6.682,8.723-9.406c-2.873,0.289-4.706,0.872-5.092,1.176
				c0.737-6.188,14.878-13.608,14.878-13.608s12.004,10.533,11.268,16.721c-0.304-0.386-1.948-1.383-4.673-2.339
				c3.425,3.629,6.653,7.981,6.271,11.191c-0.36-0.407-2.251-1.452-5.373-2.489c3.885,4.132,7.429,8.98,7,12.582
				c-0.373-0.415-2.138-1.406-5.053-2.461c3.701,4.426,6.715,9.289,6.269,13.035c-0.429-0.5-2.499-1.702-5.924-2.963
				c3.904,4.566,7.026,9.524,6.57,13.355c-0.872-0.98-7.922-4.533-19.162-6.313l-0.897,7.535l21.549,4.859
				c1.192-2.963,3.686-6.169,6.542-9.169c-3.488,1.076-5.619,2.166-6.074,2.642c-0.245-3.765,3.025-8.459,6.958-12.681
				c-2.968,0.898-4.783,1.792-5.178,2.187c-0.236-3.62,3.563-8.271,7.663-12.19c-3.173,0.869-5.118,1.812-5.499,2.198
				c-0.21-3.226,3.247-7.398,6.861-10.839c-2.773,0.808-4.468,1.716-4.792,2.085c-0.405-6.218,12.146-16.094,12.146-16.094
				s13.724,8.166,14.129,14.384c-0.369-0.324-2.168-1.005-5.021-1.447c4.03,2.944,7.998,6.633,8.208,9.859
				c-0.428-0.334-2.478-1.017-5.737-1.467c4.574,3.354,8.943,7.474,9.178,11.094c-0.442-0.34-2.359-0.992-5.417-1.497
				c4.447,3.677,8.297,7.908,8.542,11.672c-0.513-0.414-2.767-1.218-6.365-1.833c4.671,3.777,8.645,8.083,8.896,11.932
				c-1.036-0.805-8.615-3.011-19.992-2.711l0.497,7.633L1231,1055l116,68l10.524-4.183l-0.311-8.718
				c-11.675,0.868-19.204,3.909-20.181,4.84c-0.141-3.966,3.481-8.782,7.872-13.131c-3.619,1.001-5.843,2.057-6.325,2.533
				c-0.138-3.878,3.366-8.607,7.537-12.829c-3.078,0.833-4.972,1.698-5.39,2.092c-0.133-3.729,3.913-8.397,8.248-12.302
				c-3.289,0.797-5.317,1.708-5.72,2.094c-0.118-3.323,3.562-7.509,7.382-10.938c-2.875,0.747-4.646,1.63-4.99,2
				c-0.228-6.406,12.974-16.182,12.974-16.182s13.865,8.811,14.093,15.217c-0.37-0.344-2.198-1.099-5.12-1.639
				c4.054,3.148,8.023,7.062,8.141,10.385c-0.43-0.356-2.517-1.121-5.855-1.682c4.601,3.587,8.969,7.955,9.102,11.684
				c-0.445-0.363-2.395-1.091-5.525-1.703c1.833,1.608,3.554,3.31,4.961,5.025c0.484-3.693,4.408-7.7,8.982-11.194
				c-3.533,0.504-5.758,1.229-6.27,1.619c0.341-3.673,4.219-7.703,8.664-11.176c-3.003,0.411-4.893,0.996-5.335,1.317
				c0.328-3.531,4.709-7.439,9.27-10.594c-3.198,0.352-5.219,0.964-5.647,1.279c0.292-3.147,4.27-6.645,8.288-9.413
				c-2.801,0.355-4.577,0.971-4.947,1.278c0.564-6.066,14.197-13.676,14.197-13.676s11.998,9.99,11.434,16.056
				c-0.307-0.369-1.939-1.302-4.626-2.167c3.439,3.46,6.704,7.632,6.412,10.778c-0.362-0.388-2.236-1.363-5.314-2.297
				c1.804,1.822,3.534,3.794,4.847,5.738c0.937-3.122,4.397-6.348,8.285-9.126c-2.806,0.262-4.586,0.731-5.009,1.011
				c0.445-3.268,4.671-6.724,9.034-9.473c-2.985,0.199-4.887,0.688-5.297,0.963c0.397-2.912,4.232-6.003,8.074-8.415
				c-2.616,0.218-4.291,0.72-4.646,0.99c0.765-5.613,13.734-12.14,13.734-12.14s10.749,9.759,9.984,15.372
				c-0.27-0.355-1.749-1.287-4.212-2.198c3.057,3.352,5.925,7.357,5.528,10.269c-0.321-0.375-2.023-1.355-4.846-2.346
				c3.468,3.816,6.614,8.277,6.169,11.545c-0.333-0.383-1.922-1.311-4.555-2.315c3.296,4.08,5.961,8.547,5.497,11.945
				c-0.382-0.461-2.245-1.586-5.339-2.785c1.121,1.357,2.165,2.75,3.053,4.131l42.631-16.943l-0.761-7.129
				c-9.466,1.381-15.427,4.294-16.17,5.11c-0.344-3.224,2.331-7.359,5.659-11.157c-2.892,1.025-4.644,2.014-5.01,2.43
				c-0.337-3.153,2.247-7.209,5.403-10.891c-2.461,0.857-3.955,1.671-4.272,2.016c-0.324-3.032,2.705-7.07,6.013-10.504
				c-2.635,0.839-4.235,1.699-4.542,2.037c-0.288-2.702,2.47-6.326,5.385-9.341c-2.301,0.775-3.693,1.596-3.952,1.918
				c-0.556-5.208,9.641-13.938,9.641-13.938s7.876,4.257,11.066,8.655c1.232-3.331,4.594-7.026,8.151-10.233
				c-3.451,0.838-5.578,1.794-6.002,2.2c-0.125-3.487,3.735-7.88,7.742-11.48c-3.017,0.785-4.874,1.712-5.235,2.1
				c-0.241-6.722,13.609-16.984,13.609-16.984s14.552,9.241,14.793,15.963c-0.388-0.361-2.307-1.152-5.373-1.718
				c4.255,3.302,8.421,7.407,8.546,10.894c-0.451-0.374-2.642-1.175-6.144-1.763c4.829,3.763,9.414,8.344,9.555,12.258
				c-0.467-0.381-2.514-1.144-5.798-1.786c4.682,4.106,8.704,8.792,8.851,12.862c-0.541-0.462-2.948-1.401-6.81-2.177
				c2.532,2.172,4.855,4.489,6.54,6.794l32.077-15.384l0.444-7.26c-9.563-0.215-15.927,1.664-16.795,2.344
				c0.198-3.236,3.524-6.868,7.438-10.059c-3.022,0.529-4.915,1.212-5.344,1.561c0.193-3.165,3.416-6.734,7.142-9.839
				c-2.569,0.435-4.178,0.989-4.549,1.276c0.186-3.044,3.845-6.521,7.678-9.355c-2.738,0.389-4.459,0.97-4.818,1.252
				c0.166-2.712,3.489-5.826,6.866-8.314c-2.397,0.381-3.907,0.959-4.216,1.232c0.32-5.228,11.829-12.137,11.829-12.137
				s10.582,8.26,10.262,13.488c-0.274-0.309-1.701-1.067-4.035-1.737c2.012,1.901,3.962,4.069,5.011,6.104
				c1.068-2.773,3.472-5.773,6.2-8.533c-2.772,0.75-4.477,1.528-4.853,1.883c-0.119-3.358,3.525-7.559,7.428-11.075
				c-2.962,0.717-4.787,1.537-5.151,1.885c-0.106-2.992,3.208-6.76,6.648-9.846c-2.589,0.672-4.183,1.466-4.493,1.799
				c-0.204-5.768,11.684-14.566,11.684-14.566s12.482,7.935,12.686,13.703c-0.333-0.31-1.979-0.989-4.609-1.477
				c3.65,2.835,7.222,6.359,7.328,9.351c-0.387-0.321-2.266-1.01-5.271-1.515c4.142,3.231,8.074,7.164,8.193,10.521
				c-0.4-0.327-2.156-0.983-4.974-1.535c4.016,3.525,7.465,7.548,7.588,11.04c-0.464-0.397-2.529-1.203-5.843-1.871
				c2.018,1.733,3.88,3.573,5.293,5.412l35.385-16.97l-0.846-6.672c-9.25,1.537-15.036,4.508-15.749,5.321
				c-0.4-3.153,2.142-7.258,5.33-11.044c-2.814,1.06-4.512,2.064-4.863,2.478c-0.391-3.084,2.062-7.109,5.084-10.779
				c-2.396,0.887-3.844,1.714-4.148,2.059c-0.376-2.965,2.514-6.982,5.689-10.411c-2.566,0.874-4.118,1.747-4.412,2.085
				c-0.335-2.642,2.298-6.248,5.097-9.259c-2.24,0.804-3.588,1.636-3.836,1.956c-0.646-5.094,9.179-13.847,9.179-13.847
				s11.698,6.026,12.344,11.119c-0.32-0.248-1.833-0.717-4.203-0.937c3.462,2.218,6.911,5.053,7.246,7.695
				c-0.369-0.253-2.089-0.712-4.792-0.918c3.93,2.529,7.731,5.697,8.106,8.662c-0.381-0.258-1.99-0.697-4.531-0.959
				c3.842,2.8,7.222,6.086,7.613,9.17c-0.443-0.314-2.337-0.862-5.327-1.187c2.661,1.895,5.077,3.995,6.532,6.11L1699,967l66,94
				l130-116l7.543-1.112l-0.817-6.447c-9.25,1.537-15.036,4.508-15.749,5.321c-0.4-3.153,2.142-7.258,5.33-11.044
				c-2.814,1.06-4.512,2.064-4.863,2.478c-0.391-3.084,2.062-7.109,5.084-10.779c-2.396,0.887-3.844,1.714-4.148,2.059
				c-0.376-2.965,2.514-6.982,5.689-10.411c-2.566,0.874-4.118,1.747-4.412,2.085c-0.335-2.642,2.298-6.248,5.097-9.259
				c-2.24,0.804-3.588,1.636-3.836,1.956c-0.646-5.094,9.179-13.847,9.179-13.847s11.698,6.026,12.344,11.119
				c-0.32-0.248-1.833-0.717-4.203-0.937c3.462,2.218,6.911,5.053,7.246,7.695c-0.369-0.253-2.089-0.712-4.792-0.918
				c3.93,2.529,7.731,5.697,8.106,8.662c-0.381-0.258-1.99-0.697-4.531-0.959c1.833,1.336,3.557,2.783,4.905,4.266
				c-0.055-2.461,2.479-5.585,5.222-8.23c-2.176,0.606-3.507,1.26-3.768,1.527c-0.154-2.214,2.205-5.089,4.675-7.463
				c-1.901,0.564-3.062,1.192-3.283,1.447c-0.298-4.267,8.286-11.087,8.286-11.087s9.448,5.562,9.745,9.829
				c-0.255-0.221-1.491-0.683-3.452-0.977c2.776,2.008,5.511,4.528,5.666,6.741c-0.295-0.228-1.704-0.69-3.943-0.989
				c3.15,2.288,6.163,5.102,6.336,7.586c-0.305-0.232-1.622-0.674-3.724-1.011c3.064,2.51,5.721,5.402,5.901,7.985
				c-0.353-0.282-1.904-0.827-4.375-1.238c3.219,2.578,5.961,5.521,6.145,8.162c-0.714-0.549-5.924-2.04-13.733-1.797l0.266,3.817
				l44.4-6.543l-0.508-7.285c-9.276,1.008-15.191,3.635-15.944,4.402c-0.22-3.155,2.535-7.09,5.914-10.673
				c-2.855,0.895-4.598,1.797-4.97,2.189c-0.215-3.086,2.448-6.947,5.656-10.423c-2.43,0.747-3.915,1.487-4.236,1.813
				c-0.207-2.967,2.889-6.795,6.236-10.023c-2.599,0.724-4.189,1.505-4.5,1.823c-0.184-2.644,2.634-6.078,5.583-8.913
				c-2.27,0.673-3.656,1.424-3.92,1.728c-0.356-5.096,9.896-13.241,9.896-13.241s11.283,6.642,11.639,11.739
				c-0.304-0.264-1.781-0.815-4.122-1.167c3.315,2.398,6.582,5.407,6.767,8.051c-0.352-0.272-2.035-0.825-4.709-1.181
				c3.763,2.733,7.36,6.093,7.567,9.06c-0.364-0.277-1.938-0.804-4.447-1.207c3.66,2.997,6.833,6.451,7.048,9.537
				c-0.422-0.337-2.274-0.988-5.226-1.478c3.844,3.079,7.119,6.593,7.339,9.748c-0.853-0.656-7.075-2.436-16.401-2.146l0.48,6.888
				l51.521-7.593l-0.673-3.67c-7.671,1.714-12.376,4.468-12.934,5.182c-0.48-2.62,1.457-6.173,3.949-9.49
				c-2.306,1.017-3.681,1.936-3.955,2.299c-0.47-2.563,1.397-6.045,3.756-9.256c-1.964,0.853-3.137,1.613-3.376,1.915
				c-0.452-2.464,1.781-5.959,4.28-8.976c-2.107,0.85-3.365,1.653-3.596,1.949c-0.402-2.196,1.634-5.335,3.838-7.985
				c-1.837,0.777-2.927,1.535-3.12,1.814c-0.776-4.233,7.042-12.013,7.042-12.013s10.069,4.502,10.845,8.735
				c-0.279-0.193-1.567-0.515-3.561-0.59c3,1.696,6.018,3.909,6.42,6.105c-0.32-0.195-1.781-0.499-4.053-0.547
				c3.406,1.934,6.733,4.41,7.185,6.875c-0.331-0.198-1.697-0.492-3.836-0.593c3.345,2.166,6.325,4.759,6.795,7.322
				c-0.385-0.243-1.996-0.614-4.513-0.747c1.575,0.996,3.06,2.076,4.264,3.202c0.782-2.51,2.634-5.306,4.8-7.954
				c-2.785,1.094-4.46,2.116-4.803,2.534c-0.432-3.063,1.953-7.102,4.908-10.795c-2.371,0.916-3.8,1.759-4.098,2.106
				c-0.415-2.945,2.404-6.981,5.515-10.437c-2.541,0.905-4.073,1.796-4.36,2.136c-0.37-2.624,2.199-6.248,4.942-9.284
				c-2.217,0.831-3.547,1.678-3.789,2c-0.713-5.059,8.94-13.905,8.94-13.905s11.722,5.832,12.436,10.891
				c-0.322-0.242-1.834-0.688-4.194-0.874c3.475,2.159,6.946,4.931,7.316,7.555c-0.371-0.247-2.088-0.679-4.781-0.847
				c3.946,2.461,7.771,5.56,8.186,8.505c-0.383-0.251-1.989-0.666-4.521-0.891c3.861,2.732,7.27,5.954,7.702,9.017
				c-0.445-0.307-2.337-0.825-5.317-1.107c4.051,2.801,7.565,6.076,8.007,9.208c-0.897-0.594-7.229-1.932-16.511-0.987l0.887,6.29
				L2085,917l54-90l81.104-66.685l-1.111-5.857c-9.093,2.091-14.658,5.394-15.316,6.245c-0.589-3.107,1.684-7.339,4.619-11.294
				c-2.73,1.225-4.355,2.325-4.678,2.758c-0.576-3.039,1.615-7.186,4.392-11.015c-2.325,1.027-3.713,1.937-3.994,2.298
				c-0.554-2.922,2.071-7.087,5.015-10.686c-2.495,1.024-3.983,1.986-4.254,2.339c-0.494-2.604,1.901-6.345,4.498-9.507
				c-2.175,0.935-3.464,1.844-3.69,2.177c-0.952-5.019,8.272-14.312,8.272-14.312s11.985,5.271,12.937,10.29
				c-0.333-0.227-1.864-0.6-4.231-0.674c3.574,1.992,7.172,4.597,7.666,7.2c-0.382-0.229-2.118-0.58-4.815-0.62
				c4.057,2.272,8.025,5.186,8.579,8.108c-0.394-0.233-2.018-0.571-4.558-0.676c3.733,2.385,7.089,5.218,7.974,8.064l8.894-8.301
				l-0.608-4.26c-6.597,1.203-10.701,3.393-11.202,3.982c-0.321-2.25,1.45-5.214,3.687-7.957c-2,0.79-3.203,1.526-3.449,1.827
				c-0.314-2.201,1.395-5.107,3.515-7.765c-1.703,0.661-2.729,1.269-2.943,1.519c-0.302-2.116,1.719-5.02,3.951-7.508
				c-1.825,0.654-2.925,1.296-3.131,1.54c-0.269-1.886,1.573-4.493,3.541-6.678c-1.593,0.6-2.547,1.21-2.721,1.442
				c-0.519-3.635,6.408-10.004,6.408-10.004s6.252,3.103,8.315,6.287c0.366-2.125,1.655-4.601,3.216-6.952
				c-1.865,0.918-2.967,1.709-3.185,2.013c-0.552-2.368,1.451-5.86,3.734-8.901c-2.004,0.922-3.187,1.758-3.396,2.056
				c-0.492-2.11,1.338-5.248,3.352-7.919c-1.745,0.838-2.767,1.624-2.941,1.903c-0.948-4.068,6.272-11.973,6.272-11.973
				s9.373,3.666,10.807,7.597c0.625-1.268,1.489-2.586,2.416-3.821c-1.761,0.81-2.801,1.545-2.985,1.807
				c-0.432-1.855,1.176-4.613,2.946-6.961c-1.534,0.736-2.432,1.427-2.585,1.673c-0.833-3.576,5.513-10.524,5.513-10.524
				s8.764,3.427,9.597,7.003c-0.246-0.153-1.357-0.375-3.058-0.358c2.625,1.324,5.287,3.087,5.719,4.942
				c-0.281-0.153-1.538-0.353-3.476-0.301c2.981,1.51,5.917,3.485,6.403,5.567c-0.29-0.155-1.467-0.35-3.293-0.349
				c2.939,1.71,5.584,3.799,6.089,5.964c-0.338-0.191-1.726-0.442-3.877-0.453c1.315,0.746,2.552,1.563,3.594,2.424L2319,669
				l54.206,40.029c1.096-1.149,2.46-2.272,3.914-3.319c-2.434,0.277-3.975,0.732-4.334,0.99c0.305-2.514,3.044-5.205,6.161-7.503
				c-2.069,0.224-3.377,0.589-3.687,0.801c0.293-2.417,3.375-5.014,6.566-7.091c-2.201,0.18-3.6,0.561-3.9,0.769
				c0.261-2.154,3.059-4.478,5.869-6.3c-1.929,0.189-3.16,0.578-3.419,0.782c0.504-4.152,10.007-9.111,10.007-9.111
				s8.041,7.088,7.537,11.24c-0.203-0.26-1.305-0.931-3.133-1.577c2.293,2.441,4.453,5.367,4.192,7.52
				c-0.241-0.273-1.509-0.978-3.603-1.679c1.735,1.854,3.363,3.92,4.171,5.808c1.869-4.768,10.561-10.384,10.561-10.384
				s10.363,7.556,10.221,12.558c-0.271-0.287-1.658-0.965-3.907-1.532c3.002,2.655,5.898,5.902,5.825,8.496
				c-0.317-0.299-1.905-0.999-4.478-1.602c3.406,3.024,6.591,6.645,6.509,9.557c-0.328-0.305-1.812-0.97-4.219-1.603
				c3.28,3.272,6.042,6.943,5.957,9.972c-0.379-0.369-2.122-1.181-4.952-1.941c3.452,3.37,6.308,7.109,6.22,10.206
				c-0.768-0.721-6.663-3.052-15.782-3.663l-0.191,6.746l12.388,9.148c0.513-2.698,3.315-5.63,6.511-8.185
				c-2.312,0.343-3.764,0.811-4.101,1.062c0.222-2.725,3.566-5.776,7.054-8.248c-2.462,0.299-4.015,0.789-4.342,1.035
				c0.198-2.428,3.234-5.16,6.307-7.329c-2.156,0.298-3.52,0.789-3.802,1.028c0.382-4.681,10.825-10.667,10.825-10.667
				s9.337,7.597,8.955,12.279c-0.24-0.282-1.506-0.987-3.586-1.631c2.681,2.638,5.235,5.825,5.037,8.253
				c-0.282-0.296-1.736-1.031-4.117-1.725c3.042,3.004,5.847,6.556,5.625,9.281c-0.293-0.302-1.65-0.999-3.875-1.712
				c2.912,3.23,5.318,6.808,5.087,9.643c-0.337-0.365-1.93-1.212-4.545-2.066c3.068,3.33,5.559,6.977,5.323,9.875
				c-0.684-0.714-6.094-3.192-14.61-4.218l-0.494,6.063L2449,765l30.127-17.406l-0.86-5.727c-7.486,1.421-12.132,3.943-12.695,4.617
				c-0.384-2.554,1.604-5.936,4.124-9.072c-2.267,0.914-3.627,1.761-3.904,2.104c-0.375-2.498,1.542-5.814,3.929-8.852
				c-1.93,0.766-3.091,1.465-3.332,1.75c-0.361-2.402,1.912-5.719,4.427-8.564c-2.069,0.758-3.313,1.496-3.545,1.776
				c-0.321-2.14,1.75-5.119,3.968-7.618c-1.804,0.695-2.885,1.396-3.08,1.661c-0.619-4.126,7.199-11.421,7.199-11.421
				s9.616,4.677,10.235,8.803c-0.264-0.195-1.503-0.548-3.432-0.683c1.943,1.183,3.885,2.598,5.029,4.057
				c1.09-1.555,2.577-3.122,4.181-4.589c-2.28,0.495-3.696,1.057-4.016,1.329c0.041-2.73,3.17-5.991,6.482-8.684
				c-2.433,0.461-3.948,1.051-4.258,1.319c0.036-2.433,2.881-5.355,5.799-7.719c-2.129,0.44-3.455,1.019-3.72,1.276
				c0.07-4.689,10.08-11.344,10.08-11.344s9.805,6.952,9.735,11.641c-0.257-0.265-1.566-0.884-3.68-1.387
				c2.846,2.451,5.601,5.457,5.565,7.89c-0.301-0.276-1.798-0.912-4.216-1.446c3.229,2.792,6.26,6.145,6.219,8.875
				c-0.312-0.282-1.71-0.886-3.974-1.449c3.115,3.026,5.75,6.431,5.707,9.271c-0.36-0.341-2.003-1.08-4.665-1.758
				c1.039,0.988,2.022,2.011,2.879,3.041l16.386-9.468l-0.485-4.423c-7.573,1.127-12.338,3.472-12.93,4.126
				c-0.283-2.58,1.849-5.895,4.504-8.943c-2.312,0.827-3.712,1.622-4.004,1.956c-0.276-2.523,1.782-5.775,4.3-8.729
				c-1.968,0.691-3.161,1.346-3.415,1.623c-0.266-2.426,2.149-5.665,4.788-8.42c-2.107,0.678-3.386,1.37-3.63,1.641
				c-0.237-2.162,1.962-5.069,4.289-7.489c-1.839,0.625-2.952,1.286-3.158,1.544c-0.457-4.167,7.685-11.177,7.685-11.177
				s9.466,5.081,9.923,9.248c-0.258-0.207-1.487-0.611-3.418-0.823c2.796,1.859,5.572,4.221,5.809,6.382
				c-0.298-0.212-1.696-0.61-3.9-0.816c3.174,2.119,6.232,4.758,6.498,7.184c-0.307-0.216-1.615-0.597-3.686-0.846
				c3.098,2.339,5.811,5.068,6.088,7.591c-0.357-0.263-1.896-0.736-4.333-1.043c2.427,1.791,4.6,3.792,5.665,5.763l11.715-1.802V0H0
				v767.509L57,753z"/>
			<path style="fill:none;" d="M162.992,852.999l19.159,2.661l0.101-5.273C173.703,850.553,167.031,851.831,162.992,852.999z"/>
			<path style="fill:none;" d="M345.666,965.538l8.666,7.5l1.056-6.855C351.863,965.778,348.611,965.588,345.666,965.538z"/>
			<path style="fill:none;" d="M292.907,894.046c-4.068,0.278-6.658,0.891-7.28,1.281c0.154-0.95,0.539-1.905,1.095-2.856
				c-2.925-1.26-7.747-2.835-14.028-3.78l-0.995,8.947l-0.269-0.03l9.326,8.859C282.418,902.142,287.387,897.785,292.907,894.046z"
				/>
			<path style="fill:none;" d="M267.074,847.947c0.162,0.191,0.321,0.384,0.481,0.576c0.116-0.091,0.232-0.182,0.349-0.271
				C267.632,848.151,267.365,848.049,267.074,847.947z"/>
			<path style="fill:none;" d="M807.487,1043.141l22.585,6.525l0.579-8.869C819.894,1040.51,811.74,1041.928,807.487,1043.141z"/>
			<path style="fill:none;" d="M239.74,867.503l4.804,4.564l0.482-4.333C243.177,867.599,241.417,867.529,239.74,867.503z"/>
			<path style="fill:none;" d="M259.914,870.707c-2.748,0.326-4.483,0.828-4.891,1.114c0.097-0.869,0.47-1.758,1.037-2.648
				c-1.132-0.214-2.291-0.419-3.506-0.602l-1.117,10.044l0.74,0.703C253.239,876.397,256.386,873.361,259.914,870.707z"/>
			<path style="fill:none;" d="M253.148,880.241l1.528,1.452c0.909-0.788,1.884-1.559,2.894-2.302
				C255.643,879.631,254.15,879.949,253.148,880.241z"/>
			<path style="fill:none;" d="M1403.564,1100.519l10.633-4.226c-2.791-0.786-6.163-1.528-10.051-2.041L1403.564,1100.519z"/>
			<path style="fill:none;" d="M1415.684,1077.217c0.502,0.57,0.99,1.148,1.462,1.73c0.234-0.305,0.488-0.609,0.755-0.913
				C1417.258,1077.772,1416.526,1077.497,1415.684,1077.217z"/>
			<path style="fill:none;" d="M1438.68,1086.563l6.563-2.608c-1.823-0.49-3.828-0.95-6.025-1.336L1438.68,1086.563z"/>
			<path style="fill:none;" d="M1418.788,1073.745c0.471,0.75,0.875,1.492,1.188,2.217c1.233-1.103,2.622-2.175,4.078-3.192
				C1421.537,1073.02,1419.727,1073.418,1418.788,1073.745z"/>
			<path style="fill:none;" d="M1419.393,1081.996c1.815,2.758,2.963,5.48,2.748,7.802c-0.432-0.478-2.485-1.601-5.865-2.746
				c1.909,2.119,3.635,4.333,4.871,6.48l11.404-4.532l0.975-7.156C1427.506,1081.258,1422.621,1081.534,1419.393,1081.996z"/>
			<path style="fill:none;" d="M1111.771,1028.115l13.789,3.109l-0.376-5.774C1119.645,1026.027,1115.092,1027.08,1111.771,1028.115
				z"/>
			<path style="fill:none;" d="M926.622,1077.557l13.739,3.969l0.199-5.076C935.064,1076.447,930.355,1076.927,926.622,1077.557z"/>
			<path style="fill:#937F4D;" d="M2548.953,713.563c-0.441-0.312-2.551-0.903-5.867-1.192L2539,713l-3.283,1.897l0.458,4.183
				l-4.226,0.463l-0.254-2.322l-16.386,9.468c1.846,2.217,3.107,4.463,3.077,6.446c-0.565-0.516-4.037-1.897-9.547-2.708
				l-5.343,3.087l-0.06,3.975l-4.755-0.071l0.017-1.131l-4.335,2.505c0.847,1.038,1.424,2.093,1.58,3.132
				c-0.428-0.278-2.367-0.746-5.397-0.926l-7.481,4.322l0.39,2.597l-4.184,0.628l-0.143-0.951L2449,765l-8.051-5.945l-0.124,1.514
				l-4.747-0.387l0.363-4.456l-4.256-3.143c-6.039,0.209-9.948,1.336-10.59,1.818c0.173-2.124,1.859-4.407,4.15-6.574l-1.676-1.238
				c-0.202,0.086-0.359,0.166-0.443,0.232c0.014-0.168,0.038-0.337,0.071-0.506l-12.388-9.148l-0.038,1.35l-5.073-0.144l0.138-4.878
				l-4.104-3.031c-6.754,0.525-11.092,2.011-11.769,2.577c0.07-2.46,2.02-5.22,4.642-7.84l-1.405-1.037
				c-0.794,0.281-1.312,0.532-1.504,0.698c0.015-0.518,0.12-1.052,0.291-1.594l-5.09-3.759l-4.003-0.486l0.275-2.267l-6.179-4.563
				c-3.835,0.206-6.297,0.845-6.78,1.179c0.173-1.428,1.124-2.907,2.494-4.344L2319,669l-26.476,24.711
				c1.396,1.154,2.43,2.389,2.725,3.657c-0.463-0.251-2.752-0.586-6.241-0.375l-4.772,4.454l0.479,2.056l-3.575,0.833l-2.763,2.578
				c1.835,1.422,3.202,2.965,3.572,4.551c-0.568-0.307-3.556-0.725-8.065-0.357l-4.623,4.315l0.704,3.021l-4.126,0.961l-0.151-0.648
				l-6.988,6.522c0.315,0.554,0.526,1.108,0.604,1.656c-0.204-0.14-0.836-0.342-1.82-0.521l-0.716,0.668
				c2.339,1.783,4.207,3.762,4.48,5.671c-0.57-0.376-4.194-1.163-9.63-0.865l-1.997,1.864l0.599,4.195l-3.686,0.526l-0.231-1.623
				l-8.894,8.301c0.06,0.193,0.109,0.386,0.146,0.579c-0.104-0.065-0.292-0.137-0.54-0.211l-1.646,1.536
				c2.732,2.081,4.823,4.36,5.256,6.64c-0.747-0.445-5.065-1.207-11.563-0.753L2229,753l-4.334,3.564l0.958,5.053l-5.09,0.965
				l-0.43-2.267L2139,827l-54,90l-13.779,2.031l0.268,1.898l-5.13,0.723l-0.263-1.866l-26.575,3.916l0.556,3.031l-4.293,0.787
				l-0.583-3.182l-51.521,7.593l0.095,1.361l-5.168,0.36l-0.067-0.964l-44.4,6.543l0.215,3.089l-4.327,0.302l-0.192-2.757
				l-22.139,3.263l0.241,1.902l-5.166,0.655l-0.228-1.797L1895,945l-130,116l-66-94l-9.915,4.755c0.75,1.09,1.249,2.184,1.385,3.256
				c-0.473-0.323-2.491-0.876-5.664-1.204l-10.287,4.934l0.417,3.29l-5.166,0.655l-0.199-1.572l-35.385,16.97
				c1.543,2.008,2.549,4.014,2.616,5.877c-0.645-0.532-4.135-1.762-9.679-2.489l-8.588,4.119l0.165,4.649l-5.849,0.207l-0.074-2.094
				l-13.902,6.667c1.703,2.373,2.799,4.725,2.674,6.768c-0.579-0.58-4.095-2.187-9.769-3.366l-6.879,3.299l-0.254,4.155
				l-5.302-0.324l0.073-1.201l-32.077,15.384c1.59,2.175,2.611,4.339,2.684,6.359c-0.709-0.584-4.385-1.889-10.223-2.744
				l-11.043,5.296l0.172,4.775l-6.816,0.245l-0.065-1.802l-5.346,2.564c0.639,1.031,1.051,2.059,1.158,3.063
				c-0.436-0.311-2.19-0.845-4.962-1.239L1503,1061l-1.419,0.564l0.296,2.773l-5.282,0.563l-0.139-1.3l-42.631,16.943
				c1.866,2.904,3.033,5.754,2.712,8.109c-0.61-0.71-4.663-2.915-11.295-4.698l-6.563,2.608l-0.701,5.141l-5.692-0.776l0.263-1.929
				l-11.404,4.532c1.309,2.275,2.067,4.474,1.887,6.406c-0.568-0.606-3.708-2.2-8.837-3.644l-10.633,4.226l-0.33,3.551l-6.151-0.571
				l0.039-0.419l-14.428,5.734c0.891,1.522,1.44,3.021,1.491,4.445c-0.565-0.466-3.108-1.412-7.172-2.187l-13.075,5.196l0.141,3.968
				l-6.496,0.231l-0.059-1.65L1347,1123l-116-68l-99.012-22.326l0.158,2.431l-6.306,0.41l-0.279-4.291l-13.789-3.109
				c-3.464,1.079-5.587,2.139-6.058,2.615c-0.078-1.195,0.196-2.481,0.733-3.816l-21.549-4.859l-0.295,2.48l-6.275-0.747
				l0.373-3.131l-44.485-10.031l-0.049,3.79l-7.05-0.092l0.069-5.284L1027,1009l-40,86l-39.346-11.367l-0.191,4.86l-7.364-0.289
				l0.262-6.677l-13.739-3.969c-5.281,0.892-8.594,2.085-9.288,2.653c0.061-1.563,0.655-3.203,1.615-4.87l-38.449-11.107
				l-0.15,2.294l-6.833-0.446l0.248-3.793l-18.275-5.279c-1.574,0.428-2.583,0.834-2.925,1.1c0.039-0.603,0.172-1.218,0.37-1.838
				l-14.689-4.244l-0.166,2.548l-8.293-0.542l0.285-4.368l-22.585-6.525c-1.662,0.474-2.747,0.918-3.13,1.216
				c0.069-1.063,0.365-2.153,0.83-3.256L681,911l-91.208,72.595c1.207,1.914,1.958,3.808,2.056,5.614
				c-0.583-0.464-2.868-1.308-6.507-2.071L583,989l-15.692,3.827l0.285,5.293l-7.881,0.424l-0.205-3.813l-5.819,1.419
				c0.003,0.023,0.009,0.047,0.011,0.07c-0.022-0.016-0.064-0.035-0.09-0.051l-25.431,6.203l0.442,4.404l-8.27,0.83l-0.326-3.245
				l-68.029,16.592l0.568,3.643l-5.835,0.91l-0.491-3.148L419,1029l-16.122-13.952l-0.059,0.488l-5.862-0.714l0.54-4.431
				l-5.972-5.168c-6.929,0.065-11.442,1.181-12.225,1.721c0.312-2.56,2.417-5.235,5.256-7.752l-1.995-1.727
				c-0.158,0.068-0.29,0.132-0.369,0.188c0.018-0.146,0.05-0.292,0.079-0.439l-20.518-17.756l-0.169,1.099l-8.214-1.265l0.964-6.255
				l-8.666-7.5c-9.476-0.161-15.676,1.177-16.783,1.89c0.527-3.422,3.353-6.922,7.178-10.202L315,939l-6.453-6.13l-0.271,1.672
				l-8.204-1.328l1.178-7.276l-6.814-6.473c-10.581-0.481-17.571,0.943-18.758,1.695c0.619-3.822,4.114-7.718,8.661-11.288
				l-2.348-2.231c-0.875,0.221-1.465,0.437-1.733,0.614c0.096-0.595,0.266-1.192,0.496-1.789l-9.326-8.859l-5.337-0.594l0.45-4.048
				l-5.338-5.071c-6.841,0.094-11.296,1.238-12.053,1.773c0.292-2.622,2.546-5.392,5.526-7.974l-1.528-1.452
				c-0.678,0.198-1.137,0.384-1.328,0.524c0.053-0.478,0.179-0.961,0.356-1.448l-0.74-0.703l-0.219,1.971l-7.527-0.837l0.854-7.681
				l-4.804-4.564c-10.664-0.169-17.689,1.595-18.799,2.379c0.298-2.677,2.122-5.468,4.736-8.176l-36.073-5.01l-0.111,5.758
				l-7.47-0.144l0.128-6.65l-19.159-2.661c-2.317,0.67-3.775,1.305-4.205,1.672c0.014-0.718,0.147-1.456,0.364-2.205L91,843l-34-90
				L0,767.509v402.918l135.558-27.791l123.896,68.546l159,11.818l92.922-66.182l218.883,37.818L881,1270.273l-35.104,68.545
				l-144.545,4.727l-109.442-40.182l-142.481,11.818l-97.052,66.182l-185.844-30.727l-121.831,14.182L0,1336.093V1440h2560V709.769
				l-11.715,1.802C2548.647,712.242,2548.882,712.909,2548.953,713.563z M2202.273,1343.818l-139.455-14.182l-212.727,30.727
				L1739,1294.182l-163.091-11.818l-125.273,40.182l-165.454-4.727L1245,1249.273l172.545-75.636l250.545-37.818L1774.455,1202
				l182-11.818l141.818-68.546L2256.636,1150L2337,1268.182L2202.273,1343.818z"/>
			<path style="fill:#937F4D;" d="M528.62,1006.775l-0.442-4.404l-0.882-8.794c14.709-0.905,24.673,1.552,26.313,2.592
				c0.026,0.016,0.068,0.035,0.09,0.051c-0.002-0.023-0.009-0.047-0.011-0.07c-0.309-2.831-2.154-5.795-4.831-8.689
				c-8.241,1.683-13.359,3.979-14.214,4.823c-0.259-4.811,4.033-10.738,9.268-16.114c-4.371,1.295-7.048,2.625-7.623,3.214
				c-0.158-2.942,1.405-6.318,3.813-9.71c-0.641-0.528-1.293-1.05-1.958-1.561c1.029,0.133,1.959,0.282,2.787,0.438
				c0.802-1.052,1.677-2.101,2.597-3.136c-0.23-0.339-0.473-0.679-0.738-1.017c-2.316,0.805-3.749,1.532-4.13,1.906
				c-0.082-1.533,0.425-3.209,1.321-4.942c-2.114-2.001-4.644-3.934-7.222-5.689c4.305,0.441,7.031,1.245,7.609,1.664
				c-0.424-4.23-5.81-8.897-11.242-12.58c3.772,0.45,6.167,1.261,6.667,1.67c-0.818-8.155-19.233-18.256-19.233-18.256
				s-16.041,13.559-15.223,21.714c0.409-0.5,2.595-1.772,6.202-2.962c-4.592,4.689-8.943,10.333-8.518,14.563
				c0.483-0.526,2.995-1.855,7.126-3.143c-5.209,5.34-9.987,11.628-9.511,16.375c0.5-0.537,2.846-1.797,6.705-3.113
				c-4.975,5.73-9.056,12.051-8.561,16.988c0.576-0.647,3.327-2.178,7.862-3.753c-5.244,5.91-9.47,12.353-8.964,17.402
				c1.171-1.268,10.527-5.768,25.351-7.836l0.999,9.953l0.326,3.245L528.62,1006.775z"/>
			<path style="fill:#937F4D;" d="M542.788,964.397c0.709-0.246,1.495-0.5,2.367-0.753c-0.556,0.583-1.099,1.174-1.629,1.77
				c-0.92,1.034-1.795,2.083-2.597,3.136c-0.285,0.374-0.563,0.749-0.829,1.124c-2.408,3.392-3.971,6.768-3.813,9.71
				c0.575-0.589,3.252-1.92,7.623-3.214c-5.235,5.376-9.527,11.303-9.268,16.114c0.855-0.844,5.973-3.14,14.214-4.823
				c3-0.613,6.402-1.146,10.179-1.496l0.471,8.766l0.205,3.813l7.881-0.424l-0.285-5.293l-0.392-7.286
				c7.749-0.117,14.062,0.681,18.424,1.596c3.638,0.763,5.923,1.607,6.507,2.071c-0.097-1.806-0.849-3.7-2.056-5.614
				c-2.008-3.185-5.276-6.426-8.887-9.414c4.485,0.818,7.289,1.855,7.924,2.378c-0.253-4.706-5.003-10.044-10.504-14.698
				c3.813,0.674,6.197,1.515,6.745,1.946c-0.243-4.525-5.642-9.731-11.307-13.985c4.064,0.608,6.615,1.49,7.145,1.913
				c-0.217-4.032-5.121-8.695-10.112-12.428c3.558,0.592,5.795,1.468,6.251,1.878c-0.418-7.772-17.443-18.164-17.443-18.164
				s-15.813,12.157-15.396,19.929c0.41-0.456,2.54-1.567,6.014-2.537c-4.562,4.247-8.938,9.409-8.721,13.441
				c0.482-0.478,2.923-1.628,6.898-2.668c-3.422,3.197-6.674,6.795-8.421,10.175c-0.896,1.732-1.403,3.408-1.321,4.942
				C539.039,965.929,540.472,965.202,542.788,964.397z"/>
			<path style="fill:#937F4D;" d="M862.208,1045.181c-1.082,0.185-2.04,0.385-2.888,0.588c0.535,0.196,1.038,0.387,1.496,0.573
				C861.273,1045.951,861.736,1045.563,862.208,1045.181z"/>
			<path style="fill:#937F4D;" d="M807.487,1043.141c4.253-1.213,12.407-2.63,23.164-2.344l-0.579,8.869l-0.285,4.368l8.293,0.542
				l0.166-2.548l0.698-10.689c6.932,0.722,12.677,2.012,16.982,3.309c0.876-2.173,2.604-4.419,4.749-6.59
				c-0.493-0.71-1.022-1.422-1.581-2.133c-0.172,0.08-0.316,0.154-0.397,0.217c0.013-0.204,0.046-0.411,0.083-0.618
				c-1.166-1.455-2.448-2.902-3.792-4.315c1.926,0.595,3.517,1.189,4.782,1.729c0.582-1.028,1.371-2.066,2.306-3.094
				c-1.496-3.835-4.66-7.985-8.247-11.838c3.903,1.181,6.29,2.358,6.809,2.878c0.311-4.761-4.683-10.879-10.075-16.035
				c4.174,1.143,6.73,2.384,7.231,2.893c0.277-4.242-4.268-9.731-9.02-14.258c3.646,1.064,5.875,2.258,6.302,2.744
				c0.534-8.178-15.969-21.171-15.969-21.171s-18.053,10.736-18.587,18.914c0.486-0.426,2.851-1.321,6.605-1.901
				c-5.3,3.87-10.521,8.721-10.798,12.964c0.563-0.439,3.259-1.337,7.546-1.928c-6.016,4.41-11.764,9.827-12.075,14.588
				c0.582-0.448,3.102-1.304,7.125-1.968c-5.849,4.834-10.915,10.398-11.238,15.349c0.675-0.544,3.64-1.601,8.372-2.408
				c-4.855,3.924-9.127,8.281-10.874,12.434c-0.464,1.104-0.76,2.193-0.83,3.256C804.74,1044.059,805.825,1043.615,807.487,1043.141
				z"/>
			<path style="fill:#937F4D;" d="M858.782,1035.523c-0.037,0.207-0.07,0.414-0.083,0.618c0.081-0.063,0.225-0.138,0.397-0.217
				c0.84-0.389,2.722-0.95,5.474-1.404c-1.377,1.138-2.697,2.326-3.893,3.537c-2.145,2.172-3.874,4.417-4.749,6.59
				c-0.344,0.854-0.563,1.697-0.617,2.518c0.402-0.324,1.801-0.868,4.009-1.396c0.849-0.203,1.806-0.404,2.888-0.588
				c-0.472,0.382-0.935,0.77-1.392,1.161c-3.729,3.193-6.835,6.657-7.88,9.928c-0.198,0.62-0.331,1.235-0.37,1.838
				c0.342-0.266,1.35-0.672,2.925-1.1c3.593-0.976,10.167-2.061,18.739-1.833l-0.464,7.112l-0.248,3.793l6.833,0.446l0.15-2.294
				l0.562-8.612c12.265,1.278,20.098,4.714,21.098,5.725c0.272-4.171-3.392-9.356-7.879-14.071c3.779,1.167,6.088,2.348,6.581,2.864
				c0.266-4.079-3.276-9.167-7.536-13.743c3.215,0.973,5.182,1.943,5.61,2.371c0.256-3.923-3.858-8.963-8.301-13.211
				c3.439,0.942,5.545,1.964,5.958,2.384c0.228-3.495-3.516-8.017-7.431-11.747c3.004,0.876,4.841,1.861,5.192,2.261
				c0.44-6.738-13.157-17.442-13.157-17.442s-14.873,8.845-15.313,15.583c0.4-0.351,2.349-1.088,5.442-1.566
				c-4.367,3.189-8.668,7.185-8.896,10.681c0.464-0.362,2.685-1.102,6.217-1.588c-2.406,1.764-4.755,3.723-6.569,5.72
				c-0.934,1.029-1.723,2.067-2.306,3.094C859.277,1033.811,858.933,1034.677,858.782,1035.523z"/>
			<path style="fill:#937F4D;" d="M926.622,1077.557c3.733-0.63,8.442-1.111,13.939-1.107l-0.199,5.076l-0.262,6.677l7.364,0.289
				l0.191-4.86l0.271-6.893c13.232,1.032,21.755,4.512,22.859,5.571c0.177-4.495-3.91-9.971-8.87-14.919
				c4.098,1.15,6.616,2.356,7.161,2.898c0.173-4.397-3.78-9.771-8.491-14.576c3.487,0.958,5.63,1.946,6.102,2.394
				c0.166-4.227-4.401-9.536-9.299-13.982c3.726,0.917,6.021,1.959,6.476,2.398c0.148-3.767-4.007-8.528-8.323-12.431
				c3.257,0.859,5.26,1.867,5.649,2.287c0.285-7.262-14.642-18.399-14.642-18.399s-15.756,9.932-16.041,17.193
				c0.421-0.389,2.497-1.236,5.811-1.837c-4.609,3.553-9.125,7.973-9.273,11.74c0.489-0.402,2.858-1.26,6.645-1.883
				c-5.232,4.048-10.202,8.981-10.368,13.209c0.506-0.41,2.72-1.227,6.271-1.908c-5.074,4.419-9.436,9.468-9.609,13.864
				c0.586-0.498,3.19-1.503,7.366-2.327c-3.479,2.964-6.596,6.181-8.399,9.308c-0.96,1.666-1.553,3.307-1.615,4.87
				C918.028,1079.642,921.341,1078.449,926.622,1077.557z"/>
			<path style="fill:#937F4D;" d="M1034.165,1014.417l0.049-3.79l0.097-7.462c12.68,0.655,20.919,3.768,22.002,4.753
				c0.056-4.304-3.99-9.438-8.858-14.045c3.948,0.997,6.386,2.087,6.921,2.592c0.055-4.209-3.861-9.25-8.487-13.726
				c3.358,0.828,5.433,1.719,5.896,2.137c0.053-4.047-4.449-9.009-9.245-13.138c3.586,0.784,5.807,1.722,6.254,2.131
				c0.047-3.606-4.046-8.055-8.272-11.679c3.136,0.74,5.077,1.653,5.46,2.046c0.09-6.952-14.465-17.228-14.465-17.228
				s-14.818,9.894-14.909,16.846c0.393-0.382,2.357-1.245,5.511-1.903c-4.319,3.513-8.526,7.854-8.573,11.46
				c0.458-0.397,2.702-1.277,6.307-1.967c-4.901,4.003-9.531,8.846-9.583,12.893c0.473-0.405,2.57-1.242,5.949-1.982
				c-4.741,4.354-8.786,9.291-8.841,13.5c0.548-0.491,3.013-1.517,6.986-2.411c-4.986,4.48-9.164,9.507-9.22,13.81
				c1.108-0.957,9.425-3.855,22.118-4.179l-0.078,5.968l-0.069,5.284L1034.165,1014.417z"/>
			<path style="fill:#937F4D;" d="M1084.601,1024.535l0.295-2.48l0.897-7.535c11.24,1.78,18.29,5.332,19.162,6.313
				c0.456-3.831-2.666-8.788-6.57-13.355c3.425,1.261,5.495,2.463,5.924,2.963c0.446-3.746-2.568-8.609-6.269-13.035
				c2.915,1.055,4.68,2.045,5.053,2.461c0.429-3.602-3.115-8.45-7-12.582c3.123,1.037,5.013,2.083,5.373,2.489
				c0.382-3.21-2.846-7.561-6.271-11.191c2.725,0.955,4.37,1.953,4.673,2.339c0.737-6.188-11.268-16.721-11.268-16.721
				s-14.141,7.42-14.878,13.608c0.386-0.304,2.218-0.887,5.092-1.176c-4.181,2.724-8.341,6.196-8.723,9.406
				c0.445-0.311,2.529-0.883,5.808-1.158c-4.747,3.105-9.33,6.985-9.758,10.587c0.46-0.316,2.408-0.865,5.49-1.206
				c-4.637,3.434-8.708,7.453-9.154,11.199c0.534-0.386,2.829-1.068,6.454-1.49c-4.867,3.522-9.065,7.609-9.521,11.439
				c1.078-0.748,8.764-2.546,20.108-1.638l-0.819,6.884l-0.373,3.131L1084.601,1024.535z"/>
			<path style="fill:#937F4D;" d="M1105.713,1030.73c0.471-0.476,2.595-1.535,6.058-2.615c3.321-1.035,7.873-2.089,13.414-2.664
				l0.376,5.774l0.279,4.291l6.306-0.41l-0.158-2.431l-0.497-7.633c11.377-0.3,18.956,1.906,19.992,2.711
				c-0.25-3.849-4.225-8.154-8.896-11.932c3.598,0.615,5.852,1.419,6.365,1.833c-0.245-3.765-4.096-7.996-8.542-11.672
				c3.059,0.505,4.975,1.157,5.417,1.497c-0.236-3.62-4.604-7.74-9.178-11.094c3.259,0.45,5.309,1.133,5.737,1.467
				c-0.21-3.226-4.178-6.915-8.208-9.859c2.854,0.442,4.652,1.123,5.021,1.447c-0.405-6.218-14.129-14.384-14.129-14.384
				s-12.55,9.876-12.146,16.094c0.324-0.369,2.019-1.277,4.792-2.085c-3.614,3.441-7.071,7.614-6.861,10.839
				c0.381-0.387,2.325-1.33,5.499-2.198c-4.1,3.919-7.899,8.57-7.663,12.19c0.395-0.395,2.21-1.289,5.178-2.187
				c-3.933,4.222-7.202,8.916-6.958,12.681c0.455-0.477,2.586-1.566,6.074-2.642c-2.856,3-5.35,6.205-6.542,9.169
				C1105.909,1028.249,1105.635,1029.534,1105.713,1030.73z"/>
			<path style="fill:#937F4D;" d="M1364.079,1120.236l-0.141-3.968l-0.228-6.401c5.36,0.016,9.872,0.55,13.303,1.204
				c4.064,0.775,6.607,1.721,7.172,2.187c-0.051-1.424-0.599-2.923-1.491-4.445c-1.592-2.719-4.29-5.512-7.296-8.093
				c3.681,0.741,5.974,1.636,6.49,2.077c-0.08-2.242-1.398-4.68-3.354-7.095c-0.052,0.029-0.114,0.06-0.15,0.087
				c0.007-0.075,0.024-0.151,0.034-0.227c-1.408-1.715-3.129-3.417-4.961-5.025c3.13,0.612,5.081,1.34,5.525,1.703
				c-0.133-3.729-4.501-8.097-9.102-11.684c3.338,0.561,5.425,1.325,5.855,1.682c-0.118-3.323-4.087-7.236-8.141-10.385
				c2.921,0.541,4.75,1.295,5.12,1.639c-0.228-6.406-14.093-15.217-14.093-15.217s-13.203,9.776-12.974,16.182
				c0.344-0.37,2.115-1.252,4.99-2c-3.82,3.429-7.5,7.615-7.382,10.938c0.404-0.386,2.431-1.297,5.72-2.094
				c-4.334,3.906-8.38,8.573-8.248,12.302c0.418-0.394,2.311-1.259,5.39-2.092c-4.171,4.222-7.675,8.95-7.537,12.829
				c0.482-0.476,2.707-1.532,6.325-2.533c-4.391,4.349-8.013,9.166-7.872,13.131c0.978-0.931,8.507-3.972,20.181-4.84l0.311,8.718
				l0.059,1.65L1364.079,1120.236z"/>
			<path style="fill:#937F4D;" d="M1378.534,1095.703c1.428-0.808,8.739-2.603,19.462-2.022l-0.873,9.399l-0.039,0.419l6.151,0.571
				l0.33-3.551l0.582-6.267c3.888,0.513,7.259,1.255,10.051,2.041c5.129,1.444,8.269,3.038,8.837,3.644
				c0.18-1.932-0.578-4.131-1.887-6.406c-1.236-2.147-2.962-4.361-4.871-6.48c3.379,1.146,5.433,2.268,5.865,2.746
				c0.216-2.322-0.933-5.044-2.748-7.802c-2.294,0.328-3.758,0.75-4.17,1.025c0.183-1.345,0.882-2.717,1.923-4.074
				c-0.471-0.582-0.96-1.16-1.462-1.73c0.842,0.28,1.574,0.556,2.217,0.818c0.617-0.699,1.314-1.392,2.075-2.073
				c-0.312-0.725-0.716-1.467-1.188-2.217c-0.293,0.102-0.507,0.198-0.624,0.279c0.041-0.303,0.117-0.607,0.209-0.913
				c-1.313-1.944-3.044-3.916-4.847-5.738c3.078,0.935,4.952,1.909,5.314,2.297c0.292-3.147-2.973-7.318-6.412-10.778
				c2.688,0.865,4.32,1.798,4.626,2.167c0.564-6.066-11.434-16.056-11.434-16.056s-13.633,7.609-14.197,13.676
				c0.37-0.307,2.146-0.923,4.947-1.278c-4.018,2.768-7.995,6.266-8.288,9.413c0.427-0.315,2.449-0.927,5.647-1.279
				c-4.56,3.155-8.942,7.062-9.27,10.594c0.442-0.321,2.332-0.906,5.335-1.317c-4.445,3.473-8.323,7.504-8.664,11.176
				c0.513-0.39,2.738-1.115,6.27-1.619c-4.574,3.494-8.498,7.501-8.982,11.194c-0.01,0.075-0.028,0.151-0.034,0.227
				C1378.42,1095.763,1378.482,1095.732,1378.534,1095.703z"/>
			<path style="fill:#937F4D;" d="M1418.788,1073.745c0.939-0.327,2.749-0.726,5.266-0.975c-1.456,1.016-2.845,2.089-4.078,3.192
				c-0.761,0.681-1.458,1.373-2.075,2.073c-0.267,0.303-0.521,0.607-0.755,0.913c-1.042,1.357-1.74,2.729-1.923,4.074
				c0.412-0.276,1.876-0.697,4.17-1.025c3.228-0.462,8.113-0.738,14.133-0.153l-0.975,7.156l-0.263,1.929l5.692,0.776l0.701-5.141
				l0.538-3.944c2.196,0.386,4.202,0.846,6.025,1.336c6.632,1.783,10.685,3.988,11.295,4.698c0.321-2.355-0.846-5.206-2.712-8.109
				c-0.888-1.381-1.932-2.774-3.053-4.131c3.094,1.199,4.957,2.323,5.339,2.785c0.463-3.399-2.202-7.865-5.497-11.945
				c2.634,1.004,4.223,1.931,4.555,2.315c0.445-3.268-2.701-7.729-6.169-11.545c2.822,0.991,4.525,1.971,4.846,2.346
				c0.397-2.912-2.47-6.917-5.528-10.269c2.463,0.91,3.942,1.842,4.212,2.198c0.765-5.613-9.984-15.372-9.984-15.372
				s-12.969,6.527-13.734,12.14c0.355-0.27,2.03-0.772,4.646-0.99c-3.843,2.412-7.677,5.503-8.074,8.415
				c0.41-0.276,2.312-0.764,5.297-0.963c-4.362,2.749-8.588,6.205-9.034,9.473c0.423-0.28,2.202-0.749,5.009-1.011
				c-3.888,2.778-7.348,6.004-8.285,9.126c-0.092,0.305-0.168,0.61-0.209,0.913
				C1418.281,1073.943,1418.495,1073.848,1418.788,1073.745z"/>
			<path style="fill:#937F4D;" d="M1504.818,1025.213c-0.121-0.032-0.254-0.063-0.388-0.095c-0.004,0.122-0.016,0.246-0.012,0.366
				C1504.496,1025.41,1504.641,1025.315,1504.818,1025.213z"/>
			<path style="fill:#937F4D;" d="M1510.072,1023.287c-1.463,1.482-2.843,3.023-4.033,4.571c1.714,1.582,2.976,3.254,3.145,4.837
				c-0.371-0.266-2.116-0.768-4.869-1.033c1.252,0.841,2.488,1.747,3.605,2.688c0.29-0.086,0.575-0.173,0.885-0.259
				c-0.184,0.183-0.365,0.367-0.546,0.551c2.246,1.953,3.939,4.043,4.15,6.017c-0.383-0.271-2.015-0.751-4.602-1.07
				c1.815,1.378,3.518,2.865,4.855,4.38c2.661-0.504,5.689-0.931,9.062-1.183l0.326,9.077l0.065,1.802l6.816-0.245l-0.172-4.775
				l-0.219-6.104c4.315,0.011,8.101,0.345,11.262,0.808c5.838,0.855,9.514,2.159,10.223,2.744c-0.073-2.02-1.094-4.184-2.684-6.359
				c-1.685-2.305-4.008-4.622-6.54-6.794c3.863,0.776,6.27,1.715,6.81,2.177c-0.146-4.07-4.168-8.756-8.851-12.862
				c3.284,0.641,5.332,1.404,5.798,1.786c-0.141-3.913-4.725-8.495-9.555-12.258c3.503,0.588,5.693,1.389,6.144,1.763
				c-0.125-3.487-4.291-7.592-8.546-10.894c3.065,0.566,4.984,1.357,5.373,1.718c-0.242-6.722-14.793-15.963-14.793-15.963
				s-13.851,10.262-13.609,16.984c0.361-0.388,2.219-1.315,5.235-2.1c-4.007,3.599-7.867,7.993-7.742,11.48
				c0.423-0.405,2.55-1.362,6.002-2.2c-3.557,3.207-6.919,6.902-8.151,10.233c0.45,0.621,0.806,1.244,1.034,1.859
				C1506.924,1024.252,1508.304,1023.766,1510.072,1023.287z"/>
			<path style="fill:#937F4D;" d="M1598.948,1003.527c-0.279,0.085-0.541,0.17-0.796,0.254c0.422,0.208,0.703,0.383,0.823,0.502
				C1598.99,1004.037,1598.975,1003.784,1598.948,1003.527z"/>
			<path style="fill:#937F4D;" d="M1597.089,995.158c-0.245,0.111-0.464,0.217-0.647,0.314c0.342,0.173,0.582,0.321,0.681,0.421
				C1597.137,995.654,1597.12,995.407,1597.089,995.158z"/>
			<path style="fill:#937F4D;" d="M1584.646,1025.876l0.254-4.155l0.263-4.307c2.444,0.244,4.656,0.601,6.616,1.008
				c5.674,1.178,9.19,2.785,9.769,3.366c0.125-2.043-0.97-4.395-2.674-6.768c-0.994-1.386-2.195-2.778-3.484-4.122
				c2.935,0.893,4.73,1.802,5.114,2.201c0.158-2.588-1.661-5.691-4.145-8.669c-1.076,0.434-1.771,0.806-2.011,1.035
				c-0.031-0.881,0.145-1.808,0.486-2.764c-0.074-0.079-0.146-0.16-0.22-0.239c0.097,0.029,0.183,0.058,0.278,0.087
				c0.438-1.174,1.119-2.39,1.973-3.615c-1.188-1.658-2.75-3.333-4.373-4.871c1.387,0.374,2.488,0.764,3.278,1.1
				c0.067-0.727,0.263-1.482,0.561-2.255c-1.05-2.035-2.999-4.203-5.011-6.104c2.333,0.67,3.761,1.428,4.035,1.737
				c0.32-5.228-10.262-13.488-10.262-13.488s-11.509,6.909-11.829,12.137c0.309-0.274,1.819-0.852,4.216-1.232
				c-3.377,2.487-6.701,5.602-6.866,8.314c0.359-0.282,2.079-0.863,4.818-1.252c-3.833,2.835-7.492,6.312-7.678,9.355
				c0.371-0.288,1.979-0.842,4.549-1.276c-3.725,3.105-6.948,6.674-7.142,9.839c0.43-0.349,2.322-1.033,5.344-1.561
				c-3.914,3.19-7.24,6.822-7.438,10.059c0.869-0.68,7.232-2.559,16.795-2.344l-0.444,7.26l-0.073,1.201L1584.646,1025.876z"/>
			<path style="fill:#937F4D;" d="M1501.877,1064.337l-0.296-2.773l-0.604-5.656c4.908-0.333,8.987-0.073,11.923,0.344
				c2.772,0.394,4.525,0.928,4.962,1.239c-0.107-1.004-0.519-2.032-1.158-3.063c-1.413-2.281-3.935-4.576-6.728-6.649
				c3.043,0.391,4.964,0.989,5.409,1.318c-0.178-1.672-1.217-3.418-2.725-5.127c-1.336-1.515-3.04-3.001-4.855-4.38
				c2.586,0.318,4.218,0.799,4.602,1.07c-0.211-1.974-1.904-4.065-4.15-6.017c-0.112-0.098-0.223-0.196-0.339-0.293
				c-1.117-0.942-2.353-1.847-3.605-2.688c2.753,0.265,4.498,0.767,4.869,1.033c-0.169-1.583-1.431-3.254-3.145-4.837
				c-1.211-1.118-2.647-2.193-4.091-3.158c0.983,0.111,1.811,0.261,2.48,0.418c0.135,0.031,0.268,0.063,0.388,0.095
				c0.751,0.198,1.235,0.395,1.399,0.527c-0.038-0.354-0.131-0.713-0.266-1.075c-0.228-0.615-0.583-1.238-1.034-1.859
				c-3.19-4.398-11.066-8.655-11.066-8.655s-10.197,8.73-9.641,13.938c0.259-0.321,1.651-1.143,3.952-1.918
				c-2.916,3.015-5.674,6.64-5.385,9.341c0.307-0.338,1.906-1.198,4.542-2.037c-3.308,3.433-6.336,7.471-6.013,10.504
				c0.318-0.345,1.811-1.16,4.272-2.016c-3.156,3.682-5.739,7.738-5.403,10.891c0.366-0.416,2.118-1.405,5.01-2.43
				c-3.328,3.798-6.003,7.933-5.659,11.157c0.743-0.815,6.705-3.729,16.17-5.11l0.761,7.129l0.139,1.3L1501.877,1064.337z"/>
			<path style="fill:#937F4D;" d="M1595.744,995.924c0.117-0.116,0.358-0.272,0.698-0.452c0.183-0.097,0.403-0.203,0.647-0.314
				c0.984-0.446,2.445-0.987,4.35-1.514c-1.733,1.716-3.333,3.512-4.573,5.29c-0.855,1.225-1.535,2.441-1.973,3.615
				c-0.019,0.051-0.04,0.101-0.058,0.152c-0.341,0.956-0.517,1.883-0.486,2.764c0.24-0.229,0.935-0.602,2.011-1.035
				c0.51-0.205,1.108-0.423,1.791-0.649c0.255-0.084,0.517-0.169,0.796-0.254c3.162-0.97,7.8-1.988,13.573-2.416l0.257,7.241
				l0.074,2.094l5.849-0.207l-0.165-4.649l-0.166-4.686c3.292,0.01,6.235,0.237,8.754,0.568c5.544,0.727,9.035,1.958,9.679,2.489
				c-0.066-1.863-1.073-3.87-2.616-5.877c-1.413-1.839-3.275-3.679-5.293-5.412c3.314,0.668,5.379,1.474,5.843,1.871
				c-0.124-3.492-3.573-7.514-7.588-11.04c2.818,0.552,4.574,1.207,4.974,1.535c-0.119-3.358-4.051-7.291-8.193-10.521
				c3.005,0.506,4.884,1.194,5.271,1.515c-0.106-2.992-3.678-6.516-7.328-9.351c2.63,0.487,4.276,1.167,4.609,1.477
				c-0.204-5.768-12.686-13.703-12.686-13.703s-11.889,8.799-11.684,14.566c0.31-0.333,1.904-1.127,4.493-1.799
				c-3.44,3.086-6.754,6.855-6.648,9.846c0.363-0.348,2.189-1.167,5.151-1.885c-3.903,3.516-7.547,7.717-7.428,11.075
				c0.376-0.355,2.081-1.133,4.853-1.883c-2.728,2.76-5.132,5.759-6.2,8.533c-0.298,0.772-0.494,1.527-0.561,2.255
				C1595.748,995.419,1595.735,995.674,1595.744,995.924z"/>
			<path style="fill:#937F4D;" d="M1674.937,982.031l-0.417-3.29l-0.628-4.954c4.389-0.385,8.104-0.27,10.915,0.02
				c3.172,0.328,5.19,0.88,5.664,1.204c-0.136-1.072-0.635-2.166-1.385-3.256c-1.455-2.115-3.871-4.215-6.532-6.11
				c2.99,0.325,4.884,0.873,5.327,1.187c-0.391-3.084-3.771-6.37-7.613-9.17c2.541,0.262,4.15,0.701,4.531,0.959
				c-0.376-2.965-4.176-6.134-8.106-8.662c2.703,0.206,4.423,0.665,4.792,0.918c-0.335-2.642-3.784-5.477-7.246-7.695
				c2.369,0.22,3.883,0.689,4.203,0.937c-0.646-5.094-12.344-11.119-12.344-11.119s-9.825,8.753-9.179,13.847
				c0.248-0.32,1.596-1.152,3.836-1.956c-2.799,3.012-5.432,6.617-5.097,9.259c0.294-0.337,1.845-1.211,4.412-2.085
				c-3.175,3.429-6.065,7.445-5.689,10.411c0.305-0.345,1.753-1.172,4.148-2.059c-3.022,3.67-5.475,7.695-5.084,10.779
				c0.35-0.415,2.048-1.418,4.863-2.478c-3.188,3.787-5.729,7.891-5.33,11.044c0.713-0.813,6.499-3.784,15.749-5.321l0.846,6.672
				l0.199,1.572L1674.937,982.031z"/>
			<path style="fill:#937F4D;" d="M1923.175,936.807c-0.695,0.166-1.339,0.338-1.94,0.512c1.193,0.249,1.966,0.508,2.235,0.692
				C1923.419,937.612,1923.319,937.21,1923.175,936.807z"/>
			<path style="fill:#937F4D;" d="M1907.937,945.031l-0.241-1.902l-0.804-6.342c3.843-0.337,7.167-0.29,9.824-0.079
				c0.611-1.504,1.703-3.098,3.019-4.66c-0.27-0.259-0.553-0.516-0.842-0.772c-1.056,0.438-1.711,0.815-1.907,1.023
				c-0.05-0.722,0.093-1.496,0.376-2.299c-0.584-0.461-1.188-0.914-1.808-1.356c0.841,0.091,1.585,0.201,2.245,0.318
				c0.408-0.841,0.945-1.702,1.573-2.563c-0.329-0.461-0.703-0.921-1.113-1.378c-0.03,0.023-0.066,0.049-0.085,0.069
				c-0.004-0.053,0.001-0.108,0-0.162c-1.348-1.483-3.072-2.93-4.905-4.266c2.541,0.262,4.15,0.701,4.531,0.959
				c-0.376-2.965-4.176-6.134-8.106-8.662c2.703,0.206,4.423,0.665,4.792,0.918c-0.335-2.642-3.784-5.477-7.246-7.695
				c2.369,0.22,3.883,0.689,4.203,0.937c-0.646-5.094-12.344-11.119-12.344-11.119s-9.825,8.753-9.179,13.847
				c0.248-0.32,1.596-1.152,3.836-1.956c-2.799,3.012-5.432,6.617-5.097,9.259c0.294-0.337,1.845-1.211,4.412-2.085
				c-3.175,3.429-6.065,7.445-5.689,10.411c0.305-0.345,1.753-1.172,4.148-2.059c-3.022,3.67-5.475,7.695-5.084,10.779
				c0.35-0.415,2.048-1.418,4.863-2.478c-3.188,3.787-5.729,7.891-5.33,11.044c0.713-0.813,6.499-3.784,15.749-5.321l0.817,6.447
				l0.228,1.797L1907.937,945.031z"/>
			<path style="fill:#937F4D;" d="M1918.259,925.021c0.381-0.298,1.576-0.869,3.462-1.449c-0.849,0.92-1.652,1.873-2.349,2.827
				c-0.628,0.861-1.166,1.722-1.573,2.563c-0.17,0.35-0.316,0.697-0.437,1.038c-0.284,0.802-0.427,1.576-0.376,2.299
				c0.196-0.207,0.851-0.585,1.907-1.023c0.618-0.256,1.371-0.534,2.254-0.81c-0.49,0.52-0.963,1.049-1.412,1.582
				c-1.315,1.561-2.407,3.155-3.019,4.66c-0.384,0.944-0.58,1.853-0.521,2.695c0.361-0.367,2.138-1.243,5.041-2.084
				c0.6-0.174,1.245-0.346,1.94-0.512c1.823-0.436,3.96-0.828,6.37-1.09l0.29,4.15l0.192,2.757l4.327-0.302l-0.215-3.089
				l-0.266-3.817c7.809-0.243,13.019,1.248,13.733,1.797c-0.184-2.642-2.926-5.584-6.145-8.162c2.472,0.411,4.022,0.955,4.375,1.238
				c-0.18-2.584-2.837-5.476-5.901-7.985c2.102,0.337,3.419,0.778,3.724,1.011c-0.173-2.484-3.186-5.298-6.336-7.586
				c2.239,0.298,3.648,0.761,3.943,0.989c-0.154-2.214-2.89-4.734-5.666-6.741c1.96,0.294,3.197,0.756,3.452,0.977
				c-0.298-4.267-9.745-9.829-9.745-9.829s-8.584,6.82-8.286,11.087c0.221-0.254,1.382-0.883,3.283-1.447
				c-2.47,2.374-4.829,5.249-4.675,7.463c0.26-0.267,1.592-0.92,3.768-1.527c-2.742,2.645-5.277,5.769-5.222,8.23
				c0.001,0.054-0.004,0.109,0,0.162C1918.193,925.07,1918.229,925.045,1918.259,925.021z"/>
			<path style="fill:#937F4D;" d="M1983.774,933.292l-0.095-1.361l-0.48-6.888c9.326-0.29,15.548,1.49,16.401,2.146
				c-0.22-3.155-3.495-6.669-7.339-9.748c2.952,0.49,4.803,1.141,5.226,1.478c-0.215-3.086-3.388-6.54-7.048-9.537
				c2.51,0.403,4.083,0.93,4.447,1.207c-0.207-2.967-3.805-6.328-7.567-9.06c2.674,0.356,4.357,0.909,4.709,1.181
				c-0.184-2.644-3.452-5.653-6.767-8.051c2.341,0.352,3.818,0.903,4.122,1.167c-0.355-5.096-11.639-11.739-11.639-11.739
				s-10.251,8.145-9.896,13.241c0.264-0.304,1.65-1.055,3.92-1.728c-2.95,2.835-5.768,6.269-5.583,8.913
				c0.311-0.319,1.901-1.099,4.5-1.823c-3.347,3.228-6.443,7.056-6.236,10.023c0.322-0.325,1.807-1.065,4.236-1.813
				c-3.208,3.476-5.871,7.337-5.656,10.423c0.371-0.393,2.115-1.294,4.97-2.189c-3.379,3.583-6.134,7.518-5.914,10.673
				c0.753-0.768,6.668-3.395,15.944-4.402l0.508,7.285l0.067,0.964L1983.774,933.292z"/>
			<path style="fill:#937F4D;" d="M2051.618,917.706c2.514-1.277,7.212-3.091,13.586-4.242l0.891,6.322l0.263,1.866l5.13-0.723
				l-0.268-1.898l-0.887-6.29c9.282-0.945,15.614,0.392,16.511,0.987c-0.441-3.132-3.955-6.407-8.007-9.208
				c2.979,0.281,4.872,0.8,5.317,1.107c-0.432-3.063-3.84-6.285-7.702-9.017c2.532,0.225,4.138,0.64,4.521,0.891
				c-0.415-2.945-4.24-6.044-8.186-8.505c2.692,0.167,4.41,0.6,4.781,0.847c-0.37-2.624-3.841-5.396-7.316-7.555
				c2.36,0.186,3.873,0.632,4.194,0.874c-0.713-5.059-12.436-10.891-12.436-10.891s-9.653,8.846-8.94,13.905
				c0.242-0.322,1.572-1.168,3.789-2c-2.743,3.036-5.312,6.659-4.942,9.284c0.288-0.34,1.819-1.23,4.36-2.136
				c-3.111,3.456-5.93,7.492-5.515,10.437c0.298-0.347,1.728-1.19,4.098-2.106c-2.955,3.693-5.34,7.732-4.908,10.795
				c0.343-0.418,2.018-1.44,4.803-2.534c-2.167,2.648-4.018,5.444-4.8,7.954C2050.601,916.471,2051.166,917.085,2051.618,917.706z"
				/>
			<path style="fill:#937F4D;" d="M2225.624,761.617l-0.958-5.053l-0.582-3.071c1.77-0.265,3.433-0.44,4.976-0.548
				c6.499-0.454,10.817,0.307,11.563,0.753c-0.432-2.28-2.523-4.558-5.256-6.64c-0.991-0.755-2.065-1.485-3.177-2.179
				c2.313,0.108,3.973,0.389,4.823,0.643c0.248,0.074,0.437,0.146,0.54,0.211c-0.037-0.193-0.086-0.386-0.146-0.579
				c-0.885-2.846-4.241-5.679-7.974-8.064c2.54,0.105,4.164,0.443,4.558,0.676c-0.554-2.922-4.521-5.837-8.579-8.108
				c2.697,0.04,4.434,0.391,4.815,0.62c-0.494-2.604-4.092-5.209-7.666-7.2c2.367,0.074,3.898,0.448,4.231,0.674
				c-0.952-5.019-12.937-10.29-12.937-10.29s-9.224,9.292-8.272,14.312c0.227-0.333,1.515-1.241,3.69-2.177
				c-2.596,3.162-4.991,6.903-4.498,9.507c0.271-0.353,1.759-1.315,4.254-2.339c-2.944,3.599-5.569,7.764-5.015,10.686
				c0.281-0.361,1.669-1.27,3.994-2.298c-2.777,3.829-4.968,7.976-4.392,11.015c0.323-0.433,1.948-1.533,4.678-2.758
				c-2.935,3.955-5.208,8.186-4.619,11.294c0.658-0.851,6.223-4.154,15.316-6.245l1.111,5.857l0.43,2.267L2225.624,761.617z"/>
			<path style="fill:#937F4D;" d="M2251.554,710.528c0.007,0.328,0.042,0.644,0.112,0.945c0.249-0.365,1.539-1.319,3.728-2.412
				c-0.907,1.335-1.716,2.699-2.334,4.021c0.801,0.829,1.372,1.683,1.492,2.518c-0.208-0.138-1.016-0.356-2.28-0.501
				c-0.057,0.188-0.097,0.37-0.141,0.554c0.645,0.432,1.267,0.885,1.843,1.352c2.041-1.211,5.569-2.878,10.331-4.183l1.384,5.937
				l0.151,0.648l4.126-0.961l-0.704-3.021l-0.83-3.564c1.992-0.384,3.82-0.618,5.454-0.751c4.509-0.369,7.498,0.049,8.065,0.357
				c-0.369-1.586-1.736-3.129-3.572-4.551c-1.079-0.836-2.32-1.631-3.618-2.367c2.447,0.013,4.026,0.298,4.411,0.516
				c-0.404-1.732-2.014-3.421-4.095-4.947c-3.654,1.452-5.822,2.926-6.148,3.386c-0.516-2.214,0.99-5.32,2.98-8.248
				c-1.924,0.961-3.058,1.799-3.277,2.12c-0.303-1.299,0.106-2.916,0.881-4.611c-0.267-0.143-0.536-0.284-0.805-0.42
				c0.359-0.01,0.689-0.009,1.006-0.005c0.354-0.724,0.768-1.456,1.221-2.184c-0.126-0.115-0.257-0.229-0.393-0.342
				c-1.08,0.594-1.731,1.078-1.884,1.291c-0.169-0.727-0.053-1.579,0.24-2.488c-0.865-0.558-1.805-1.08-2.742-1.552
				c1.593-0.016,2.72,0.152,3.229,0.309c0.042-0.09,0.094-0.182,0.139-0.272c-1.434-3.931-10.807-7.597-10.807-7.597
				s-7.22,7.905-6.272,11.973c0.174-0.28,1.196-1.066,2.941-1.903c-2.014,2.671-3.843,5.809-3.352,7.919
				c0.21-0.297,1.392-1.134,3.396-2.056c-2.283,3.04-4.286,6.532-3.734,8.901c0.218-0.304,1.321-1.095,3.185-2.013
				c-1.561,2.352-2.85,4.827-3.216,6.952c0.331,0.511,0.564,1.023,0.636,1.525C2252.202,710.728,2251.941,710.628,2251.554,710.528z
				"/>
			<path style="fill:#937F4D;" d="M2268.896,688.615c-0.293,0.909-0.41,1.76-0.24,2.488c0.152-0.213,0.803-0.697,1.884-1.291
				c0.279-0.153,0.58-0.313,0.916-0.478c-0.18,0.272-0.352,0.546-0.523,0.82c-0.453,0.728-0.867,1.46-1.221,2.184
				c-0.07,0.143-0.136,0.284-0.2,0.426c-0.775,1.696-1.184,3.313-0.881,4.611c0.219-0.321,1.353-1.159,3.277-2.12
				c-1.99,2.928-3.496,6.034-2.98,8.248c0.326-0.46,2.494-1.934,6.148-3.386c1.357-0.539,2.913-1.076,4.665-1.556l1.349,5.788
				l0.052-0.012l3.575-0.833l-0.479-2.056l-0.87-3.732c2.104-0.405,4.004-0.623,5.642-0.722c3.489-0.21,5.779,0.125,6.241,0.375
				c-0.295-1.268-1.329-2.503-2.725-3.657c-1.041-0.861-2.279-1.678-3.594-2.424c2.151,0.011,3.539,0.262,3.877,0.453
				c-0.504-2.165-3.15-4.254-6.089-5.964c1.827,0,3.003,0.194,3.293,0.349c-0.485-2.082-3.421-4.057-6.403-5.567
				c1.938-0.052,3.195,0.148,3.476,0.301c-0.432-1.855-3.094-3.618-5.719-4.942c1.701-0.017,2.813,0.205,3.058,0.358
				c-0.833-3.576-9.597-7.003-9.597-7.003s-6.346,6.948-5.513,10.524c0.153-0.246,1.051-0.937,2.585-1.673
				c-1.77,2.348-3.378,5.106-2.946,6.961c0.184-0.262,1.224-0.997,2.985-1.807c-0.927,1.235-1.791,2.553-2.416,3.821
				c-0.044,0.09-0.097,0.182-0.139,0.272C2269.185,687.796,2269.027,688.21,2268.896,688.615z"/>
			<path style="fill:#937F4D;" d="M2250.219,737.949l-0.599-4.195l-0.241-1.688c0.777-0.08,1.522-0.137,2.238-0.176
				c5.436-0.298,9.06,0.488,9.63,0.865c-0.272-1.909-2.141-3.888-4.48-5.671c-0.417-0.318-0.844-0.632-1.286-0.936
				c0.775,0.072,1.444,0.167,2.002,0.268c0.984,0.179,1.616,0.38,1.82,0.521c-0.078-0.547-0.289-1.102-0.604-1.656
				c-0.951-1.673-2.854-3.344-4.942-4.815c1.82,0.159,2.975,0.455,3.25,0.635c-0.196-1.372-1.424-2.788-3.036-4.095
				c-0.576-0.467-1.198-0.92-1.843-1.352c-0.335-0.224-0.674-0.443-1.016-0.655c0.422,0.026,0.804,0.061,1.157,0.102
				c1.264,0.145,2.072,0.362,2.28,0.501c-0.119-0.836-0.691-1.69-1.492-2.518c-1.007-1.041-2.384-2.041-3.776-2.903
				c0.977,0.075,1.744,0.213,2.27,0.349c0.387,0.1,0.648,0.2,0.746,0.274c-0.072-0.502-0.305-1.015-0.636-1.525
				c-2.063-3.184-8.315-6.287-8.315-6.287s-6.927,6.37-6.408,10.004c0.174-0.232,1.128-0.842,2.721-1.442
				c-1.968,2.185-3.81,4.793-3.541,6.678c0.206-0.244,1.306-0.886,3.131-1.54c-2.232,2.488-4.253,5.392-3.951,7.508
				c0.214-0.25,1.24-0.857,2.943-1.519c-2.12,2.658-3.829,5.564-3.515,7.765c0.246-0.301,1.449-1.037,3.449-1.827
				c-2.237,2.744-4.008,5.707-3.687,7.957c0.5-0.589,4.604-2.779,11.202-3.982l0.608,4.26l0.231,1.623L2250.219,737.949z"/>
			<path style="fill:#937F4D;" d="M2398.047,715.388c-0.85-0.342-1.858-0.7-3.006-1.051c-0.386,0.777-0.614,1.54-0.635,2.269
				C2394.718,716.346,2396,715.848,2398.047,715.388z"/>
			<path style="fill:#937F4D;" d="M2403.18,700.625c-1.521,1.199-3.022,2.538-4.179,3.894c0.667,1.055,1.189,2.096,1.515,3.091
				c0.294-0.061,0.604-0.12,0.928-0.177c-0.261,0.206-0.52,0.417-0.778,0.63c0.191,0.718,0.266,1.406,0.188,2.044
				c-0.16-0.188-0.673-0.525-1.484-0.932c-0.323,0.289-0.637,0.582-0.943,0.877c1.832,2.482,3.091,4.995,2.844,7.03
				c-0.247-0.279-1.245-0.871-2.878-1.552c-2.736,2.48-5.106,5.212-5.906,7.739c-0.171,0.542-0.276,1.076-0.291,1.594
				c0.191-0.166,0.709-0.417,1.504-0.698c0.864-0.306,2.056-0.647,3.551-0.96c-0.747,0.651-1.468,1.32-2.146,1.997
				c-2.622,2.62-4.572,5.38-4.642,7.84c0.677-0.566,5.014-2.052,11.769-2.577c1.313-0.102,2.708-0.172,4.195-0.187l-0.091,3.218
				l-0.138,4.878l5.073,0.144l0.038-1.35l0.191-6.746c9.119,0.611,15.014,2.942,15.782,3.663c0.088-3.097-2.768-6.836-6.22-10.206
				c2.831,0.761,4.573,1.572,4.952,1.941c0.086-3.029-2.677-6.7-5.957-9.972c2.408,0.633,3.891,1.297,4.219,1.603
				c0.083-2.912-3.103-6.533-6.509-9.557c2.573,0.604,4.16,1.303,4.478,1.602c0.073-2.595-2.823-5.841-5.825-8.496
				c2.249,0.567,3.636,1.246,3.907,1.532c0.142-5.002-10.221-12.558-10.221-12.558s-8.692,5.616-10.561,10.384
				c0.171,0.4,0.309,0.793,0.399,1.173C2400.63,701.248,2401.73,700.905,2403.18,700.625z"/>
			<path style="fill:#937F4D;" d="M2396.966,708.139c-0.003,0.017-0.009,0.035-0.012,0.052c0.105,0.124,0.209,0.249,0.312,0.373
				c0.109-0.05,0.236-0.104,0.384-0.161C2397.432,708.317,2397.203,708.228,2396.966,708.139z"/>
			<path style="fill:#937F4D;" d="M2377.492,712.194c1.921-0.103,4.179-0.099,6.719,0.11l-0.54,4.453l-0.275,2.267l4.003,0.486
				l0.208,0.025l0.815-6.72c2.548,0.409,4.765,0.954,6.619,1.521c1.149,0.351,2.156,0.71,3.006,1.051
				c0.119,0.048,0.235,0.095,0.347,0.142c1.633,0.68,2.631,1.272,2.878,1.552c0.247-2.035-1.013-4.548-2.844-7.03
				c-0.367-0.498-0.757-0.995-1.163-1.486c-0.103-0.125-0.207-0.249-0.312-0.373c-0.024-0.028-0.046-0.056-0.07-0.084
				c0.029,0.011,0.053,0.021,0.082,0.032c0.238,0.089,0.467,0.177,0.684,0.265c0.678,0.272,1.248,0.532,1.722,0.77
				c0.811,0.407,1.324,0.744,1.484,0.932c0.078-0.638,0.003-1.326-0.188-2.044c-0.039-0.148-0.102-0.302-0.151-0.452
				c-0.325-0.994-0.848-2.036-1.515-3.091c-0.672-1.063-1.471-2.135-2.334-3.172c1.955,0.712,3.138,1.38,3.388,1.659
				c0.056-0.464,0.013-0.958-0.11-1.475c-0.09-0.38-0.228-0.773-0.399-1.173c-0.808-1.888-2.436-3.954-4.171-5.808
				c2.094,0.701,3.362,1.406,3.603,1.679c0.261-2.154-1.899-5.079-4.192-7.52c1.828,0.645,2.93,1.317,3.133,1.577
				c0.504-4.152-7.537-11.24-7.537-11.24s-9.503,4.959-10.007,9.111c0.26-0.203,1.49-0.592,3.419-0.782
				c-2.81,1.822-5.607,4.146-5.869,6.3c0.299-0.208,1.699-0.589,3.9-0.769c-3.19,2.077-6.272,4.674-6.566,7.091
				c0.309-0.212,1.618-0.577,3.687-0.801c-3.117,2.297-5.856,4.989-6.161,7.503c0.359-0.258,1.9-0.713,4.334-0.99
				c-1.454,1.047-2.818,2.17-3.914,3.319c-1.37,1.437-2.321,2.916-2.494,4.344C2371.195,713.039,2373.656,712.4,2377.492,712.194z"
				/>
			<path style="fill:#937F4D;" d="M2424.07,746.59c0.74-0.316,2.241-0.742,4.377-1.071c-0.953,0.745-1.866,1.52-2.701,2.309
				c-2.291,2.167-3.977,4.45-4.15,6.574c0.643-0.482,4.551-1.609,10.59-1.818c1.395-0.048,2.902-0.048,4.51,0.021l-0.254,3.121
				l-0.363,4.456l4.747,0.387l0.124-1.514l0.494-6.063c8.516,1.026,13.926,3.504,14.61,4.218c0.236-2.898-2.254-6.545-5.323-9.875
				c2.615,0.854,4.208,1.701,4.545,2.066c0.231-2.834-2.176-6.412-5.087-9.643c2.225,0.713,3.583,1.409,3.875,1.712
				c0.222-2.725-2.583-6.277-5.625-9.281c2.381,0.694,3.835,1.428,4.117,1.725c0.198-2.428-2.356-5.616-5.037-8.253
				c2.08,0.643,3.346,1.348,3.586,1.631c0.382-4.681-8.955-12.279-8.955-12.279s-10.444,5.985-10.825,10.667
				c0.282-0.24,1.646-0.73,3.802-1.028c-3.073,2.169-6.109,4.9-6.307,7.329c0.327-0.247,1.88-0.736,4.342-1.035
				c-3.488,2.472-6.832,5.522-7.054,8.248c0.338-0.251,1.79-0.719,4.101-1.062c-3.196,2.555-5.998,5.487-6.511,8.185
				c-0.032,0.17-0.057,0.339-0.071,0.506C2423.711,746.756,2423.868,746.676,2424.07,746.59z"/>
			<path style="fill:#937F4D;" d="M2486.227,722.01c-0.142,0.278-0.269,0.554-0.377,0.828c0.562,0.382,1.105,0.778,1.618,1.184
				c0.718-0.233,1.599-0.478,2.639-0.709c-0.567,0.508-1.117,1.027-1.643,1.551c1.377,1.248,2.373,2.563,2.566,3.849
				c-0.314-0.202-1.629-0.529-3.699-0.695c1.178,0.818,2.304,1.691,3.275,2.594c2.263-0.397,5.022-0.711,8.188-0.785l-0.097,6.459
				l-0.017,1.131l4.755,0.071l0.06-3.975l0.054-3.615c1.925,0.103,3.689,0.293,5.289,0.528c5.51,0.81,8.982,2.191,9.547,2.708
				c0.03-1.982-1.231-4.228-3.077-6.446c-0.857-1.03-1.84-2.053-2.879-3.041c2.662,0.678,4.305,1.416,4.665,1.758
				c0.043-2.839-2.592-6.245-5.707-9.271c2.264,0.563,3.663,1.167,3.974,1.449c0.041-2.73-2.989-6.083-6.219-8.875
				c2.418,0.534,3.915,1.169,4.216,1.446c0.036-2.433-2.719-5.439-5.565-7.89c2.115,0.503,3.423,1.122,3.68,1.387
				c0.07-4.689-9.735-11.641-9.735-11.641s-10.01,6.655-10.08,11.344c0.265-0.257,1.592-0.837,3.72-1.276
				c-2.918,2.364-5.762,5.287-5.799,7.719c0.309-0.267,1.824-0.858,4.258-1.319c-3.312,2.693-6.441,5.954-6.482,8.684
				c0.32-0.272,1.736-0.834,4.016-1.329c-1.605,1.468-3.091,3.034-4.181,4.589c0.536,0.684,0.898,1.376,1.001,2.06
				C2487.991,722.352,2487.301,722.16,2486.227,722.01z"/>
			<path style="fill:#937F4D;" d="M2483.454,747.916l-0.39-2.597l-0.613-4.081c3.17-0.352,5.913-0.371,8.094-0.241
				c3.03,0.18,4.969,0.648,5.397,0.926c-0.156-1.039-0.732-2.094-1.58-3.132c-1.235-1.513-3.052-2.99-5.026-4.329
				c2.435,0.208,3.984,0.618,4.35,0.865c-0.236-1.571-1.434-3.185-3.08-4.714c-0.971-0.903-2.098-1.776-3.275-2.594
				c2.069,0.165,3.384,0.492,3.699,0.695c-0.193-1.286-1.189-2.6-2.566-3.849c-0.314-0.284-0.647-0.565-0.996-0.842
				c-0.512-0.406-1.056-0.802-1.618-1.184c-0.513-0.349-1.039-0.688-1.568-1.012c0.747,0.04,1.394,0.106,1.945,0.183
				c1.074,0.15,1.764,0.342,1.965,0.473c-0.103-0.683-0.465-1.376-1.001-2.06c-1.144-1.459-3.086-2.874-5.029-4.057
				c1.929,0.134,3.167,0.487,3.432,0.683c-0.619-4.126-10.235-8.803-10.235-8.803s-7.818,7.295-7.199,11.421
				c0.195-0.265,1.275-0.966,3.08-1.661c-2.218,2.499-4.29,5.477-3.968,7.618c0.232-0.279,1.477-1.018,3.545-1.776
				c-2.515,2.845-4.788,6.162-4.427,8.564c0.241-0.286,1.402-0.985,3.332-1.75c-2.387,3.038-4.304,6.354-3.929,8.852
				c0.277-0.344,1.637-1.19,3.904-2.104c-2.519,3.136-4.507,6.518-4.124,9.072c0.563-0.674,5.209-3.196,12.695-4.617l0.86,5.727
				l0.143,0.951L2483.454,747.916z"/>
			<path style="fill:#937F4D;" d="M2536.175,719.079l-0.458-4.183l-0.281-2.562c2.963-0.209,5.547-0.147,7.65,0.037
				c3.316,0.289,5.426,0.88,5.867,1.192c-0.072-0.654-0.307-1.321-0.668-1.992c-1.065-1.972-3.238-3.972-5.665-5.763
				c2.437,0.306,3.976,0.78,4.333,1.043c-0.276-2.523-2.99-5.252-6.088-7.591c2.071,0.249,3.378,0.63,3.686,0.846
				c-0.266-2.426-3.324-5.065-6.498-7.184c2.204,0.206,3.602,0.604,3.9,0.816c-0.237-2.162-3.013-4.523-5.809-6.382
				c1.931,0.212,3.16,0.616,3.418,0.823c-0.457-4.167-9.923-9.248-9.923-9.248s-8.142,7.01-7.685,11.177
				c0.207-0.258,1.319-0.918,3.158-1.544c-2.327,2.42-4.526,5.327-4.289,7.489c0.245-0.271,1.523-0.963,3.63-1.641
				c-2.64,2.756-5.054,5.994-4.788,8.42c0.253-0.277,1.447-0.932,3.415-1.623c-2.518,2.954-4.576,6.206-4.3,8.729
				c0.292-0.334,1.692-1.129,4.004-1.956c-2.655,3.047-4.786,6.363-4.504,8.943c0.593-0.654,5.358-2.999,12.93-4.126l0.485,4.423
				l0.254,2.322L2536.175,719.079z"/>
			<path style="fill:#937F4D;" d="M2040.077,926.734l-0.556-3.031l-0.7-3.82c7.78-1.118,13.156-0.212,13.931,0.258
				c-0.149-0.814-0.549-1.63-1.134-2.434c-0.452-0.621-1.016-1.235-1.66-1.836c-1.204-1.125-2.689-2.206-4.264-3.202
				c2.517,0.133,4.128,0.504,4.513,0.747c-0.47-2.563-3.45-5.157-6.795-7.322c2.139,0.102,3.505,0.395,3.836,0.593
				c-0.452-2.464-3.779-4.94-7.185-6.875c2.272,0.047,3.733,0.352,4.053,0.547c-0.402-2.196-3.42-4.409-6.42-6.105
				c1.993,0.075,3.281,0.397,3.561,0.59c-0.776-4.233-10.845-8.735-10.845-8.735s-7.818,7.78-7.042,12.013
				c0.193-0.279,1.283-1.038,3.12-1.814c-2.203,2.65-4.24,5.789-3.838,7.985c0.23-0.296,1.489-1.099,3.596-1.949
				c-2.499,3.017-4.731,6.512-4.28,8.976c0.239-0.302,1.413-1.062,3.376-1.915c-2.359,3.211-4.226,6.693-3.756,9.256
				c0.274-0.363,1.649-1.282,3.955-2.299c-2.493,3.317-4.43,6.869-3.949,9.49c0.559-0.714,5.264-3.468,12.934-5.182l0.673,3.67
				l0.583,3.182L2040.077,926.734z"/>
			<path style="fill:#937F4D;" d="M382.56,997.465c0.848-0.364,2.809-0.863,5.667-1.187c-1.298,0.934-2.541,1.912-3.672,2.914
				c-2.839,2.517-4.944,5.193-5.256,7.752c0.783-0.54,5.297-1.656,12.225-1.721c2.002-0.019,4.195,0.045,6.572,0.242l-0.6,4.926
				l-0.54,4.431l5.862,0.714l0.059-0.488l1.081-8.869c10.5,1.693,17.079,5.031,17.892,5.949c0.436-3.579-2.469-8.22-6.105-12.498
				c3.198,1.187,5.129,2.316,5.529,2.785c0.426-3.5-2.378-8.052-5.826-12.198c2.722,0.993,4.369,1.924,4.716,2.313
				c0.41-3.366-2.89-7.905-6.51-11.777c2.916,0.977,4.68,1.959,5.015,2.34c0.365-2.999-2.641-7.074-5.832-10.475
				c2.545,0.9,4.079,1.836,4.362,2.198c0.704-5.781-10.487-15.656-10.487-15.656s-13.235,6.898-13.94,12.679
				c0.362-0.283,2.075-0.823,4.762-1.086c-3.915,2.535-7.811,5.769-8.177,8.768c0.417-0.289,2.366-0.819,5.431-1.068
				c-4.444,2.89-8.737,6.504-9.147,9.869c0.431-0.294,2.253-0.802,5.134-1.113c-4.162,3.064-7.831,6.631-8.505,10.004
				c-0.029,0.146-0.061,0.293-0.079,0.439C382.27,997.598,382.402,997.533,382.56,997.465z"/>
			<path style="fill:#937F4D;" d="M452.564,1024.595l-0.568-3.643l-0.884-5.671c10.564-1.232,17.804,0.188,18.836,0.85
				c-0.555-3.562-4.615-7.237-9.279-10.362c3.4,0.271,5.566,0.831,6.078,1.173c-0.543-3.484-4.482-7.1-8.928-10.15
				c2.89,0.214,4.728,0.661,5.168,0.94c-0.522-3.35-4.934-6.819-9.472-9.558c3.072,0.146,5.037,0.61,5.463,0.886
				c-0.465-2.985-4.468-6.087-8.465-8.49c2.693,0.173,4.425,0.656,4.795,0.926c-0.897-5.754-14.355-12.207-14.355-12.207
				s-10.856,10.243-9.958,15.997c0.271-0.371,1.773-1.358,4.286-2.342c-3.076,3.505-5.944,7.679-5.479,10.664
				c0.322-0.392,2.053-1.432,4.934-2.507c-3.489,3.991-6.635,8.638-6.113,11.988c0.334-0.401,1.949-1.385,4.636-2.469
				c-3.307,4.259-5.958,8.902-5.415,12.386c0.384-0.482,2.276-1.674,5.433-2.968c-3.492,4.397-6.24,9.133-5.685,12.695
				c0.781-0.945,7.245-4.501,17.683-6.544l0.961,6.165l0.491,3.148L452.564,1024.595z"/>
			<path style="fill:#937F4D;" d="M328.883,967.428c1.107-0.713,7.307-2.051,16.783-1.89c2.945,0.05,6.196,0.24,9.722,0.645
				l-1.056,6.855l-0.964,6.255l8.214,1.265l0.169-1.099l1.85-12.011c14.694,2.848,23.8,7.835,24.902,9.163
				c0.772-5.014-3.107-11.672-8.032-17.851c4.445,1.812,7.112,3.485,7.653,4.162c0.755-4.904-2.987-11.432-7.652-17.417
				c3.784,1.518,6.06,2.9,6.531,3.463c0.726-4.716-3.713-11.247-8.633-16.855c4.058,1.504,6.496,2.964,6.95,3.515
				c0.647-4.202-3.4-10.067-7.738-14.993c3.539,1.379,5.655,2.764,6.037,3.285c1.248-8.1-14.055-22.487-14.055-22.487
				s-18.923,9.115-20.171,17.215c0.521-0.382,2.956-1.066,6.746-1.316c-5.619,3.392-11.243,7.767-11.891,11.969
				c0.599-0.388,3.364-1.047,7.686-1.26c-6.379,3.867-12.579,8.76-13.305,13.476c0.619-0.395,3.205-1.028,7.27-1.337
				c-6.25,4.304-11.783,9.403-12.538,14.307c0.72-0.483,3.766-1.276,8.551-1.667c-2.081,1.4-4.075,2.878-5.854,4.404
				C332.236,960.505,329.41,964.005,328.883,967.428z"/>
			<path style="fill:#937F4D;" d="M289.839,894.193c-0.294-0.326-1.365-0.968-3.118-1.723c-0.555,0.951-0.941,1.906-1.095,2.856
				c0.622-0.39,3.212-1.003,7.28-1.281c-5.52,3.739-10.489,8.096-12.152,12.421c-0.23,0.598-0.399,1.195-0.496,1.789
				c0.268-0.177,0.858-0.393,1.733-0.614c1.49-0.376,3.814-0.764,6.831-0.987c-1.561,1.033-3.071,2.11-4.482,3.218
				c-4.548,3.569-8.042,7.466-8.661,11.288c1.188-0.752,8.178-2.177,18.758-1.695c2.408,0.11,5.001,0.317,7.756,0.654l-0.942,5.818
				l-1.178,7.276l8.204,1.328l0.271-1.672l1.849-11.422c14.672,2.96,23.739,8.018,24.831,9.354
				c0.811-5.008-3.018-11.696-7.895-17.912c4.431,1.846,7.085,3.54,7.621,4.221c0.793-4.898-2.899-11.455-7.518-17.475
				c3.773,1.547,6.037,2.946,6.504,3.513c0.763-4.71-3.627-11.276-8.503-16.921c4.046,1.535,6.473,3.014,6.923,3.568
				c0.68-4.197-3.322-10.093-7.622-15.052c3.528,1.406,5.634,2.807,6.012,3.331c1.31-8.09-13.882-22.594-13.882-22.594
				s-18.992,8.969-20.302,17.06c0.524-0.378,2.964-1.043,6.756-1.264c-5.645,3.348-11.303,7.681-11.982,11.877
				c0.602-0.384,3.372-1.021,7.695-1.201c-3.823,2.277-7.575,4.921-10.15,7.683C289.615,891.257,289.993,892.806,289.839,894.193z"
				/>
			<path style="fill:#937F4D;" d="M239.74,867.503c1.678,0.027,3.437,0.097,5.286,0.23l-0.482,4.333l-0.854,7.681l7.527,0.837
				l0.219-1.971l1.117-10.044c1.215,0.183,2.374,0.388,3.506,0.602c1.533-2.407,4.523-4.822,7.6-6.868
				c-2.924,0.268-4.78,0.793-5.175,1.074c0.319-2.867,4.008-5.995,7.721-8.455c-2.563,0.278-4.194,0.811-4.536,1.085
				c0.278-2.495,2.992-5.232,5.886-7.485c-0.16-0.192-0.318-0.385-0.481-0.576c0.291,0.103,0.558,0.204,0.83,0.305
				c1.399-1.066,2.818-2.012,4.006-2.758c-1.553-3.179-4.329-6.588-7.263-9.66c3.752,1.214,6.028,2.45,6.463,2.934
				c0.428-3.851-3.481-9.036-7.619-13.354c3.275,1.12,5.255,2.3,5.623,2.76c0.826-7.423-13.658-19.936-13.658-19.936
				s-16.88,9.024-17.706,16.447c0.46-0.368,2.65-1.084,6.092-1.456c-4.986,3.303-9.94,7.503-10.368,11.353
				c0.531-0.376,3.023-1.082,6.95-1.442c-5.66,3.765-11.117,8.457-11.598,12.779c0.548-0.383,2.878-1.058,6.568-1.495
				c-5.526,4.158-10.368,9.012-10.868,13.506c0.637-0.467,3.38-1.306,7.722-1.845c-2.422,1.781-4.697,3.68-6.57,5.621
				c-2.613,2.708-4.438,5.5-4.736,8.176C222.051,869.098,229.076,867.334,239.74,867.503z"/>
			<path style="fill:#937F4D;" d="M267.554,848.523c-2.894,2.253-5.608,4.99-5.886,7.485c0.342-0.274,1.974-0.807,4.536-1.085
				c-3.713,2.46-7.402,5.587-7.721,8.455c0.395-0.28,2.251-0.806,5.175-1.074c-3.077,2.047-6.067,4.462-7.6,6.868
				c-0.567,0.89-0.941,1.779-1.037,2.648c0.408-0.285,2.143-0.788,4.891-1.114c-3.527,2.654-6.674,5.689-7.738,8.61
				c-0.177,0.486-0.303,0.97-0.356,1.448c0.191-0.14,0.65-0.327,1.328-0.524c1.001-0.292,2.494-0.61,4.422-0.849
				c-1.01,0.743-1.984,1.514-2.894,2.302c-2.98,2.581-5.234,5.352-5.526,7.974c0.757-0.534,5.212-1.679,12.053-1.773
				c1.805-0.025,3.768,0.02,5.883,0.173l-0.545,4.898l-0.45,4.048l5.337,0.594l0.269,0.03l0.995-8.947
				c6.281,0.945,11.104,2.52,14.028,3.78c1.753,0.755,2.824,1.397,3.118,1.723c0.154-1.387-0.224-2.936-0.954-4.557
				c-1.072-2.378-2.91-4.91-5.001-7.318c3.066,1.102,4.921,2.16,5.308,2.604c0.372-3.347-2.351-7.666-5.685-11.591
				c2.609,0.922,4.191,1.793,4.527,2.161c0.358-3.218-2.838-7.52-6.334-11.182c2.794,0.904,4.489,1.824,4.813,2.185
				c0.319-2.867-2.592-6.729-5.674-9.945c2.439,0.834,3.913,1.713,4.187,2.055c0.615-5.528-10.171-14.846-10.171-14.846
				s-1.232,0.659-2.944,1.734c-1.188,0.746-2.608,1.692-4.006,2.758C267.787,848.341,267.671,848.432,267.554,848.523z"/>
			<path style="fill:#937F4D;" d="M162.992,852.999c4.039-1.168,10.711-2.446,19.26-2.612l-0.101,5.273l-0.128,6.65l7.47,0.144
				l0.111-5.758l0.118-6.164c13.433,0.777,22.143,4.13,23.284,5.182c0.088-4.56-4.166-10.027-9.294-14.942
				c4.177,1.082,6.753,2.254,7.317,2.792c0.086-4.46-4.03-9.827-8.903-14.601c3.553,0.9,5.746,1.858,6.233,2.303
				c0.082-4.288-4.655-9.576-9.71-13.983c3.795,0.854,6.142,1.863,6.613,2.299c0.073-3.821-4.235-8.562-8.689-12.431
				c3.318,0.805,5.37,1.785,5.772,2.204c0.142-7.366-15.215-18.351-15.215-18.351s-15.768,10.387-15.909,17.753
				c0.418-0.403,2.506-1.304,5.853-1.98c-4.6,3.695-9.087,8.267-9.16,12.088c0.487-0.418,2.872-1.336,6.697-2.043
				c-5.22,4.209-10.158,9.311-10.24,13.599c0.504-0.426,2.732-1.299,6.317-2.062c-5.053,4.583-9.372,9.788-9.458,14.248
				c0.584-0.516,3.203-1.588,7.419-2.509c-4.476,3.972-8.337,8.358-9.497,12.369c-0.217,0.749-0.35,1.487-0.364,2.205
				C159.217,854.303,160.675,853.669,162.992,852.999z"/>
			<polygon style="fill:#937F4D;" points="2098.273,1121.636 1956.455,1190.182 1774.455,1202 1668.091,1135.818 1417.545,1173.636 
				1245,1249.273 1285.182,1317.818 1450.636,1322.545 1575.909,1282.364 1739,1294.182 1850.091,1360.364 2062.818,1329.636 
				2202.273,1343.818 2337,1268.182 2256.636,1150 			"/>
			<polygon style="opacity:0.1;fill:#FFFFFF;" points="2098.273,1121.636 1956.455,1190.182 1774.455,1202 1668.091,1135.818 
				1417.545,1173.636 1245,1249.273 1285.182,1317.818 1450.636,1322.545 1575.909,1282.364 1739,1294.182 1850.091,1360.364 
				2062.818,1329.636 2202.273,1343.818 2337,1268.182 2256.636,1150 			"/>
			<polygon style="fill:#937F4D;" points="166.532,1350.636 352.377,1381.364 449.429,1315.182 591.909,1303.364 701.351,1343.545 
				845.896,1338.818 881,1270.273 730.26,1194.636 511.377,1156.818 418.455,1223 259.455,1211.182 135.558,1142.636 0,1170.427 
				0,1336.093 44.701,1364.818 			"/>
			<polygon style="opacity:0.1;fill:#FFFFFF;" points="166.532,1350.636 352.377,1381.364 449.429,1315.182 591.909,1303.364 
				701.351,1343.545 845.896,1338.818 881,1270.273 730.26,1194.636 511.377,1156.818 418.455,1223 259.455,1211.182 
				135.558,1142.636 0,1170.427 0,1336.093 44.701,1364.818 			"/>
		</g>
	</g>
</g>
<g id="Layer_1">
</g>
</svg>
