<?xml version="1.0" encoding="iso-8859-1"?>
<!-- Generator: Adobe Illustrator 21.1.0, SVG Export Plug-In . SVG Version: 6.00 Build 0)  -->
<svg version="1.1" xmlns="http://www.w3.org/2000/svg" xmlns:xlink="http://www.w3.org/1999/xlink" x="0px" y="0px"
	 viewBox="0 0 2560 1440" style="enable-background:new 0 0 2560 1440;" xml:space="preserve">
<g id="Mountains_4">
	<g id="Layer_19_copy">
		<g>
			<path style="fill:none;" d="M1860.336,1263.614c-0.696-0.449-1.612-0.965-2.72-1.53c-4.972,1.292-8.087,2.589-8.966,3.332
				c0.089-2.125,0.673-4.326,1.632-6.564c-10.903-4.267-28.965-9.484-52.407-12.147l-2.073,27.769l48.05,11.19
				C1845.871,1278.491,1852.402,1270.779,1860.336,1263.614z"/>
			<path style="fill:none;" d="M1863.628,1260.728c-0.673,0.131-1.319,0.265-1.951,0.4c0.036,0.409,0.061,0.816,0.075,1.219
				C1862.372,1261.804,1862.996,1261.263,1863.628,1260.728z"/>
			<path style="fill:none;" d="M1711.365,1253.444c0.47-6.3,3.983-12.942,9.302-19.54c-7.418-0.978-17.049-1.566-28.343-1.003
				l1.597,18.019L1695,1251l80.329,18.707l1.832-24.548C1739.778,1243.815,1714.797,1250.831,1711.365,1253.444z"/>
			<path style="fill:none;" d="M1402.799,1229.255l34.301,2.552l0.152-7.129C1422.002,1224.941,1410.062,1227.184,1402.799,1229.255
				z"/>
			<path style="fill:none;" d="M1716.544,1211.795c1.514,1.167,2.99,2.36,4.422,3.57c0.267-0.872,0.585-1.749,0.949-2.629
				C1720.313,1212.406,1718.52,1212.085,1716.544,1211.795z"/>
			<path style="fill:none;" d="M2166.869,1251.324l1.469,13.429l42.24-12.636
				C2199.315,1250.776,2184.421,1250.087,2166.869,1251.324z"/>
			<path style="fill:none;" d="M1724.363,1218.364c2.021,1.871,3.879,3.774,5.524,5.689c3.447-3.261,7.197-6.461,11.091-9.549
				C1733.641,1215.685,1728.001,1217.122,1724.363,1218.364z"/>
			<path style="fill:none;" d="M2332.583,1040.322c1.746,1.704,3.225,3.45,4.348,5.223c2.38-3.888,5.277-7.83,8.417-11.663
				C2338.739,1036.474,2334.365,1038.918,2332.583,1040.322z"/>
			<path style="fill:none;" d="M2326.164,1048.719c2.379,1.384,4.686,2.838,6.856,4.344c0.514-1.228,1.102-2.472,1.76-3.73
				C2332.604,1049.022,2329.696,1048.777,2326.164,1048.719z"/>
			<path style="fill:none;" d="M2340.768,1059.374c3.181,3.154,5.438,6.446,6.177,9.787c-2.246-1.249-17.576-3.258-39.509,0.72
				l2.024,9.139l67.227-15.192l-2.015-14.348C2359.902,1052.139,2348.332,1056.069,2340.768,1059.374z"/>
			<path style="fill:none;" d="M1491.463,1228.816c0.632,1.903,0.979,3.759,0.941,5.534c-0.753-0.697-3.355-1.959-7.54-3.347
				c-1.774,0.706-2.968,1.324-3.516,1.781c0.027-0.915,0.132-1.842,0.293-2.778c-7.269-2.103-17.867-4.255-30.988-5.043
				l-0.167,7.839l90.335,6.723l0.51-17.026C1519.059,1222.693,1501.727,1225.897,1491.463,1228.816z"/>
			<path style="fill:none;" d="M2030.182,1296.869l1.341,8.812l30.557-9.141C2054.479,1295.691,2043.488,1295.367,2030.182,1296.869
				z"/>
			<path style="fill:none;" d="M1635.614,1246.581l44.088,3.281l-1.393-15.718
				C1654.333,1237.205,1638.746,1244.106,1635.614,1246.581z"/>
			<path style="fill:none;" d="M1849.417,1286.96l40.394,9.407l0.605-14.401C1871.571,1281.902,1857.195,1284.637,1849.417,1286.96z
				"/>
			<path style="fill:none;" d="M729.637,1241.957c0.905,1.354,1.554,2.727,1.842,4.108c-0.712-0.403-3.194-0.925-7.069-1.184
				c-0.573,0.388-1.009,0.727-1.304,1.006c2.06,1.321,4.045,2.702,5.889,4.128c2.461-3.825,5.363-7.684,8.483-11.443
				C734.41,1239.751,731.79,1240.904,729.637,1241.957z"/>
			<path style="fill:none;" d="M739.625,1263.24c0.038,0.15,0.09,0.3,0.121,0.45c-0.144-0.086-0.358-0.177-0.625-0.271
				c-2.082,0.753-3.99,1.499-5.726,2.222c6.842,4.764,12.257,10.097,13.477,15.517l24.802-5.947l-2.619-19.578
				C757.24,1257.681,747.314,1260.492,739.625,1263.24z"/>
			<path style="fill:none;" d="M102.072,591.467c6.55,6.843,11.263,13.944,11.474,20.348c-2.299-1.907-19.381-7.481-45.286-7.63
				l0.385,11.703l88.9-4.01l3.763-17.607C134.643,589.64,113.635,590.051,102.072,591.467z"/>
			<path style="fill:none;" d="M721.284,1244.742c0.514,0.315,1.023,0.635,1.53,0.958c-0.031-0.3-0.055-0.603-0.069-0.908
				C722.273,1244.771,721.79,1244.754,721.284,1244.742z"/>
			<path style="fill:none;" d="M94.179,584.018c0.602,0.52,1.197,1.044,1.786,1.571c0.209-0.348,0.426-0.695,0.65-1.041
				C95.835,584.368,95.028,584.191,94.179,584.018z"/>
			<path style="fill:none;" d="M525.621,1280.547c0.226,1.178,0.377,2.346,0.43,3.499c-1.903-1.595-10.339-4.786-23.849-7.359
				c8.987,7.554,17.252,15.63,23.225,23.68c3.019-9.079,9.252-19.078,16.513-28.639
				C533.885,1275.233,528.336,1278.481,525.621,1280.547z"/>
			<path style="fill:none;" d="M531.217,1309.616c2.157,4.318,3.457,8.567,3.646,12.659c-3.847-3.106-32.242-11.961-75.123-11.643
				l1.18,25.644L539,1331l48.588-11.65l-4.963-27.863C558.368,1296.78,540.629,1304.389,531.217,1309.616z"/>
			<path style="fill:none;" d="M0.28,595.805c-0.07-0.061-0.169-0.128-0.28-0.199v7.61c2.368,3.314,3.881,6.604,3.982,9.677
				c-0.481-0.399-1.844-1.017-3.982-1.699v7.79l54.273-2.448l-0.39-11.879c-25.839,1.849-42.519,8.533-44.688,10.586
				c-0.288-8.776,7.758-19.413,17.5-29.009c-8.014,2.193-12.942,4.516-14.013,5.567c-0.282-8.584,7.501-19.025,16.757-28.342
				c-6.817,1.825-11.013,3.727-11.94,4.597c-0.271-8.253,8.711-18.557,18.326-27.173c-7.284,1.744-11.776,3.747-12.671,4.599
				c-0.242-7.354,7.928-16.594,16.402-24.159c-6.367,1.636-10.29,3.578-11.054,4.394c-0.466-14.177,28.81-35.728,28.81-35.728
				s30.627,19.583,31.093,33.76c-0.816-0.764-4.858-2.444-11.319-3.659c8.952,6.992,17.711,15.676,17.952,23.03
				c-0.949-0.791-5.563-2.496-12.946-3.758c10.16,7.966,19.799,17.658,20.07,25.912c-0.982-0.807-5.294-2.43-12.216-3.803
				c5.302,4.678,10.185,9.709,13.62,14.697c6.596-6.56,15.466-12.789,24.948-18.402c-12.41,0.294-20.394,1.888-22.324,3.027
				c2.682-12.549,17.727-24.887,34.504-35.066c-10.543,0.192-17.313,1.439-18.969,2.367c2.579-12.066,19.313-23.774,36.359-32.805
				c-11.19-0.094-18.425,1.194-20.031,2.107c2.298-10.751,17.471-21.209,32.483-29.127c-9.822,0.08-16.21,1.483-17.612,2.391
				c4.429-20.726,54.642-41.435,54.642-41.435s37.362,39.425,32.932,60.151c-0.908-1.402-6.165-5.294-15.096-9.381
				c10.464,13.363,20.038,29.109,17.74,39.86c-1.092-1.49-7.169-5.622-17.42-10.111c11.865,15.21,22.352,32.735,19.774,44.802
				c-1.133-1.523-6.801-5.429-16.345-9.914c11.151,16.147,19.839,33.558,17.157,46.106c-1.296-1.828-7.931-6.547-19.137-11.888
				c11.793,16.685,20.816,34.453,18.074,47.283c-2.647-3.593-25.411-17.828-62.923-27.371l-5.256,24.593L179,971l-38-8l-12,236
				l-34,84v78l342.157-23.119l-1.204-26.155c-42.729,3.623-70.191,15.049-73.736,18.495c-0.668-14.52,12.417-32.3,28.334-48.396
				c-13.216,3.804-21.324,7.756-23.072,9.519c-0.654-14.201,12.001-31.653,27.118-47.276c-11.244,3.169-18.148,6.409-19.662,7.868
				c-0.629-13.655,14.013-30.905,29.741-45.375c-12.018,3.045-19.409,6.459-20.873,7.889c-0.56-12.167,12.76-27.639,26.622-40.344
				c-10.503,2.847-16.954,6.146-18.201,7.513c-1.08-23.455,46.908-59.763,46.908-59.763s51.12,31.746,52.2,55.201
				c-1.367-1.247-8.094-3.94-18.815-5.809c14.97,11.378,29.655,25.561,30.215,37.728c-1.589-1.289-9.262-4.01-21.509-5.938
				c16.991,12.964,33.155,28.796,33.784,42.451c-1.642-1.314-8.815-3.906-20.302-6.029c12.976,11.15,24.531,23.567,29.187,35.272
				c1.441-10.483,8.653-22.935,17.306-34.589c-8.933,3.829-14.278,7.248-15.37,8.616c-1.994-11.196,8.22-27.009,19.631-40.646
				c-9.585,3.811-15.313,7.426-16.366,8.763c-1.777-9.976,7.539-24.179,17.601-36.158c-8.357,3.483-13.322,6.902-14.203,8.165
				c-3.425-19.232,32.237-54.37,32.237-54.37s45.601,20.664,49.026,39.896c-1.263-0.881-7.103-2.375-16.148-2.759
				c13.579,7.768,27.226,17.881,29.003,27.858c-1.45-0.892-8.074-2.307-18.385-2.574c15.417,8.858,30.463,20.172,32.457,31.368
				c-1.497-0.906-7.694-2.27-17.399-2.779c15.133,9.906,28.603,21.748,30.677,33.392c-1.742-1.11-9.046-2.831-20.469-3.494
				c15.868,10.143,29.748,22.172,31.869,34.077c-3.509-2.147-27.89-6.383-63.229-1.486l4.757,26.71l93.567-22.434l-1.748-8.382
				c-20.198,5.033-32.477,12.628-33.91,14.553c-1.441-6.907,3.459-16.438,9.845-25.379c-6.04,2.843-9.621,5.362-10.323,6.342
				c-1.409-6.755,3.309-16.095,9.349-24.749c-5.144,2.386-8.203,4.472-8.816,5.288c-1.355-6.496,4.331-15.892,10.752-24.041
				c-5.525,2.386-8.803,4.593-9.394,5.391c-1.207-5.788,3.983-14.23,9.646-21.389c-4.814,2.175-7.651,4.253-8.143,5.005
				c-2.327-11.157,17.869-32.26,17.869-32.26s26.948,11.27,29.275,22.427c-0.752-0.492-4.183-1.264-9.465-1.332
				c8.052,4.298,16.184,9.962,17.391,15.75c-0.861-0.495-4.748-1.207-10.766-1.186c4.363,2.339,8.677,5.009,12.152,7.864
				c2.447-7.242,7.732-15.202,13.81-22.687c-7.214,2.729-11.569,5.256-12.482,6.303c-1.196-8.946,7.445-21.132,16.96-31.551
				c-7.73,2.692-12.396,5.361-13.277,6.386c-1.066-7.971,6.808-18.912,15.197-28.063c-6.745,2.475-10.799,5.015-11.541,5.986
				c-2.055-15.366,27.427-41.999,27.427-41.999s35.444,17.95,37.5,33.315c-0.971-0.742-5.55-2.127-12.708-2.742
				c10.499,6.625,20.971,15.112,22.038,23.083c-1.119-0.757-6.322-2.106-14.488-2.672c11.919,7.553,23.459,17.04,24.656,25.985
				c-1.156-0.77-6.022-2.064-13.699-2.801c11.658,8.374,21.93,18.225,23.175,27.529c-1.343-0.94-7.075-2.555-16.109-3.473
				c12.233,8.587,22.824,18.601,24.096,28.113c-2.708-1.823-21.893-6.019-50.08-3.35l2.404,17.978L881,1249l61.349-4.793
				l-0.935-23.565c-37.077,2.906-60.957,12.664-64.05,15.633c-0.5-12.597,10.948-27.945,24.84-41.816
				c-11.483,3.226-18.536,6.609-20.062,8.128c-0.489-12.32,10.582-27.385,23.779-40.851c-9.769,2.686-15.774,5.458-17.096,6.715
				c-0.47-11.846,12.324-26.726,26.044-39.188c-10.44,2.574-16.869,5.495-18.146,6.727c-0.419-10.555,11.219-23.9,23.311-34.843
				c-9.125,2.411-14.738,5.236-15.827,6.416c-0.807-20.348,41.011-51.572,41.011-51.572s44.159,27.814,44.966,48.162
				c-1.179-1.089-6.998-3.462-16.285-5.142c12.92,9.95,25.578,22.332,25.997,32.887c-1.371-1.127-8.011-3.529-18.621-5.269
				c14.664,11.337,28.595,25.157,29.065,37.003c-1.417-1.149-7.623-3.437-17.574-5.341c14.222,12.379,26.451,26.521,26.94,38.841
				c-1.642-1.394-8.94-4.208-20.643-6.514c14.947,12.728,27.574,27.121,28.073,39.718c-3.319-2.715-27.897-10.552-65.087-10.513
				l0.903,22.774L1265,1219l130.682,9.725c1.948-7.3,9.006-15.318,17.204-22.561c-7.567,1.635-12.27,3.548-13.319,4.472
				c0.171-8.001,7.939-17.323,17.022-25.525c-6.435,1.354-10.435,2.912-11.342,3.674c0.164-7.693,9.042-16.827,18.423-24.358
				c-6.865,1.255-11.146,2.892-12.022,3.64c0.146-6.855,8.214-15.04,16.48-21.651c-6.007,1.201-9.755,2.809-10.507,3.53
				c0.282-13.215,28.61-31.788,28.61-31.788s27.508,19.767,27.226,32.981c-0.721-0.752-4.397-2.519-10.347-3.976
				c7.977,6.958,15.687,15.48,15.541,22.335c-0.843-0.784-5.05-2.603-11.856-4.15c9.051,7.925,17.53,17.43,17.366,25.123
				c-0.873-0.8-4.803-2.528-11.174-4.155c8.724,8.583,16.087,18.228,15.916,26.229c-1.009-0.968-5.626-3.08-13.116-5.037
				c3.861,3.717,7.435,7.608,10.279,11.479c4.672-7.765,12.338-15.731,20.839-23.112c-10.781,2.233-17.492,4.896-18.995,6.197
				c0.341-11.376,11.502-24.537,24.518-36.09c-9.168,1.847-14.875,4.014-16.173,5.087c0.328-10.938,13.063-23.819,26.497-34.414
				c-9.778,1.701-15.885,3.977-17.141,5.029c0.292-9.746,11.865-21.288,23.701-30.587c-8.557,1.634-13.907,3.876-14.985,4.892
				c0.563-18.788,41.074-44.856,41.074-44.856s38.877,28.446,38.314,47.234c-1.016-1.079-6.222-3.636-14.666-5.78
				c11.258,9.992,22.119,22.205,21.827,31.951c-1.19-1.126-7.15-3.763-16.809-6.046c12.775,11.38,24.717,25,24.389,35.938
				c-1.231-1.149-6.799-3.654-15.84-6.046c12.301,12.312,22.654,26.118,22.314,37.494c-1.422-1.389-7.962-4.448-18.59-7.323
				c12.947,12.679,23.65,26.743,23.301,38.374c-2.882-2.713-25.01-11.506-59.259-13.857l-0.535,17.871l75.378,5.61
				c-0.53-8.499,6.657-19.159,15.527-28.924c-7.708,2.577-12.395,5.114-13.383,6.198c-0.742-8.368,6.292-18.989,14.826-28.592
				c-6.559,2.153-10.554,4.239-11.412,5.138c-0.713-8.046,7.499-18.598,16.422-27.536c-7.019,2.099-11.298,4.3-12.126,5.181
				c-0.636-7.17,6.841-16.638,14.707-24.487c-6.13,1.944-9.856,4.053-10.558,4.892c-1.225-13.821,26.197-36.461,26.197-36.461
				s30.977,17.462,32.203,31.283c-0.839-0.702-4.878-2.123-11.254-2.958c9.124,6.343,18.149,14.348,18.785,21.518
				c-0.97-0.721-5.569-2.135-12.848-2.967c10.356,7.228,20.297,16.171,21.01,24.217c-1.003-0.735-5.302-2.085-12.138-3.051
				c5.93,4.673,11.396,9.783,15.059,14.901c5.298-7.753,13.401-15.543,22.198-22.677c-10.07,1.565-16.388,3.647-17.853,4.752
				c0.888-11.891,15.377-25.295,30.515-36.177c-10.727,1.377-17.486,3.558-18.903,4.643c0.791-10.596,13.949-22.598,27.286-32.147
				c-9.394,1.364-15.327,3.544-16.55,4.598c1.525-20.426,46.89-46.837,46.89-46.837s40.941,32.853,39.417,53.279
				c-1.054-1.223-6.597-4.261-15.685-7.004c11.771,11.423,23.001,25.246,22.211,35.842c-1.241-1.283-7.601-4.444-18.005-7.398
				c13.354,13.009,25.693,28.415,24.806,40.306c-1.285-1.31-7.224-4.307-16.95-7.35c12.794,14,23.394,29.532,22.471,41.899
				c-1.481-1.581-8.452-5.229-19.882-8.874c7.965,8.528,15.052,17.543,19.323,26.102c3.112-3.611,6.811-7.179,10.717-10.563
				c-7.218,1.364-11.722,3.012-12.751,3.842c0.361-8.588,10.486-18.585,21.137-26.78c-7.696,1.243-12.515,2.974-13.511,3.788
				c0.321-7.652,9.52-16.608,18.905-23.801c-6.736,1.203-10.96,2.913-11.816,3.701c0.62-14.752,32.685-34.844,32.685-34.844
				s30.268,22.71,29.648,37.463c-0.788-0.857-4.853-2.915-11.464-4.679c8.749,7.954,17.164,17.65,16.842,25.303
				c-0.924-0.895-5.58-3.023-13.145-4.908c9.927,9.06,19.177,19.87,18.817,28.458c-0.956-0.914-5.306-2.934-12.384-4.898
				c9.546,9.786,17.547,20.729,17.172,29.661c-1.104-1.104-6.212-3.569-14.532-5.928c10.049,10.081,18.323,21.229,17.94,30.361
				c-2.238-2.158-19.536-9.274-46.414-11.444l-0.724,17.229L1987,1319l31.432-9.403l-1.627-10.692
				c-23.932,4.593-38.771,12.687-40.569,14.846c-1.243-8.166,5.093-18.994,13.129-29.039c-7.242,2.937-11.589,5.654-12.472,6.754
				c-1.216-7.987,4.896-18.603,12.508-28.333c-6.166,2.461-9.874,4.703-10.643,5.618c-1.169-7.68,6.078-18.301,14.104-27.416
				c-6.61,2.437-10.584,4.807-11.326,5.702c-1.042-6.843,5.564-16.38,12.641-24.386c-5.766,2.234-9.215,4.483-9.839,5.331
				c-2.008-13.191,22.948-36.57,22.948-36.57s30.781,14.895,32.789,28.086c-0.847-0.623-4.809-1.744-10.979-2.162
				c9.138,5.538,18.283,12.678,19.324,19.521c-0.975-0.634-5.474-1.714-12.51-2.074c10.374,6.314,20.453,14.298,21.622,21.978
				c-1.007-0.645-5.214-1.682-11.833-2.197c10.163,7.025,19.156,15.342,20.372,23.329c-1.171-0.788-6.128-2.089-13.917-2.738
				c8.388,5.664,15.896,12.104,19.33,18.571l76.437-22.866l-1.888-17.257c-37.334,5.549-60.825,17.107-63.748,20.331
				c-1.391-12.718,9.119-29.062,22.209-44.082c-11.399,4.073-18.302,7.995-19.74,9.64c-1.361-12.439,8.789-28.47,21.203-43.031
				c-9.702,3.406-15.587,6.635-16.836,8.001c-1.309-11.96,10.598-27.925,23.612-41.507c-10.388,3.34-16.692,6.749-17.898,8.086
				c-1.166-10.657,9.678-24.986,21.151-36.915c-9.069,3.082-14.553,6.338-15.573,7.608c-2.248-20.544,37.895-55.097,37.895-55.097
				s46.664,25.055,48.912,45.6c-1.271-1.02-7.329-3.013-16.849-4.061c13.78,9.166,27.466,20.811,28.632,31.468
				c-1.467-1.045-8.359-3.009-19.223-4.025c15.643,10.447,30.72,23.459,32.028,35.42c-1.516-1.063-7.959-2.943-18.168-4.172
				c15.269,11.533,28.645,24.99,30.006,37.429c-1.76-1.296-9.347-3.632-21.357-5.144c8.619,6.364,16.588,13.263,22.334,20.259
				L2283,1085l14.388-3.252l-2.036-9.19c-21.56,5.656-34.608,13.951-36.117,16.032c-1.634-7.377,3.486-17.647,10.206-27.306
				c-6.43,3.124-10.23,5.869-10.969,6.928c-1.598-7.215,3.33-17.278,9.683-26.624c-5.477,2.623-8.724,4.897-9.37,5.779
				c-1.537-6.937,4.427-17.074,11.195-25.884c-5.884,2.628-9.365,5.034-9.988,5.897c-1.369-6.181,4.076-15.29,10.045-23.03
				c-5.125,2.392-8.136,4.656-8.653,5.467c-2.639-11.916,18.707-34.78,18.707-34.78s29.004,11.711,31.644,23.627
				c-0.811-0.517-4.496-1.298-10.152-1.301c8.679,4.495,17.461,10.453,18.831,16.634c-0.928-0.519-5.1-1.23-11.544-1.128
				c9.855,5.128,19.542,11.798,21.078,18.735c-0.958-0.527-4.862-1.216-10.934-1.281c4.71,2.81,9.178,5.915,12.722,9.191
				c-0.321-8.398,6.082-19.045,13.92-28.83c-6.659,2.569-10.674,4.934-11.512,5.909c-1.162-8.271,6.761-19.6,15.502-29.3
				c-7.137,2.538-11.438,5.037-12.247,5.99c-1.035-7.369,6.185-17.542,13.892-26.061c-6.227,2.331-9.963,4.706-10.643,5.609
				c-1.995-14.207,25.124-39.032,25.124-39.032s32.908,16.394,34.904,30.601c-0.903-0.681-5.149-1.935-11.777-2.46
				c9.756,6.067,19.499,13.857,20.533,21.226c-1.04-0.694-5.863-1.911-13.423-2.385c11.075,6.917,21.812,15.625,22.974,23.896
				c-1.074-0.706-5.585-1.873-12.694-2.509c10.839,7.678,20.405,16.731,21.613,25.333c-1.249-0.861-6.563-2.321-14.927-3.116
				c11.372,7.871,21.234,17.073,22.469,25.868c-2.517-1.67-20.296-5.436-46.363-2.796l1.847,13.154l142.055-32.103l-1.05-15.907
				c-33.814,3.547-55.404,13.038-58.159,15.826c-0.759-11.5,9.333-25.801,21.696-38.812c-10.417,3.224-16.781,6.485-18.139,7.911
				c-0.743-11.247,9.013-25.281,20.75-37.905c-8.863,2.69-14.285,5.367-15.462,6.548c-0.714-10.815,10.621-24.72,22.859-36.44
				c-9.479,2.604-15.284,5.427-16.421,6.583c-0.636-9.636,9.679-22.112,20.466-32.402c-8.281,2.422-13.343,5.14-14.31,6.243
				c-1.227-18.576,36.24-48.116,36.24-48.116s16.203,9.622,28.548,21.382V0H0v593.746C0.153,594.441,0.258,595.13,0.28,595.805z"/>
			<path style="fill:none;" d="M2550.77,1011.356l0.854,12.938l8.376-1.893v-11.118
				C2557.027,1011.248,2553.948,1011.269,2550.77,1011.356z"/>
			<path style="fill:none;" d="M2560,901.623v-0.748c-0.427-0.072-0.858-0.144-1.303-0.212
				C2559.132,900.98,2559.566,901.3,2560,901.623z"/>
			<path style="fill:none;" d="M710.019,1281.548l1.678,8.046l34.969-8.385C743.867,1280.008,729.855,1278.203,710.019,1281.548z"/>
			<path style="fill:#6B6455;" d="M2552.755,1041.422l-18.838,1.244l-0.935-14.159l-142.055,32.103l1.382,9.84l-14.407,2.023
				l-1.214-8.646l-67.227,15.192l2.248,10.148l-12.084,2.677l-2.236-10.096L2283,1085l-58.375,154.412
				c4.94,6.014,8.237,12.1,8.88,17.979c-1.896-1.343-10.031-3.736-22.927-5.273l-42.24,12.636l2.169,19.822l-20.834,2.279
				l-1.75-15.994l-76.437,22.866c0.93,1.752,1.579,3.506,1.844,5.247c-1.063-0.688-5.019-1.736-11.251-2.433l-30.557,9.141
				l1.908,12.538l-13.377,2.036l-1.622-10.658L1987,1319l-82.347-19.177l-0.279,6.648l-14.96-0.628l0.398-9.476l-40.394-9.407
				c-3.352,1.001-5.485,1.926-6.212,2.518c0.052-1.249,0.283-2.523,0.646-3.814l-48.05-11.19l-0.395,5.291l-20.714-1.546
				l0.635-8.512L1695,1251l-1.078-0.08l0.386,4.351l-14.016,1.243l-0.59-6.652l-44.088-3.281c-0.152,0.12-0.284,0.233-0.377,0.331
				c-0.01-0.118-0.003-0.241-0.011-0.36l-75.378-5.61l-0.376,12.539l-19.053-0.571l0.401-13.384l-90.335-6.723l-0.29,13.549
				l-13.401-0.286l0.305-14.259l-34.301-2.552c-4.231,1.206-6.88,2.354-7.661,3.017c0.025-1.158,0.222-2.344,0.543-3.547L1265,1219
				l-302.048,23.598l0.403,10.16l-20.635,0.818l-0.372-9.369L881,1249l-93.957,22.528l0.922,6.892l-15.582,2.084l-0.708-5.292
				l-24.802,5.947c0.013,0.058,0.034,0.115,0.047,0.172c-0.07-0.04-0.156-0.081-0.253-0.123l-34.969,8.385l2.088,10.013
				l-11.315,2.36l-2.018-9.677l-93.567,22.434l0.787,4.418l-19.503,3.474l-0.581-3.265L539,1331l-78.08,5.276l0.567,12.319
				l-23.786,1.095l-0.544-11.808L95,1361v-78l34-84l12-236l38,8l-1.931-347.644l-1.913,8.953l-21.018-4.492l3.406-15.939l-88.9,4.01
				l0.369,11.243l-14.377,0.472l-0.364-11.067L0,618.985V1440h2560v-417.599l-8.376,1.893L2552.755,1041.422z"/>
			<path style="fill:#6B6455;" d="M96.616,584.547c-0.224,0.346-0.442,0.693-0.65,1.041c2.151,1.922,4.203,3.89,6.107,5.879
				c11.562-1.416,32.57-1.827,59.234,2.804l-3.763,17.607l-3.406,15.939l21.018,4.492l1.913-8.953l5.256-24.593
				c37.512,9.544,60.276,23.778,62.923,27.371c2.742-12.831-6.281-30.598-18.074-47.283c11.206,5.341,17.841,10.059,19.137,11.888
				c2.682-12.549-6.006-29.959-17.157-46.106c9.544,4.484,15.212,8.39,16.345,9.914c2.579-12.066-7.909-29.591-19.774-44.802
				c10.251,4.488,16.328,8.621,17.42,10.111c2.298-10.751-7.276-26.498-17.74-39.86c8.931,4.088,14.188,7.979,15.096,9.381
				c4.429-20.726-32.932-60.151-32.932-60.151s-50.213,20.709-54.642,41.435c1.402-0.908,7.79-2.311,17.612-2.391
				c-15.012,7.918-30.186,18.376-32.483,29.127c1.605-0.913,8.841-2.201,20.031-2.107c-17.046,9.032-33.781,20.739-36.359,32.805
				c1.657-0.927,8.427-2.175,18.969-2.367c-16.777,10.179-31.823,22.517-34.504,35.066c1.93-1.139,9.914-2.733,22.324-3.027
				c-9.482,5.612-18.353,11.842-24.948,18.402c2.946,4.277,4.831,8.522,4.961,12.484
				C107.509,587.776,103.326,586.085,96.616,584.547z"/>
			<path style="fill:#6B6455;" d="M69.014,627.131l-0.369-11.243l-0.385-11.703c25.905,0.149,42.987,5.723,45.286,7.63
				c-0.21-6.405-4.924-13.505-11.474-20.348c-1.904-1.989-3.956-3.957-6.107-5.879c-0.59-0.527-1.184-1.051-1.786-1.571
				c0.849,0.173,1.656,0.351,2.437,0.53c6.71,1.538,10.893,3.229,11.911,4.105c-0.13-3.962-2.015-8.207-4.961-12.484
				c-3.435-4.988-8.318-10.019-13.62-14.697c6.922,1.373,11.234,2.996,12.216,3.803c-0.271-8.253-9.91-17.945-20.07-25.912
				c7.383,1.262,11.996,2.966,12.946,3.758c-0.242-7.354-9-16.038-17.952-23.03c6.461,1.214,10.503,2.894,11.319,3.659
				c-0.466-14.177-31.093-33.76-31.093-33.76s-29.276,21.551-28.81,35.728c0.764-0.816,4.687-2.758,11.054-4.394
				c-8.474,7.564-16.643,16.805-16.402,24.159c0.896-0.852,5.387-2.856,12.671-4.599c-9.615,8.616-18.597,18.92-18.326,27.173
				c0.927-0.869,5.123-2.772,11.94-4.597c-9.256,9.318-17.039,19.759-16.757,28.342c1.07-1.051,5.999-3.374,14.013-5.567
				c-9.742,9.596-17.788,20.233-17.5,29.009c2.169-2.054,18.848-8.738,44.688-10.586l0.39,11.879l0.364,11.067L69.014,627.131z"/>
			<path style="fill:#6B6455;" d="M541.94,1271.728c-7.261,9.56-13.494,19.56-16.513,28.639c2.298,3.097,4.262,6.191,5.789,9.249
				c9.412-5.227,27.151-12.836,51.408-18.129l4.963,27.863l0.581,3.265l19.503-3.474l-0.787-4.418l-4.757-26.71
				c35.339-4.896,59.72-0.66,63.229,1.486c-2.121-11.906-16.001-23.935-31.869-34.077c11.423,0.663,18.727,2.384,20.469,3.494
				c-2.074-11.644-15.544-23.486-30.677-33.392c9.706,0.51,15.902,1.873,17.399,2.779c-1.994-11.196-17.04-22.51-32.457-31.368
				c10.311,0.267,16.935,1.682,18.385,2.574c-1.777-9.976-15.424-20.089-29.003-27.858c9.045,0.384,14.886,1.878,16.148,2.759
				c-3.425-19.232-49.026-39.896-49.026-39.896s-35.662,35.137-32.237,54.37c0.881-1.263,5.846-4.682,14.203-8.165
				c-10.062,11.979-19.378,26.182-17.601,36.158c1.053-1.338,6.781-4.953,16.366-8.763c-11.41,13.637-21.625,29.449-19.631,40.646
				c1.092-1.367,6.437-4.786,15.37-8.616c-8.653,11.655-15.865,24.107-17.306,34.589c0.78,1.961,1.362,3.902,1.729,5.814
				C528.336,1278.481,533.885,1275.233,541.94,1271.728z"/>
			<path style="fill:#6B6455;" d="M461.487,1348.594l-0.567-12.319l-1.18-25.644c42.881-0.318,71.276,8.537,75.123,11.643
				c-0.188-4.091-1.488-8.34-3.646-12.659c-1.528-3.059-3.491-6.152-5.789-9.249c-5.973-8.05-14.238-16.126-23.225-23.68
				c13.51,2.573,21.946,5.765,23.849,7.359c-0.053-1.154-0.205-2.322-0.43-3.499c-0.367-1.912-0.949-3.852-1.729-5.814
				c-4.656-11.706-16.212-24.122-29.187-35.272c11.488,2.123,18.66,4.715,20.302,6.029c-0.629-13.655-16.793-29.487-33.784-42.451
				c12.247,1.928,19.921,4.649,21.509,5.938c-0.56-12.167-15.246-26.35-30.215-37.728c10.72,1.87,17.447,4.562,18.815,5.809
				c-1.08-23.455-52.2-55.201-52.2-55.201s-47.987,36.308-46.908,59.763c1.247-1.368,7.698-4.667,18.201-7.513
				c-13.861,12.705-27.182,28.177-26.622,40.344c1.464-1.43,8.855-4.844,20.873-7.889c-15.728,14.47-30.37,31.72-29.741,45.375
				c1.515-1.459,8.419-4.699,19.662-7.868c-15.117,15.624-27.772,33.075-27.118,47.276c1.749-1.763,9.856-5.716,23.072-9.519
				c-15.917,16.095-29.002,33.876-28.334,48.396c3.545-3.447,31.007-14.873,73.736-18.495l1.204,26.155l0.544,11.808
				L461.487,1348.594z"/>
			<path style="fill:#6B6455;" d="M727.75,1262.004c1.949,1.167,3.844,2.384,5.646,3.639c1.736-0.724,3.644-1.469,5.726-2.222
				C737.465,1262.842,733.494,1262.168,727.75,1262.004z"/>
			<path style="fill:#6B6455;" d="M729.637,1241.957c2.153-1.053,4.772-2.206,7.841-3.386c-3.12,3.759-6.022,7.618-8.483,11.443
				c5.354,4.139,9.479,8.658,10.63,13.226c7.689-2.748,17.614-5.559,29.43-7.606l2.619,19.578l0.708,5.292l15.582-2.084
				l-0.922-6.892l-2.404-17.978c28.187-2.668,47.372,1.528,50.08,3.35c-1.272-9.512-11.864-19.526-24.096-28.113
				c9.034,0.918,14.765,2.533,16.109,3.473c-1.244-9.303-11.517-19.155-23.175-27.529c7.678,0.737,12.544,2.031,13.699,2.801
				c-1.196-8.946-12.737-18.432-24.656-25.985c8.166,0.566,13.369,1.915,14.488,2.672c-1.066-7.971-11.539-16.458-22.038-23.083
				c7.158,0.615,11.737,2,12.708,2.742c-2.055-15.366-37.5-33.315-37.5-33.315s-29.482,26.633-27.427,41.999
				c0.742-0.971,4.796-3.511,11.541-5.986c-8.389,9.152-16.263,20.092-15.197,28.063c0.881-1.024,5.547-3.694,13.277-6.386
				c-9.515,10.42-18.157,22.606-16.96,31.551c0.913-1.047,5.268-3.574,12.482-6.303c-6.077,7.485-11.362,15.445-13.81,22.687
				C726.424,1238.046,728.317,1239.98,729.637,1241.957z"/>
			<path style="fill:#6B6455;" d="M722.745,1244.791c0.014,0.306,0.038,0.608,0.069,0.908c0.098,0.062,0.195,0.124,0.292,0.187
				c0.295-0.279,0.731-0.618,1.304-1.006C723.881,1244.845,723.325,1244.816,722.745,1244.791z"/>
			<path style="fill:#6B6455;" d="M713.785,1299.606l-2.088-10.013l-1.678-8.046c19.837-3.345,33.848-1.54,36.647-0.339
				c0.097,0.042,0.183,0.083,0.253,0.123c-0.012-0.057-0.034-0.115-0.047-0.172c-1.22-5.42-6.634-10.753-13.477-15.517
				c-1.802-1.255-3.697-2.472-5.646-3.639c5.744,0.164,9.716,0.838,11.372,1.416c0.268,0.094,0.481,0.185,0.625,0.271
				c-0.031-0.15-0.083-0.3-0.121-0.45c-1.152-4.568-5.276-9.087-10.63-13.226c-1.844-1.425-3.829-2.806-5.889-4.128
				c-0.097-0.063-0.194-0.125-0.292-0.187c-0.507-0.323-1.016-0.642-1.53-0.958c0.505,0.012,0.988,0.029,1.461,0.049
				c0.579,0.025,1.136,0.054,1.664,0.089c3.875,0.259,6.357,0.781,7.069,1.184c-0.288-1.381-0.937-2.754-1.842-4.108
				c-1.32-1.976-3.214-3.911-5.472-5.766c-3.475-2.855-7.789-5.524-12.152-7.864c6.018-0.021,9.905,0.691,10.766,1.186
				c-1.207-5.788-9.339-11.452-17.391-15.75c5.282,0.069,8.713,0.84,9.465,1.332c-2.327-11.158-29.275-22.427-29.275-22.427
				s-20.196,21.103-17.869,32.26c0.492-0.752,3.329-2.83,8.143-5.005c-5.663,7.158-10.853,15.601-9.646,21.389
				c0.591-0.798,3.87-3.005,9.394-5.391c-6.421,8.148-12.107,17.545-10.752,24.041c0.613-0.816,3.672-2.902,8.816-5.288
				c-6.039,8.654-10.758,17.994-9.349,24.749c0.702-0.98,4.282-3.5,10.323-6.342c-6.386,8.942-11.286,18.472-9.845,25.379
				c1.433-1.925,13.713-9.52,33.91-14.553l1.748,8.382l2.018,9.677L713.785,1299.606z"/>
			<path style="fill:#6B6455;" d="M963.355,1252.758l-0.403-10.16l-0.903-22.774c37.191-0.039,61.768,7.797,65.087,10.513
				c-0.5-12.596-13.126-26.99-28.073-39.718c11.702,2.306,19.001,5.121,20.643,6.514c-0.489-12.32-12.718-26.461-26.94-38.841
				c9.951,1.904,16.157,4.192,17.574,5.341c-0.47-11.846-14.401-25.666-29.065-37.003c10.611,1.74,17.251,4.142,18.621,5.269
				c-0.419-10.555-13.077-22.937-25.997-32.887c9.287,1.681,15.106,4.053,16.285,5.142c-0.807-20.348-44.966-48.162-44.966-48.162
				s-41.818,31.224-41.011,51.572c1.089-1.179,6.702-4.005,15.827-6.416c-12.091,10.942-23.729,24.287-23.311,34.843
				c1.277-1.232,7.706-4.152,18.146-6.727c-13.72,12.463-26.514,27.342-26.044,39.188c1.322-1.257,7.327-4.029,17.096-6.715
				c-13.197,13.466-24.268,28.532-23.779,40.851c1.526-1.519,8.579-4.902,20.062-8.128c-13.893,13.871-25.34,29.219-24.84,41.816
				c3.094-2.969,26.974-12.727,64.05-15.633l0.935,23.565l0.372,9.369L963.355,1252.758z"/>
			<path style="fill:#6B6455;" d="M1541.33,1222.5l-0.51,17.026l-0.401,13.384l19.053,0.571l0.376-12.539l0.535-17.871
				c34.248,2.351,56.377,11.144,59.259,13.857c0.349-11.631-10.354-25.695-23.301-38.374c10.628,2.875,17.168,5.935,18.59,7.323
				c0.341-11.376-10.012-25.182-22.314-37.494c9.041,2.392,14.609,4.897,15.84,6.046c0.328-10.938-11.614-24.558-24.389-35.938
				c9.659,2.283,15.619,4.921,16.809,6.046c0.292-9.746-10.569-21.96-21.827-31.951c8.444,2.144,13.65,4.701,14.666,5.78
				c0.563-18.789-38.314-47.234-38.314-47.234s-40.511,26.067-41.074,44.856c1.079-1.016,6.428-3.257,14.985-4.892
				c-11.836,9.3-23.409,20.841-23.701,30.587c1.255-1.052,7.363-3.329,17.141-5.029c-13.433,10.595-26.169,23.476-26.497,34.414
				c1.298-1.073,7.005-3.24,16.173-5.087c-13.016,11.553-24.177,24.715-24.518,36.09c1.503-1.301,8.214-3.964,18.995-6.197
				c-8.5,7.381-16.166,15.348-20.839,23.112c2.45,3.335,4.341,6.651,5.396,9.829
				C1501.727,1225.897,1519.059,1222.693,1541.33,1222.5z"/>
			<path style="fill:#6B6455;" d="M1484.864,1231.003c-0.986-0.327-2.063-0.661-3.223-0.996c-0.161,0.935-0.266,1.863-0.293,2.778
				C1481.896,1232.328,1483.09,1231.709,1484.864,1231.003z"/>
			<path style="fill:#6B6455;" d="M1402.799,1229.255c7.263-2.071,19.203-4.314,34.453-4.577l-0.152,7.129l-0.305,14.259
				l13.401,0.286l0.29-13.549l0.167-7.839c13.122,0.788,23.719,2.94,30.988,5.043c1.159,0.335,2.236,0.669,3.223,0.996
				c4.185,1.388,6.787,2.65,7.54,3.347c0.038-1.775-0.31-3.631-0.941-5.534c-1.055-3.178-2.946-6.495-5.396-9.829
				c-2.843-3.87-6.417-7.762-10.279-11.479c7.49,1.957,12.107,4.069,13.116,5.037c0.171-8.001-7.192-17.646-15.916-26.229
				c6.371,1.627,10.302,3.355,11.174,4.155c0.164-7.693-8.315-17.198-17.366-25.123c6.805,1.547,11.012,3.366,11.856,4.15
				c0.146-6.855-7.564-15.377-15.541-22.335c5.95,1.456,9.626,3.223,10.347,3.976c0.282-13.214-27.226-32.981-27.226-32.981
				s-28.327,18.574-28.61,31.788c0.752-0.721,4.5-2.329,10.507-3.53c-8.266,6.61-16.334,14.796-16.48,21.651
				c0.876-0.748,5.157-2.385,12.022-3.64c-9.382,7.531-18.259,16.665-18.423,24.358c0.906-0.762,4.906-2.32,11.342-3.674
				c-9.083,8.202-16.851,17.524-17.022,25.525c1.049-0.924,5.752-2.837,13.319-4.472c-8.198,7.243-15.256,15.26-17.204,22.561
				c-0.321,1.203-0.519,2.389-0.543,3.547C1395.919,1231.609,1398.568,1230.461,1402.799,1229.255z"/>
			<path style="fill:#6B6455;" d="M1635.614,1246.581c3.131-2.474,18.719-9.375,42.694-12.437l1.393,15.718l0.59,6.652l14.016-1.243
				l-0.386-4.351l-1.597-18.019c11.294-0.563,20.925,0.025,28.343,1.003c2.67-3.312,5.795-6.612,9.22-9.852
				c-1.645-1.915-3.504-3.818-5.524-5.689c-2.235,0.763-3.717,1.453-4.364,1.964c0.122-1.632,0.455-3.289,0.968-4.962
				c-1.432-1.21-2.909-2.404-4.422-3.57c1.976,0.29,3.769,0.61,5.371,0.941c1.068-2.588,2.535-5.207,4.328-7.83
				c-3.663-5.118-9.129-10.228-15.059-14.901c6.835,0.965,11.135,2.316,12.138,3.051c-0.713-8.046-10.654-16.989-21.01-24.217
				c7.279,0.831,11.878,2.245,12.848,2.967c-0.636-7.17-9.662-15.175-18.785-21.518c6.376,0.835,10.415,2.256,11.254,2.958
				c-1.225-13.821-32.203-31.283-32.203-31.283s-27.422,22.639-26.197,36.461c0.702-0.839,4.428-2.948,10.558-4.892
				c-7.865,7.849-15.342,17.317-14.707,24.487c0.828-0.881,5.107-3.082,12.126-5.181c-8.923,8.938-17.136,19.489-16.422,27.536
				c0.858-0.899,4.853-2.986,11.412-5.138c-8.534,9.603-15.568,20.224-14.826,28.592c0.988-1.085,5.676-3.622,13.383-6.198
				c-8.87,9.765-16.057,20.425-15.527,28.924c0.008,0.119,0,0.242,0.011,0.36C1635.33,1246.813,1635.463,1246.7,1635.614,1246.581z"
				/>
			<path style="fill:#6B6455;" d="M1720.967,1215.365c-0.512,1.674-0.846,3.331-0.968,4.962c0.647-0.511,2.129-1.201,4.364-1.964
				c3.638-1.242,9.278-2.678,16.615-3.86c-3.895,3.088-7.644,6.288-11.091,9.549c-3.425,3.24-6.55,6.54-9.22,9.852
				c-5.319,6.597-8.832,13.24-9.302,19.54c3.432-2.613,28.412-9.628,65.796-8.285l-1.832,24.548l-0.635,8.512l20.714,1.546
				l0.395-5.291l2.073-27.769c23.442,2.663,41.504,7.88,52.407,12.147c1.546-3.611,4.09-7.321,7.25-10.988
				c-4.272-8.559-11.358-17.574-19.323-26.102c11.43,3.645,18.401,7.294,19.882,8.874c0.923-12.367-9.677-27.899-22.471-41.899
				c9.726,3.043,15.665,6.04,16.95,7.35c0.888-11.891-11.451-27.297-24.806-40.306c10.404,2.954,16.764,6.115,18.005,7.398
				c0.791-10.596-10.44-24.419-22.211-35.842c9.088,2.743,14.631,5.781,15.685,7.004c1.525-20.426-39.417-53.279-39.417-53.279
				s-45.365,26.411-46.89,46.837c1.223-1.053,7.156-3.234,16.55-4.598c-13.336,9.549-26.495,21.551-27.286,32.147
				c1.417-1.085,8.176-3.266,18.903-4.643c-15.138,10.882-29.627,24.285-30.515,36.177c1.465-1.105,7.783-3.187,17.853-4.752
				c-8.797,7.134-16.899,14.924-22.198,22.677c-1.793,2.624-3.26,5.242-4.328,7.83
				C1721.552,1213.616,1721.234,1214.493,1720.967,1215.365z"/>
			<path style="fill:#6B6455;" d="M1861.752,1262.347c-0.014-0.404-0.039-0.81-0.075-1.219c-1.466,0.313-2.822,0.634-4.062,0.956
				c1.108,0.565,2.024,1.081,2.72,1.53C1860.805,1263.19,1861.274,1262.767,1861.752,1262.347z"/>
			<path style="fill:#6B6455;" d="M1848.65,1265.416c0.879-0.743,3.994-2.039,8.966-3.332c1.24-0.322,2.596-0.644,4.062-0.956
				c0.633-0.135,1.278-0.269,1.951-0.4c-0.632,0.536-1.257,1.076-1.876,1.619c-0.478,0.42-0.948,0.843-1.417,1.267
				c-7.934,7.165-14.465,14.877-16.484,22.05c-0.363,1.29-0.594,2.565-0.646,3.814c0.726-0.591,2.86-1.516,6.212-2.518
				c7.778-2.323,22.154-5.058,40.999-4.994l-0.605,14.401l-0.398,9.476l14.96,0.628l0.279-6.648l0.724-17.229
				c26.878,2.17,44.176,9.286,46.414,11.444c0.384-9.132-7.89-20.28-17.94-30.361c8.32,2.359,13.429,4.824,14.532,5.928
				c0.375-8.932-7.626-19.874-17.172-29.661c7.078,1.964,11.428,3.984,12.384,4.898c0.361-8.588-8.89-19.399-18.817-28.458
				c7.565,1.885,12.221,4.013,13.145,4.908c0.321-7.652-8.094-17.348-16.842-25.303c6.612,1.763,10.677,3.822,11.464,4.679
				c0.62-14.752-29.648-37.463-29.648-37.463s-32.066,20.092-32.685,34.844c0.857-0.788,5.08-2.498,11.816-3.701
				c-9.385,7.193-18.584,16.149-18.905,23.801c0.996-0.815,5.814-2.545,13.511-3.788c-10.651,8.195-20.776,18.192-21.137,26.78
				c1.029-0.83,5.533-2.479,12.751-3.842c-3.907,3.385-7.605,6.952-10.717,10.563c-3.16,3.667-5.704,7.377-7.25,10.988
				C1849.323,1261.09,1848.739,1263.29,1848.65,1265.416z"/>
			<path style="fill:#6B6455;" d="M2033.431,1318.22l-1.908-12.538l-1.341-8.812c13.306-1.503,24.297-1.178,31.898-0.329
				c6.232,0.696,10.188,1.745,11.251,2.433c-0.265-1.741-0.914-3.495-1.844-5.247c-3.434-6.466-10.942-12.907-19.33-18.571
				c7.788,0.649,12.746,1.95,13.917,2.738c-1.216-7.987-10.209-16.304-20.372-23.329c6.618,0.515,10.826,1.553,11.833,2.197
				c-1.169-7.68-11.248-15.664-21.622-21.978c7.036,0.36,11.535,1.44,12.51,2.074c-1.042-6.843-10.186-13.983-19.324-19.521
				c6.17,0.418,10.132,1.539,10.979,2.162c-2.008-13.191-32.789-28.086-32.789-28.086s-24.956,23.378-22.948,36.57
				c0.623-0.847,4.073-3.096,9.839-5.331c-7.077,8.006-13.682,17.544-12.641,24.386c0.742-0.895,4.716-3.265,11.326-5.702
				c-8.026,9.115-15.273,19.736-14.104,27.416c0.769-0.915,4.478-3.157,10.643-5.618c-7.612,9.73-13.724,20.347-12.508,28.333
				c0.883-1.1,5.229-3.817,12.472-6.754c-8.036,10.044-14.372,20.873-13.129,29.039c1.798-2.159,16.637-10.253,40.569-14.846
				l1.627,10.692l1.622,10.658L2033.431,1318.22z"/>
			<path style="fill:#6B6455;" d="M2170.507,1284.576l-2.169-19.822l-1.469-13.429c17.552-1.237,32.446-0.549,43.709,0.794
				c12.896,1.537,21.031,3.93,22.927,5.273c-0.643-5.879-3.941-11.965-8.88-17.979c-5.746-6.996-13.716-13.895-22.334-20.259
				c12.01,1.512,19.597,3.848,21.357,5.144c-1.361-12.439-14.736-25.896-30.006-37.429c10.209,1.228,16.653,3.108,18.168,4.172
				c-1.309-11.96-16.385-24.973-32.028-35.42c10.865,1.015,17.756,2.98,19.223,4.025c-1.166-10.657-14.852-22.303-28.632-31.468
				c9.521,1.048,15.579,3.041,16.849,4.061c-2.248-20.544-48.912-45.6-48.912-45.6s-40.143,34.552-37.895,55.097
				c1.02-1.27,6.504-4.526,15.573-7.608c-11.473,11.928-22.317,26.258-21.151,36.915c1.207-1.337,7.51-4.745,17.898-8.086
				c-13.014,13.582-24.921,29.547-23.612,41.507c1.25-1.366,7.135-4.594,16.836-8.001c-12.414,14.562-22.564,30.593-21.203,43.031
				c1.438-1.646,8.341-5.567,19.74-9.64c-13.09,15.02-23.601,31.364-22.209,44.082c2.923-3.224,26.414-14.782,63.748-20.331
				l1.888,17.257l1.75,15.994L2170.507,1284.576z"/>
			<path style="fill:#6B6455;" d="M2311.709,1089.168l-2.248-10.148l-2.024-9.139c21.932-3.978,37.262-1.969,39.509-0.72
				c-0.74-3.341-2.996-6.633-6.177-9.787c-5.64,2.465-9.057,4.583-9.894,5.565c-0.503-3.58,0.366-7.623,2.146-11.876
				c-2.169-1.506-4.477-2.959-6.856-4.344c3.532,0.057,6.44,0.302,8.615,0.614c0.656-1.253,1.374-2.517,2.152-3.788
				c-1.123-1.773-2.602-3.519-4.348-5.223c-0.327,0.258-0.578,0.485-0.727,0.667c-0.068-0.483-0.103-0.977-0.122-1.476
				c-3.543-3.276-8.012-6.382-12.722-9.191c6.072,0.065,9.976,0.755,10.934,1.281c-1.537-6.937-11.224-13.607-21.078-18.735
				c6.444-0.102,10.615,0.609,11.544,1.128c-1.369-6.181-10.152-12.139-18.831-16.634c5.656,0.004,9.341,0.784,10.152,1.301
				c-2.639-11.916-31.644-23.627-31.644-23.627s-21.346,22.863-18.707,34.78c0.517-0.811,3.528-3.075,8.653-5.467
				c-5.969,7.74-11.414,16.849-10.045,23.03c0.622-0.862,4.104-3.268,9.988-5.897c-6.767,8.81-12.731,18.947-11.195,25.884
				c0.646-0.882,3.893-3.156,9.37-5.779c-6.352,9.346-11.281,19.409-9.683,26.624c0.739-1.058,4.539-3.804,10.969-6.928
				c-6.719,9.659-11.84,19.929-10.206,27.306c1.509-2.081,14.557-10.375,36.117-16.032l2.036,9.19l2.236,10.096L2311.709,1089.168z"
				/>
			<path style="fill:#6B6455;" d="M2332.583,1040.322c1.782-1.404,6.156-3.849,12.764-6.44c-3.139,3.833-6.036,7.776-8.417,11.663
				c-0.778,1.271-1.496,2.535-2.152,3.788c-0.658,1.258-1.246,2.502-1.76,3.73c-1.779,4.253-2.649,8.296-2.146,11.876
				c0.837-0.982,4.254-3.1,9.894-5.565c7.564-3.305,19.134-7.235,33.905-9.894l2.015,14.348l1.214,8.646l14.407-2.023l-1.382-9.84
				l-1.847-13.154c26.067-2.64,43.845,1.125,46.363,2.796c-1.235-8.795-11.097-17.997-22.469-25.868
				c8.365,0.794,13.679,2.254,14.927,3.116c-1.208-8.602-10.774-17.655-21.613-25.333c7.109,0.636,11.62,1.803,12.694,2.509
				c-1.162-8.271-11.898-16.979-22.974-23.896c7.56,0.474,12.383,1.691,13.423,2.385c-1.035-7.369-10.778-15.159-20.533-21.226
				c6.628,0.526,10.874,1.78,11.777,2.46c-1.995-14.207-34.904-30.601-34.904-30.601s-27.119,24.825-25.124,39.032
				c0.681-0.903,4.417-3.278,10.643-5.609c-7.707,8.52-14.927,18.692-13.892,26.061c0.809-0.953,5.11-3.452,12.247-5.99
				c-8.741,9.7-16.664,21.029-15.502,29.3c0.838-0.974,4.853-3.339,11.512-5.909c-7.838,9.785-14.241,20.432-13.92,28.83
				c0.019,0.499,0.054,0.994,0.122,1.476C2332.005,1040.807,2332.256,1040.58,2332.583,1040.322z"/>
			<path style="fill:#6B6455;" d="M2495.211,910.153c0.967-1.104,6.029-3.821,14.31-6.243
				c-10.787,10.29-21.102,22.766-20.466,32.402c1.137-1.156,6.943-3.98,16.421-6.583c-12.239,11.719-23.573,25.625-22.859,36.44
				c1.178-1.181,6.599-3.858,15.462-6.548c-11.737,12.624-21.493,26.658-20.75,37.905c1.358-1.425,7.722-4.687,18.139-7.911
				c-12.363,13.011-22.456,27.312-21.696,38.812c2.756-2.788,24.345-12.28,58.159-15.826l1.05,15.907l0.935,14.159l18.838-1.244
				l-1.131-17.129l-0.854-12.938c3.178-0.087,6.257-0.108,9.23-0.073v-109.66c-0.434-0.323-0.868-0.643-1.303-0.961
				c0.445,0.068,0.876,0.14,1.303,0.212v-17.456c-12.345-11.76-28.548-21.382-28.548-21.382S2493.985,891.576,2495.211,910.153z"/>
			<path style="fill:#6B6455;" d="M0,603.217v7.978c2.138,0.682,3.501,1.299,3.982,1.699C3.881,609.821,2.368,606.531,0,603.217z"/>
			<path style="fill:#6B6455;" d="M0,593.746v1.861c0.111,0.071,0.209,0.138,0.28,0.199C0.258,595.13,0.153,594.441,0,593.746z"/>
		</g>
	</g>
</g>
<g id="Layer_1">
</g>
</svg>
