<svg xmlns="http://www.w3.org/2000/svg" viewBox="0 0 2560 1440"><title>mountainscape</title><g id="1e3f7b12-df9d-4e75-9b5f-a8d944d1b7cd" data-name="background"><g id="ff290d8f-5487-4934-8990-0f044cd2e94b" data-name="Layer 19 copy 3"><polygon points="474.9 0 0 309.52 0 323.2 499.77 0 474.9 0" fill="#efe7ce"/><polygon points="398.33 0 0 259.62 0 288.1 445.49 0 398.33 0" fill="#efe7ce"/><rect y="882" width="2559" height="558" fill="#efe7ce"/><polygon points="0 0 0 238.35 368.56 0 0 0" fill="#efe7ce"/><path d="M2559,850H40V827H2559V0H609.8L0,397.45v457H2559ZM1883.91,634.51a30,30,0,0,1,52.93-23.59,29.93,29.93,0,0,1,23.46-12,35.16,35.16,0,0,1,58.64-26l.11.1q.86.78,1.67,1.62l.17.17q.78.82,1.51,1.69l.19.23q.71.86,1.37,1.77l.18.26q.65.91,1.24,1.86l.16.27c.39.64.76,1.3,1.11,2l.12.24c.35.69.69,1.39,1,2.1l.07.16c.32.75.61,1.5.88,2.28a27.69,27.69,0,0,1,39.69,24.94,27.92,27.92,0,0,1-.31,4.17,30,30,0,0,1,43.39,26.82,30.15,30.15,0,0,1-.3,4.19c6.45,2.19,14,9,14,16.19H1858A34.62,34.62,0,0,1,1883.91,634.51ZM658.81,728.59a21,21,0,0,1,20.78-23.92,20.89,20.89,0,0,1,9.39,2.22,19.39,19.39,0,0,1,19.15-22.29,19.3,19.3,0,0,1,8.41,1.92c.2-.59.43-1.16.67-1.73.08-.19.18-.38.27-.57.17-.37.34-.73.53-1.09s.25-.44.37-.66.35-.63.54-.93.3-.45.45-.67.38-.56.58-.84.34-.44.51-.66.4-.51.61-.76.38-.43.57-.64.43-.47.66-.7l.63-.61.7-.64.67-.56.38-.32h0a24.59,24.59,0,0,1,39.71,19.28,21,21,0,0,1,16.42,8.37,21,21,0,0,1,37.05,16.51,24.23,24.23,0,0,1,18.17,20.64H649C649,734.87,654.29,730.12,658.81,728.59ZM291.6,320.14A36.71,36.71,0,0,1,328,278.23a36.6,36.6,0,0,1,16.44,3.88A34,34,0,0,1,378,243.06a33.81,33.81,0,0,1,14.73,3.36c.33-.95.69-1.87,1.08-2.79l.08-.2c.38-.87.79-1.73,1.22-2.57l.15-.3c.43-.82.89-1.62,1.36-2.41l.2-.33q.72-1.16,1.51-2.28l.23-.32q.8-1.11,1.68-2.17l.23-.28q.89-1.06,1.85-2.07l.21-.21q1-1,2-2l.14-.12c.74-.66,1.49-1.3,2.27-1.91h0a43.12,43.12,0,0,1,69.64,33.76,36.71,36.71,0,0,1,28.77,14.66,36.77,36.77,0,0,1,64.91,28.93A42.46,42.46,0,0,1,602.13,340H274.49C274.49,331.15,283.69,322.83,291.6,320.14Z" fill="#efe7ce"/><rect y="876" width="2559" height="3" fill="#efe7ce"/><rect y="866.5" width="2559" height="3.5" fill="#efe7ce"/><polygon points="499.77 0 0 323.2 0 397.45 609.8 0 499.77 0" fill="#fff9e9"/><polygon points="445.49 0 0 288.1 0 309.52 474.9 0 445.49 0" fill="#fff9e9"/><polygon points="368.56 0 0 238.35 0 259.62 398.33 0 368.56 0" fill="#fff9e9"/><rect y="854.5" width="2560" height="12" fill="#e0d6bd"/><rect y="870" width="2560" height="6" fill="#dbd1b9"/><rect y="879" width="2560" height="3" fill="#dbd1b9"/><rect x="40" y="827" width="2520" height="23" fill="#e5dcc3"/><path d="M396.83,237.82q.72-1.16,1.51-2.28Q397.55,236.65,396.83,237.82Z" fill="#fff9e9"/><path d="M398.57,235.22q.8-1.11,1.68-2.17Q399.37,234.11,398.57,235.22Z" fill="#fff9e9"/><path d="M402.53,230.5q1-1,2-2Q403.52,229.47,402.53,230.5Z" fill="#fff9e9"/><path d="M400.48,232.78q.89-1.06,1.85-2.07Q401.37,231.71,400.48,232.78Z" fill="#fff9e9"/><path d="M395.26,240.56c.43-.82.89-1.62,1.36-2.41C396.15,238.93,395.69,239.74,395.26,240.56Z" fill="#fff9e9"/><path d="M404.71,228.4c.74-.66,1.49-1.3,2.27-1.91C406.2,227.1,405.45,227.73,404.71,228.4Z" fill="#fff9e9"/><path d="M467.64,269.79a29.68,29.68,0,0,1,34.09,21.65,31.12,31.12,0,0,1,59.12,19.33A40,40,0,0,1,591.73,340h10.4a42.46,42.46,0,0,0-31.82-36.16,36.77,36.77,0,0,0-64.91-28.93,36.71,36.71,0,0,0-28.77-14.66A43.12,43.12,0,0,0,407,226.49a46.65,46.65,0,0,1,60.65,43.31Z" fill="#fff9e9"/><path d="M393.89,243.42c.38-.87.79-1.73,1.22-2.57C394.68,241.69,394.27,242.55,393.89,243.42Z" fill="#fff9e9"/><path d="M392.73,246.41c.33-.95.69-1.87,1.08-2.79C393.42,244.54,393.06,245.47,392.73,246.41Z" fill="#fff9e9"/><path d="M581.42,340h10.31a40,40,0,0,0-30.88-29.23,31.12,31.12,0,0,0-59.12-19.33,29.68,29.68,0,0,0-34.09-21.65A46.65,46.65,0,0,0,407,226.49h0c-.78.61-1.54,1.25-2.27,1.91l-.14.12q-1.06,1-2,2l-.21.21q-1,1-1.85,2.07l-.23.28q-.87,1.06-1.68,2.17l-.23.32q-.79,1.11-1.51,2.28l-.2.33c-.48.79-.94,1.59-1.36,2.41l-.15.3c-.43.84-.84,1.7-1.22,2.57l-.08.2c-.39.91-.75,1.84-1.08,2.79A34,34,0,0,0,344.06,277a34.21,34.21,0,0,0,.38,5.11A36.77,36.77,0,0,0,291.23,315a37,37,0,0,0,.37,5.14l.4-.14Z" fill="#fff3d2"/><path d="M292,320l-.4.14c-7.91,2.69-17.11,11-17.11,19.86H581.42Z" fill="#dbcca7"/><path d="M759.29,699.85a16.94,16.94,0,0,1,19.46,12.36,17.76,17.76,0,0,1,33.75,11,22.86,22.86,0,0,1,17.63,16.68h5.93a24.23,24.23,0,0,0-18.17-20.64,21,21,0,0,0-37.05-16.51,21,21,0,0,0-16.42-8.37,24.59,24.59,0,0,0-39.71-19.28,26.62,26.62,0,0,1,34.58,24.73Z" fill="#fff9e9"/><path d="M717.21,684.78c.08-.19.18-.38.27-.57C717.39,684.4,717.29,684.58,717.21,684.78Z" fill="#fff9e9"/><path d="M719.93,680c.17-.23.34-.44.51-.66C720.27,679.58,720.1,679.8,719.93,680Z" fill="#fff9e9"/><path d="M721.06,678.6c.19-.22.38-.43.57-.64C721.44,678.17,721.25,678.38,721.06,678.6Z" fill="#fff9e9"/><path d="M718,683.12c.12-.22.25-.44.37-.66C718.25,682.68,718.12,682.89,718,683.12Z" fill="#fff9e9"/><path d="M723.61,676l.67-.56Z" fill="#fff9e9"/><path d="M722.29,677.26l.63-.61Z" fill="#fff9e9"/><path d="M718.91,681.53c.14-.23.3-.45.45-.67C719.21,681.08,719.05,681.3,718.91,681.53Z" fill="#fff9e9"/><path d="M824.24,739.92h5.88a22.86,22.86,0,0,0-17.63-16.68,17.76,17.76,0,0,0-33.75-11,16.94,16.94,0,0,0-19.46-12.36,26.62,26.62,0,0,0-34.58-24.73h0l-.38.32-.67.56-.7.64-.63.61c-.22.23-.44.46-.66.7s-.39.42-.57.64-.41.51-.61.76-.35.44-.51.66-.39.56-.58.84-.3.44-.45.67-.36.62-.54.93-.25.43-.37.66-.36.72-.53,1.09c-.09.19-.19.37-.27.57-.24.56-.47,1.14-.67,1.73A19.38,19.38,0,0,0,688.75,704a19.52,19.52,0,0,0,.22,2.92,21,21,0,0,0-30.37,18.77,21.12,21.12,0,0,0,.21,2.94l.23-.08Z" fill="#fff3d2"/><path d="M659,728.5l-.23.08c-4.52,1.53-9.77,6.28-9.77,11.33h175.2Z" fill="#dbcca7"/><path d="M2025.53,580.94c.39.64.76,1.3,1.11,2C2026.29,582.24,2025.92,581.59,2025.53,580.94Z" fill="#fff9e9"/><path d="M2024.13,578.82q.65.91,1.24,1.86Q2024.78,579.73,2024.13,578.82Z" fill="#fff9e9"/><path d="M2022.58,576.79q.71.86,1.37,1.77Q2023.29,577.66,2022.58,576.79Z" fill="#fff9e9"/><path d="M2020.88,574.88q.78.82,1.51,1.69Q2021.66,575.7,2020.88,574.88Z" fill="#fff9e9"/><path d="M2027.83,585.41c.32.75.61,1.5.88,2.28C2028.44,586.92,2028.14,586.16,2027.83,585.41Z" fill="#fff9e9"/><path d="M2026.76,583.15c.35.69.69,1.39,1,2.1C2027.45,584.54,2027.12,583.84,2026.76,583.15Z" fill="#fff9e9"/><path d="M1891.62,640.17a25.37,25.37,0,0,1,48.21-15.76,24.2,24.2,0,0,1,27.8-17.66,38,38,0,0,1,49.46-35.31c.64.5,1.25,1,1.85,1.56a35.16,35.16,0,0,0-58.64,26,29.93,29.93,0,0,0-23.46,12,30,30,0,0,0-52.93,23.59A34.62,34.62,0,0,0,1858,664h8.48A32.66,32.66,0,0,1,1891.62,640.17Z" fill="#fff9e9"/><path d="M2019,573.09c.57.52,1.13,1.06,1.67,1.62Q2019.91,573.87,2019,573.09Z" fill="#fff9e9"/><path d="M2005.66,569.68a38,38,0,0,0-38,37.07,24.2,24.2,0,0,0-27.8,17.66,25.37,25.37,0,0,0-48.21,15.76A32.66,32.66,0,0,0,1866.44,664h8.41l236-16.31.33.12a29.93,29.93,0,0,0-29.68-34.18,29.85,29.85,0,0,0-13.41,3.17A27.69,27.69,0,0,0,2040.72,585a27.57,27.57,0,0,0-12,2.74c-.27-.77-.56-1.53-.88-2.28l-.07-.16c-.31-.71-.64-1.41-1-2.1l-.12-.24c-.35-.67-.72-1.32-1.11-2l-.16-.27q-.59-1-1.24-1.86l-.18-.26q-.66-.9-1.37-1.77l-.19-.23q-.73-.87-1.51-1.69l-.17-.17c-.54-.56-1.09-1.1-1.67-1.62l-.11-.1c-.6-.54-1.22-1.06-1.85-1.56A38,38,0,0,0,2005.66,569.68Z" fill="#fff3d2"/><path d="M1874.84,664h250.29c0-7.22-7.5-14-14-16.19l-.33-.12Z" fill="#dbcca7"/></g><g id="d839ebc7-f19b-4a80-a05d-bfb999e32a8c" data-name="Water"><rect y="904" width="2560" height="536" fill="#69828c"/></g></g><g id="d1edacbb-efd5-4237-a75d-293f8e1b2a6d" data-name="mountains-1"><g id="24cee39e-7f76-4234-b8c9-a212425e66ad" data-name="Layer 19 copy 4"><g id="61ad82d9-4776-4309-bd94-44c45da92a50" data-name="Mountain"><path d="M2503,326l-56,113-82,64,72-3,57.58,15.41,4,1.06L2508,519l12.79,11.19,24.35,21.3-12.58,17-23.71,31.94-57.06,18.87-77.88,49.28-55.07-6.45L2252.94,686l-42,37.67-65.58,27.13L2117.63,731l54.28-59.82,91.44-58.68,28.61,3.91L2288,599l-62,14,49-52-35-77L2100.55,601.6,2068,659,1923,759l30,14,3,10,11-3,22,14,52,9,77-21-143,71-72-21-29-35-14-1,2-13-36.85-26.89-.58,0L1661,847l-78,32h-39l-66,6.6-18.42,1.84L1454,888v30l-75,2-15,25-132-1-84-14-72-36-71-35L880,803,760,782l-89-71L549,589l-19,35,23,16-31,2-38,38,50,32-73,3-65,89L184,679l158-29,75.6-8L361,557,224,497,177.65,382.61,77,293,24,355,0,412.49V1440H2560V297.5ZM801.38,904.69l-107.19,8-41-38.41-77-2.14-63.23,28.5L448,879.12l-27.31-63.69L481.33,783l57.75,13.46L630,790.38,673,829l67.8,13.31,54.75-14.82,69.17,9.82L877.89,874Zm743.68,144.06L1478,1066.58l-62.46-32-78.24-2.2-43.89,36-108.25-14-75.8-35,15.48-35.85,70.74-5.91,54.66,17.88,69.55-9.48,45.91-36.14,91.88,11.2,59.37-10.19,59.6,35.78Z" fill="#f0c108"/></g><g id="58dd9e18-a281-4afd-bd95-a36350768831" data-name="Shades"><polygon points="2226 613 2288 599 2291.97 616.45 2316.57 619.82 2385.74 583.31 2429.24 531.65 2494.58 515.41 2437 500 2365 503 2240 484 2275 561 2226 613" fill="#e5b417"/><polygon points="2508 519 2498.55 516.47 2520.79 530.19 2508 519" fill="#e5b417"/><polygon points="184 679 396 804 461 715 534 712 484 680 522 642 553 640 530 624 549 589 418 642 417.82 642.02 417.6 642.04 342 650 184 679" fill="#e5b417"/><polygon points="77 293 0 323.51 0 412.49 24 355 77 293" fill="#e5b417"/><polygon points="1860 796 1874 797 1903 832 1975 853 2118 782 2041 803 1989 794 1967 780 1956 783 1953 773 1923 759 1825 756 1825.14 756.11 1862 783 1860 796" fill="#e5b417"/></g><g id="ded49580-c98f-42e2-999f-916ebbb0cb86" data-name="Lighthouse"><path d="M1475.81,855.85v-8.77h-14v8.77Zm-2-7.85v6.94h-10.09V848Z" fill="#fff3d2"/><rect x="1463.74" y="848" width="10.09" height="6.94" fill="#fff9e9"/><polygon points="1477.08 881 1460.5 881 1460.23 883.93 1477.34 883.93 1477.08 881" fill="#c9a228"/><polygon points="1476.36 873 1461.21 873 1460.85 877 1476.72 877 1476.36 873" fill="#c9a228"/><polygon points="1461.93 865 1461.57 869 1476.01 869 1475.65 865 1461.93 865" fill="#c9a228"/><polygon points="1462.55 858.05 1462.29 861 1475.29 861 1475.02 858.05 1462.55 858.05" fill="#c9a228"/><polygon points="1476.72 877 1460.85 877 1460.5 881 1477.08 881 1476.72 877" fill="#e5b417"/><polygon points="1476.01 869 1461.57 869 1461.4 870.91 1461.21 873 1476.36 873 1476.01 869" fill="#e5b417"/><polygon points="1462.29 861 1461.93 865 1475.65 865 1475.29 861 1462.29 861" fill="#e5b417"/><polygon points="1468.79 840.5 1461.35 844.89 1476.23 844.89 1468.79 840.5" fill="#937f4d"/><rect x="1461.33" y="844.89" width="14.91" height="2.19" fill="#937f4d"/><polygon points="1478 883.93 1459.58 883.93 1459.58 887.44 1478 885.6 1478 883.93" fill="#937f4d"/><rect x="1461.33" y="855.85" width="14.91" height="2.19" fill="#937f4d"/><polygon points="1462.29 861 1462.55 858.05 1461.33 858.05 1461.33 855.85 1461.77 855.85 1461.77 847.1 1382 904 1429 904 1461.4 870.91 1461.57 869 1462.29 861" fill="#fffcf5" opacity="0.4"/></g><g id="bdf1aac4-0a7a-4db7-a3eb-71d2656a0f3a" data-name="Fog"><polygon points="2291.97 616.45 2263.35 612.54 2171.92 671.23 2117.63 731.05 2145.36 750.84 2210.95 723.71 2252.94 686.04 2318.84 662.1 2373.91 668.55 2451.79 619.26 2508.86 600.39 2532.56 568.45 2298 643 2291.97 616.45" fill="#f0c108"/><polygon points="2291.97 616.45 2263.35 612.54 2171.92 671.23 2117.63 731.05 2145.36 750.84 2210.95 723.71 2252.94 686.04 2318.84 662.1 2373.91 668.55 2451.79 619.26 2508.86 600.39 2532.56 568.45 2298 643 2291.97 616.45" fill="#fff" opacity="0.2"/><polygon points="2385.74 583.31 2316.57 619.82 2291.97 616.45 2298 643 2532.56 568.45 2545.14 551.5 2520.79 530.19 2498.55 516.47 2494.58 515.41 2429.24 531.65 2385.74 583.31" fill="#e5b417"/><polygon points="2385.74 583.31 2316.57 619.82 2291.97 616.45 2298 643 2532.56 568.45 2545.14 551.5 2520.79 530.19 2498.55 516.47 2494.58 515.41 2429.24 531.65 2385.74 583.31" fill="#fff" opacity="0.2"/><polygon points="1457.54 961.1 1365.66 949.9 1319.75 986.04 1250.2 995.52 1195.54 977.64 1124.8 983.55 1109.32 1019.4 1185.12 1054.39 1293.37 1068.41 1337.25 1032.37 1415.5 1034.57 1477.96 1066.58 1545.07 1048.75 1576.51 986.7 1516.91 950.92 1457.54 961.1" fill="#f0c108"/><polygon points="1457.54 961.1 1365.66 949.9 1319.75 986.04 1250.2 995.52 1195.54 977.64 1124.8 983.55 1109.32 1019.4 1185.12 1054.39 1293.37 1068.41 1337.25 1032.37 1415.5 1034.57 1477.96 1066.58 1545.07 1048.75 1576.51 986.7 1516.91 950.92 1457.54 961.1" fill="#fff" opacity="0.2"/><polygon points="795.58 827.5 740.83 842.32 673.04 829 630.01 790.38 539.08 796.47 481.33 783.01 420.69 815.43 448 879.12 512.91 900.64 576.14 872.14 653.16 874.28 694.2 912.7 801.38 904.69 877.89 873.97 864.75 837.32 795.58 827.5" fill="#f0c108"/><polygon points="795.58 827.5 740.83 842.32 673.04 829 630.01 790.38 539.08 796.47 481.33 783.01 420.69 815.43 448 879.12 512.91 900.64 576.14 872.14 653.16 874.28 694.2 912.7 801.38 904.69 877.89 873.97 864.75 837.32 795.58 827.5" fill="#fff" opacity="0.2"/></g></g></g><g id="c6371dc8-28f3-4bf5-aaa6-a4812b63a95c" data-name="mountains-2"><path d="M2547.24,534.1a14.54,14.54,0,0,0-3.8-3.41,9,9,0,0,1,3,.57c-.27-1.7-2.19-3.47-4.36-5a8,8,0,0,1,2.52.46c-.26-1.64-2.41-3.33-4.63-4.67a8,8,0,0,1,2.67.43c-.23-1.46-2.18-3-4.14-4.14a6.42,6.42,0,0,1,2.34.45c-.44-2.81-7-6-7-6s-5.3,5-4.86,7.82a6.42,6.42,0,0,1,2.09-1.15c-1.5,1.71-2.9,3.75-2.67,5.21a8,8,0,0,1,2.41-1.23c-1.7,2-3.24,4.22-3,5.86a8,8,0,0,1,2.26-1.21c-1.61,2.08-2.91,4.35-2.64,6.05a9,9,0,0,1,2.65-1.45c-1.7,2.15-3,4.46-2.77,6.2.38-.46,3.54-2.2,8.63-3.2l.63,4-40.79,21.7a16.77,16.77,0,0,0-3.32-2.79,9,9,0,0,1,3,.57c-.27-1.7-2.19-3.47-4.36-5a8,8,0,0,1,2.52.46c-.26-1.64-2.41-3.33-4.63-4.67a8,8,0,0,1,2.67.43c-.23-1.46-2.18-3-4.14-4.14a6.42,6.42,0,0,1,2.34.45c-.44-2.81-7-6-7-6s-5.3,5-4.86,7.82a6.42,6.42,0,0,1,2.09-1.15c-1.5,1.71-2.9,3.75-2.67,5.21a8,8,0,0,1,2.41-1.23c-1.7,2-3.24,4.22-3,5.86a8,8,0,0,1,2.26-1.21c-1.61,2.08-2.91,4.35-2.64,6.05a9,9,0,0,1,2.65-1.45c-1.7,2.15-3,4.46-2.77,6.2.38-.46,3.54-2.2,8.63-3.2l.5,3.19L2429,597l-10.66,2.89-.56-3.55c5.16-.61,8.7.09,9.2.41-.27-1.74-2.26-3.53-4.54-5.06a9,9,0,0,1,3,.57c-.27-1.7-2.19-3.47-4.36-5a8,8,0,0,1,2.52.46c-.26-1.64-2.41-3.33-4.63-4.67a8,8,0,0,1,2.67.43c-.23-1.46-2.18-3-4.14-4.14a6.42,6.42,0,0,1,2.34.45c-.44-2.81-7-6-7-6s-5.3,5-4.86,7.82a6.42,6.42,0,0,1,2.09-1.15c-1.5,1.71-2.9,3.75-2.67,5.21a8,8,0,0,1,2.41-1.23c-1.7,2-3.24,4.22-3,5.86a8,8,0,0,1,2.26-1.21,12.15,12.15,0,0,0-2.62,5,19.71,19.71,0,0,0-2.39-1.9,8,8,0,0,1,2.52.46c-.26-1.64-2.41-3.33-4.63-4.67a8,8,0,0,1,2.67.43c-.23-1.46-2.18-3-4.14-4.14a6.42,6.42,0,0,1,2.34.45c-.44-2.81-7-6-7-6s-5.3,5-4.86,7.82a6.42,6.42,0,0,1,2.09-1.15c-1.5,1.71-2.9,3.75-2.67,5.21a8,8,0,0,1,2.41-1.23c-1.7,2-3.24,4.22-3,5.86a8,8,0,0,1,2.26-1.21c-1.61,2.08-2.91,4.35-2.64,6.05a9,9,0,0,1,2.65-1.45c-1.7,2.15-3,4.46-2.77,6.2.38-.46,3.54-2.2,8.63-3.2l.55,3.49-25.26,6.86-.44-2.79c5.16-.61,8.7.09,9.2.41-.27-1.74-2.26-3.53-4.54-5.06a9,9,0,0,1,3,.57c-.27-1.7-2.19-3.47-4.36-5a8,8,0,0,1,2.52.46c-.26-1.64-2.41-3.33-4.63-4.67a8,8,0,0,1,2.67.43c-.23-1.46-2.18-3-4.14-4.14a6.42,6.42,0,0,1,2.34.45c-.44-2.81-7-6-7-6s-5.3,5-4.86,7.82a6.42,6.42,0,0,1,2.09-1.15c-1.5,1.71-2.9,3.75-2.67,5.21a8,8,0,0,1,2.41-1.23c-1.7,2-3.24,4.22-3,5.86a8,8,0,0,1,2.26-1.21c-1.61,2.08-2.91,4.35-2.64,6.05a9,9,0,0,1,2.65-1.45c-1.7,2.15-3,4.46-2.77,6.2.38-.46,3.54-2.2,8.63-3.2l.49,3.11-23.19,6.29-.45-2.85c5.16-.61,8.7.09,9.2.41-.27-1.74-2.26-3.53-4.54-5.06a9,9,0,0,1,3,.57c-.27-1.7-2.19-3.47-4.36-5a8,8,0,0,1,2.52.46c-.26-1.64-2.41-3.33-4.63-4.67a8,8,0,0,1,2.67.43c-.23-1.46-2.18-3-4.14-4.14a6.42,6.42,0,0,1,2.34.45c-.44-2.81-7-6-7-6s-5.3,5-4.86,7.82a6.42,6.42,0,0,1,2.09-1.15c-1.5,1.71-2.9,3.75-2.67,5.21a8,8,0,0,1,2.41-1.23c-1.7,2-3.24,4.22-3,5.86a8,8,0,0,1,2.26-1.21c-1.61,2.08-2.91,4.35-2.64,6.05a9,9,0,0,1,2.65-1.45c-1.7,2.15-3,4.46-2.77,6.2.38-.46,3.54-2.2,8.63-3.2l.49,3.16-23.19,6.29-.45-2.9c5.16-.61,8.7.09,9.2.41-.27-1.74-2.26-3.53-4.54-5.06a9,9,0,0,1,3,.57c-.27-1.7-2.19-3.47-4.36-5a8,8,0,0,1,2.52.46c-.26-1.64-2.41-3.33-4.63-4.67a8,8,0,0,1,2.67.43c-.23-1.46-2.18-3-4.14-4.14a6.42,6.42,0,0,1,2.34.45c-.44-2.81-7-6-7-6s-5.3,5-4.86,7.82a6.42,6.42,0,0,1,2.09-1.15c-1.5,1.71-2.9,3.75-2.67,5.21a8,8,0,0,1,2.41-1.23c-1.7,2-3.24,4.22-3,5.86a8,8,0,0,1,2.26-1.21c-1.61,2.08-2.91,4.35-2.64,6.05a9,9,0,0,1,2.65-1.45c-1.7,2.15-3,4.46-2.77,6.2.38-.46,3.54-2.2,8.63-3.2l.5,3.22-11.09,3c-.38-1.72-2.46-3.39-4.83-4.78a9,9,0,0,1,3,.39c-.37-1.68-2.39-3.33-4.65-4.69a8,8,0,0,1,2.55.31c-.35-1.62-2.61-3.18-4.9-4.38a8,8,0,0,1,2.69.27c-.31-1.44-2.36-2.84-4.38-3.89a6.42,6.42,0,0,1,2.37.31c-.61-2.78-7.36-5.53-7.36-5.53s-5,5.31-4.38,8.09a6.42,6.42,0,0,1,2-1.27c-1.4,1.8-2.67,3.92-2.36,5.36a8,8,0,0,1,2.33-1.37c-1.58,2-3,4.41-2.63,6a7.94,7.94,0,0,1,2.19-1.34c-1.49,2.17-2.64,4.52-2.28,6.2a9,9,0,0,1,2.56-1.61c-1.57,2.25-2.77,4.64-2.4,6.36.35-.48,3.4-2.41,8.43-3.71l.52,2.37L2289,635l-71.8,64a16,16,0,0,0-3.68-2.79,9,9,0,0,1,3,.39c-.37-1.68-2.39-3.33-4.65-4.69a8,8,0,0,1,2.55.31c-.35-1.62-2.61-3.18-4.9-4.38a8,8,0,0,1,2.69.27c-.31-1.44-2.36-2.84-4.38-3.89a6.42,6.42,0,0,1,2.37.31c-.61-2.78-7.36-5.53-7.36-5.53s-5,5.31-4.38,8.09a6.42,6.42,0,0,1,2-1.27c-1.4,1.8-2.67,3.92-2.36,5.36a8,8,0,0,1,2.33-1.37,17.63,17.63,0,0,0-2.15,3.43,13.15,13.15,0,0,0-3-2.34,6,6,0,0,1,2.18.41c-.42-2.61-6.54-5.5-6.54-5.5s-4.89,4.67-4.47,7.28a6,6,0,0,1,1.94-1.07c-1.39,1.6-2.67,3.5-2.46,4.85a7.42,7.42,0,0,1,2.23-1.15,17.61,17.61,0,0,0-2,2.73c-1.34-1.84-5.49-3.39-5.49-3.39s-3.76,4.26-3.22,6.41a5,5,0,0,1,1.54-1c-1,1.43-2,3.11-1.71,4.23a6.24,6.24,0,0,1,1.78-1.12c-1.18,1.63-2.22,3.5-1.9,4.75a6.19,6.19,0,0,1,1.67-1.1c-1.11,1.73-2,3.58-1.62,4.88a7,7,0,0,1,2-1.31c-1.17,1.79-2,3.68-1.72,5,.26-.39,2.59-2,6.48-3.09l.74,3-21.81,10.55a15.26,15.26,0,0,0-3.06-2.68,8.3,8.3,0,0,1,2.73.57c-.22-1.57-2-3.23-3.95-4.64a7.33,7.33,0,0,1,2.32.46c-.21-1.51-2.17-3.11-4.2-4.38a7.38,7.38,0,0,1,2.45.44c-.19-1.35-2-2.77-3.75-3.89a5.93,5.93,0,0,1,2.15.45c-.36-2.6-6.37-5.6-6.37-5.6s-5,4.53-4.6,7.13a5.92,5.92,0,0,1,1.95-1c-1.24,1.37-2.41,3-2.55,4.25a15.31,15.31,0,0,0-3.14-2.08,6.42,6.42,0,0,1,2.37.31c-.61-2.78-7.36-5.53-7.36-5.53s-5,5.31-4.38,8.09a6.42,6.42,0,0,1,2-1.27c-1.4,1.8-2.67,3.92-2.36,5.36a8,8,0,0,1,2.33-1.37c-1.58,2-3,4.41-2.63,6a7.94,7.94,0,0,1,2.19-1.34c-1.49,2.17-2.64,4.52-2.28,6.2a9,9,0,0,1,2.56-1.61c-1.57,2.25-2.77,4.64-2.4,6.36.35-.48,3.4-2.41,8.43-3.71l.76,3.5-21.4,10.36a13.79,13.79,0,0,0-4.16-3.39,9,9,0,0,1,3,.39c-.37-1.68-2.39-3.33-4.65-4.69a8,8,0,0,1,2.55.31c-.35-1.62-2.61-3.18-4.9-4.38a8,8,0,0,1,2.69.27c-.31-1.44-2.36-2.84-4.38-3.89a6.42,6.42,0,0,1,2.37.31c-.61-2.78-7.36-5.53-7.36-5.53s-5,5.31-4.38,8.09a6.42,6.42,0,0,1,2-1.27c-1.4,1.8-2.67,3.92-2.36,5.36a8,8,0,0,1,2.33-1.37,18.79,18.79,0,0,0-2,3.11c-1-2.33-5.83-4.82-5.83-4.82s-4.78,4.26-4.47,6.74a5.64,5.64,0,0,1,1.87-1c-1.36,1.47-2.64,3.22-2.48,4.51a7,7,0,0,1,2.15-1c-1.55,1.67-3,3.62-2.77,5.07a7,7,0,0,1,2-1,14.52,14.52,0,0,0-2,3.06,14,14,0,0,0-2.58-1.68,6.24,6.24,0,0,1,2.1.21c-.25-1.12-1.84-2.21-3.41-3a5,5,0,0,1,1.84.24c-.47-2.17-5.74-4.31-5.74-4.31s-3.89,4.14-3.42,6.31a5,5,0,0,1,1.58-1c-1.09,1.4-2.08,3.06-1.84,4.18a6.24,6.24,0,0,1,1.82-1.07c-1.23,1.6-2.32,3.44-2,4.7a6.19,6.19,0,0,1,1.71-1c-1.16,1.69-2.06,3.52-1.77,4.83a7,7,0,0,1,2-1.25c-1.23,1.75-2.16,3.61-1.87,5,.28-.38,2.65-1.88,6.57-2.89l.65,3-17.63,8.53a15.41,15.41,0,0,0-3-2.64,8.29,8.29,0,0,1,2.73.58c-.22-1.57-2-3.23-3.94-4.64a7.32,7.32,0,0,1,2.32.46c-.21-1.51-2.17-3.11-4.19-4.38a7.38,7.38,0,0,1,2.45.44c-.19-1.35-2-2.78-3.75-3.89a5.92,5.92,0,0,1,2.15.45c-.36-2.6-6.37-5.61-6.37-5.61s-5,4.53-4.61,7.13a5.92,5.92,0,0,1,1.95-1c-1.41,1.56-2.74,3.41-2.55,4.76a7.38,7.38,0,0,1,2.24-1.09,14.51,14.51,0,0,0-2.48,3.51,21.92,21.92,0,0,0-2.29-1.37,8,8,0,0,1,2.69.27c-.31-1.44-2.36-2.84-4.38-3.89a6.42,6.42,0,0,1,2.37.31c-.61-2.78-7.36-5.53-7.36-5.53s-5,5.31-4.38,8.09a6.43,6.43,0,0,1,2-1.27c-1.4,1.8-2.67,3.92-2.36,5.36a8,8,0,0,1,2.33-1.37c-1.58,2-3,4.41-2.63,6a7.94,7.94,0,0,1,2.19-1.34c-1.49,2.17-2.64,4.52-2.28,6.2a9,9,0,0,1,2.56-1.61c-1.57,2.25-2.77,4.64-2.4,6.36.35-.48,3.4-2.41,8.43-3.71l.85,3.91L2029,791l-64,50-12.62,2.72-.43-2.16c4.77-.76,8.08-.25,8.56,0-.32-1.6-2.23-3.2-4.4-4.53a8.37,8.37,0,0,1,2.78.42c-.31-1.57-2.16-3.14-4.24-4.44a7.38,7.38,0,0,1,2.36.33c-.3-1.51-2.36-3-4.47-4.16a7.43,7.43,0,0,1,2.49.3c-.27-1.34-2.14-2.68-4-3.69a6,6,0,0,1,2.19.33c-.51-2.59-6.74-5.27-6.74-5.27s-4.73,4.85-4.22,7.44a6,6,0,0,1,1.9-1.14c-1.33,1.65-2.55,3.59-2.29,4.94a7.44,7.44,0,0,1,2.19-1.23c-1.51,1.87-2.85,4-2.55,5.55a7.38,7.38,0,0,1,2.06-1.21c-1.42,2-2.54,4.15-2.22,5.72a8.36,8.36,0,0,1,2.41-1.45c-1.5,2.06-2.66,4.26-2.34,5.86.34-.44,3.2-2.18,7.9-3.3l.44,2.2-8.39,1.81c-.3-1.7-2.14-3.51-4.28-5.07a9,9,0,0,1,2.94.7c-.19-1.71-2-3.56-4.15-5.14a7.94,7.94,0,0,1,2.5.56c-.19-1.65-2.27-3.43-4.43-4.86a8,8,0,0,1,2.65.54c-.17-1.47-2.06-3.06-4-4.32a6.43,6.43,0,0,1,2.32.55c-.32-2.83-6.76-6.25-6.76-6.25s-5.51,4.78-5.19,7.6a6.42,6.42,0,0,1,2.14-1.06c-1.57,1.65-3.06,3.63-2.89,5.09a8,8,0,0,1,2.46-1.12c-1.78,1.88-3.41,4.08-3.23,5.73a7.94,7.94,0,0,1,2.31-1.11c-1.7,2-3.09,4.22-2.9,5.93a9,9,0,0,1,2.71-1.34c-1.79,2.07-3.23,4.33-3,6.08.4-.45,3.63-2,8.76-2.83l.32,2.82-19.57,4.21c-.45-1.24-2-2.43-3.67-3.43a7,7,0,0,1,2.34.31c-.29-1.31-1.87-2.6-3.63-3.65a6.2,6.2,0,0,1,2,.24c-.28-1.26-2-2.48-3.82-3.42a6.24,6.24,0,0,1,2.1.21c-.25-1.12-1.84-2.21-3.41-3a5,5,0,0,1,1.84.24c-.47-2.17-5.74-4.31-5.74-4.31s-3.89,4.14-3.42,6.31a5,5,0,0,1,1.58-1c-1.09,1.4-2.08,3.06-1.84,4.18a6.24,6.24,0,0,1,1.82-1.07,10.59,10.59,0,0,0-2,3.62,21.05,21.05,0,0,0-2.26-1.92,8.23,8.23,0,0,1,2.59.58c-.19-1.7-2.35-3.55-4.59-5a8.29,8.29,0,0,1,2.74.56c-.17-1.52-2.13-3.17-4.1-4.47a6.65,6.65,0,0,1,2.4.57c-.33-2.93-7-6.47-7-6.47s-5.7,4.95-5.37,7.88a6.65,6.65,0,0,1,2.21-1.09c-1.63,1.71-3.17,3.76-3,5.27a8.29,8.29,0,0,1,2.55-1.16c-1.85,1.94-3.53,4.23-3.34,5.93a8.23,8.23,0,0,1,2.39-1.15c-1.76,2.08-3.2,4.37-3,6.15a9.32,9.32,0,0,1,2.81-1.39c-1.86,2.15-3.35,4.48-3.14,6.3.41-.46,3.76-2.12,9.07-2.94l.28,2.48-20.06,4.32-.38-1.76c4.57-.81,7.76-.39,8.23-.13-.34-1.54-2.2-3-4.32-4.27a8,8,0,0,1,2.68.35c-.33-1.5-2.14-3-4.16-4.19a7.1,7.1,0,0,1,2.28.27c-.32-1.45-2.33-2.84-4.38-3.92a7.15,7.15,0,0,1,2.4.24c-.28-1.29-2.11-2.53-3.91-3.48a5.74,5.74,0,0,1,2.11.28c-.54-2.48-6.58-4.94-6.58-4.94s-4.46,4.75-3.92,7.23a5.74,5.74,0,0,1,1.81-1.13c-1.25,1.61-2.39,3.5-2.11,4.79a7.15,7.15,0,0,1,2.08-1.22c-1.42,1.83-2.66,3.94-2.35,5.38a7.1,7.1,0,0,1,2-1.2c-1.33,1.94-2.36,4-2,5.54a8,8,0,0,1,2.29-1.44c-1.41,2-2.48,4.14-2.14,5.68.32-.43,3-2.15,7.53-3.32L1863,863l-19.91,4.29-.24-3.7c5.19-.14,8.65.87,9.13,1.24-.11-1.76-1.93-3.72-4.06-5.45a9,9,0,0,1,2.91.84c-.11-1.72-1.87-3.65-3.9-5.33a7.94,7.94,0,0,1,2.47.68c-.11-1.65-2.1-3.53-4.19-5.06a8,8,0,0,1,2.62.67c-.1-1.47-1.91-3.16-3.75-4.5a6.42,6.42,0,0,1,2.29.66c-.19-2.84-6.45-6.57-6.45-6.57s-5.73,4.51-5.54,7.35a6.42,6.42,0,0,1,2.19-1c-1.65,1.57-3.23,3.48-3.13,4.95a8,8,0,0,1,2.51-1c-1.87,1.79-3.61,3.91-3.5,5.56a7.94,7.94,0,0,1,2.36-1c-1.79,1.93-3.29,4.07-3.18,5.79a9,9,0,0,1,2.77-1.21c-1.89,2-3.43,4.17-3.32,5.93.42-.43,3.72-1.87,8.89-2.41l.27,4.12L1835,869l-19.76-6,.47-3c4.9,1,7.93,2.62,8.3,3.07.26-1.67-1-3.89-2.67-6a8.65,8.65,0,0,1,2.55,1.39c.25-1.63-1-3.81-2.54-5.81a7.63,7.63,0,0,1,2.18,1.16c.24-1.57-1.23-3.75-2.87-5.62a7.69,7.69,0,0,1,2.32,1.17c.22-1.4-1.13-3.36-2.57-5a6.17,6.17,0,0,1,2,1.1c.42-2.7-4.68-7.5-4.68-7.5s-6.31,3-6.73,5.73a6.17,6.17,0,0,1,2.25-.44c-1.87,1.13-3.75,2.59-4,4a7.69,7.69,0,0,1,2.56-.42c-2.13,1.29-4.2,2.92-4.44,4.49a7.63,7.63,0,0,1,2.42-.44,16,16,0,0,0-3,2.58,8,8,0,0,0-2.42-3.33,5.55,5.55,0,0,1,1.7.58c0-1.16-1.32-2.55-2.72-3.7a5.59,5.59,0,0,1,1.8.57c0-1-1.2-2.28-2.43-3.29a4.49,4.49,0,0,1,1.57.55c0-2-4.23-4.84-4.23-4.84s-4.18,2.91-4.16,4.9a4.49,4.49,0,0,1,1.56-.58c-1.21,1-2.39,2.29-2.38,3.32a5.59,5.59,0,0,1,1.79-.6c-1.38,1.17-2.67,2.58-2.66,3.74a5.55,5.55,0,0,1,1.69-.6c-1.33,1.27-2.46,2.71-2.45,3.91a6.29,6.29,0,0,1,2-.73,9.76,9.76,0,0,0-2.29,2.91l-13-4,.29-3.54c5.16.63,8.43,2.13,8.84,2.57.15-1.75-1.36-4-3.22-6a9,9,0,0,1,2.75,1.25c.14-1.72-1.31-3.88-3.07-5.84a7.94,7.94,0,0,1,2.35,1c.14-1.65-1.56-3.8-3.4-5.62a8,8,0,0,1,2.49,1c.12-1.47-1.42-3.4-3-5a6.42,6.42,0,0,1,2.17,1c.23-2.83-5.41-7.44-5.41-7.44s-6.33,3.62-6.56,6.45a6.42,6.42,0,0,1,2.3-.62c-1.86,1.31-3.7,3-3.82,4.43a8,8,0,0,1,2.63-.62c-2.11,1.49-4.14,3.34-4.28,5a7.94,7.94,0,0,1,2.48-.64c-2.06,1.64-3.85,3.54-4,5.26a9,9,0,0,1,2.92-.79c-1.83,1.43-3.43,3-4,4.56l-15.23-4.64.27-4.41c5.17.51,8.48,1.95,8.9,2.37.11-1.76-1.45-3.93-3.35-5.91a9,9,0,0,1,2.78,1.19c.1-1.72-1.4-3.86-3.2-5.77a7.94,7.94,0,0,1,2.37,1c.1-1.65-1.64-3.77-3.52-5.55a8,8,0,0,1,2.51,1c.09-1.47-1.5-3.37-3.15-4.93a6.43,6.43,0,0,1,2.19.94c.17-2.84-5.58-7.32-5.58-7.32s-6.25,3.76-6.42,6.59a6.42,6.42,0,0,1,2.29-.67c-1.83,1.35-3.64,3-3.73,4.52a8,8,0,0,1,2.62-.68c-2.08,1.54-4.07,3.43-4.17,5.08a7.94,7.94,0,0,1,2.47-.69c-2,1.69-3.77,3.63-3.88,5.35a9,9,0,0,1,2.9-.85c-2.12,1.73-3.93,3.71-4,5.46.47-.37,3.93-1.39,9.12-1.28l-.23,3.72L1743,841l-3,1.15a15.38,15.38,0,0,0-3.24-3.59,9,9,0,0,1,2.88.92c-.06-1.72-1.77-3.7-3.75-5.44a7.94,7.94,0,0,1,2.45.75c-.06-1.65-2-3.59-4-5.18a8,8,0,0,1,2.6.74c-.05-1.47-1.82-3.21-3.62-4.6a6.42,6.42,0,0,1,2.27.72c-.1-2.84-6.26-6.74-6.26-6.74s-5.85,4.34-5.75,7.19a6.42,6.42,0,0,1,2.21-.89c-1.69,1.52-3.32,3.38-3.27,4.86A8,8,0,0,1,1725,830c-1.92,1.74-3.71,3.81-3.65,5.46a7.94,7.94,0,0,1,2.39-.93c-1.75,1.78-3.22,3.75-3.32,5.41a15.32,15.32,0,0,0-2.05-1.58,6.19,6.19,0,0,1,2.05.41c-.13-1.13-1.6-2.36-3.08-3.32a5,5,0,0,1,1.8.42c-.26-2.19-5.25-4.81-5.25-4.81s-4.24,3.72-4,5.9a5,5,0,0,1,1.65-.82c-1.21,1.28-2.35,2.82-2.22,4a6.19,6.19,0,0,1,1.9-.88c-1.37,1.46-2.63,3.17-2.48,4.44a6.15,6.15,0,0,1,1.79-.87c-1.31,1.56-2.37,3.28-2.22,4.6a7,7,0,0,1,2.09-1c-1.38,1.61-2.48,3.36-2.32,4.71.31-.35,2.8-1.6,6.77-2.22l.32,2.75L1698.07,858c-.47-1.32-2-2.65-3.67-3.81a7.61,7.61,0,0,1,2.51.5c-.21-1.44-1.83-2.94-3.66-4.22a6.71,6.71,0,0,1,2.13.4c-.21-1.38-2-2.83-3.88-4a6.77,6.77,0,0,1,2.25.38c-.18-1.23-1.83-2.53-3.47-3.53a5.43,5.43,0,0,1,2,.4c-.35-2.38-5.89-5.08-5.89-5.08s-4.51,4.2-4.16,6.57a5.43,5.43,0,0,1,1.78-1c-1.28,1.44-2.48,3.15-2.29,4.39a6.76,6.76,0,0,1,2-1,12,12,0,0,0-2.37,3.6,19.56,19.56,0,0,0-3.18-2.53,8.51,8.51,0,0,1,2.82.57c-.18-1.56-2.19-3.25-4.21-4.58a6.83,6.83,0,0,1,2.47.58c-.34-3-7.19-6.64-7.19-6.64s-5.85,5.09-5.5,8.09a6.83,6.83,0,0,1,2.27-1.12c-1.67,1.75-3.25,3.86-3.07,5.42a8.51,8.51,0,0,1,2.61-1.2c-1.89,2-3.62,4.34-3.42,6.09a8.45,8.45,0,0,1,2.46-1.18c-1.81,2.14-3.28,4.49-3.07,6.31a9.57,9.57,0,0,1,2.88-1.43c-1.9,2.21-3.43,4.61-3.22,6.47.43-.47,3.85-2.18,9.31-3l.43,3.73-22.35,8.46a13.55,13.55,0,0,0-4.06-4,9.24,9.24,0,0,1,3,.67c-.22-1.75-2.15-3.62-4.34-5.21a8.16,8.16,0,0,1,2.58.54c-.22-1.69-2.38-3.49-4.62-4.92a8.22,8.22,0,0,1,2.73.52c-.19-1.5-2.16-3.11-4.13-4.37a6.6,6.6,0,0,1,2.39.53c-.37-2.9-7-6.32-7-6.32s-5.58,5-5.21,7.88a6.59,6.59,0,0,1,2.18-1.12c-1.59,1.72-3.09,3.77-2.89,5.27a8.22,8.22,0,0,1,2.51-1.19c-1.8,2-3.45,4.24-3.23,5.93a8.16,8.16,0,0,1,2.36-1.17c-1.72,2.09-3.11,4.38-2.89,6.14a9.24,9.24,0,0,1,2.76-1.41c-1.81,2.16-3.25,4.49-3,6.29.4-.46,3.69-2.16,9-3l.43,3.38-9.13,3.46c-.45-1.44-2.18-2.84-4.15-4a7.94,7.94,0,0,1,2.64.37c-.31-1.49-2.09-3-4.07-4.17a7,7,0,0,1,2.24.29c-.3-1.43-2.27-2.82-4.29-3.9a7.06,7.06,0,0,1,2.37.26c-.27-1.27-2.06-2.52-3.83-3.46a5.66,5.66,0,0,1,2.08.29c-.51-2.46-6.45-4.93-6.45-4.93s-4.44,4.65-3.93,7.1a5.67,5.67,0,0,1,1.79-1.1c-1.24,1.58-2.39,3.44-2.12,4.71a7.06,7.06,0,0,1,2.07-1.19c-1.41,1.79-2.66,3.86-2.36,5.29a7,7,0,0,1,1.94-1.17c-1.33,1.91-2.36,4-2.05,5.45a7.94,7.94,0,0,1,2.27-1.4,14.14,14.14,0,0,0-1.95,3.57,12.72,12.72,0,0,0-2.63-2.18,6.19,6.19,0,0,1,2.05.41c-.13-1.13-1.6-2.36-3.08-3.32a5,5,0,0,1,1.8.42c-.26-2.19-5.25-4.81-5.25-4.81s-4.24,3.72-4,5.9a5,5,0,0,1,1.65-.82c-1.21,1.28-2.35,2.82-2.22,4a6.19,6.19,0,0,1,1.9-.88c-1.37,1.46-2.63,3.17-2.48,4.44a6.15,6.15,0,0,1,1.79-.87c-1.31,1.56-2.37,3.28-2.22,4.6a7,7,0,0,1,2.09-1c-1.38,1.61-2.48,3.36-2.32,4.71.31-.35,2.8-1.6,6.77-2.22l.31,2.61L1533,1001l-10.42-3.91,0-.47c5.19,0,8.63,1.1,9.09,1.48-.07-1.76-1.83-3.77-3.91-5.55a9,9,0,0,1,2.88.91c-.07-1.72-1.77-3.7-3.75-5.43a8,8,0,0,1,2.45.75c-.06-1.65-2-3.59-4.05-5.18a8,8,0,0,1,2.6.74c-.06-1.47-1.82-3.21-3.62-4.6a6.42,6.42,0,0,1,2.27.72c-.11-2.84-6.27-6.74-6.27-6.74a26.64,26.64,0,0,0-4.44,4.25c-.3-1.39-1.9-3-3.56-4.23a6.42,6.42,0,0,1,2.27.72c-.11-2.84-6.27-6.74-6.27-6.74s-5.85,4.35-5.74,7.19a6.42,6.42,0,0,1,2.21-.89c-1.69,1.53-3.32,3.39-3.26,4.86A8,8,0,0,1,1504,978c-1.92,1.74-3.71,3.81-3.65,5.47a8,8,0,0,1,2.39-.93c-1.85,1.88-3.4,4-3.33,5.7a9,9,0,0,1,2.8-1.13,22.27,22.27,0,0,0-1.62,1.78l-18-6.75,0-.47c5.19,0,8.63,1.1,9.09,1.48-.07-1.76-1.83-3.77-3.91-5.55a9,9,0,0,1,2.88.91c-.07-1.72-1.77-3.7-3.75-5.43a8,8,0,0,1,2.45.75c-.06-1.65-2-3.59-4.05-5.18a8,8,0,0,1,2.6.74c-.06-1.47-1.82-3.21-3.62-4.6a6.42,6.42,0,0,1,2.27.72c-.11-2.84-6.27-6.74-6.27-6.74s-5.85,4.35-5.74,7.19a6.42,6.42,0,0,1,2.21-.89c-1.69,1.53-3.32,3.39-3.26,4.86A8,8,0,0,1,1476,969c-1.92,1.74-3.71,3.81-3.65,5.47a8,8,0,0,1,2.39-.93,12.75,12.75,0,0,0-3.13,4.48L1421,959l-28.42,14.21c-.21-1.66-1.83-3.53-3.72-5.18a8,8,0,0,1,2.45.75c-.06-1.65-2-3.59-4.05-5.18a8,8,0,0,1,2.6.74c-.06-1.47-1.82-3.21-3.62-4.6a6.42,6.42,0,0,1,2.27.72c-.11-2.84-6.27-6.74-6.27-6.74s-5.85,4.35-5.74,7.19a6.42,6.42,0,0,1,2.21-.89c-1.69,1.53-3.32,3.39-3.26,4.86A8,8,0,0,1,1378,964c-1.92,1.74-3.71,3.81-3.65,5.47a8,8,0,0,1,2.39-.93c-1.85,1.88-3.4,4-3.33,5.7a9,9,0,0,1,2.8-1.13c-1.94,1.93-3.55,4.08-3.48,5.83.43-.41,3.77-1.77,9-2.17l.07,1.89-14.25,7.13c-.42-1.54-1.92-3.22-3.63-4.72a8,8,0,0,1,2.45.75c-.06-1.65-2-3.59-4.05-5.18a8,8,0,0,1,2.6.74c-.06-1.47-1.82-3.21-3.62-4.6a6.42,6.42,0,0,1,2.27.72c-.11-2.84-6.27-6.74-6.27-6.74s-5.85,4.35-5.74,7.19a6.42,6.42,0,0,1,2.21-.89c-1.69,1.53-3.32,3.39-3.26,4.86A8,8,0,0,1,1353,977c-1.92,1.74-3.71,3.81-3.65,5.47a8,8,0,0,1,2.39-.93c-1.85,1.88-3.4,4-3.33,5.7a9,9,0,0,1,2.8-1.13c-1.94,1.93-3.55,4.08-3.48,5.83.43-.41,3.77-1.77,9-2.17l.05,1.4-33.23,16.62c-.42-1.54-1.92-3.22-3.63-4.72a8,8,0,0,1,2.45.75c-.06-1.65-2-3.59-4.05-5.18a8,8,0,0,1,2.6.74c-.06-1.47-1.82-3.21-3.62-4.6a6.42,6.42,0,0,1,2.27.72c-.11-2.84-6.27-6.74-6.27-6.74s-5.85,4.35-5.74,7.19a6.42,6.42,0,0,1,2.21-.89c-1.69,1.53-3.32,3.39-3.26,4.86A8,8,0,0,1,1309,999c-1.92,1.74-3.71,3.81-3.65,5.47a8,8,0,0,1,2.39-.93c-1.85,1.88-3.4,4-3.33,5.7a9,9,0,0,1,2.8-1.13c-1.94,1.93-3.55,4.08-3.48,5.83.43-.41,3.77-1.77,9-2.17l.05,1.4L1309,1015l-16.31,3-.13-3.4c5.19,0,8.63,1.1,9.09,1.48-.07-1.76-1.83-3.77-3.91-5.55a9,9,0,0,1,2.88.91c-.07-1.72-1.77-3.7-3.75-5.43a8,8,0,0,1,2.45.75c-.06-1.65-2-3.59-4.05-5.18a8,8,0,0,1,2.6.74c-.06-1.47-1.82-3.21-3.62-4.6a6.42,6.42,0,0,1,2.27.72c-.11-2.84-6.27-6.74-6.27-6.74s-5.85,4.35-5.74,7.19a6.42,6.42,0,0,1,2.21-.89c-1.69,1.53-3.32,3.39-3.26,4.86a8,8,0,0,1,2.54-.94c-1.92,1.74-3.71,3.81-3.65,5.47a8,8,0,0,1,2.39-.93c-1.85,1.88-3.4,4-3.33,5.7a9,9,0,0,1,2.8-1.13c-1.94,1.93-3.55,4.08-3.48,5.83.43-.41,3.77-1.77,9-2.17l.15,3.82-14.35,2.66c-.49-1.53-2-3.17-3.73-4.66a9,9,0,0,1,2.88.91c-.07-1.72-1.77-3.7-3.75-5.43a8,8,0,0,1,2.45.75c-.06-1.65-2-3.59-4.05-5.18a8,8,0,0,1,2.6.74c-.06-1.47-1.82-3.21-3.62-4.6a6.42,6.42,0,0,1,2.27.72c-.11-2.84-6.27-6.74-6.27-6.74s-5.85,4.35-5.74,7.19a6.42,6.42,0,0,1,2.21-.89c-1.69,1.53-3.32,3.39-3.26,4.86a8,8,0,0,1,2.54-.94c-1.92,1.74-3.71,3.81-3.65,5.47a8,8,0,0,1,2.39-.93c-1.85,1.88-3.4,4-3.33,5.7a9,9,0,0,1,2.8-1.13,16.44,16.44,0,0,0-2.78,3.48,11.9,11.9,0,0,0-3.56-4.51,8,8,0,0,1,2.45.75c-.06-1.65-2-3.59-4.05-5.18a8,8,0,0,1,2.6.74c-.06-1.47-1.82-3.21-3.62-4.6a6.42,6.42,0,0,1,2.27.72c-.11-2.84-6.27-6.74-6.27-6.74s-5.85,4.35-5.74,7.19a6.42,6.42,0,0,1,2.21-.89c-1.69,1.53-3.32,3.39-3.26,4.86a8,8,0,0,1,2.54-.94c-1.92,1.74-3.71,3.81-3.65,5.47a8,8,0,0,1,2.39-.93c-1.85,1.88-3.4,4-3.33,5.7a9,9,0,0,1,2.8-1.13c-1.94,1.93-3.55,4.08-3.48,5.83.43-.41,3.77-1.77,9-2.17l.08,2.17-20.49,3.79a13.6,13.6,0,0,0-3.54-4.14,9,9,0,0,1,2.88.91c-.07-1.72-1.77-3.7-3.75-5.43a8,8,0,0,1,2.45.75c-.06-1.65-2-3.59-4.05-5.18a8,8,0,0,1,2.6.74c-.06-1.47-1.82-3.21-3.62-4.6a6.42,6.42,0,0,1,2.27.72c-.11-2.84-6.27-6.74-6.27-6.74s-5.85,4.35-5.74,7.19a6.42,6.42,0,0,1,2.21-.89c-1.69,1.53-3.32,3.39-3.26,4.86a8,8,0,0,1,2.54-.94c-1.92,1.74-3.71,3.81-3.65,5.47a8,8,0,0,1,2.39-.93c-1.85,1.88-3.4,4-3.33,5.7a9,9,0,0,1,2.8-1.13c-1.94,1.93-3.55,4.08-3.48,5.83.43-.41,3.77-1.77,9-2.17l.08,2.09L1201,1035l-18.44-11.34v0c5.19,0,8.63,1.1,9.09,1.48-.07-1.76-1.83-3.77-3.91-5.55a9,9,0,0,1,2.88.91c-.07-1.72-1.77-3.7-3.75-5.43a8,8,0,0,1,2.45.75c-.06-1.65-2-3.59-4.05-5.18a8,8,0,0,1,2.6.74c-.06-1.47-1.82-3.21-3.62-4.6a6.42,6.42,0,0,1,2.27.72c-.11-2.84-6.27-6.74-6.27-6.74s-5.85,4.35-5.74,7.19a6.42,6.42,0,0,1,2.21-.89c-1.69,1.53-3.32,3.39-3.26,4.86a8,8,0,0,1,2.54-.94c-1.92,1.74-3.71,3.81-3.65,5.47a8,8,0,0,1,2.39-.93,20.26,20.26,0,0,0-1.89,2.18L1123,987l-52-72-7.72-3.86.25-3.38c5.16.59,8.45,2.06,8.87,2.49.13-1.76-1.39-4-3.27-6a9,9,0,0,1,2.76,1.23c.13-1.72-1.34-3.87-3.12-5.82a7.94,7.94,0,0,1,2.35,1c.12-1.65-1.59-3.79-3.45-5.6a8,8,0,0,1,2.5,1c.11-1.47-1.45-3.39-3.09-5a6.42,6.42,0,0,1,2.18,1c.21-2.84-5.48-7.4-5.48-7.4s-6.3,3.67-6.51,6.51a6.42,6.42,0,0,1,2.3-.64,11.16,11.16,0,0,0-3.51,3.56,10.59,10.59,0,0,0-2.79-2.91,5.52,5.52,0,0,1,2,.62c-.09-2.44-5.39-5.79-5.39-5.79s-5,3.74-4.93,6.18a5.52,5.52,0,0,1,1.9-.77c-1.45,1.31-2.85,2.91-2.81,4.18a6.88,6.88,0,0,1,2.18-.8c-1.65,1.49-3.19,3.28-3.13,4.7a6.83,6.83,0,0,1,2.05-.8,15.9,15.9,0,0,0-1.91,2.3l-11.14-5.57.06-2.13c4.46.29,7.34,1.42,7.71,1.77,0-1.51-1.36-3.34-3-5a7.74,7.74,0,0,1,2.42.94c0-1.48-1.31-3.27-2.92-4.87a6.83,6.83,0,0,1,2.06.78c0-1.42-1.52-3.19-3.19-4.66a6.88,6.88,0,0,1,2.19.78c0-1.27-1.39-2.85-2.85-4.14a5.52,5.52,0,0,1,1.91.74c.06-2.44-5-6.12-5-6.12s-5.26,3.41-5.32,5.85a5.52,5.52,0,0,1,1.95-.64c-1.53,1.22-3,2.72-3.07,4a6.88,6.88,0,0,1,2.23-.66c-1.74,1.38-3.39,3.07-3.43,4.49a6.83,6.83,0,0,1,2.1-.67c-1.69,1.51-3.13,3.23-3.17,4.71a7.74,7.74,0,0,1,2.47-.82,19.12,19.12,0,0,0-1.48,1.44l-21.57-10.79.08-2.87c5.18.34,8.54,1.65,9,2.06,0-1.76-1.58-3.88-3.55-5.79a9,9,0,0,1,2.82,1.1c0-1.72-1.53-3.8-3.4-5.66a7.94,7.94,0,0,1,2.4.91c0-1.66-1.77-3.71-3.71-5.42a8,8,0,0,1,2.55.91c0-1.47-1.61-3.32-3.32-4.82a6.42,6.42,0,0,1,2.22.87c.07-2.84-5.82-7.13-5.82-7.13s-6.12,4-6.19,6.81a6.42,6.42,0,0,1,2.26-.75,11.71,11.71,0,0,0-3.28,3.58,17.89,17.89,0,0,0-2-1.73,6.88,6.88,0,0,1,2.23.64c0-1.27-1.57-2.76-3.11-4a5.52,5.52,0,0,1,2,.62c-.09-2.44-5.39-5.79-5.39-5.79s-5,3.74-4.93,6.18a5.52,5.52,0,0,1,1.9-.77c-1.45,1.31-2.85,2.91-2.81,4.18a6.88,6.88,0,0,1,2.18-.8c-1.65,1.49-3.19,3.28-3.13,4.7a6.83,6.83,0,0,1,2.05-.8c-1.59,1.61-2.92,3.42-2.86,4.9a7.74,7.74,0,0,1,2.41-1,14,14,0,0,0-2.42,3l-15.3-4.27-.1-2.71c4.46,0,7.41.95,7.81,1.28-.06-1.51-1.57-3.24-3.36-4.77a7.74,7.74,0,0,1,2.48.79c-.06-1.48-1.52-3.18-3.23-4.67a6.83,6.83,0,0,1,2.11.64c-.05-1.42-1.72-3.08-3.48-4.45a6.88,6.88,0,0,1,2.23.64c0-1.27-1.57-2.76-3.11-4a5.52,5.52,0,0,1,2,.62c-.09-2.44-5.39-5.79-5.39-5.79s-5,3.74-4.93,6.18a5.52,5.52,0,0,1,1.9-.77c-1.45,1.31-2.85,2.91-2.81,4.18a6.88,6.88,0,0,1,2.18-.8c-1.65,1.49-3.19,3.28-3.13,4.7a6.83,6.83,0,0,1,2.05-.8c-1.59,1.61-2.92,3.42-2.86,4.9a7.74,7.74,0,0,1,2.41-1,13.93,13.93,0,0,0-2.43,3.06l-11-3.07-.13-3.37c4.46,0,7.41.95,7.81,1.28-.06-1.51-1.57-3.24-3.36-4.77a7.74,7.74,0,0,1,2.48.79c-.06-1.48-1.52-3.18-3.23-4.67a6.83,6.83,0,0,1,2.11.64c-.05-1.42-1.72-3.08-3.48-4.45a6.88,6.88,0,0,1,2.23.64c0-1.27-1.57-2.76-3.11-4a5.52,5.52,0,0,1,2,.62c-.09-2.44-5.39-5.79-5.39-5.79s-5,3.74-4.93,6.18a5.52,5.52,0,0,1,1.9-.77c-1.45,1.31-2.85,2.91-2.81,4.18a6.88,6.88,0,0,1,2.18-.8c-1.65,1.49-3.19,3.28-3.13,4.7a6.83,6.83,0,0,1,2.05-.8c-1.59,1.61-2.92,3.42-2.86,4.9a7.74,7.74,0,0,1,2.41-1,12.1,12.1,0,0,0-2.7,3.63l-17.41-4.86.07-2.78c5.18.34,8.54,1.65,9,2.06,0-1.76-1.58-3.88-3.55-5.79a9,9,0,0,1,2.82,1.1c0-1.72-1.53-3.8-3.4-5.66a8,8,0,0,1,2.4.91c0-1.66-1.77-3.71-3.71-5.42a8,8,0,0,1,2.55.91c0-1.47-1.61-3.32-3.32-4.82a6.42,6.42,0,0,1,2.22.87c.07-2.84-5.82-7.13-5.82-7.13s-6.12,4-6.19,6.81a6.42,6.42,0,0,1,2.26-.75c-1.79,1.41-3.53,3.17-3.57,4.64a8,8,0,0,1,2.59-.77c-2,1.61-3.95,3.57-4,5.22a7.94,7.94,0,0,1,2.44-.78c-2,1.76-3.64,3.75-3.69,5.48a9,9,0,0,1,2.87-.95c-2.06,1.81-3.8,3.84-3.85,5.6.46-.39,3.88-1.53,9.07-1.59l-.05,2.06L913,855l-20.09-.3,0-2.62c4.76.26,7.84,1.43,8.25,1.81,0-1.61-1.49-3.54-3.31-5.28a8.26,8.26,0,0,1,2.59,1c0-1.58-1.44-3.47-3.17-5.16a7.28,7.28,0,0,1,2.21.81c0-1.52-1.66-3.38-3.45-4.94a7.34,7.34,0,0,1,2.34.81c0-1.35-1.51-3-3.09-4.39a5.89,5.89,0,0,1,2,.77c0-2.61-5.41-6.48-5.41-6.48s-5.57,3.7-5.61,6.3a5.89,5.89,0,0,1,2.07-.71c-1.62,1.31-3.21,2.94-3.23,4.29a7.34,7.34,0,0,1,2.37-.73c-1.84,1.5-3.58,3.31-3.61,4.83a7.28,7.28,0,0,1,2.23-.74A17,17,0,0,0,884,846.6a14.84,14.84,0,0,0-3.14-3.57,8,8,0,0,1,2.45.75c-.06-1.65-2-3.59-4.05-5.18a8,8,0,0,1,2.6.74c-.06-1.47-1.82-3.21-3.62-4.6a6.42,6.42,0,0,1,2.27.72c-.11-2.84-6.27-6.74-6.27-6.74s-5.85,4.35-5.74,7.19a6.42,6.42,0,0,1,2.21-.89c-1.69,1.53-3.32,3.39-3.26,4.86A8,8,0,0,1,870,839c-1.92,1.74-3.71,3.81-3.65,5.47a7.94,7.94,0,0,1,2.39-.93c-1.85,1.88-3.4,4-3.33,5.7a9,9,0,0,1,2.8-1.13c-1.94,1.93-3.55,4.08-3.48,5.83.43-.41,3.77-1.77,9-2.17l.1,2.69L847.57,854l.07-2.8c4.46.29,7.34,1.42,7.71,1.77,0-1.51-1.36-3.34-3-5a7.74,7.74,0,0,1,2.42.94c0-1.48-1.31-3.27-2.92-4.87a6.83,6.83,0,0,1,2.06.78c0-1.42-1.52-3.19-3.19-4.66a6.88,6.88,0,0,1,2.19.78c0-1.27-1.39-2.85-2.85-4.14a5.52,5.52,0,0,1,1.91.74c.06-2.44-5-6.12-5-6.12s-5.26,3.41-5.32,5.85a5.52,5.52,0,0,1,1.95-.64,9.87,9.87,0,0,0-2.84,3.13,20,20,0,0,0-2.43-2.2,8,8,0,0,1,2.6.74c-.06-1.47-1.82-3.21-3.62-4.6a6.42,6.42,0,0,1,2.27.72c-.11-2.84-6.27-6.74-6.27-6.74s-5.85,4.35-5.74,7.19a6.42,6.42,0,0,1,2.21-.89c-1.69,1.53-3.32,3.39-3.26,4.86A8,8,0,0,1,829,838c-1.92,1.74-3.71,3.81-3.65,5.47a7.94,7.94,0,0,1,2.39-.93,14,14,0,0,0-3,4.07,10.69,10.69,0,0,0-3.42-4.31,7.4,7.4,0,0,1,2.29.67c-.08-1.54-1.91-3.32-3.83-4.78a7.45,7.45,0,0,1,2.43.66c-.07-1.37-1.73-3-3.42-4.24a6,6,0,0,1,2.13.65C820.8,832.57,815,829,815,829s-5.4,4.12-5.27,6.76a6,6,0,0,1,2.05-.86c-1.56,1.44-3.06,3.19-3,4.56a7.45,7.45,0,0,1,2.35-.9c-1.77,1.64-3.41,3.59-3.34,5.13a7.4,7.4,0,0,1,2.22-.9c-1.7,1.77-3.12,3.74-3,5.35a8.38,8.38,0,0,1,2.6-1.08c-1.79,1.82-3.26,3.83-3.18,5.47.4-.39,3.49-1.69,8.31-2.12l.15,3.1-16.3-.24.07-2.55c4.46.29,7.34,1.42,7.71,1.77,0-1.51-1.36-3.34-3-5a7.73,7.73,0,0,1,2.42.94c0-1.48-1.31-3.27-2.92-4.87a6.83,6.83,0,0,1,2.06.78c0-1.42-1.52-3.19-3.19-4.66a6.88,6.88,0,0,1,2.19.78c0-1.27-1.39-2.85-2.85-4.14a5.52,5.52,0,0,1,1.91.74c.06-2.44-5-6.12-5-6.12s-5.26,3.41-5.32,5.85a5.52,5.52,0,0,1,1.95-.64c-1.5,1.19-3,2.65-3.05,3.9a19.18,19.18,0,0,0-2.46-2.57,8,8,0,0,1,2.55.91c0-1.47-1.61-3.32-3.32-4.82a6.42,6.42,0,0,1,2.22.87c.07-2.84-5.82-7.13-5.82-7.13s-6.12,4-6.19,6.81a6.42,6.42,0,0,1,2.26-.75c-1.79,1.41-3.53,3.17-3.57,4.64a8,8,0,0,1,2.59-.77c-2,1.61-3.95,3.57-4,5.22a7.94,7.94,0,0,1,2.44-.78c-2,1.76-3.64,3.75-3.69,5.48a9,9,0,0,1,2.87-.95,14.49,14.49,0,0,0-3.33,3.88l-93.6-54.29,0-1.51c5.18.34,8.54,1.65,9,2.06,0-1.76-1.58-3.88-3.55-5.79a9,9,0,0,1,2.82,1.1c0-1.72-1.53-3.8-3.4-5.66a7.94,7.94,0,0,1,2.4.91c0-1.66-1.77-3.71-3.71-5.42a8,8,0,0,1,2.55.91c0-1.47-1.61-3.32-3.32-4.82a6.42,6.42,0,0,1,2.22.87c.07-2.84-5.82-7.13-5.82-7.13s-6.12,4-6.19,6.81a6.42,6.42,0,0,1,2.26-.75c-1.79,1.41-3.53,3.17-3.57,4.64a8,8,0,0,1,2.59-.77c-2,1.61-3.95,3.57-4,5.22a7.94,7.94,0,0,1,2.44-.78c-2,1.76-3.64,3.75-3.69,5.48a9,9,0,0,1,2.87-.95c-2.06,1.81-3.8,3.84-3.85,5.6.46-.39,3.88-1.53,9.07-1.59l0,1.51-9.48,5.27a17.84,17.84,0,0,0-1.61-1.58,7.49,7.49,0,0,1,2.39.79c0-1.43-1.44-3.09-3.08-4.55a6.61,6.61,0,0,1,2,.65c0-1.38-1.64-3-3.32-4.34a6.66,6.66,0,0,1,2.16.64c0-1.23-1.49-2.68-3-3.86a5.34,5.34,0,0,1,1.88.62c-.07-2.37-5.16-5.66-5.16-5.66s-4.9,3.57-4.84,5.93a5.34,5.34,0,0,1,1.85-.72c-1.42,1.25-2.79,2.79-2.76,4a6.66,6.66,0,0,1,2.12-.76c-1.61,1.43-3.12,3.14-3.08,4.52a6.61,6.61,0,0,1,2-.76c-1.55,1.55-2.86,3.28-2.82,4.71a7.49,7.49,0,0,1,2.34-.92c-1.63,1.59-3,3.36-2.94,4.82.36-.34,3.15-1.44,7.46-1.73l.08,2.77L589,845l-69-78.84.32-3.39c5.15.69,8.4,2.24,8.81,2.67.17-1.75-1.31-4-3.14-6a9,9,0,0,1,2.74,1.29c.16-1.71-1.26-3.9-3-5.88a8,8,0,0,1,2.33,1.07c.16-1.65-1.51-3.82-3.33-5.67a8,8,0,0,1,2.48,1.08c.14-1.47-1.38-3.42-3-5a6.42,6.42,0,0,1,2.16,1c.27-2.83-5.32-7.51-5.32-7.51s-6.37,3.54-6.64,6.37a6.42,6.42,0,0,1,2.31-.59c-1.88,1.29-3.74,2.92-3.88,4.39a8,8,0,0,1,2.64-.59c-2.13,1.47-4.18,3.29-4.34,4.94a7.94,7.94,0,0,1,2.49-.61c-2.08,1.62-3.89,3.49-4.06,5.21a9,9,0,0,1,2.93-.75c-2.18,1.66-4.05,3.57-4.22,5.32.48-.35,4-1.26,9.16-1l-.23,2.37-17.64-1.3.18-3.83c5.18.45,8.5,1.83,8.93,2.25.08-1.76-1.5-3.91-3.42-5.87a9,9,0,0,1,2.79,1.16c.08-1.72-1.45-3.84-3.28-5.73a8,8,0,0,1,2.38,1c.08-1.65-1.69-3.75-3.6-5.5a8,8,0,0,1,2.53,1c.07-1.47-1.54-3.35-3.22-4.89a6.42,6.42,0,0,1,2.2.91c.13-2.84-5.67-7.25-5.67-7.25s-6.2,3.84-6.33,6.68a6.42,6.42,0,0,1,2.28-.7c-1.82,1.38-3.6,3.09-3.67,4.57a8,8,0,0,1,2.61-.72c-2.06,1.57-4,3.48-4.1,5.14a8,8,0,0,1,2.46-.73,11.69,11.69,0,0,0-3.63,4.55,13.28,13.28,0,0,0-2.28-3,6.71,6.71,0,0,1,2,.81c.07-1.4-1.43-3.16-3-4.65a6.76,6.76,0,0,1,2.14.81c.06-1.25-1.3-2.83-2.72-4.13a5.43,5.43,0,0,1,1.86.77c.11-2.4-4.79-6.12-4.79-6.12s-5.24,3.24-5.35,5.64a5.43,5.43,0,0,1,1.93-.59c-1.53,1.16-3,2.61-3.1,3.86a6.76,6.76,0,0,1,2.2-.6c-1.74,1.32-3.4,2.94-3.46,4.34a6.71,6.71,0,0,1,2.08-.61c-1.69,1.45-3.15,3.11-3.21,4.56a7.6,7.6,0,0,1,2.44-.75c-1.78,1.49-3.28,3.18-3.35,4.66.39-.32,3.3-1.22,7.69-1.18l-.13,2.8-21.39-1.57.07-2.13c4.38.31,7.2,1.45,7.57,1.79,0-1.49-1.31-3.29-3-4.91a7.61,7.61,0,0,1,2.37.94c0-1.45-1.27-3.22-2.84-4.8a6.71,6.71,0,0,1,2,.78c0-1.4-1.48-3.14-3.1-4.6a6.76,6.76,0,0,1,2.15.78c0-1.25-1.34-2.81-2.78-4.09a5.43,5.43,0,0,1,1.87.74c.08-2.4-4.88-6.05-4.88-6.05s-5.19,3.32-5.27,5.72a5.43,5.43,0,0,1,1.92-.62c-1.52,1.18-3,2.66-3,3.9a6.76,6.76,0,0,1,2.19-.64,13.75,13.75,0,0,0-2.69,2.66,20,20,0,0,0-1.63-1.92,7.62,7.62,0,0,1,2.28.93c.08-1.59-1.61-3.6-3.42-5.29a7.68,7.68,0,0,1,2.42.93c.07-1.41-1.46-3.22-3.06-4.71a6.16,6.16,0,0,1,2.11.89c.14-2.72-5.41-7-5.41-7s-6,3.65-6.11,6.37a6.16,6.16,0,0,1,2.19-.66c-1.75,1.31-3.47,2.95-3.54,4.36a7.68,7.68,0,0,1,2.5-.67,17.45,17.45,0,0,0-2.76,2.5,8.94,8.94,0,0,0-2.68-3.45,5.43,5.43,0,0,1,1.87.74c.08-2.4-4.88-6.05-4.88-6.05s-5.19,3.32-5.27,5.72a5.43,5.43,0,0,1,1.92-.62c-1.52,1.18-3,2.66-3,3.9a6.76,6.76,0,0,1,2.19-.64c-1.72,1.35-3.35,3-3.4,4.39a6.71,6.71,0,0,1,2.07-.64c-1.67,1.47-3.1,3.15-3.15,4.6a7.6,7.6,0,0,1,2.43-.79c-1.75,1.51-3.23,3.22-3.28,4.71.39-.32,3.28-1.27,7.67-1.29l-.07,2-17.56-1.29-.12-3.1c4.77,0,7.92,1,8.34,1.36-.06-1.62-1.68-3.46-3.59-5.1a8.27,8.27,0,0,1,2.65.84c-.06-1.58-1.63-3.4-3.45-5a7.3,7.3,0,0,1,2.25.69c-.06-1.52-1.84-3.29-3.72-4.75a7.35,7.35,0,0,1,2.39.68c-.05-1.35-1.67-2.94-3.33-4.22a5.9,5.9,0,0,1,2.09.66c-.1-2.61-5.76-6.19-5.76-6.19s-5.37,4-5.27,6.6a5.9,5.9,0,0,1,2-.82c-1.55,1.4-3,3.11-3,4.46a7.35,7.35,0,0,1,2.33-.86,17.2,17.2,0,0,0-2.33,2.5c-.55-1.43-2.15-3-3.83-4.27a8,8,0,0,1,2.6.74c-.06-1.47-1.82-3.21-3.62-4.6a6.42,6.42,0,0,1,2.27.72c-.11-2.84-6.27-6.74-6.27-6.74s-5.85,4.35-5.74,7.19a6.42,6.42,0,0,1,2.21-.89c-1.69,1.53-3.32,3.39-3.26,4.86A8,8,0,0,1,390,741c-1.92,1.74-3.71,3.81-3.65,5.47a7.94,7.94,0,0,1,2.39-.93c-1.85,1.88-3.4,4-3.33,5.7a9,9,0,0,1,2.8-1.13c-1.67,1.66-3.08,3.48-3.4,5.07L383,755l-80.86-56.25.1-1c5.14.74,8.38,2.32,8.78,2.76.18-1.75-1.27-4-3.08-6.06a9,9,0,0,1,2.72,1.32c.18-1.71-1.22-3.91-2.94-5.91a7.94,7.94,0,0,1,2.32,1.09c.17-1.65-1.47-3.84-3.27-5.7a8,8,0,0,1,2.47,1.1c.15-1.47-1.35-3.43-2.93-5.07a6.42,6.42,0,0,1,2.15,1c.3-2.83-5.24-7.56-5.24-7.56s-6.41,3.47-6.71,6.3a6.42,6.42,0,0,1,2.32-.57c-1.89,1.27-3.77,2.88-3.92,4.35a8,8,0,0,1,2.64-.56c-2.15,1.45-4.22,3.25-4.39,4.89a7.94,7.94,0,0,1,2.5-.58,15.06,15.06,0,0,0-3.34,3.29L276,680.55l.2-1.77c5.14.78,8.36,2.38,8.76,2.83.2-1.75-1.24-4-3-6.08a9,9,0,0,1,2.71,1.34c.19-1.71-1.2-3.92-2.9-5.93A8,8,0,0,1,284,672c.19-1.65-1.45-3.85-3.23-5.72a8,8,0,0,1,2.46,1.12c.17-1.47-1.32-3.44-2.89-5.09a6.42,6.42,0,0,1,2.14,1.05c.32-2.83-5.19-7.6-5.19-7.6s-5.31,2.83-6.51,5.47a20.7,20.7,0,0,0-1.75-2.52,8,8,0,0,1,2.36,1.33c.29-1.45-1-3.54-2.45-5.32a6.42,6.42,0,0,1,2,1.23c.56-2.79-4.52-8-4.52-8s-6.7,2.87-7.26,5.66a6.42,6.42,0,0,1,2.36-.35c-2,1.09-4,2.52-4.31,4a8,8,0,0,1,2.68-.32c-2.27,1.24-4.5,2.84-4.82,4.47a7.94,7.94,0,0,1,2.54-.35,12.06,12.06,0,0,0-4.2,3.83L245,659l-80-86-56.24-9.07.63-3.14c5.05,1.22,8.13,3.09,8.49,3.56.35-1.73-.9-4.1-2.51-6.31A9,9,0,0,1,118,559.6c.34-1.69-.86-4-2.38-6.16a7.94,7.94,0,0,1,2.21,1.3c.32-1.62-1.11-4-2.73-6a8,8,0,0,1,2.36,1.33c.29-1.45-1-3.54-2.45-5.32a6.42,6.42,0,0,1,2,1.23c.56-2.79-4.52-8-4.52-8s-6.7,2.87-7.26,5.66a6.42,6.42,0,0,1,2.36-.35c-1.87,1-3.74,2.34-4.21,3.69a11.75,11.75,0,0,0-2.4-4.21,6.42,6.42,0,0,1,2,1.23c.56-2.79-4.52-8-4.52-8s-6.7,2.87-7.26,5.66a6.42,6.42,0,0,1,2.36-.35c-2,1.09-4,2.52-4.31,4a8,8,0,0,1,2.68-.32c-2.27,1.24-4.5,2.84-4.82,4.47a7.94,7.94,0,0,1,2.54-.35c-2.23,1.4-4.23,3.08-4.57,4.77a9,9,0,0,1,3-.45c-2.34,1.43-4.4,3.14-4.74,4.86.52-.3,4.08-.84,9.21,0l-.6,3L41,553l-3.11-.84c.23-1.71-1-4-2.52-6.13A9,9,0,0,1,38,547.6c.34-1.69-.86-4-2.38-6.16a7.94,7.94,0,0,1,2.21,1.3c.32-1.62-1.11-4-2.73-6a8,8,0,0,1,2.36,1.33c.29-1.45-1-3.54-2.45-5.32A6.42,6.42,0,0,1,37,534c.56-2.79-4.52-8-4.52-8s-6.7,2.87-7.26,5.66a6.42,6.42,0,0,1,2.36-.35c-2,1.09-4,2.52-4.31,4a8,8,0,0,1,2.68-.32A15,15,0,0,0,22,537.8a20.54,20.54,0,0,0-1.46-2.36,7.94,7.94,0,0,1,2.21,1.3c.32-1.62-1.11-4-2.73-6a8,8,0,0,1,2.36,1.33c.29-1.45-1-3.54-2.45-5.32A6.42,6.42,0,0,1,22,528c.56-2.79-4.52-8-4.52-8s-6.7,2.87-7.26,5.66a6.42,6.42,0,0,1,2.36-.35c-2,1.09-4,2.52-4.31,4a8,8,0,0,1,2.68-.32c-2.27,1.24-4.5,2.84-4.82,4.47a7.94,7.94,0,0,1,2.54-.35c-2.23,1.4-4.23,3.08-4.57,4.77a9,9,0,0,1,3-.45c-2.34,1.43-4.4,3.14-4.74,4.86.52-.3,4.08-.84,9.21,0L11,544.91l-11-3V1440H2560V527.32Zm-2523.57,5-.88.57c0-.17-.11-.34-.17-.51C22.94,539.09,23.28,539.07,23.67,539.06ZM21.5,540.6,21,541c-.21-.32-.43-.65-.67-1C20.8,540.23,21.17,540.42,21.5,540.6Zm-7.11,2.18a32.1,32.1,0,0,1,5.74,1.94A10,10,0,0,0,18,546.8l-4.21-1.14Zm12.17,5.43-.17.84-4.7-1.27A33.5,33.5,0,0,1,26.56,548.22Zm2.62,1.59.21-1a25.2,25.2,0,0,1,8.18,3.29Zm74.23-1.72a2.55,2.55,0,0,0,0-.88,9.8,9.8,0,0,1,2.55-.26,18.13,18.13,0,0,0-3.23,2.18,21.35,21.35,0,0,0-1.66-2.36A8,8,0,0,1,103.41,548.09Zm.21,3v0h.06Zm-1.56,1.06-.49-.71c.33.15.62.29.88.43Zm-6.68,6.63c.81.19,1.56.41,2.27.63a3.35,3.35,0,0,0-.31.83,5.81,5.81,0,0,1,1.73-.35,15.05,15.05,0,0,1,4.8,2.46,4.71,4.71,0,0,0-.33-2.48c.93.07,1.93.18,3,.35l-.65,3.25-11.1-1.79Zm697,284.55-.47.44-.22-.28Zm-.7,3.89-.07.07,0,0Zm2-7.71a19.24,19.24,0,0,0-1.62,1.43,9,9,0,0,0-.56-.81A7.7,7.7,0,0,1,793.73,839.52ZM791,842.23l-.19.29-.46-.48ZM664.69,802.95l-2.49,1.38,0-1.52C663.07,802.82,663.92,802.87,664.69,802.95ZM489.53,757.37a3.19,3.19,0,0,0-.22-1.22,13.57,13.57,0,0,1,2.45-.66,17.51,17.51,0,0,0-2.86,2.93,17.08,17.08,0,0,0-1.73-2A7.6,7.6,0,0,1,489.53,757.37Zm-7,2.08a26.68,26.68,0,0,1,5.37,1,3.14,3.14,0,0,0-.09.57,3.09,3.09,0,0,1,.78-.35,5.38,5.38,0,0,1,1.49.69,3.06,3.06,0,0,0-.16-1.06,30.61,30.61,0,0,1,7-.69l-.18,3.76-14.33-1.05Zm-30-8.33-.43.39-.14-.26Zm-1.66,1.66-.29.35-.6-.64Zm-6.19,3.15a31.45,31.45,0,0,1,5.23.91,5,5,0,0,0-1.37,2.81c.39-.32,3.28-1.27,7.67-1.29l-.07,2-11.65-.86Zm-6.77-8.44c-.29.24-.57.49-.84.75-.11-.16-.22-.33-.35-.49C437,747.66,437.44,747.57,437.9,747.49Zm-2.13,2,.08,0,0,0Zm.64-3.28a6,6,0,0,0-.46.69c-.4-.43-.83-.84-1.27-1.24A10.79,10.79,0,0,1,436.42,746.17Zm-4.78,10.26c.57,0,1.11.1,1.62.16a3,3,0,0,0-.08.49,3.4,3.4,0,0,1,.9-.38,14.31,14.31,0,0,1,5.14,1.52,4.28,4.28,0,0,0-.79-2.31,33.22,33.22,0,0,1,3.49-.13l-.19,3.53-10.16-.75Zm-29.79-6.79-.1-.09.14,0Zm1.36,1.27.58-.17-.38.39Zm.11-3.33c-.15-.19-.3-.38-.46-.57a13.64,13.64,0,0,1,1.42-.46C403.94,746.88,403.63,747.23,403.32,747.58Zm-.63-2.08a5.07,5.07,0,0,0-.41.87c-.44-.45-.91-.9-1.41-1.33A13.64,13.64,0,0,1,402.69,745.5Zm-1.46,8.44a4.27,4.27,0,0,0-.64,2.15,12.46,12.46,0,0,1,4.1-1.4,3.65,3.65,0,0,1,1,.41,3.14,3.14,0,0,0-.09-.59,31.89,31.89,0,0,1,3.25-.41l.11,2.8-12.27-.9-.09-2.38A33.66,33.66,0,0,1,401.23,753.94Zm-7.55-.21.08,2.06-7.63-.56A29.17,29.17,0,0,1,393.68,753.73Zm-99.2-60.66-.24.19-.18-.13Zm-23.68-27.7.77-.09-.6.41ZM268.45,674q-.45.33-.89.68l-.62-.43C267.37,674.18,267.87,674.09,268.45,674Zm4.86,4.44,0,.22-.34-.24Zm-.43-17c-.49.33-1,.68-1.45,1-.09-.23-.2-.47-.32-.71A10.29,10.29,0,0,1,272.89,661.51Zm-2.74,2.2-.22.24-.35-.52Zm-6.76,7.07a34.39,34.39,0,0,1,3.68,1.1,7.52,7.52,0,0,0-1.17,1.65l-2.68-1.86Zm-7.29-5.41c-.34.21-.67.42-1,.64l-.72-.5C254.84,665.46,255.41,665.4,256.09,665.38Zm419.4,366.26-74.71,28.68-74.36-40.66-89.38,1.6-46.44,52.54-124.75-13-89.85-44,14.09-50.6,80-12.37,64.07,21.53,78.32-17.25,48.73-52.8,105.81,10.08,66.64-17.63,71.47,46ZM775.7,851.09a30.74,30.74,0,0,1,6.93-.82l-.07,2.79L779,853Zm9.81-.74c1.18.08,2.26.21,3.24.36a3.36,3.36,0,0,0-.37,1.34,8.8,8.8,0,0,1,2.74-.86,10.79,10.79,0,0,1,3.36,1.23,4,4,0,0,0-.37-1.63c.65-.05,1.33-.09,2.07-.1l-.07,2.58-10.68-.16ZM842.71,840c-.38.3-.74.61-1.09.93-.13-.19-.27-.38-.42-.57A12.19,12.19,0,0,1,842.71,840Zm-2.28,2.15-.18.22-.38-.34ZM838,850.71a3.82,3.82,0,0,0-.62,1.82,13.94,13.94,0,0,1,5-1.2,7.75,7.75,0,0,1,2.3.78,3.4,3.4,0,0,0-.19-.93l.7,0-.07,2.83-9.4-.14-.12-3.23C836.42,850.62,837.23,850.65,838,850.71Zm-13.42-3.61a3.5,3.5,0,0,0-.16,1.09,9,9,0,0,1,2.8-1.13,20,20,0,0,0-2.12,2.44,15.17,15.17,0,0,0-2.89-3A12.11,12.11,0,0,1,824.57,847.1Zm-7,6.48-.16-3.27a28,28,0,0,1,6.78.69,4.21,4.21,0,0,0-.47,1.91c.43-.41,3.77-1.77,9-2.17l.12,3.07Zm67.89-5.16c-.51.46-1,.93-1.44,1.41-.22-.26-.45-.52-.69-.77A13.12,13.12,0,0,1,885.47,848.42Zm-2.25-.51a4.3,4.3,0,0,0-.27.75c-.38-.37-.78-.74-1.2-1.1C882.31,847.66,882.81,847.79,883.22,847.91Zm-.83,4.22a3.61,3.61,0,0,0-.39,1.46,8.78,8.78,0,0,1,2.69-.9,3.69,3.69,0,0,1,1,.42,3.14,3.14,0,0,0-.09-.59,30.41,30.41,0,0,1,4.74-.47l0,2.62-13.59-.2-.11-2.84A32.41,32.41,0,0,1,882.39,852.13Zm114,12.49c-.43.34-.85.7-1.25,1.07a6.18,6.18,0,0,0-.46-.66A14.3,14.3,0,0,1,996.42,864.62Zm-2.16,1.94-.24.28-.48-.44Zm-3,7.26a3.2,3.2,0,0,0-.11.72,5.36,5.36,0,0,1,1.53-.62l.86.1a15.5,15.5,0,0,0-2.47,2.78l-1.18-.33-.1-2.69C990.34,873.78,990.83,873.8,991.3,873.82ZM936,861.43a26.93,26.93,0,0,1,5.58-1l.1,2.57ZM958,867.55a28.54,28.54,0,0,1,4.39-.67l.07,1.92Zm25,7a28.61,28.61,0,0,1,4.35-.66l.07,1.89Zm12.07,3.37a34.14,34.14,0,0,1,4.21-.31l0,1.52L999,879Zm34.56,15.43,0,1-1.79-.89C1028.39,893.37,1029,893.34,1029.63,893.33Zm26.46,5.58.57-.1-.36.3Zm-.28-3.92s0,.07,0,.11l.13-.07a1.85,1.85,0,0,1,.47.21,1.93,1.93,0,0,0-.06-.37,12.82,12.82,0,0,1,2.09-.42,21,21,0,0,0-2.3,1.89,17.86,17.86,0,0,0-2-1.74A11.49,11.49,0,0,1,1055.82,895ZM1053,905.81l-.11.12-.27-.14Zm7.69,1.74-.16,2.2-4.17-2.08A34.11,34.11,0,0,1,1060.65,907.55Zm155,124.74-.06-1.67a32,32,0,0,1,6.09.56Zm39.48-11.09a4.38,4.38,0,0,0-.35,1.3,21.2,21.2,0,0,0-2-2A14.08,14.08,0,0,1,1255.11,1021.2Zm-7.48,5.16-.07-1.74a31.83,31.83,0,0,1,6.28.59Zm8.68-1.61a8.55,8.55,0,0,0-1.34-2,24.38,24.38,0,0,1,8.71-2l.1,2.64Zm10.34-1.91-.08-2.22a29.73,29.73,0,0,1,7.43.86Zm56.17-14.75-1,.48c-.36-.35-.73-.69-1.12-1A15.66,15.66,0,0,1,1322.81,1008.09Zm-7.25,3.62v-.1h.19Zm51.25-25.62-1,.48c-.36-.35-.73-.69-1.12-1A15.66,15.66,0,0,1,1366.81,986.09Zm-7.25,3.62v-.1h.19Zm32.8-16.4-1.17.58c-.45-.46-.95-.91-1.46-1.35A12.15,12.15,0,0,1,1392.37,973.32Zm-7.78,3.89,0-.59,1.15,0Zm128.34,16.26c.37-.13.8-.27,1.29-.41l-.63.65Zm3.8-13.44-.46.43-.18-.24Zm-1.09-1.81a8.67,8.67,0,0,0-.59.91,22.92,22.92,0,0,0-1.78-1.52A10.82,10.82,0,0,1,1515.64,978.22Zm-2.8,12.48a8.28,8.28,0,0,0-1.23,2.28l-1-.36-.08-2C1511.37,990.62,1512.12,990.65,1512.84,990.7Zm-38.63-12.63-.63.65-.65-.25C1473.29,978.34,1473.72,978.2,1474.21,978.06Zm31.84,12.83c.52-.06,1.06-.12,1.63-.16l0,.79Zm646.72-262.76.39,2.79-.22.11a8.77,8.77,0,0,0-2.35-2.43C2151.26,728.43,2152,728.27,2152.77,728.13Zm-4.56-11.38c-.48.53-.93,1.08-1.34,1.63a4.41,4.41,0,0,0-.6-.77A10.84,10.84,0,0,1,2148.21,716.75Zm-1.75,2.22c-.17.25-.32.5-.45.75-.48-.3-1-.58-1.49-.85A13.51,13.51,0,0,1,2146.46,719Zm-27.86,28.67-5.94,2.88-.52-2.36A31.53,31.53,0,0,1,2118.6,747.65Zm-9.28,1.13.66,3-3.55,1.72a14.81,14.81,0,0,0-2.82-2.51,7.91,7.91,0,0,1,2.59.58,3.71,3.71,0,0,0-.69-1.6A34.27,34.27,0,0,1,2109.32,748.78Zm-8.56-5.39c.39,0,.74.07,1,.12l-.23.43Zm1.74,3.75h.11l0,0Zm.5-5.6q-.31.45-.59.91c-.11-.14-.24-.28-.37-.42C2102.32,741.88,2102.64,741.72,2103,741.54Zm-1.76-1.14a7.32,7.32,0,0,0-.26.7c-.45-.35-.93-.69-1.42-1A8.24,8.24,0,0,1,2101.25,740.4Zm2.35,14.5-4,1.92-.23-1.84A29.51,29.51,0,0,1,2103.6,754.91Zm-6.71.4.34,2.69-3.21,1.55a7.81,7.81,0,0,0-2.81-2.7l.88-.33a2.52,2.52,0,0,1,.71.18,2.4,2.4,0,0,0-.13-.38A29.4,29.4,0,0,1,2096.88,755.3Zm-5.07-2.78c-.42.5-.81,1-1.16,1.51-.27-.2-.54-.4-.83-.59.16-.1.36-.21.6-.33a2.69,2.69,0,0,1,.74.16,2,2,0,0,0-.15-.43Zm-2.36.53c0,.05,0,.1,0,.16l-.27-.17Zm3.8,6.86-5.68,2.75-.53-2.43A22,22,0,0,1,2093.26,759.91Zm-28.36,13.72-4.17,2-.26-1.89A30.93,30.93,0,0,1,2064.9,773.63Zm-7.07.5.38,2.74-1.08.52a7.56,7.56,0,0,0-2.29-2.58C2055.74,774.55,2056.74,774.32,2057.83,774.12Zm-6.75-5-.21-.13h.29Zm1.46-2.07-.3.39-.2-.18Zm3.78,10.76-7.47,3.62-.71-3.23A27.85,27.85,0,0,1,2056.32,777.78Zm-115.16,68.35-8.63,1.86-.29-2.53A24.41,24.41,0,0,1,1941.15,846.14Zm-31.61,6.81-6.27,1.35-.23-1.07A21.23,21.23,0,0,1,1909.55,852.94Zm-8.7.76.23,1.07-3.49.75a4.34,4.34,0,0,0-.27-.64A26,26,0,0,1,1900.85,853.7Zm-4.7-2.06c-.22.31-.42.63-.62.95l-.42-.39C1895.4,852,1895.73,851.84,1896.15,851.64Zm-.33,3.95.75.15-1.64.35C1895.16,855.94,1895.46,855.77,1895.82,855.59Zm.11-7.53c-.24.36-.47.72-.69,1.08-.13-.17-.26-.33-.4-.5A11.49,11.49,0,0,1,1895.92,848.06Zm-1.52,2.81a6,6,0,0,0-.18.58c-.32-.25-.64-.51-1-.75C1893.68,850.75,1894.06,850.8,1894.41,850.87Zm-.1,4.5a3.32,3.32,0,0,0-.06.87l-5.77,1.24-.25-2.18A33.53,33.53,0,0,1,1894.3,855.37ZM1813,859.54l-.41,2.63-7.92-2.41A24.92,24.92,0,0,1,1813,859.54Zm-4.49-4.46c-.46.31-.9.63-1.31,1a5.57,5.57,0,0,0-.43-.72A16.25,16.25,0,0,1,1808.48,855.08Zm-2-1.29a5.78,5.78,0,0,0-.45.68,15.62,15.62,0,0,0-1.17-1.18A9.6,9.6,0,0,1,1806.51,853.79Zm-.22,3a6.5,6.5,0,0,0-2.07,2.87l-3-.91,0-2.7A20.91,20.91,0,0,1,1806.29,856.76Zm-7.11-.73,0,2.07-4.6-1.4A21.71,21.71,0,0,1,1799.18,856Zm-21.6-7.5-.24,2.92-7.57-2.31A28.87,28.87,0,0,1,1777.58,848.53Zm-40.21-5.4-5.72,2.17-.1-2.68A32.43,32.43,0,0,1,1737.37,843.13Zm-8.7-.4.13,3.65-4.9,1.86a9.86,9.86,0,0,0-3.08-3.17,7,7,0,0,1,2.28.53,3.65,3.65,0,0,0-.84-1.75A31.47,31.47,0,0,1,1728.67,842.73Zm-5.47-3.67a21.55,21.55,0,0,0-1.79,2,5.75,5.75,0,0,0-.83-1A11.57,11.57,0,0,1,1723.2,839.06Zm-2.33,2.73-.27.42c-.24-.2-.48-.39-.73-.58C1720.27,841.68,1720.59,841.73,1720.88,841.79Zm1.79,6.91-5.33,2-.26-2.2A23.28,23.28,0,0,1,1722.67,848.7Zm-25.25,9.57-6.59,2.5-.39-2.65A23.35,23.35,0,0,1,1697.42,858.26Zm-9.4.2.47,3.18-2.79,1.06a10.41,10.41,0,0,0-2.44-2.9A27.13,27.13,0,0,1,1688,858.47Zm-4.94-2.57-.15.19-.09-.09Zm0-3.89c-.25.31-.48.63-.71,1-.1-.16-.22-.32-.35-.49C1682.35,852.33,1682.68,852.17,1683.11,852Zm-1.34,1.94c-.13.23-.26.45-.37.68-.37-.31-.76-.62-1.15-.92C1680.85,853.77,1681.35,853.86,1681.76,853.94Zm2.12,9.45-7.17,2.72-.34-3A32.46,32.46,0,0,1,1683.88,863.39Zm-34.35,13-6.76,2.56-.34-2.67A31.7,31.7,0,0,1,1649.53,876.41Zm-19,7.21-7.22,2.73-.54-2.56A22.33,22.33,0,0,1,1630.49,883.62ZM1613.54,887a1.24,1.24,0,0,1,.27.11,1.93,1.93,0,0,0-.06-.23,25.06,25.06,0,0,1,6.5-2.52l.62,2.95-6.11,2.31a8.17,8.17,0,0,0-1.88-2.14A4,4,0,0,1,1613.54,887Zm-.5,3.28-.22-.16.48.06Zm-.29-3.46a3,3,0,0,0,0,.59c-.29-.24-.59-.48-.9-.72C1612.21,886.67,1612.49,886.72,1612.75,886.76Zm-3.53,6.75-.12.17,0-.16Zm510.28,139.12-74.71,28.68-74.36-40.66-89.38,1.6-46.44,52.54-124.75-13-89.85-44,14.09-50.6,80-12.37,64.07,21.53,78.32-17.25,48.73-52.8,105.81,10.08,66.64-17.63,71.47,46ZM2144.76,735l-.62-2.83a29.87,29.87,0,0,1,7.42-.46Zm10.92-5.28-.27-1.94a30.86,30.86,0,0,1,4.55-.13Zm44.62-30.57-.18.26-.13-.11Zm-1.24-3.07q-.35-.3-.74-.58a13.34,13.34,0,0,1,1.7-.94C2199.66,695,2199.34,695.55,2199,696.06Zm-1.17-1.58a4,4,0,0,0-.09.63c-.37-.25-.76-.5-1.15-.73C2197.11,694.4,2197.52,694.44,2197.87,694.49Zm-11.59,7.33-.05.09-.17-.09Zm1.2-1.74-.36.48-.26-.21Zm-1.64-1c-.07.16-.14.32-.2.47-.32-.18-.65-.35-1-.51A8.65,8.65,0,0,1,2185.84,699.08Zm.88,15.6-.63-2.51a20.08,20.08,0,0,1,6.73-.44Zm6.44-3.11c-.48-1.23-2-2.38-3.77-3.33a7,7,0,0,1,2.34.23,2.87,2.87,0,0,0-.48-1c.54-.14,1.12-.27,1.73-.4l.68,4.22h0Zm3-1.46-.56-3.43a26,26,0,0,1,7.55.05Zm7.78-3.77a8.08,8.08,0,0,0-2.51-2.91,33.25,33.25,0,0,1,4.88-1.66l.68,3.09Zm11-5.34-5.33,2.58-.53-2.42a31.85,31.85,0,0,1,6.26-.52Zm83.63-68.61-.49-2.22c5.1-.91,8.67-.43,9.2-.14Zm110.45-38.59a22.48,22.48,0,0,0-1.35,1.89,7.75,7.75,0,0,0-.7-.89A15,15,0,0,1,2409.07,593.79Zm-2,3.1c-.12.24-.23.48-.32.71-.4-.31-.82-.61-1.26-.9C2406.06,596.75,2406.59,596.81,2407,596.89Zm-5.75,7.63-.5-3.18c5.16-.61,8.7.09,9.2.41a5.58,5.58,0,0,0-1.79-2.87,30.56,30.56,0,0,1,6.74-2.09l.6,3.86Zm86.85-39-.34-2.2a33.48,33.48,0,0,1,4.91-.22Zm51.13-27.19-.47-3a31.71,31.71,0,0,1,6.39-.14Z" fill="#c9a228"/><g id="6223942c-8c73-45fe-a968-52405b4d7b36" data-name="Fog"><polygon points="2011.06 916.38 1905.24 906.3 1856.51 959.1 1778.19 976.36 1714.13 954.82 1634.1 967.2 1620.01 1017.79 1709.87 1061.78 1834.62 1074.8 1881.06 1022.26 1970.44 1020.66 2044.79 1061.32 2119.5 1032.64 2149.17 944.8 2077.7 898.75 2011.06 916.38" fill="#c9a228"/><polygon points="2011.06 916.38 1905.24 906.3 1856.51 959.1 1778.19 976.36 1714.13 954.82 1634.1 967.2 1620.01 1017.79 1709.87 1061.78 1834.62 1074.8 1881.06 1022.26 1970.44 1020.66 2044.79 1061.32 2119.5 1032.64 2149.17 944.8 2077.7 898.75 2011.06 916.38" fill="#fff" opacity="0.15"/><polygon points="567.06 915.38 461.24 905.3 412.51 958.1 334.19 975.36 270.13 953.82 190.1 966.2 176.01 1016.79 265.87 1060.78 390.62 1073.8 437.06 1021.26 526.44 1019.66 600.79 1060.32 675.5 1031.64 705.17 943.8 633.7 897.75 567.06 915.38" fill="#c9a228"/><polygon points="567.06 915.38 461.24 905.3 412.51 958.1 334.19 975.36 270.13 953.82 190.1 966.2 176.01 1016.79 265.87 1060.78 390.62 1073.8 437.06 1021.26 526.44 1019.66 600.79 1060.32 675.5 1031.64 705.17 943.8 633.7 897.75 567.06 915.38" fill="#fff" opacity="0.15"/></g><g id="e0354e32-66b6-4cd3-8861-dfe43b1b3c94" data-name="Cloud"><path d="M2430.46,275.42c.36.84.69,1.7,1,2.57C2431.15,277.12,2430.82,276.26,2430.46,275.42Z" fill="#fff9e9"/><path d="M2276.94,337.14a28.6,28.6,0,0,1,54.34-17.76,27.28,27.28,0,0,1,31.33-19.9,42.88,42.88,0,0,1,55.75-39.8c.72.56,1.41,1.15,2.09,1.75a39.63,39.63,0,0,0-66.09,29.27,33.74,33.74,0,0,0-26.44,13.48,33.79,33.79,0,0,0-59.66,26.59A39,39,0,0,0,2239,364h9.55A36.81,36.81,0,0,1,2276.94,337.14Z" fill="#fff9e9"/><path d="M2405.47,257.69a42.88,42.88,0,0,0-42.86,41.78,27.28,27.28,0,0,0-31.33,19.9,28.6,28.6,0,0,0-54.34,17.76A36.81,36.81,0,0,0,2248.55,364H2258l266-18.38.37.13a33.74,33.74,0,0,0-33.45-38.52,33.64,33.64,0,0,0-15.11,3.57A31.21,31.21,0,0,0,2445,274.9a31.07,31.07,0,0,0-13.54,3.08c-.3-.87-.64-1.72-1-2.57l-.07-.18c-.35-.8-.72-1.59-1.12-2.37l-.14-.27q-.59-1.13-1.25-2.22l-.18-.3Q2427,269,2426.3,268l-.21-.29q-.74-1-1.54-2l-.21-.25q-.82-1-1.7-1.9l-.19-.2c-.61-.63-1.23-1.24-1.88-1.82l-.13-.11c-.68-.61-1.37-1.19-2.09-1.75A42.78,42.78,0,0,0,2405.47,257.69Z" fill="#fff3d2"/><path d="M2258,364h282.1c0-8.14-8.45-15.78-15.73-18.25l-.37-.13Z" fill="#dbcca7"/></g></g><g id="1c248766-d04d-4ef2-8213-624a7620f776" data-name="mountains-3"><path id="976c27f1-2971-4582-a6f8-7a4e153990ec" data-name="Mountain" d="M2548.28,711.57a19.91,19.91,0,0,0-5.66-5.76,13.26,13.26,0,0,1,4.33,1c-.28-2.52-3-5.25-6.09-7.59a11.71,11.71,0,0,1,3.69.85c-.27-2.43-3.32-5.07-6.5-7.18a11.8,11.8,0,0,1,3.9.82c-.24-2.16-3-4.52-5.81-6.38a9.47,9.47,0,0,1,3.42.82c-.46-4.17-9.92-9.25-9.92-9.25s-8.14,7-7.69,11.18a9.47,9.47,0,0,1,3.16-1.54c-2.33,2.42-4.53,5.33-4.29,7.49a11.8,11.8,0,0,1,3.63-1.64c-2.64,2.76-5.05,6-4.79,8.42a11.71,11.71,0,0,1,3.41-1.62c-2.52,3-4.58,6.21-4.3,8.73a13.27,13.27,0,0,1,4-2c-2.65,3-4.79,6.36-4.5,8.94.59-.65,5.36-3,12.93-4.13l.48,4.42-16.39,9.47a36.33,36.33,0,0,0-2.88-3,14.84,14.84,0,0,1,4.67,1.76c0-2.84-2.59-6.25-5.71-9.27a13.1,13.1,0,0,1,4,1.45c0-2.73-3-6.08-6.22-8.87a13.2,13.2,0,0,1,4.22,1.45c0-2.43-2.72-5.44-5.56-7.89a10.59,10.59,0,0,1,3.68,1.39c.07-4.69-9.74-11.64-9.74-11.64s-10,6.65-10.08,11.34a10.59,10.59,0,0,1,3.72-1.28c-2.92,2.36-5.76,5.29-5.8,7.72a13.2,13.2,0,0,1,4.26-1.32c-3.31,2.69-6.44,6-6.48,8.68a13.1,13.1,0,0,1,4-1.33,29.3,29.3,0,0,0-4.18,4.59,19.52,19.52,0,0,0-5-4.06,9.42,9.42,0,0,1,3.43.68c-.62-4.13-10.24-8.8-10.24-8.8s-7.82,7.29-7.2,11.42a9.42,9.42,0,0,1,3.08-1.66c-2.22,2.5-4.29,5.48-4,7.62a11.74,11.74,0,0,1,3.55-1.78c-2.52,2.85-4.79,6.16-4.43,8.56a11.65,11.65,0,0,1,3.33-1.75c-2.39,3-4.3,6.35-3.93,8.85a13.2,13.2,0,0,1,3.9-2.1c-2.52,3.14-4.51,6.52-4.12,9.07.56-.67,5.21-3.2,12.7-4.62l.86,5.73L2449,765l-8.05-5.95.49-6.06c8.52,1,13.93,3.5,14.61,4.22.24-2.9-2.25-6.54-5.32-9.87a14.87,14.87,0,0,1,4.55,2.07c.23-2.83-2.18-6.41-5.09-9.64a13.12,13.12,0,0,1,3.88,1.71c.22-2.73-2.58-6.28-5.63-9.28a13.22,13.22,0,0,1,4.12,1.72c.2-2.43-2.36-5.62-5-8.25a10.61,10.61,0,0,1,3.59,1.63c.38-4.68-9-12.28-9-12.28s-10.44,6-10.83,10.67a10.61,10.61,0,0,1,3.8-1c-3.07,2.17-6.11,4.9-6.31,7.33a13.22,13.22,0,0,1,4.34-1c-3.49,2.47-6.83,5.52-7.05,8.25a13.12,13.12,0,0,1,4.1-1.06c-3.2,2.56-6,5.49-6.51,8.19l-12.39-9.15.19-6.75c9.12.61,15,2.94,15.78,3.66.09-3.1-2.77-6.84-6.22-10.21a15.83,15.83,0,0,1,5,1.94c.09-3-2.68-6.7-6-10a14,14,0,0,1,4.22,1.6c.08-2.91-3.1-6.53-6.51-9.56a14.08,14.08,0,0,1,4.48,1.6c.07-2.59-2.82-5.84-5.82-8.5a11.3,11.3,0,0,1,3.91,1.53c.14-5-10.22-12.56-10.22-12.56s-8.69,5.62-10.56,10.38a22.13,22.13,0,0,0-4.17-5.81,11.77,11.77,0,0,1,3.6,1.68c.26-2.15-1.9-5.08-4.19-7.52a9.45,9.45,0,0,1,3.13,1.58c.5-4.15-7.54-11.24-7.54-11.24s-9.5,5-10,9.11a9.45,9.45,0,0,1,3.42-.78c-2.81,1.82-5.61,4.15-5.87,6.3a11.77,11.77,0,0,1,3.9-.77c-3.19,2.08-6.27,4.67-6.57,7.09a11.68,11.68,0,0,1,3.69-.8c-3.12,2.3-5.86,5-6.16,7.5a13.23,13.23,0,0,1,4.33-1,28.4,28.4,0,0,0-3.91,3.32L2319,669l-26.48,24.71a25.27,25.27,0,0,0-3.59-2.42,11.62,11.62,0,0,1,3.88.45c-.5-2.17-3.15-4.25-6.09-6a10.26,10.26,0,0,1,3.29.35c-.49-2.08-3.42-4.06-6.4-5.57a10.33,10.33,0,0,1,3.48.3c-.43-1.86-3.09-3.62-5.72-4.94a8.29,8.29,0,0,1,3.06.36c-.83-3.58-9.6-7-9.6-7s-6.35,6.95-5.51,10.52a8.29,8.29,0,0,1,2.58-1.67c-1.77,2.35-3.38,5.11-2.95,7a10.33,10.33,0,0,1,3-1.81,25,25,0,0,0-2.42,3.82c-1.43-3.93-10.81-7.6-10.81-7.6s-7.22,7.9-6.27,12a9.43,9.43,0,0,1,2.94-1.9c-2,2.67-3.84,5.81-3.35,7.92a11.75,11.75,0,0,1,3.4-2.06c-2.28,3-4.29,6.53-3.73,8.9a11.67,11.67,0,0,1,3.19-2,19.85,19.85,0,0,0-3.22,7c-2.06-3.18-8.31-6.29-8.31-6.29s-6.93,6.37-6.41,10a8.29,8.29,0,0,1,2.72-1.44c-2,2.19-3.81,4.79-3.54,6.68a10.33,10.33,0,0,1,3.13-1.54c-2.23,2.49-4.25,5.39-4,7.51a10.25,10.25,0,0,1,2.94-1.52c-2.12,2.66-3.83,5.56-3.51,7.76a11.62,11.62,0,0,1,3.45-1.83c-2.24,2.74-4,5.71-3.69,8,.5-.59,4.6-2.78,11.2-4l.61,4.26-8.89,8.3c-.88-2.85-4.24-5.68-8-8.06a14.27,14.27,0,0,1,4.56.68c-.55-2.92-4.52-5.84-8.58-8.11a14.38,14.38,0,0,1,4.82.62c-.49-2.6-4.09-5.21-7.67-7.2a11.54,11.54,0,0,1,4.23.67c-1-5-12.94-10.29-12.94-10.29s-9.22,9.29-8.27,14.31a11.54,11.54,0,0,1,3.69-2.18c-2.6,3.16-5,6.9-4.5,9.51a14.37,14.37,0,0,1,4.25-2.34c-2.94,3.6-5.57,7.76-5,10.69a14.27,14.27,0,0,1,4-2.3c-2.78,3.83-5,8-4.39,11a16.17,16.17,0,0,1,4.68-2.76c-2.94,4-5.21,8.19-4.62,11.29.66-.85,6.22-4.15,15.32-6.24l1.11,5.86L2139,827l-54,90-13.78,2-.89-6.29c9.28-.95,15.61.39,16.51,1-.44-3.13-4-6.41-8-9.21a16.17,16.17,0,0,1,5.32,1.11c-.43-3.06-3.84-6.28-7.7-9a14.27,14.27,0,0,1,4.52.89c-.42-2.95-4.24-6-8.19-8.51a14.38,14.38,0,0,1,4.78.85c-.37-2.62-3.84-5.4-7.32-7.55a11.54,11.54,0,0,1,4.19.87c-.71-5.06-12.44-10.89-12.44-10.89s-9.65,8.85-8.94,13.9a11.54,11.54,0,0,1,3.79-2c-2.74,3-5.31,6.66-4.94,9.28a14.37,14.37,0,0,1,4.36-2.14c-3.11,3.46-5.93,7.49-5.52,10.44a14.27,14.27,0,0,1,4.1-2.11c-3,3.69-5.34,7.73-4.91,10.8a16.17,16.17,0,0,1,4.8-2.53,25.92,25.92,0,0,0-4.8,8,29.07,29.07,0,0,0-4.26-3.2,13.62,13.62,0,0,1,4.51.75c-.47-2.56-3.45-5.16-6.8-7.32a12,12,0,0,1,3.84.59c-.45-2.46-3.78-4.94-7.19-6.87a12.11,12.11,0,0,1,4.05.55c-.4-2.2-3.42-4.41-6.42-6.1a9.72,9.72,0,0,1,3.56.59c-.78-4.23-10.84-8.73-10.84-8.73s-7.82,7.78-7,12a9.72,9.72,0,0,1,3.12-1.81c-2.2,2.65-4.24,5.79-3.84,8a12.11,12.11,0,0,1,3.6-1.95c-2.5,3-4.73,6.51-4.28,9a12,12,0,0,1,3.38-1.92c-2.36,3.21-4.23,6.69-3.76,9.26a13.62,13.62,0,0,1,4-2.3c-2.49,3.32-4.43,6.87-3.95,9.49.56-.71,5.26-3.47,12.93-5.18l.67,3.67-51.52,7.59-.48-6.89c9.33-.29,15.55,1.49,16.4,2.15-.22-3.15-3.49-6.67-7.34-9.75a16.17,16.17,0,0,1,5.23,1.48c-.22-3.09-3.39-6.54-7-9.54a14.27,14.27,0,0,1,4.45,1.21c-.21-3-3.8-6.33-7.57-9.06a14.37,14.37,0,0,1,4.71,1.18c-.18-2.64-3.45-5.65-6.77-8.05a11.54,11.54,0,0,1,4.12,1.17c-.36-5.1-11.64-11.74-11.64-11.74s-10.25,8.14-9.9,13.24a11.53,11.53,0,0,1,3.92-1.73c-2.95,2.83-5.77,6.27-5.58,8.91a14.38,14.38,0,0,1,4.5-1.82c-3.35,3.23-6.44,7.06-6.24,10a14.27,14.27,0,0,1,4.24-1.81c-3.21,3.48-5.87,7.34-5.66,10.42a16.17,16.17,0,0,1,5-2.19c-3.38,3.58-6.13,7.52-5.91,10.67.75-.77,6.67-3.39,15.94-4.4l.51,7.28-44.4,6.54-.27-3.82c7.81-.24,13,1.25,13.73,1.8-.18-2.64-2.93-5.58-6.14-8.16a13.54,13.54,0,0,1,4.38,1.24c-.18-2.58-2.84-5.48-5.9-8a12,12,0,0,1,3.72,1c-.17-2.48-3.19-5.3-6.34-7.59a12,12,0,0,1,3.94,1c-.15-2.21-2.89-4.73-5.67-6.74a9.66,9.66,0,0,1,3.45,1c-.3-4.27-9.75-9.83-9.75-9.83s-8.58,6.82-8.29,11.09a9.66,9.66,0,0,1,3.28-1.45c-2.47,2.37-4.83,5.25-4.67,7.46a12,12,0,0,1,3.77-1.53c-2.74,2.65-5.28,5.77-5.22,8.23a32.9,32.9,0,0,0-4.9-4.27,14.34,14.34,0,0,1,4.53,1c-.38-3-4.18-6.13-8.11-8.66a14.45,14.45,0,0,1,4.79.92c-.33-2.64-3.78-5.48-7.25-7.7a11.59,11.59,0,0,1,4.2.94C1910.8,902,1899.1,896,1899.1,896s-9.82,8.75-9.18,13.85a11.59,11.59,0,0,1,3.84-2c-2.8,3-5.43,6.62-5.1,9.26a14.45,14.45,0,0,1,4.41-2.08c-3.18,3.43-6.07,7.45-5.69,10.41a14.34,14.34,0,0,1,4.15-2.06c-3,3.67-5.47,7.7-5.08,10.78a16.25,16.25,0,0,1,4.86-2.48c-3.19,3.79-5.73,7.89-5.33,11,.71-.81,6.5-3.78,15.75-5.32l.82,6.45L1895,945l-130,116-66-94-9.91,4.75a27.17,27.17,0,0,0-6.53-6.11,16.25,16.25,0,0,1,5.33,1.19c-.39-3.08-3.77-6.37-7.61-9.17a14.34,14.34,0,0,1,4.53,1c-.38-3-4.18-6.13-8.11-8.66a14.45,14.45,0,0,1,4.79.92c-.33-2.64-3.78-5.48-7.25-7.7a11.59,11.59,0,0,1,4.2.94C1677.8,939,1666.1,933,1666.1,933s-9.82,8.75-9.18,13.85a11.59,11.59,0,0,1,3.84-2c-2.8,3-5.43,6.62-5.1,9.26a14.45,14.45,0,0,1,4.41-2.08c-3.18,3.43-6.07,7.45-5.69,10.41a14.34,14.34,0,0,1,4.15-2.06c-3,3.67-5.47,7.7-5.08,10.78a16.25,16.25,0,0,1,4.86-2.48c-3.19,3.79-5.73,7.89-5.33,11,.71-.81,6.5-3.78,15.75-5.32l.85,6.67-35.38,17a37.76,37.76,0,0,0-5.29-5.41c3.31.67,5.38,1.47,5.84,1.87-.12-3.49-3.57-7.51-7.59-11a16.12,16.12,0,0,1,5,1.53c-.12-3.36-4.05-7.29-8.19-10.52a16.24,16.24,0,0,1,5.27,1.52c-.11-3-3.68-6.52-7.33-9.35a13,13,0,0,1,4.61,1.48c-.2-5.77-12.69-13.7-12.69-13.7s-11.89,8.8-11.68,14.57a13,13,0,0,1,4.49-1.8c-3.44,3.09-6.75,6.85-6.65,9.85a16.24,16.24,0,0,1,5.15-1.88c-3.9,3.52-7.55,7.72-7.43,11.07a16.12,16.12,0,0,1,4.85-1.88c-2.73,2.76-5.13,5.76-6.2,8.53a25.18,25.18,0,0,0-5-6.1,11.83,11.83,0,0,1,4,1.74c.32-5.23-10.26-13.49-10.26-13.49s-11.51,6.91-11.83,12.14a11.83,11.83,0,0,1,4.22-1.23c-3.38,2.49-6.7,5.6-6.87,8.31a14.73,14.73,0,0,1,4.82-1.25c-3.83,2.83-7.49,6.31-7.68,9.36a14.63,14.63,0,0,1,4.55-1.28c-3.73,3.1-6.95,6.67-7.14,9.84a16.57,16.57,0,0,1,5.34-1.56c-3.91,3.19-7.24,6.82-7.44,10.06.87-.68,7.23-2.56,16.8-2.34l-.44,7.26-32.08,15.38a42.27,42.27,0,0,0-6.54-6.79c3.86.78,6.27,1.71,6.81,2.18-.15-4.07-4.17-8.76-8.85-12.86,3.28.64,5.33,1.4,5.8,1.79-.14-3.91-4.73-8.5-9.55-12.26,3.5.59,5.69,1.39,6.14,1.76-.13-3.49-4.29-7.59-8.55-10.89,3.07.57,5,1.36,5.37,1.72-.24-6.72-14.79-16-14.79-16s-13.85,10.26-13.61,17c.36-.39,2.22-1.31,5.24-2.1-4,3.6-7.87,8-7.74,11.48.42-.41,2.55-1.36,6-2.2-3.56,3.21-6.92,6.9-8.15,10.23-3.19-4.4-11.07-8.66-11.07-8.66s-10.2,8.73-9.64,13.94a11.83,11.83,0,0,1,4-1.92c-2.92,3-5.67,6.64-5.39,9.34a14.73,14.73,0,0,1,4.54-2c-3.31,3.43-6.34,7.47-6,10.5a14.63,14.63,0,0,1,4.27-2c-3.16,3.68-5.74,7.74-5.4,10.89a16.58,16.58,0,0,1,5-2.43c-3.33,3.8-6,7.93-5.66,11.16.74-.82,6.7-3.73,16.17-5.11l.76,7.13-42.63,16.94a43.62,43.62,0,0,0-3.05-4.13c3.09,1.2,5,2.32,5.34,2.78.46-3.4-2.2-7.86-5.5-11.95a15.82,15.82,0,0,1,4.56,2.31c.45-3.27-2.7-7.73-6.17-11.55a15.94,15.94,0,0,1,4.85,2.35c.4-2.91-2.47-6.92-5.53-10.27a12.79,12.79,0,0,1,4.21,2.2c.77-5.61-10-15.37-10-15.37s-13,6.53-13.73,12.14a12.79,12.79,0,0,1,4.65-1c-3.84,2.41-7.68,5.5-8.07,8.42a15.94,15.94,0,0,1,5.3-1c-4.36,2.75-8.59,6.21-9,9.47a15.82,15.82,0,0,1,5-1c-3.89,2.78-7.35,6-8.28,9.13a41.56,41.56,0,0,0-4.85-5.74c3.08.93,5,1.91,5.31,2.3.29-3.15-3-7.32-6.41-10.78a13.76,13.76,0,0,1,4.63,2.17c.56-6.07-11.43-16.06-11.43-16.06s-13.63,7.61-14.2,13.68a13.76,13.76,0,0,1,4.95-1.28c-4,2.77-8,6.27-8.29,9.41.43-.31,2.45-.93,5.65-1.28-4.56,3.15-8.94,7.06-9.27,10.59a17,17,0,0,1,5.33-1.32c-4.45,3.47-8.32,7.5-8.66,11.18.51-.39,2.74-1.12,6.27-1.62-4.57,3.49-8.5,7.5-9,11.19a44.06,44.06,0,0,0-5-5,17.91,17.91,0,0,1,5.53,1.7c-.13-3.73-4.5-8.1-9.1-11.68,3.34.56,5.42,1.33,5.85,1.68-.12-3.32-4.09-7.24-8.14-10.38a14.47,14.47,0,0,1,5.12,1.64c-.23-6.41-14.09-15.22-14.09-15.22s-13.2,9.78-13,16.18a14.47,14.47,0,0,1,5-2c-3.82,3.43-7.5,7.61-7.38,10.94.4-.39,2.43-1.3,5.72-2.09-4.33,3.91-8.38,8.57-8.25,12.3a17.9,17.9,0,0,1,5.39-2.09c-4.17,4.22-7.68,9-7.54,12.83.48-.48,2.71-1.53,6.33-2.53-4.39,4.35-8,9.17-7.87,13.13,1-.93,8.51-4,20.18-4.84l.31,8.72L1347,1123l-116-68-99-22.33-.5-7.63c11.38-.3,19,1.91,20,2.71-.25-3.85-4.22-8.15-8.9-11.93,3.6.61,5.85,1.42,6.37,1.83-.24-3.76-4.1-8-8.54-11.67a17.41,17.41,0,0,1,5.42,1.5c-.24-3.62-4.6-7.74-9.18-11.09,3.26.45,5.31,1.13,5.74,1.47-.21-3.23-4.18-6.92-8.21-9.86a14.07,14.07,0,0,1,5,1.45c-.4-6.22-14.13-14.38-14.13-14.38s-12.55,9.88-12.15,16.09a14.07,14.07,0,0,1,4.79-2.09c-3.61,3.44-7.07,7.61-6.86,10.84.38-.39,2.33-1.33,5.5-2.2-4.1,3.92-7.9,8.57-7.66,12.19a17.4,17.4,0,0,1,5.18-2.19c-3.93,4.22-7.2,8.92-7,12.68.46-.48,2.59-1.57,6.07-2.64-2.86,3-5.35,6.21-6.54,9.17l-21.55-4.86.9-7.53c11.24,1.78,18.29,5.33,19.16,6.31.46-3.83-2.67-8.79-6.57-13.35,3.43,1.26,5.5,2.46,5.92,3,.45-3.75-2.57-8.61-6.27-13a17.4,17.4,0,0,1,5.05,2.46c.43-3.6-3.12-8.45-7-12.58,3.12,1,5,2.08,5.37,2.49.38-3.21-2.85-7.56-6.27-11.19a14.07,14.07,0,0,1,4.67,2.34c.74-6.19-11.27-16.72-11.27-16.72s-14.14,7.42-14.88,13.61a14.07,14.07,0,0,1,5.09-1.18c-4.18,2.72-8.34,6.2-8.72,9.41.45-.31,2.53-.88,5.81-1.16-4.75,3.1-9.33,7-9.76,10.59a17.4,17.4,0,0,1,5.49-1.21c-4.64,3.43-8.71,7.45-9.15,11.2.53-.39,2.83-1.07,6.45-1.49-4.87,3.52-9.07,7.61-9.52,11.44,1.08-.75,8.76-2.55,20.11-1.64l-.82,6.88-44.49-10,.1-7.46c12.68.65,20.92,3.77,22,4.75.06-4.3-4-9.44-8.86-14,3.95,1,6.39,2.09,6.92,2.59.05-4.21-3.86-9.25-8.49-13.73,3.36.83,5.43,1.72,5.9,2.14.05-4-4.45-9-9.24-13.14,3.59.78,5.81,1.72,6.25,2.13,0-3.61-4-8.05-8.27-11.68,3.14.74,5.08,1.65,5.46,2,.09-7-14.47-17.23-14.47-17.23s-14.82,9.89-14.91,16.85c.39-.38,2.36-1.24,5.51-1.9-4.32,3.51-8.53,7.85-8.57,11.46.46-.4,2.7-1.28,6.31-2-4.9,4-9.53,8.85-9.58,12.89.47-.4,2.57-1.24,5.95-2-4.74,4.35-8.79,9.29-8.84,13.5.55-.49,3-1.52,7-2.41-5,4.48-9.16,9.51-9.22,13.81,1.11-1,9.42-3.85,22.12-4.18l-.08,6-.18,0-40,86-39.35-11.37.27-6.89c13.23,1,21.76,4.51,22.86,5.57.18-4.5-3.91-10-8.87-14.92,4.1,1.15,6.62,2.36,7.16,2.9.17-4.4-3.78-9.77-8.49-14.58,3.49,1,5.63,1.95,6.1,2.39.17-4.23-4.4-9.54-9.3-14,3.73.92,6,2,6.48,2.4.15-3.77-4-8.53-8.32-12.43,3.26.86,5.26,1.87,5.65,2.29.29-7.26-14.64-18.4-14.64-18.4s-15.76,9.93-16,17.19c.42-.39,2.5-1.24,5.81-1.84-4.61,3.55-9.13,8-9.27,11.74.49-.4,2.86-1.26,6.64-1.88-5.23,4-10.2,9-10.37,13.21.51-.41,2.72-1.23,6.27-1.91-5.07,4.42-9.44,9.47-9.61,13.86.59-.5,3.19-1.5,7.37-2.33a38.82,38.82,0,0,0-8.4,9.31l-38.45-11.11.56-8.61c12.27,1.28,20.1,4.71,21.1,5.73.27-4.17-3.39-9.36-7.88-14.07,3.78,1.17,6.09,2.35,6.58,2.86.27-4.08-3.28-9.17-7.54-13.74,3.22,1,5.18,1.94,5.61,2.37.26-3.92-3.86-9-8.3-13.21,3.44.94,5.54,2,6,2.38.23-3.5-3.52-8-7.43-11.75,3,.88,4.84,1.86,5.19,2.26.44-6.74-13.16-17.44-13.16-17.44s-14.87,8.85-15.31,15.58c.4-.35,2.35-1.09,5.44-1.57-4.37,3.19-8.67,7.19-8.9,10.68.46-.36,2.69-1.1,6.22-1.59a44.87,44.87,0,0,0-6.57,5.72c-1.5-3.83-4.66-8-8.25-11.84,3.9,1.18,6.29,2.36,6.81,2.88.31-4.76-4.68-10.88-10.07-16,4.17,1.14,6.73,2.38,7.23,2.89.28-4.24-4.27-9.73-9-14.26,3.65,1.06,5.88,2.26,6.3,2.74.53-8.18-16-21.17-16-21.17S821.06,985.79,820.52,994c.49-.43,2.85-1.32,6.6-1.9-5.3,3.87-10.52,8.72-10.8,13,.56-.44,3.26-1.34,7.55-1.93-6,4.41-11.76,9.83-12.07,14.59.58-.45,3.1-1.3,7.13-2-5.85,4.83-10.91,10.4-11.24,15.35.67-.54,3.64-1.6,8.37-2.41-4.85,3.92-9.13,8.28-10.87,12.43L681,911l-91.21,72.59a43.06,43.06,0,0,0-8.89-9.41c4.48.82,7.29,1.85,7.92,2.38-.25-4.71-5-10-10.5-14.7,3.81.67,6.2,1.52,6.74,1.95-.24-4.52-5.64-9.73-11.31-14,4.06.61,6.61,1.49,7.14,1.91-.22-4-5.12-8.7-10.11-12.43,3.56.59,5.79,1.47,6.25,1.88C576.63,933.41,559.6,923,559.6,923s-15.81,12.16-15.4,19.93c.41-.46,2.54-1.57,6-2.54-4.56,4.25-8.94,9.41-8.72,13.44.48-.48,2.92-1.63,6.9-2.67-3.42,3.2-6.67,6.8-8.42,10.17a58.75,58.75,0,0,0-7.22-5.69c4.3.44,7,1.24,7.61,1.66-.42-4.23-5.81-8.9-11.24-12.58,3.77.45,6.17,1.26,6.67,1.67-.82-8.15-19.23-18.26-19.23-18.26s-16,13.56-15.22,21.71c.41-.5,2.6-1.77,6.2-3-4.59,4.69-8.94,10.33-8.52,14.56.48-.53,3-1.86,7.13-3.14-5.21,5.34-10,11.63-9.51,16.38.5-.54,2.85-1.8,6.7-3.11-5,5.73-9.06,12.05-8.56,17,.58-.65,3.33-2.18,7.86-3.75-5.24,5.91-9.47,12.35-9,17.4,1.17-1.27,10.53-5.77,25.35-7.84l1,10L452,1021l-.88-5.67c10.56-1.23,17.8.19,18.84.85-.56-3.56-4.61-7.24-9.28-10.36,3.4.27,5.57.83,6.08,1.17-.54-3.48-4.48-7.1-8.93-10.15a16.26,16.26,0,0,1,5.17.94c-.52-3.35-4.93-6.82-9.47-9.56a16.39,16.39,0,0,1,5.46.89c-.47-3-4.47-6.09-8.46-8.49a13.15,13.15,0,0,1,4.8.93c-.9-5.75-14.36-12.21-14.36-12.21s-10.86,10.24-10,16a13.15,13.15,0,0,1,4.29-2.34c-3.08,3.51-5.94,7.68-5.48,10.66a16.39,16.39,0,0,1,4.93-2.51c-3.49,4-6.64,8.64-6.11,12a16.27,16.27,0,0,1,4.64-2.47c-3.31,4.26-6,8.9-5.41,12.39.38-.48,2.28-1.67,5.43-3-3.49,4.4-6.24,9.13-5.68,12.69.78-.95,7.25-4.5,17.68-6.54l1,6.17L419,1029l-16.12-14,1.08-8.87c10.5,1.69,17.08,5,17.89,5.95.44-3.58-2.47-8.22-6.11-12.5,3.2,1.19,5.13,2.32,5.53,2.78.43-3.5-2.38-8.05-5.83-12.2a16.27,16.27,0,0,1,4.72,2.31c.41-3.37-2.89-7.9-6.51-11.78a16.39,16.39,0,0,1,5,2.34c.37-3-2.64-7.07-5.83-10.47a13.15,13.15,0,0,1,4.36,2.2c.7-5.78-10.49-15.66-10.49-15.66s-13.24,6.9-13.94,12.68a13.15,13.15,0,0,1,4.76-1.09c-3.91,2.53-7.81,5.77-8.18,8.77a16.39,16.39,0,0,1,5.43-1.07c-4.44,2.89-8.74,6.5-9.15,9.87a16.27,16.27,0,0,1,5.13-1.11c-4.16,3.06-7.83,6.63-8.5,10l-20.52-17.76,1.85-12c14.69,2.85,23.8,7.84,24.9,9.16.77-5-3.11-11.67-8-17.85,4.45,1.81,7.11,3.49,7.65,4.16.76-4.9-3-11.43-7.65-17.42,3.78,1.52,6.06,2.9,6.53,3.46.73-4.72-3.71-11.25-8.63-16.85,4.06,1.5,6.5,3,7,3.51.65-4.2-3.4-10.07-7.74-15,3.54,1.38,5.66,2.76,6,3.28,1.25-8.1-14.06-22.49-14.06-22.49s-18.92,9.11-20.17,17.22c.52-.38,3-1.07,6.75-1.32-5.62,3.39-11.24,7.77-11.89,12,.6-.39,3.36-1,7.69-1.26-6.38,3.87-12.58,8.76-13.3,13.48.62-.39,3.2-1,7.27-1.34-6.25,4.3-11.78,9.4-12.54,14.31.72-.48,3.77-1.28,8.55-1.67a63.44,63.44,0,0,0-5.85,4.4L315,939l-6.45-6.13,1.85-11.42c14.67,3,23.74,8,24.83,9.35.81-5-3-11.7-7.89-17.91,4.43,1.85,7.08,3.54,7.62,4.22.79-4.9-2.9-11.45-7.52-17.48,3.77,1.55,6,2.95,6.5,3.51.76-4.71-3.63-11.28-8.5-16.92,4,1.54,6.47,3,6.92,3.57.68-4.2-3.32-10.09-7.62-15.05,3.53,1.41,5.63,2.81,6,3.33,1.31-8.09-13.88-22.59-13.88-22.59s-19,9-20.3,17.06c.52-.38,3-1,6.76-1.26-5.64,3.35-11.3,7.68-12,11.88.6-.38,3.37-1,7.7-1.2a47.55,47.55,0,0,0-10.15,7.68,31.85,31.85,0,0,0-5-7.32c3.07,1.1,4.92,2.16,5.31,2.6.37-3.35-2.35-7.67-5.68-11.59a15.53,15.53,0,0,1,4.53,2.16c.36-3.22-2.84-7.52-6.33-11.18a15.65,15.65,0,0,1,4.81,2.18c.32-2.87-2.59-6.73-5.67-9.94a12.56,12.56,0,0,1,4.19,2.06c.61-5.53-10.17-14.85-10.17-14.85s-1.23.66-2.94,1.73a41.84,41.84,0,0,0-7.26-9.66c3.75,1.21,6,2.45,6.46,2.93.43-3.85-3.48-9-7.62-13.35,3.28,1.12,5.25,2.3,5.62,2.76.83-7.42-13.66-19.94-13.66-19.94s-16.88,9-17.71,16.45c.46-.37,2.65-1.08,6.09-1.46-5,3.3-9.94,7.5-10.37,11.35.53-.38,3-1.08,6.95-1.44-5.66,3.77-11.12,8.46-11.6,12.78.55-.38,2.88-1.06,6.57-1.5-5.53,4.16-10.37,9-10.87,13.51.64-.47,3.38-1.31,7.72-1.84a52.17,52.17,0,0,0-6.57,5.62l-36.07-5,.12-6.16c13.43.78,22.14,4.13,23.28,5.18.09-4.56-4.17-10-9.29-14.94,4.18,1.08,6.75,2.25,7.32,2.79.09-4.46-4-9.83-8.9-14.6,3.55.9,5.75,1.86,6.23,2.3.08-4.29-4.66-9.58-9.71-14,3.8.85,6.14,1.86,6.61,2.3.07-3.82-4.23-8.56-8.69-12.43,3.32.8,5.37,1.79,5.77,2.2C202.49,802,187.13,791,187.13,791s-15.77,10.39-15.91,17.75c.42-.4,2.51-1.3,5.85-2-4.6,3.69-9.09,8.27-9.16,12.09.49-.42,2.87-1.34,6.7-2-5.22,4.21-10.16,9.31-10.24,13.6.5-.43,2.73-1.3,6.32-2.06-5.05,4.58-9.37,9.79-9.46,14.25.58-.52,3.2-1.59,7.42-2.51-4.48,4-8.34,8.36-9.5,12.37L91,843,57,753,0,767.51v402.92l135.56-27.79,123.9,68.55,159,11.82,92.92-66.18,218.88,37.82L881,1270.27l-35.1,68.55-144.55,4.73-109.44-40.18-142.48,11.82-97.05,66.18-185.84-30.73L44.7,1364.82,0,1336.09V1440H2560V709.77Zm-2366,138.82-.1,5.27L163,853A76.84,76.84,0,0,1,182.25,850.39Zm85.65-2.14-.35.27-.48-.58Zm-15.35,20.32c1.22.18,2.37.39,3.51.6a6.33,6.33,0,0,0-1,2.65,15.54,15.54,0,0,1,4.89-1.11c-3.53,2.65-6.67,5.69-7.74,8.61l-.74-.7Zm.6,11.67a29.17,29.17,0,0,1,4.42-.85c-1,.74-2,1.51-2.89,2.3ZM245,867.73l-.48,4.33-4.8-4.56C241.42,867.53,243.18,867.6,245,867.73Zm22.06,20.33-.54,4.9-5.34-5.07C263,887.87,265,887.91,267.09,888.07Zm4.61,9.57,1-8.95a58.42,58.42,0,0,1,14,3.78,8.39,8.39,0,0,0-1.09,2.86c.62-.39,3.21-1,7.28-1.28-5.52,3.74-10.49,8.1-12.15,12.42l-9.33-8.86Zm12.64,12.24L282,907.64a41.87,41.87,0,0,1,6.83-1C287.26,907.69,285.75,908.77,284.34,909.87Zm17.85,10.25-.94,5.82-6.81-6.47C296.85,919.57,299.44,919.78,302.19,920.12Zm53.2,46.06L354.33,973l-8.67-7.5C348.61,965.59,351.86,965.78,355.39,966.18Zm32.84,30.1a46.5,46.5,0,0,0-3.67,2.91l-2-1.73A23.28,23.28,0,0,1,388.23,996.28Zm9.87,9.19-.6,4.93-6-5.17C393.53,1005.2,395.72,1005.27,398.1,1005.47Zm147.06-41.82q-.83.87-1.63,1.77c-.23-.34-.47-.68-.74-1C543.5,964.15,544.28,963.9,545.15,963.64Zm-4.23,4.91c-.29.37-.56.75-.83,1.12q-1-.79-2-1.56C539.17,968.25,540.1,968.39,540.93,968.55Zm-12.75,33.82-.88-8.79c14.71-.9,24.67,1.55,26.31,2.59Zm25.51-6.22c-.31-2.83-2.15-5.8-4.83-8.69A94.34,94.34,0,0,1,559,986l.47,8.77ZM583,989l-15.69,3.83-.39-7.29a85,85,0,0,1,18.42,1.6Zm281.57,45.52a52.49,52.49,0,0,0-3.89,3.54c-.49-.71-1-1.42-1.58-2.13A24.31,24.31,0,0,1,864.57,1034.52Zm-4.8-1.58a8.27,8.27,0,0,0-1,2.59c-1.17-1.45-2.45-2.9-3.79-4.31A49.43,49.43,0,0,1,859.77,1032.94Zm-29.12,7.86-.58,8.87-22.59-6.52C811.74,1041.93,819.89,1040.51,830.65,1040.8Zm8.29.54a92.72,92.72,0,0,1,17,3.31,8.21,8.21,0,0,0-.62,2.52,13.6,13.6,0,0,1,4-1.4c.54.2,1,.39,1.5.57-3.73,3.19-6.84,6.66-7.88,9.93L838.25,1052Zm35.28,13.84-.46,7.11L855.49,1057A68,68,0,0,1,874.23,1055.18Zm66.33,21.28-.2,5.08-13.74-4A83.9,83.9,0,0,1,940.56,1076.45Zm171.21-48.34a69.86,69.86,0,0,1,13.41-2.66l.38,5.77ZM2400.06,703a4.2,4.2,0,0,0-.11-1.47,17.44,17.44,0,0,1,3.23-.91,30,30,0,0,0-4.18,3.89,30.55,30.55,0,0,0-2.33-3.17A11.68,11.68,0,0,1,2400.06,703Zm-6.35,21.16a28.07,28.07,0,0,1,3.55-1c-.75.65-1.47,1.32-2.15,2Zm3.25-16-.07-.08.08,0Zm.7.21c.68.27,1.25.53,1.72.77q-.48.43-.94.88c-.37-.5-.76-1-1.16-1.49Zm3-.34c0-.15-.1-.3-.15-.45l.93-.18ZM2289,697l-4.77,4.45-.87-3.73A43.89,43.89,0,0,1,2289,697Zm-19.75,18.43-.83-3.56a50.65,50.65,0,0,1,5.45-.75Zm-.55-23.08h1l-.2.43Zm11,6.22,1.35,5.79h.05l-2.76,2.58a30.65,30.65,0,0,0-3.62-2.37,13.22,13.22,0,0,1,4.41.52c-.4-1.73-2-3.42-4.1-4.95A44.43,44.43,0,0,1,2279.74,698.56Zm-8.28-9.23c-.18.27-.35.55-.52.82l-.39-.34Zm-2.07-2a10.62,10.62,0,0,0-.49,1.24,30,30,0,0,0-2.74-1.55A12,12,0,0,1,2269.38,687.37Zm-5.08,25.45,1.38,5.94-7,6.52a17,17,0,0,0-4.94-4.82,10.26,10.26,0,0,1,3.25.63c-.2-1.37-1.42-2.79-3-4.1A43.24,43.24,0,0,1,2264.3,712.82Zm-14.68,20.93-.24-1.69c.78-.08,1.52-.14,2.24-.18Zm2.51-18.1-1-.66c.42,0,.8.06,1.16.1C2252.22,715.29,2252.18,715.47,2252.13,715.65Zm4.64,11.43c-.42-.32-.84-.63-1.29-.94.77.07,1.44.17,2,.27Zm-5.21-16.56a4.58,4.58,0,0,0,.11.94,13.22,13.22,0,0,1,3.73-2.41,29.6,29.6,0,0,0-2.33,4,20.08,20.08,0,0,0-3.78-2.9A13.38,13.38,0,0,1,2251.55,710.53Zm-14.54,35-1.65,1.54c-1-.76-2.06-1.49-3.18-2.18A22.3,22.3,0,0,1,2237,745.52Zm-8,7.42-.06.06-4.33,3.56-.58-3.07C2225.85,753.23,2227.52,753.05,2229.06,752.94Zm-176.31,167.2a6.08,6.08,0,0,0-1.13-2.43,51.46,51.46,0,0,1,13.59-4.24l.89,6.32-26.57,3.92-.7-3.82C2046.6,918.76,2052,919.67,2052.75,920.14Zm-131,3.43a32.37,32.37,0,0,0-2.35,2.83,15.88,15.88,0,0,0-1.11-1.38A13.4,13.4,0,0,1,1921.72,923.57Zm-2.83,7.7c.62-.26,1.37-.53,2.25-.81-.49.52-1,1-1.41,1.58C1919.46,931.79,1919.18,931.53,1918.89,931.28ZM1917.8,929a10,10,0,0,0-.44,1q-.88-.69-1.81-1.36C1916.39,928.74,1917.14,928.85,1917.8,929Zm-1.08,7.75a6.12,6.12,0,0,0-.52,2.69,16.45,16.45,0,0,1,5-2.08,8,8,0,0,1,2.23.69,5.73,5.73,0,0,0-.3-1.2,51.31,51.31,0,0,1,6.37-1.09l.29,4.15-22.14,3.26-.8-6.34A59.34,59.34,0,0,1,1916.72,936.71Zm-231.91,37.1-10.29,4.93-.63-5A58,58,0,0,1,1684.81,973.81Zm-57.68,27.66-8.59,4.12-.17-4.69A69.21,69.21,0,0,1,1627.12,1001.47Zm-14.6-.36.26,7.24-13.9,6.67a38.53,38.53,0,0,0-3.48-4.12,16.58,16.58,0,0,1,5.11,2.2c.16-2.59-1.66-5.69-4.14-8.67.51-.21,1.11-.42,1.79-.65a3.63,3.63,0,0,1,.82.5,4.53,4.53,0,0,0,0-.76A63,63,0,0,1,1612.52,1001.11Zm-17.9,1.35.28.09-.06.15Zm1.16-7.3a6,6,0,0,0,0,.76,3.33,3.33,0,0,1,.7-.45,3.09,3.09,0,0,1,.68.42,4,4,0,0,0,0-.73,30.55,30.55,0,0,1,4.35-1.51,39.48,39.48,0,0,0-4.57,5.29,35.46,35.46,0,0,0-4.37-4.87A25.55,25.55,0,0,1,1595.77,995.16Zm-10.61,22.25a63.77,63.77,0,0,1,6.62,1l-6.88,3.3Zm-45.36,25.94-11,5.3-.22-6.1A79.38,79.38,0,0,1,1539.8,1043.35Zm-18.08-.56.33,9.08-5.35,2.56a26.78,26.78,0,0,0-6.73-6.65,16.58,16.58,0,0,1,5.41,1.32,9.87,9.87,0,0,0-2.72-5.13A81.21,81.21,0,0,1,1521.72,1042.79Zm-12.92-8.7-.55.55-.34-.29Zm-4.38-9c0,.12,0,.25,0,.37a2.45,2.45,0,0,1,.4-.27,4.71,4.71,0,0,1,1.4.53,4.48,4.48,0,0,0-.27-1.08,32.81,32.81,0,0,1,4.12-1.38,49.94,49.94,0,0,0-4,4.57,33.94,33.94,0,0,0-4.09-3.16A21.49,21.49,0,0,1,1504.43,1025.12Zm8.47,31.13L1503,1061l-1.42.56-.6-5.66A58.07,58.07,0,0,1,1512.9,1056.25Zm-73.68,26.37c2.2.39,4.2.85,6,1.34l-6.56,2.61Zm-5.69-.78-1,7.16-11.4,4.53a39.54,39.54,0,0,0-4.87-6.48c3.38,1.15,5.43,2.27,5.86,2.75.22-2.32-.93-5-2.75-7.8A60.68,60.68,0,0,1,1433.53,1081.84Zm-9.47-9.07A43.48,43.48,0,0,0,1420,1076a16.42,16.42,0,0,0-1.19-2.22A25.13,25.13,0,0,1,1424.05,1072.77Zm-6.15,5.26c-.27.3-.52.61-.76.91q-.71-.87-1.46-1.73C1416.53,1077.5,1417.26,1077.77,1417.9,1078Zm-13.75,16.22a71.88,71.88,0,0,1,10.05,2l-10.63,4.23Zm-22.26,8.55c-.08-2.24-1.4-4.68-3.35-7.09,1.43-.81,8.74-2.6,19.46-2l-.87,9.4-14.43,5.73a34.73,34.73,0,0,0-7.3-8.09C1379.08,1101.46,1381.37,1102.36,1381.89,1102.8Zm-4.87,8.27-13.07,5.2-.23-6.4A72.76,72.76,0,0,1,1377,1111.07Zm825.26,232.75-139.45-14.18-212.73,30.73L1739,1294.18l-163.09-11.82-125.27,40.18-165.45-4.73L1245,1249.27l172.55-75.64,250.55-37.82L1774.45,1202l182-11.82,141.82-68.55L2256.64,1150,2337,1268.18ZM2384.21,712.3l-.54,4.45-6.18-4.56A49.66,49.66,0,0,1,2384.21,712.3Zm3.4,7.23.82-6.72a49.57,49.57,0,0,1,6.62,1.52,5.51,5.51,0,0,0-.63,2.27,12.21,12.21,0,0,1,3.64-1.22l.35.14c-2.74,2.48-5.11,5.21-5.91,7.74l-5.09-3.76Zm18.82,10.74-.09,3.22-4.1-3C2403.55,730.36,2404.94,730.29,2406.43,730.28Zm22,15.24c-1,.75-1.87,1.52-2.7,2.31l-1.68-1.24A20.18,20.18,0,0,1,2428.45,745.52Zm8.25,7.09-.25,3.12-4.26-3.14C2433.58,752.54,2435.09,752.54,2436.7,752.6Zm62.1-22.78-.1,6.46-4.34,2.5a23.94,23.94,0,0,0-5-4.33,13.21,13.21,0,0,1,4.35.86c-.24-1.57-1.43-3.18-3.08-4.71A55.13,55.13,0,0,1,2498.79,729.83Zm-10.33-5q-.47-.43-1-.84c.72-.23,1.6-.48,2.64-.71C2489.54,723.82,2489,724.34,2488.46,724.86Zm-2.24-2.85c-.14.28-.27.55-.38.83-.51-.35-1-.69-1.57-1C2485,721.87,2485.68,721.93,2486.23,722Zm-3.16,23.31-.61-4.08a48.1,48.1,0,0,1,8.09-.24Zm20.43-11.81.05-3.62c1.93.1,3.69.29,5.29.53ZM2539,713l-3.28,1.9-.28-2.56a48.91,48.91,0,0,1,7.65,0Z" fill="#937f4d"/><polygon points="2098.27 1121.64 1956.45 1190.18 1774.45 1202 1668.09 1135.82 1417.55 1173.64 1245 1249.27 1285.18 1317.82 1450.64 1322.55 1575.91 1282.36 1739 1294.18 1850.09 1360.36 2062.82 1329.64 2202.27 1343.82 2337 1268.18 2256.64 1150 2098.27 1121.64" fill="#937f4d"/><polygon points="2098.27 1121.64 1956.45 1190.18 1774.45 1202 1668.09 1135.82 1417.55 1173.64 1245 1249.27 1285.18 1317.82 1450.64 1322.55 1575.91 1282.36 1739 1294.18 1850.09 1360.36 2062.82 1329.64 2202.27 1343.82 2337 1268.18 2256.64 1150 2098.27 1121.64" fill="#fff" opacity="0.1"/><polygon points="166.53 1350.64 352.38 1381.36 449.43 1315.18 591.91 1303.36 701.35 1343.55 845.9 1338.82 881 1270.27 730.26 1194.64 511.38 1156.82 418.45 1223 259.45 1211.18 135.56 1142.64 0 1170.43 0 1336.09 44.7 1364.82 166.53 1350.64" fill="#937f4d"/><polygon points="166.53 1350.64 352.38 1381.36 449.43 1315.18 591.91 1303.36 701.35 1343.55 845.9 1338.82 881 1270.27 730.26 1194.64 511.38 1156.82 418.45 1223 259.45 1211.18 135.56 1142.64 0 1170.43 0 1336.09 44.7 1364.82 166.53 1350.64" fill="#fff" opacity="0.1"/></g><g id="e06aca7d-adc6-495c-8817-d49947008ad0" data-name="mountains-4"><path id="63922040-b804-4f4f-9bce-25ed7859f2c7" data-name="Mountain" d="M2560,883.42c-12.34-11.76-28.55-21.38-28.55-21.38s-37.47,29.54-36.24,48.12c1-1.1,6-3.82,14.31-6.24-10.79,10.29-21.1,22.77-20.47,32.4,1.14-1.16,6.94-4,16.42-6.58-12.24,11.72-23.57,25.63-22.86,36.44,1.18-1.18,6.6-3.86,15.46-6.55-11.74,12.62-21.49,26.66-20.75,37.91,1.36-1.43,7.72-4.69,18.14-7.91-12.36,13-22.46,27.31-21.7,38.81,2.76-2.79,24.34-12.28,58.16-15.83l1.05,15.91-142.06,32.1-1.85-13.15c26.07-2.64,43.85,1.13,46.36,2.8-1.24-8.79-11.1-18-22.47-25.87,8.36.79,13.68,2.25,14.93,3.12-1.21-8.6-10.77-17.65-21.61-25.33,7.11.64,11.62,1.8,12.69,2.51-1.16-8.27-11.9-17-23-23.9,7.56.47,12.38,1.69,13.42,2.38-1-7.37-10.78-15.16-20.53-21.23,6.63.53,10.87,1.78,11.78,2.46-2-14.21-34.9-30.6-34.9-30.6s-27.12,24.83-25.12,39c.68-.9,4.42-3.28,10.64-5.61-7.71,8.52-14.93,18.69-13.89,26.06.81-1,5.11-3.45,12.25-6-8.74,9.7-16.66,21-15.5,29.3.84-1,4.85-3.34,11.51-5.91-7.84,9.78-14.24,20.43-13.92,28.83a77.52,77.52,0,0,0-12.72-9.19c6.07.07,10,.75,10.93,1.28-1.54-6.94-11.22-13.61-21.08-18.74,6.44-.1,10.62.61,11.54,1.13-1.37-6.18-10.15-12.14-18.83-16.63,5.66,0,9.34.78,10.15,1.3-2.64-11.92-31.64-23.63-31.64-23.63s-21.35,22.86-18.71,34.78c.52-.81,3.53-3.07,8.65-5.47-6,7.74-11.41,16.85-10,23,.62-.86,4.1-3.27,10-5.9-6.77,8.81-12.73,18.95-11.19,25.88.65-.88,3.89-3.16,9.37-5.78-6.35,9.35-11.28,19.41-9.68,26.62.74-1.06,4.54-3.8,11-6.93-6.72,9.66-11.84,19.93-10.21,27.31,1.51-2.08,14.56-10.38,36.12-16l2,9.19L2283,1085l-58.38,154.41c-5.75-7-13.72-13.89-22.33-20.26,12,1.51,19.6,3.85,21.36,5.14-1.36-12.44-14.74-25.9-30-37.43,10.21,1.23,16.65,3.11,18.17,4.17-1.31-12-16.39-25-32-35.42,10.86,1,17.76,3,19.22,4-1.17-10.66-14.85-22.3-28.63-31.47,9.52,1,15.58,3,16.85,4.06-2.25-20.54-48.91-45.6-48.91-45.6s-40.14,34.55-37.9,55.1c1-1.27,6.5-4.53,15.57-7.61-11.47,11.93-22.32,26.26-21.15,36.91,1.21-1.34,7.51-4.75,17.9-8.09-13,13.58-24.92,29.55-23.61,41.51,1.25-1.37,7.13-4.59,16.84-8-12.41,14.56-22.56,30.59-21.2,43,1.44-1.65,8.34-5.57,19.74-9.64-13.09,15-23.6,31.36-22.21,44.08,2.92-3.22,26.41-14.78,63.75-20.33l1.89,17.26-76.44,22.87c-3.43-6.47-10.94-12.91-19.33-18.57,7.79.65,12.75,1.95,13.92,2.74-1.22-8-10.21-16.3-20.37-23.33,6.62.52,10.83,1.55,11.83,2.2-1.17-7.68-11.25-15.66-21.62-22,7,.36,11.53,1.44,12.51,2.07-1-6.84-10.19-14-19.32-19.52,6.17.42,10.13,1.54,11,2.16-2-13.19-32.79-28.09-32.79-28.09s-25,23.38-22.95,36.57c.62-.85,4.07-3.1,9.84-5.33-7.08,8-13.68,17.54-12.64,24.39.74-.9,4.72-3.27,11.33-5.7-8,9.11-15.27,19.74-14.1,27.42.77-.91,4.48-3.16,10.64-5.62-7.61,9.73-13.72,20.35-12.51,28.33.88-1.1,5.23-3.82,12.47-6.75-8,10-14.37,20.87-13.13,29,1.8-2.16,16.64-10.25,40.57-14.85l1.63,10.69L1987,1319l-82.35-19.18.72-17.23c26.88,2.17,44.18,9.29,46.41,11.44.38-9.13-7.89-20.28-17.94-30.36,8.32,2.36,13.43,4.82,14.53,5.93.38-8.93-7.63-19.87-17.17-29.66,7.08,2,11.43,4,12.38,4.9.36-8.59-8.89-19.4-18.82-28.46,7.56,1.88,12.22,4,13.15,4.91.32-7.65-8.09-17.35-16.84-25.3,6.61,1.76,10.68,3.82,11.46,4.68.62-14.75-29.65-37.46-29.65-37.46s-32.07,20.09-32.69,34.84c.86-.79,5.08-2.5,11.82-3.7-9.38,7.19-18.58,16.15-18.91,23.8,1-.81,5.81-2.54,13.51-3.79-10.65,8.2-20.78,18.19-21.14,26.78,1-.83,5.53-2.48,12.75-3.84a105,105,0,0,0-10.72,10.56c-4.27-8.56-11.36-17.57-19.32-26.1,11.43,3.65,18.4,7.29,19.88,8.87.92-12.37-9.68-27.9-22.47-41.9,9.73,3,15.67,6,16.95,7.35.89-11.89-11.45-27.3-24.81-40.31,10.4,3,16.76,6.11,18,7.4.79-10.6-10.44-24.42-22.21-35.84,9.09,2.74,14.63,5.78,15.68,7,1.52-20.43-39.42-53.28-39.42-53.28s-45.37,26.41-46.89,46.84c1.22-1.05,7.16-3.23,16.55-4.6-13.34,9.55-26.49,21.55-27.29,32.15,1.42-1.08,8.18-3.27,18.9-4.64-15.14,10.88-29.63,24.29-30.51,36.18,1.46-1.1,7.78-3.19,17.85-4.75-8.8,7.13-16.9,14.92-22.2,22.68-3.66-5.12-9.13-10.23-15.06-14.9,6.84,1,11.14,2.32,12.14,3.05-.71-8-10.65-17-21-24.22,7.28.83,11.88,2.25,12.85,3-.64-7.17-9.66-15.18-18.79-21.52,6.38.84,10.42,2.26,11.25,3-1.23-13.82-32.2-31.28-32.2-31.28s-27.42,22.64-26.2,36.46c.7-.84,4.43-2.95,10.56-4.89-7.87,7.85-15.34,17.32-14.71,24.49.83-.88,5.11-3.08,12.13-5.18-8.92,8.94-17.14,19.49-16.42,27.54.86-.9,4.85-3,11.41-5.14-8.53,9.6-15.57,20.22-14.83,28.59,1-1.08,5.68-3.62,13.38-6.2-8.87,9.77-16.06,20.42-15.53,28.92l-75.38-5.61.54-17.87c34.25,2.35,56.38,11.14,59.26,13.86.35-11.63-10.35-25.7-23.3-38.37,10.63,2.87,17.17,5.93,18.59,7.32.34-11.38-10-25.18-22.31-37.49,9,2.39,14.61,4.9,15.84,6,.33-10.94-11.61-24.56-24.39-35.94,9.66,2.28,15.62,4.92,16.81,6,.29-9.75-10.57-22-21.83-32,8.44,2.14,13.65,4.7,14.67,5.78.56-18.79-38.31-47.23-38.31-47.23s-40.51,26.07-41.07,44.86c1.08-1,6.43-3.26,15-4.89-11.84,9.3-23.41,20.84-23.7,30.59,1.26-1.05,7.36-3.33,17.14-5-13.43,10.6-26.17,23.48-26.5,34.41,1.3-1.07,7-3.24,16.17-5.09-13,11.55-24.18,24.71-24.52,36.09,1.5-1.3,8.21-4,19-6.2-8.5,7.38-16.17,15.35-20.84,23.11a92,92,0,0,0-10.28-11.48c7.49,2,12.11,4.07,13.12,5,.17-8-7.19-17.65-15.92-26.23,6.37,1.63,10.3,3.36,11.17,4.16.16-7.69-8.31-17.2-17.37-25.12,6.81,1.55,11,3.37,11.86,4.15.15-6.85-7.56-15.38-15.54-22.33,6,1.46,9.63,3.22,10.35,4,.28-13.21-27.23-33-27.23-33s-28.33,18.57-28.61,31.79c.75-.72,4.5-2.33,10.51-3.53-8.27,6.61-16.33,14.8-16.48,21.65.88-.75,5.16-2.39,12-3.64-9.38,7.53-18.26,16.66-18.42,24.36.91-.76,4.91-2.32,11.34-3.67-9.08,8.2-16.85,17.52-17,25.52,1-.92,5.75-2.84,13.32-4.47-8.2,7.24-15.26,15.26-17.2,22.56L1265,1219l-302,23.6-.9-22.77c37.19,0,61.77,7.8,65.09,10.51-.5-12.6-13.13-27-28.07-39.72,11.7,2.31,19,5.12,20.64,6.51-.49-12.32-12.72-26.46-26.94-38.84,10,1.9,16.16,4.19,17.57,5.34-.47-11.85-14.4-25.67-29.07-37,10.61,1.74,17.25,4.14,18.62,5.27-.42-10.56-13.08-22.94-26-32.89,9.29,1.68,15.11,4.05,16.29,5.14-.81-20.35-45-48.16-45-48.16s-41.82,31.22-41,51.57c1.09-1.18,6.7-4,15.83-6.42-12.09,10.94-23.73,24.29-23.31,34.84,1.28-1.23,7.71-4.15,18.15-6.73-13.72,12.46-26.51,27.34-26,39.19,1.32-1.26,7.33-4,17.1-6.72-13.2,13.47-24.27,28.53-23.78,40.85,1.53-1.52,8.58-4.9,20.06-8.13-13.89,13.87-25.34,29.22-24.84,41.82,3.09-3,27-12.73,64.05-15.63l.93,23.57L881,1249l-94,22.53-2.4-18c28.19-2.67,47.37,1.53,50.08,3.35-1.27-9.51-11.86-19.53-24.1-28.11,9,.92,14.77,2.53,16.11,3.47-1.24-9.3-11.52-19.15-23.17-27.53,7.68.74,12.54,2,13.7,2.8-1.2-8.95-12.74-18.43-24.66-26,8.17.57,13.37,1.92,14.49,2.67-1.07-8-11.54-16.46-22-23.08,7.16.61,11.74,2,12.71,2.74-2.06-15.37-37.5-33.32-37.5-33.32s-29.48,26.63-27.43,42c.74-1,4.8-3.51,11.54-6-8.39,9.15-16.26,20.09-15.2,28.06.88-1,5.55-3.69,13.28-6.39-9.52,10.42-18.16,22.61-17,31.55.91-1,5.27-3.57,12.48-6.3-6.08,7.48-11.36,15.45-13.81,22.69a76.42,76.42,0,0,0-12.15-7.86c6,0,9.91.69,10.77,1.19-1.21-5.79-9.34-11.45-17.39-15.75,5.28.07,8.71.84,9.46,1.33-2.33-11.16-29.28-22.43-29.28-22.43s-20.2,21.1-17.87,32.26c.49-.75,3.33-2.83,8.14-5-5.66,7.16-10.85,15.6-9.65,21.39.59-.8,3.87-3,9.39-5.39-6.42,8.15-12.11,17.54-10.75,24,.61-.82,3.67-2.9,8.82-5.29-6,8.65-10.76,18-9.35,24.75.7-1,4.28-3.5,10.32-6.34-6.39,8.94-11.29,18.47-9.85,25.38,1.43-1.93,13.71-9.52,33.91-14.55l1.75,8.38-93.57,22.43L602.13,1288c35.34-4.9,59.72-.66,63.23,1.49-2.12-11.91-16-23.93-31.87-34.08,11.42.66,18.73,2.38,20.47,3.49-2.07-11.64-15.54-23.49-30.68-33.39,9.71.51,15.9,1.87,17.4,2.78-2-11.2-17-22.51-32.46-31.37,10.31.27,16.94,1.68,18.39,2.57-1.78-10-15.42-20.09-29-27.86,9,.38,14.89,1.88,16.15,2.76-3.43-19.23-49-39.9-49-39.9s-35.66,35.14-32.24,54.37c.88-1.26,5.85-4.68,14.2-8.16-10.06,12-19.38,26.18-17.6,36.16,1.05-1.34,6.78-5,16.37-8.76-11.41,13.64-21.62,29.45-19.63,40.65,1.09-1.37,6.44-4.79,15.37-8.62-8.65,11.65-15.86,24.11-17.31,34.59-4.66-11.71-16.21-24.12-29.19-35.27,11.49,2.12,18.66,4.71,20.3,6-.63-13.66-16.79-29.49-33.78-42.45,12.25,1.93,19.92,4.65,21.51,5.94-.56-12.17-15.25-26.35-30.22-37.73,10.72,1.87,17.45,4.56,18.81,5.81-1.08-23.46-52.2-55.2-52.2-55.2s-48,36.31-46.91,59.76c1.25-1.37,7.7-4.67,18.2-7.51-13.86,12.7-27.18,28.18-26.62,40.34,1.46-1.43,8.85-4.84,20.87-7.89-15.73,14.47-30.37,31.72-29.74,45.38,1.51-1.46,8.42-4.7,19.66-7.87-15.12,15.62-27.77,33.08-27.12,47.28,1.75-1.76,9.86-5.72,23.07-9.52-15.92,16.1-29,33.88-28.33,48.4,3.55-3.45,31-14.87,73.74-18.5l1.2,26.16L95,1361v-78l34-84,12-236,38,8-1.93-347.64,5.26-24.59c37.51,9.54,60.28,23.78,62.92,27.37,2.74-12.83-6.28-30.6-18.07-47.28,11.21,5.34,17.84,10.06,19.14,11.89,2.68-12.55-6-30-17.16-46.11,9.54,4.48,15.21,8.39,16.34,9.91,2.58-12.07-7.91-29.59-19.77-44.8,10.25,4.49,16.33,8.62,17.42,10.11,2.3-10.75-7.28-26.5-17.74-39.86,8.93,4.09,14.19,8,15.1,9.38,4.43-20.73-32.93-60.15-32.93-60.15s-50.21,20.71-54.64,41.44c1.4-.91,7.79-2.31,17.61-2.39-15,7.92-30.19,18.38-32.48,29.13,1.61-.91,8.84-2.2,20-2.11-17,9-33.78,20.74-36.36,32.81,1.66-.93,8.43-2.17,19-2.37-16.78,10.18-31.82,22.52-34.5,35.07,1.93-1.14,9.91-2.73,22.32-3-9.48,5.61-18.35,11.84-24.95,18.4a84.92,84.92,0,0,0-13.62-14.7c6.92,1.37,11.23,3,12.22,3.8-.27-8.25-9.91-17.95-20.07-25.91,7.38,1.26,12,3,12.95,3.76-.24-7.35-9-16-18-23,6.46,1.21,10.5,2.89,11.32,3.66C87.94,509.57,57.31,490,57.31,490S28,511.54,28.5,525.72c.76-.82,4.69-2.76,11.05-4.39-8.47,7.56-16.64,16.8-16.4,24.16.9-.85,5.39-2.86,12.67-4.6-9.62,8.62-18.6,18.92-18.33,27.17.93-.87,5.12-2.77,11.94-4.6-9.26,9.32-17,19.76-16.76,28.34,1.07-1.05,6-3.37,14-5.57-9.74,9.6-17.79,20.23-17.5,29,2.17-2.05,18.85-8.74,44.69-10.59l.39,11.88L0,619v821H2560V1022.4l-8.38,1.89-.85-12.94q4.77-.13,9.23-.07V901.62l-1.3-1,1.3.21ZM96.62,584.55q-.34.52-.65,1L94.18,584C95,584.19,95.84,584.37,96.62,584.55Zm16.93,27.27c-.21-6.4-4.92-13.5-11.47-20.35,11.56-1.42,32.57-1.83,59.23,2.8l-3.76,17.61-88.9,4-.38-11.7C94.16,604.33,111.25,609.91,113.55,611.82ZM526.05,1284a24.62,24.62,0,0,0-.43-3.5c2.72-2.07,8.26-5.31,16.32-8.82-7.26,9.56-13.49,19.56-16.51,28.64-6-8.05-14.24-16.13-23.23-23.68C515.71,1279.26,524.15,1282.45,526.05,1284ZM539,1331l-78.08,5.28-1.18-25.64c42.88-.32,71.28,8.54,75.12,11.64a31.91,31.91,0,0,0-3.65-12.66c9.41-5.23,27.15-12.84,51.41-18.13l5,27.86Zm198.48-92.43A118.85,118.85,0,0,0,729,1250c-1.84-1.43-3.83-2.81-5.89-4.13a10.67,10.67,0,0,1,1.3-1c3.88.26,6.36.78,7.07,1.18a11.87,11.87,0,0,0-1.84-4.11C731.79,1240.9,734.41,1239.75,737.48,1238.57Zm-14.73,6.22c0,.31,0,.61.07.91l-1.53-1Zm-11,44.8-1.68-8c19.84-3.34,33.85-1.54,36.65-.34Zm35.18-8.43c-1.22-5.42-6.63-10.75-13.48-15.52,1.74-.72,3.64-1.47,5.73-2.22a3.62,3.62,0,0,1,.63.27c0-.15-.08-.3-.12-.45a178.69,178.69,0,0,1,29.43-7.61l2.62,19.58Zm690.38-56.48-.15,7.13-34.3-2.55A138.26,138.26,0,0,1,1437.25,1224.68Zm13.4.29a144.65,144.65,0,0,1,31,5,19.85,19.85,0,0,0-.29,2.78,14.82,14.82,0,0,1,3.52-1.78c4.19,1.39,6.79,2.65,7.54,3.35a16.55,16.55,0,0,0-.94-5.53c10.26-2.92,27.6-6.12,49.87-6.32l-.51,17-90.33-6.72Zm413,35.76-1.88,1.62q0-.61-.08-1.22ZM1741,1214.5c-3.89,3.09-7.64,6.29-11.09,9.55a69.93,69.93,0,0,0-5.52-5.69A105.77,105.77,0,0,1,1741,1214.5Zm-19.06-1.77c-.36.88-.68,1.76-.95,2.63q-2.15-1.81-4.42-3.57C1718.52,1212.09,1720.31,1212.41,1721.92,1212.74Zm-86.3,33.84c3.13-2.47,18.72-9.38,42.69-12.44l1.39,15.72Zm58.31,4.34-1.6-18a158.54,158.54,0,0,1,28.34,1c-5.32,6.6-8.83,13.24-9.3,19.54,3.43-2.61,28.41-9.63,65.8-8.28l-1.83,24.55L1695,1251Zm104-4.21c23.44,2.66,41.5,7.88,52.41,12.15a18.81,18.81,0,0,0-1.63,6.56c.88-.74,4-2,9-3.33,1.11.56,2,1.08,2.72,1.53-7.93,7.17-14.46,14.88-16.48,22l-48.05-11.19Zm92.54,35.26-.6,14.4-40.39-9.41C1857.2,1284.64,1871.57,1281.9,1890.42,1282Zm141.11,23.71-1.34-8.81a145.68,145.68,0,0,1,31.9-.33Zm136.82-40.93-1.47-13.43a234.33,234.33,0,0,1,43.71.79Zm177-230.87a106.6,106.6,0,0,0-8.42,11.66,29.48,29.48,0,0,0-4.35-5.22C2334.37,1038.92,2338.74,1036.47,2345.35,1033.88Zm-10.57,15.45q-1,1.89-1.76,3.73c-2.17-1.51-4.48-3-6.86-4.34A70.3,70.3,0,0,1,2334.78,1049.33ZM2309.46,1079l-2-9.14c21.93-4,37.26-2,39.51-.72-.74-3.34-3-6.63-6.18-9.79a154.86,154.86,0,0,1,33.9-9.89l2,14.35Z" fill="#6b6455"/><path d="M0,603.22v8a14.81,14.81,0,0,1,4,1.7C3.88,609.82,2.37,606.53,0,603.22Z" fill="#6b6455"/><path d="M0,593.75v1.86a2.54,2.54,0,0,1,.28.2A11.34,11.34,0,0,0,0,593.75Z" fill="#6b6455"/></g><g id="41899435-d336-4ae7-ac4d-1e4ff8be6536" data-name="trees-front"><path d="M2496.62,1175.27c2.55-2.84,15.79-9.75,37.38-15.79-28.35,26.42-55.54,58.53-54.18,83.59,3-3,18.17-10.13,42.88-16.61-20.19,18.89-39.48,40-50.67,60.1-9.58-6.39-16.08-10.21-16.08-10.21s-9.74,7.75-22.44,19.59a306,306,0,0,0-33.76-28c21.72,2.89,35.39,7.37,38.25,9.58-1.5-21.47-28-45.9-55-65.37,19,2.85,31,7.32,33.48,9.47-2.9-41.39-94.55-95.3-94.55-95.3s-64.73,51.47-78,92c-36.31-45.06-103.42-87.31-103.42-87.31s-117.22,87.55-115,144.6c3.05-3.31,18.79-11.23,44.37-18a389.76,389.76,0,0,0-35.1,35.68c-29.41-60.48-131.46-128.79-131.46-128.79s-66.24,46.66-106.1,97a345,345,0,0,0-32.52-32.84c22.95,5.93,37.08,13,39.83,15.9,1.76-51.11-103.68-129-103.68-129s-110.53,70.44-112.29,121.55c2.95-2.75,17.53-8.79,40.83-13.13-32.32,25.16-63.94,56.42-64.85,82.94,3.43-2.85,20.07-9,46.7-13.48-18.09,14.14-35.71,29.79-49.06,45.59-11.48-21.25-35.57-43.47-60-62.31,23.92,4.32,38.91,10.43,41.95,13.24-2.09-52.41-115.85-124-115.85-124s-107.7,80.44-105.62,132.86c2.8-3,17.26-10.32,40.76-16.53-19.75,17.88-39,38.25-50.2,57.69-8.65-42.61-89.87-99-89.87-99s-91.44,62.14-91.65,105.28c2.42-2.39,14.56-7.84,34.1-12.09-12.54,10.37-24.92,21.88-34.51,33.5-9.79-13.88-24.23-28-39.17-40.62,19.84,4.17,32.14,9.25,34.63,11.48.1-19.92-22.71-44.3-46.21-64.12,17.35,3.94,28.11,8.9,30.24,11,.19-38.39-80.66-94.48-80.66-94.48s-81.38,55.3-81.56,93.7c2.15-2.13,13-7,30.35-10.76-13.62,11.26-27,24-36,36.64-8.61-19.71-30.63-40.9-53.06-58.74,20.65,4.06,33.55,9.55,36.14,12-1.11-45.41-98.65-108.94-98.65-108.94s-94.33,68.21-93.22,113.62c2.47-2.59,15.08-8.7,35.52-13.77-20.48,18-40.44,39-48.92,58.26-1.84-26-29.61-58-58.47-84.44,23.11,6.27,37.3,13.54,40,16.55,2.4-51.62-103.17-131.57-103.17-131.57S486.67,1183.41,484.27,1235c3-2.74,17.82-8.66,41.41-12.77-33,25-65.29,56.22-66.53,83,3.5-2.84,20.39-8.81,47.34-13a388.06,388.06,0,0,0-39.67,34.22c-7.79-5.1-12.85-8.08-12.85-8.08s-6,4.8-14.8,12.62c-10.76-11.47-23.8-22.71-37.12-33,23.13,3.79,37.61,9,40.6,11.48-.92-23-28.52-50-56.69-71.69,20.25,3.66,32.93,8.83,35.5,11.2-1.77-44.36-98-105-98-105s-91.16,68.08-89.39,112.44c2.37-2.57,14.61-8.73,34.5-14-19.31,17.48-38.07,37.76-46.37,56.41-7.9-26.66-34.85-57-63.43-83.1,26.47,6.63,42.75,14.09,46,17.23,1.16-26.78-28.25-60.74-58.84-88.62,23.13,6.2,37.35,13.42,40.1,16.42,2.23-51.62-103.6-131.22-103.6-131.22S33.89,1059.86,0,1095.29v45q4.35-.94,9.21-1.81Q4.58,1142,0,1145.69V1440H2560V1079C2531.61,1105.45,2495,1145.53,2496.62,1175.27ZM218.18,1311.54a34.07,34.07,0,0,0-.46,6.87,25.85,25.85,0,0,1,6-3.57,8.8,8.8,0,0,1,.69.58c0-.3,0-.61,0-.91,6.7-3.08,17.87-7.09,32.81-10.78-14,12.69-27.5,26.54-37.84,40.32-10.47-15.43-23.87-31-38.29-45.82C198.37,1303,211,1307.93,218.18,1311.54Zm501.28,4.78a41.29,41.29,0,0,0-2.93,15.37c2.89-2.7,17.33-9,40.7-14.38-12.57,11.07-24.81,23-34.88,35.1-12.29-17.8-29.53-35.9-47.41-52.37C698.68,1306.07,714.21,1312.74,719.46,1316.32ZM701,1386.7q-1.95-2.06-3.92-4.11,2.55.72,5,1.44Q701.48,1385.37,701,1386.7Zm265.86-60.23A308.61,308.61,0,0,0,943,1348.24c-3.32-3.66-6.87-7.31-10.57-10.91C935.64,1335,947.78,1330.28,966.85,1326.47Zm-30.4-5.07a38.49,38.49,0,0,0-4.31,15.61c-8.32-8.06-17.45-15.91-26.72-23.31A214.53,214.53,0,0,1,936.45,1321.4Zm374.12,23.51a74.42,74.42,0,0,0-5.35,13.43,304.64,304.64,0,0,0-25.19-23.58C1294.78,1338.1,1305.29,1342.1,1310.57,1344.9Zm4.7,25q-1.22-1.54-2.5-3.08c2.76-1.22,6.06-2.54,9.89-3.93C1320.29,1365.08,1317.81,1367.43,1315.26,1369.9Zm486.41-48q-4-4.16-8.15-8.25c4.8-1.62,10.22-3.26,16.21-4.86q2.42.94,4.46,1.82C1810,1314.32,1805.78,1318.09,1801.67,1321.92Zm218.77-9.71c-2.58,3.85-4.91,7.69-6.94,11.49-7.25-6.62-14.78-13.07-22.36-19.24A271.89,271.89,0,0,1,2020.43,1312.21Zm19.86,38.6q-3.49-4-7.25-8c6.49-2.11,14-4.27,22.42-6.35C2050.33,1341.15,2045.25,1345.94,2040.29,1350.81Zm201.26-94.58c-1.82,2.66-3.5,5.31-5,7.94-5.12-4.29-10.35-8.48-15.59-12.52C2228.71,1253.06,2235.6,1254.63,2241.55,1256.24Zm16.64,27.62q-1.71-1.71-3.48-3.41,4.63-1.5,10-3Q2261.41,1280.61,2258.19,1283.86Zm-1.31-46.88c-1.7-2.95-3.59-5.9-5.64-8.86a160.63,160.63,0,0,1,22.22-8.24C2267.77,1225.35,2262.14,1231.1,2256.88,1237Zm243.05,69.75-1.86-1.45q2.19-.67,4.5-1.34Z" fill="#3d3d3d"/></g></svg>